<?xml version="1.0" encoding="utf-8" standalone="yes"?><svg xmlns="http://www.w3.org/2000/svg" xmlns:xlink="http://www.w3.org/1999/xlink" version="1.1" width="500" height="300"><!--Generated by Aspose.Words for .NET 23.8.0--><defs><clipPath id="clip001"><path d="M-17.76667,-0.5 L139.5667,-0.5 L139.5667,105.9 L-17.76667,105.9 Z" clip-rule="evenodd" /></clipPath></defs><g transform="translate(0.1333415,0)"><g transform="translate(348.1333,129.3187)"><path d="M113.5333,55.1 L98.97373,49.70734 L111.5991,40.84032 L96.09861,39.28936 L105.9277,27.55 L90.54284,29.94787 L96.90806,16.13716 L82.6796,22.3155 L85.15,7.38238 L73.05555,16.92284 L71.45767,1.877481 L62.32244,14.13213 L56.76667,0 L51.21089,14.13213 L42.07566,1.877481 L40.47779,16.92284 L28.38333,7.38238 L30.85373,22.3155 L16.62527,16.13716 L22.9905,29.94787 L7.605682,27.55 L17.43472,39.28936 L1.934272,40.84032 L14.5596,49.70734 L0,55.1 L14.5596,60.49266 L1.934272,69.35967 L17.43472,70.91064 L7.605682,82.65 L22.9905,80.25213 L16.62527,94.06284 L30.85373,87.8845 L28.38333,102.8176 L40.47779,93.27716 L42.07566,108.3225 L51.21089,96.06787 L56.76667,110.2 L62.32244,96.06787 L71.45767,108.3225 L73.05555,93.27716 L85.15,102.8176 L82.6796,87.8845 L96.90806,94.06284 L90.54284,80.25213 L105.9277,82.65 L96.09861,70.91064 L111.5991,69.35967 L98.97373,60.49266 Z" fill="#ffffff" fill-rule="evenodd" /><path d="M113.5333,55.1 L98.97373,49.70734 L111.5991,40.84032 L96.09861,39.28936 L105.9277,27.55 L90.54284,29.94787 L96.90806,16.13716 L82.6796,22.3155 L85.15,7.38238 L73.05555,16.92284 L71.45767,1.877481 L62.32244,14.13213 L56.76667,0 L51.21089,14.13213 L42.07566,1.877481 L40.47779,16.92284 L28.38333,7.38238 L30.85373,22.3155 L16.62527,16.13716 L22.9905,29.94787 L7.605682,27.55 L17.43472,39.28936 L1.934272,40.84032 L14.5596,49.70734 L0,55.1 L14.5596,60.49266 L1.934272,69.35967 L17.43472,70.91064 L7.605682,82.65 L22.9905,80.25213 L16.62527,94.06284 L30.85373,87.8845 L28.38333,102.8176 L40.47779,93.27716 L42.07566,108.3225 L51.21089,96.06787 L56.76667,110.2 L62.32244,96.06787 L71.45767,108.3225 L73.05555,93.27716 L85.15,102.8176 L82.6796,87.8845 L96.90806,94.06284 L90.54284,80.25213 L105.9277,82.65 L96.09861,70.91064 L111.5991,69.35967 L98.97373,60.49266 Z" stroke-width="1" stroke-miterlimit="13.33333" stroke="#000000" fill="none" fill-rule="evenodd" /></g><g transform="translate(3.8,3.8)"><g><g><text><tspan x="0" y="17.428" font-family="Times New Roman" font-weight="normal" font-style="normal" font-size="18.66667" fill="#000000">Times</tspan><tspan x="46.65733" y="17.428" font-family="Times New Roman" font-weight="normal" font-style="normal" font-size="18.66667" fill="#000000"> </tspan><tspan x="51.324" y="17.428" font-family="Times New Roman" font-weight="normal" font-style="normal" font-size="18.66667" fill="#000000">New</tspan><tspan x="86.57067" y="17.428" font-family="Times New Roman" font-weight="normal" font-style="normal" font-size="18.66667" fill="#000000"> </tspan><tspan x="91.23734" y="17.428" font-family="Times New Roman" font-weight="normal" font-style="normal" font-size="18.66667" fill="#000000">Roman</tspan><tspan x="145.1587" y="17.428" font-family="Times New Roman" font-weight="normal" font-style="normal" font-size="18.66667" fill="#000000"> </tspan><tspan x="149.8253" y="17.428" font-family="Times New Roman" font-weight="normal" font-style="normal" font-size="18.66667" fill="#000000">14</tspan></text></g><g transform="translate(0,38.01733)"><text><tspan x="0" y="17.428" font-family="Times New Roman" font-weight="normal" font-style="normal" font-size="18.66667" fill="#000000">width</tspan><tspan x="42.52" y="17.428" font-family="Times New Roman" font-weight="normal" font-style="normal" font-size="18.66667" fill="#000000"> </tspan><tspan x="47.18666" y="17.428" font-family="Times New Roman" font-weight="normal" font-style="normal" font-size="18.66667" fill="#000000">13.22</tspan><tspan x="89.18667" y="17.428" font-family="Times New Roman" font-weight="normal" font-style="normal" font-size="18.66667" fill="#000000"> </tspan><tspan x="93.85333" y="17.428" font-family="Times New Roman" font-weight="normal" font-style="normal" font-size="18.66667" fill="#000000">cm</tspan></text></g><g transform="translate(0,76.03467)"><text><tspan x="0" y="17.428" font-family="Times New Roman" font-weight="normal" font-style="normal" font-size="18.66667" fill="#000000">height</tspan><tspan x="46.65733" y="17.428" font-family="Times New Roman" font-weight="normal" font-style="normal" font-size="18.66667" fill="#000000"> </tspan><tspan x="51.324" y="17.428" font-family="Times New Roman" font-weight="normal" font-style="normal" font-size="18.66667" fill="#000000">7.94</tspan><tspan x="83.99067" y="17.428" font-family="Times New Roman" font-weight="normal" font-style="normal" font-size="18.66667" fill="#000000"> </tspan><tspan x="88.65733" y="17.428" font-family="Times New Roman" font-weight="normal" font-style="normal" font-size="18.66667" fill="#000000">cm</tspan></text></g><g transform="translate(0,114.052)" /><g transform="translate(0,152.0693)"><a xlink:href="https://products.groupdocs.app/conversion/total"><g><text><tspan x="68.24133" y="17.428" font-family="Times New Roman" font-weight="normal" font-style="normal" font-size="18.66667" fill="#0000ff">https://products.groupdocs.app/conversion/total</tspan></text></g></a><path d="M68.24133,19.91628 L423.892,19.91628 " stroke-width="0.9114583" stroke-miterlimit="13.33333" stroke="#0000ff" fill="none" fill-rule="evenodd" /></g><g transform="translate(0,190.0867)" /><g transform="translate(0,228.104)"><text><tspan x="0" y="17.428" font-family="Times New Roman" font-weight="normal" font-style="normal" font-size="18.66667" fill="#000000">Microsoft</tspan><tspan x="73.61867" y="17.428" font-family="Times New Roman" font-weight="normal" font-style="normal" font-size="18.66667" fill="#000000"> </tspan><tspan x="78.28533" y="17.428" font-family="Times New Roman" font-weight="normal" font-style="normal" font-size="18.66667" fill="#000000">Word</tspan></text></g><g transform="translate(0,266.1213)"><text><tspan x="0" y="17.428" font-family="Times New Roman" font-weight="normal" font-style="normal" font-size="18.66667" fill="#000000">Office</tspan><tspan x="47.66933" y="17.428" font-family="Times New Roman" font-weight="normal" font-style="normal" font-size="18.66667" fill="#000000"> </tspan><tspan x="52.336" y="17.428" font-family="Times New Roman" font-weight="normal" font-style="normal" font-size="18.66667" fill="#000000">2007</tspan></text></g></g></g><g transform="translate(141,17.53333)"><path d="M0,0 L0,116 L142,116 L142,0 Z" fill="#ffffff" fill-opacity="0.4980392" fill-rule="evenodd" /><path d="M0,0 L0,116 L142,116 L142,0 Z" stroke-width="1" stroke-miterlimit="13.33333" stroke="#000000" fill="none" fill-rule="evenodd" /><g transform="translate(10.1,5.3)" clip-path="url(#clip001)"><text><tspan x="0" y="17.428" font-family="Times New Roman" font-weight="normal" font-style="normal" font-size="18.66667" fill="#000000">Text</tspan><tspan x="34.20667" y="17.428" font-family="Times New Roman" font-weight="normal" font-style="normal" font-size="18.66667" fill="#000000"> </tspan><tspan x="38.87333" y="17.428" font-family="Times New Roman" font-weight="normal" font-style="normal" font-size="18.66667" fill="#000000">Box</tspan><tspan x="0" y="55.44533" font-family="Times New Roman" font-weight="normal" font-style="normal" font-size="18.66667" fill="#000000">SVG</tspan><tspan x="37.34267" y="55.44533" font-family="Times New Roman" font-weight="normal" font-style="normal" font-size="18.66667" fill="#000000"> </tspan><tspan x="42.00933" y="55.44533" font-family="Times New Roman" font-weight="normal" font-style="normal" font-size="18.66667" fill="#000000">500</tspan><tspan x="70.00933" y="55.44533" font-family="Times New Roman" font-weight="normal" font-style="normal" font-size="18.66667" fill="#000000"> </tspan><tspan x="74.676" y="55.44533" font-family="Times New Roman" font-weight="normal" font-style="normal" font-size="18.66667" fill="#000000">px</tspan><tspan x="0" y="93.46267" font-family="Times New Roman" font-weight="normal" font-style="normal" font-size="18.66667" fill="#000000">300px</tspan></text></g></g><g transform="translate(215.4,44.15067)"><path d="M0,18.45014 C0,14.19299 1.47334,10.0643 4.168453,6.76903 L4.168453,6.76903 C7.670239,2.487453 12.918,0 18.44902,0 L68.35098,0 L68.35098,0 C73.882,0 79.12976,2.487453 82.63155,6.76903 L82.63155,6.76903 C85.32666,10.0643 86.8,14.19299 86.8,18.45014 L86.8,52.54986 L86.8,52.54986 C86.8,56.80701 85.32666,60.9357 82.63155,64.23096 L82.63155,64.23096 C79.12976,68.51254 73.882,70.99999 68.35098,70.99999 L18.44902,70.99999 L18.44902,70.99999 C12.918,70.99999 7.670239,68.51254 4.168453,64.23096 L4.168453,64.23096 C1.47334,60.9357 0,56.80701 0,52.54986 Z" fill="#eaf1dd" fill-opacity="0.3960784" fill-rule="evenodd" /><path d="M0,18.45014 C0,14.19299 1.47334,10.0643 4.168453,6.76903 L4.168453,6.76903 C7.670239,2.487453 12.918,0 18.44902,0 L68.35098,0 L68.35098,0 C73.882,0 79.12976,2.487453 82.63155,6.76903 L82.63155,6.76903 C85.32666,10.0643 86.8,14.19299 86.8,18.45014 L86.8,52.54986 L86.8,52.54986 C86.8,56.80701 85.32666,60.9357 82.63155,64.23096 L82.63155,64.23096 C79.12976,68.51254 73.882,70.99999 68.35098,70.99999 L18.44902,70.99999 L18.44902,70.99999 C12.918,70.99999 7.670239,68.51254 4.168453,64.23096 L4.168453,64.23096 C1.47334,60.9357 0,56.80701 0,52.54986 Z" stroke-width="1" stroke-miterlimit="13.33333" stroke="#000000" fill="none" fill-rule="evenodd" /></g><g transform="translate(52.93333,151.3016)"><path d="M2.100663,17.51779 L29.99152,116.419 L91.366,82.54888 L63.47515,-16.35229 Z" fill="#c00000" fill-opacity="0.1960784" fill-rule="evenodd" /><path d="M2.100663,17.51779 L29.99152,116.419 L91.366,82.54888 L63.47515,-16.35229 Z" stroke-width="1" stroke-miterlimit="13.33333" stroke="#000000" fill="none" fill-rule="evenodd" /></g></g></svg>