<?xml version="1.0" standalone="no"?>
<!DOCTYPE svg PUBLIC "-//W3C//DTD SVG 20010904//EN"
 "http://www.w3.org/TR/2001/REC-SVG-20010904/DTD/svg10.dtd">
<svg version="1.0" xmlns="http://www.w3.org/2000/svg"
 width="592.000000pt" height="247.500000pt" viewBox="0 0 1183.000000 495.000000"
 preserveAspectRatio="xMidYMid meet">

<g transform="translate(0.000000,495.000000) scale(0.100000,-0.100000)"
fill="#000000" stroke="none">
<path d="M7598 4275 c3 -71 6 -132 8 -134 7 -8 3 185 -5 224 -5 24 -6 -12 -3
-90z"/>
<path d="M7321 4349 c-1 -9 -8 -22 -16 -29 -8 -7 -15 -17 -15 -23 0 -5 9 2 21
17 11 14 18 32 16 39 -4 7 -6 6 -6 -4z"/>
<path d="M7172 4330 c-7 -11 -18 -17 -27 -14 -8 4 -15 2 -15 -4 0 -5 9 -12 20
-15 10 -3 18 -1 17 3 -1 4 3 8 8 8 6 0 9 -4 8 -9 -2 -5 2 -9 7 -9 12 0 13 30
2 47 -6 9 -11 7 -20 -7z"/>
<path d="M7020 4336 c0 -3 9 -10 20 -16 11 -6 20 -8 20 -6 0 3 -9 10 -20 16
-11 6 -20 8 -20 6z"/>
<path d="M7313 4257 c-32 -47 -28 -54 7 -14 30 35 36 47 23 47 -5 0 -18 -15
-30 -33z"/>
<path d="M6734 4215 c-3 -14 -4 -43 0 -64 4 -29 1 -42 -15 -59 -11 -12 -15
-22 -9 -22 7 0 7 -6 0 -21 -7 -11 -9 -23 -6 -26 5 -5 10 5 32 62 6 16 9 10 14
-25 l7 -45 1 43 c2 50 23 57 46 15 8 -16 15 -23 16 -17 0 22 -40 63 -57 57
-14 -5 -15 -1 -8 28 12 52 11 92 -2 96 -7 3 -15 -7 -19 -22z m17 -45 c-9 -23
-10 -23 -10 11 -1 20 2 39 7 43 11 12 14 -27 3 -54z"/>
<path d="M5418 4223 c7 -3 16 -2 19 1 4 3 -2 6 -13 5 -11 0 -14 -3 -6 -6z"/>
<path d="M5370 4190 c-9 -6 -10 -10 -3 -10 6 0 15 5 18 10 8 12 4 12 -15 0z"/>
<path d="M5273 4145 c-27 -19 -49 -75 -79 -204 -33 -144 -42 -169 -156 -456
-113 -283 -131 -335 -125 -342 3 -2 23 42 45 99 22 57 70 180 107 273 94 239
112 293 146 434 29 122 51 179 73 193 18 12 31 9 18 -4 -21 -21 -13 -32 8 -13
16 14 17 20 8 27 -18 11 -20 10 -45 -7z"/>
<path d="M6844 4125 c-8 -45 2 -85 23 -85 18 0 42 28 43 50 0 8 -6 4 -13 -10
-23 -45 -42 -32 -41 28 2 60 -2 67 -12 17z"/>
<path d="M9011 4139 c-1 -25 18 -93 24 -87 2 2 -3 28 -10 58 -8 33 -14 45 -14
29z"/>
<path d="M10090 4130 c0 -17 -5 -41 -11 -53 -9 -20 -9 -20 4 -4 13 16 15 15
21 -14 3 -18 9 -30 12 -26 3 3 1 22 -6 41 -6 20 -9 44 -5 55 3 11 1 22 -5 26
-6 4 -10 -6 -10 -25z"/>
<path d="M6884 4143 c15 -4 16 -7 5 -14 -9 -7 4 -7 36 -3 59 8 76 17 23 13
-20 -2 -40 0 -44 4 -4 4 -14 6 -23 6 -12 -1 -11 -3 3 -6z"/>
<path d="M8642 4130 c0 -14 2 -19 5 -12 2 6 2 18 0 25 -3 6 -5 1 -5 -13z"/>
<path d="M8661 4127 c0 -17 -13 -41 -31 -58 -24 -25 -28 -34 -20 -54 11 -29
24 -34 15 -6 -4 13 4 34 20 60 17 24 25 48 22 63 -4 20 -4 20 -6 -5z"/>
<path d="M7045 4130 c-12 -4 -27 -16 -35 -26 -14 -18 -14 -18 5 -3 35 28 54
30 66 8 6 -12 8 -32 4 -46 -4 -16 -2 -22 5 -18 13 8 13 51 0 76 -12 21 -15 22
-45 9z"/>
<path d="M8584 4095 c1 -22 -3 -55 -8 -74 -8 -32 -7 -34 8 -19 9 10 13 24 10
33 -4 9 -1 20 5 24 10 6 9 16 -1 42 l-14 33 0 -39z"/>
<path d="M5961 4103 c12 -15 12 -16 -4 -10 -11 4 -16 3 -12 -3 3 -5 1 -20 -6
-32 -11 -22 -11 -22 7 -6 27 23 55 7 50 -30 -2 -15 -1 -20 1 -11 2 10 14 20
26 24 16 5 18 8 7 11 -35 12 -60 28 -59 38 3 24 -2 36 -12 36 -8 0 -7 -6 2
-17z"/>
<path d="M6515 4115 c6 -2 22 -6 38 -9 30 -7 37 -40 15 -66 -11 -12 -10 -12 5
-1 14 11 17 11 17 0 0 -8 6 -3 13 11 14 27 47 40 47 18 0 -7 -7 -24 -16 -36
-8 -12 -11 -22 -6 -22 6 0 13 7 16 16 5 13 9 14 21 4 19 -16 19 -11 -1 28 -18
36 -29 39 -56 15 -18 -16 -18 -16 -12 2 9 24 -20 45 -60 44 -17 0 -26 -2 -21
-4z"/>
<path d="M6087 4103 c-4 -3 -7 -14 -7 -24 0 -10 -8 -20 -17 -22 -17 -4 -17 -5
0 -6 9 0 31 -16 47 -33 33 -37 42 -34 10 2 -25 29 -25 35 2 47 15 6 18 12 10
17 -7 4 -12 2 -12 -3 0 -6 -7 -11 -15 -11 -20 0 -19 17 3 29 14 9 15 10 1 11
-9 0 -19 -3 -22 -7z"/>
<path d="M8028 4103 c7 -3 16 -2 19 1 4 3 -2 6 -13 5 -11 0 -14 -3 -6 -6z"/>
<path d="M8435 4035 c0 -73 7 -95 18 -54 6 24 -2 111 -11 121 -4 4 -7 -27 -7
-67z"/>
<path d="M9121 4094 c0 -11 3 -14 6 -6 3 7 2 16 -1 19 -3 4 -6 -2 -5 -13z"/>
<path d="M6184 4084 c3 -8 -1 -31 -9 -51 -8 -20 -14 -38 -11 -40 2 -2 9 11 17
28 l13 33 9 -30 c5 -16 12 -77 16 -136 7 -112 27 -170 29 -81 1 77 -44 293
-61 293 -5 0 -6 -7 -3 -16z m53 -261 c-3 -10 -5 -4 -5 12 0 17 2 24 5 18 2 -7
2 -21 0 -30z"/>
<path d="M6390 4089 c0 -5 5 -7 10 -4 6 3 10 8 10 11 0 2 -4 4 -10 4 -5 0 -10
-5 -10 -11z"/>
<path d="M6970 4086 c0 -9 5 -16 10 -16 6 0 10 4 10 9 0 6 -4 13 -10 16 -5 3
-10 -1 -10 -9z"/>
<path d="M7696 4083 c-6 -14 -5 -15 5 -6 7 7 10 15 7 18 -3 3 -9 -2 -12 -12z"/>
<path d="M8093 4088 c51 -14 56 -32 17 -71 -17 -17 -36 -41 -42 -52 -6 -11 10
3 35 30 25 28 46 57 47 67 0 16 -48 39 -79 37 -9 -1 1 -6 22 -11z"/>
<path d="M7213 4045 c0 -27 2 -38 4 -22 2 15 2 37 0 50 -2 12 -4 0 -4 -28z"/>
<path d="M8725 4074 c-10 -8 -14 -14 -9 -14 6 0 14 4 20 10 14 14 32 -2 49
-45 l15 -40 -6 35 c-8 42 -10 47 -32 59 -12 6 -24 5 -37 -5z"/>
<path d="M8992 4070 c-18 -29 -15 -38 4 -12 9 13 14 25 12 27 -2 2 -9 -5 -16
-15z"/>
<path d="M10010 4075 c-11 -13 -10 -14 4 -9 9 3 16 10 16 15 0 13 -6 11 -20
-6z"/>
<path d="M6250 4065 c-19 -22 -8 -25 13 -3 9 10 13 18 8 18 -5 0 -14 -7 -21
-15z"/>
<path d="M6472 4065 c4 -6 12 -22 17 -36 6 -15 10 -18 10 -8 1 9 -7 25 -16 36
-10 10 -15 14 -11 8z"/>
<path d="M8931 4063 c0 -11 3 -13 6 -5 2 6 10 9 15 6 7 -4 8 -2 4 4 -11 18
-26 14 -25 -5z"/>
<path d="M9401 4076 c2 -2 22 -6 44 -9 27 -4 35 -3 25 3 -14 9 -79 15 -69 6z"/>
<path d="M9929 4063 c-13 -16 -12 -17 4 -4 16 13 21 21 13 21 -2 0 -10 -8 -17
-17z"/>
<path d="M5582 4061 c-8 -4 21 -6 65 -4 105 6 115 11 23 12 -41 0 -81 -3 -88
-8z"/>
<path d="M6301 4054 c0 -11 3 -14 6 -6 3 7 2 16 -1 19 -3 4 -6 -2 -5 -13z"/>
<path d="M6360 4055 c-14 -17 -10 -47 8 -51 7 -1 8 0 2 3 -14 7 -13 36 2 51 7
7 9 12 6 12 -3 0 -11 -7 -18 -15z"/>
<path d="M6410 4046 c0 -28 30 -50 58 -43 13 4 12 5 -4 6 -25 1 -49 25 -40 40
4 5 2 12 -4 16 -6 4 -10 -5 -10 -19z"/>
<path d="M9131 4054 c0 -11 3 -14 6 -6 3 7 2 16 -1 19 -3 4 -6 -2 -5 -13z"/>
<path d="M9295 4059 c-4 -6 -4 -13 -1 -16 3 -4 6 -1 6 5 0 19 18 14 23 -5 4
-14 5 -12 6 5 1 23 -22 31 -34 11z"/>
<path d="M9620 4049 c-7 -11 -10 -23 -7 -25 2 -2 9 7 15 21 14 30 7 33 -8 4z"/>
<path d="M9684 4045 c-3 -14 -16 -32 -27 -40 -12 -8 -17 -15 -12 -15 19 1 42
25 49 53 3 15 4 27 1 27 -2 0 -7 -11 -11 -25z"/>
<path d="M9752 4058 c-6 -6 -12 -17 -12 -22 0 -6 5 -3 11 7 11 19 44 23 52 7
3 -6 4 -5 3 2 -3 18 -38 22 -54 6z"/>
<path d="M7878 4053 c12 -2 30 -2 40 0 9 3 -1 5 -23 4 -22 0 -30 -2 -17 -4z"/>
<path d="M7953 4053 c9 -2 25 -2 35 0 9 3 1 5 -18 5 -19 0 -27 -2 -17 -5z"/>
<path d="M8038 4053 c12 -2 32 -2 45 0 12 2 2 4 -23 4 -25 0 -35 -2 -22 -4z"/>
<path d="M8506 4045 c-3 -10 -4 -20 -1 -23 3 -3 5 1 5 9 1 10 5 8 15 -5 8 -11
15 -15 15 -10 0 6 -6 18 -13 28 -13 18 -14 18 -21 1z"/>
<path d="M10031 4034 c0 -11 3 -14 6 -6 3 7 2 16 -1 19 -3 4 -6 -2 -5 -13z"/>
<path d="M7609 4023 c-13 -16 -12 -17 4 -4 16 13 21 21 13 21 -2 0 -10 -8 -17
-17z"/>
<path d="M8365 4030 c-6 -9 11 -50 21 -50 2 0 0 9 -6 20 -6 11 -8 25 -5 30 3
6 4 10 1 10 -3 0 -8 -4 -11 -10z"/>
<path d="M9865 4030 c3 -5 8 -10 11 -10 2 0 4 5 4 10 0 6 -5 10 -11 10 -5 0
-7 -4 -4 -10z"/>
<path d="M9960 4025 c0 -8 4 -15 10 -15 5 0 7 7 4 15 -4 8 -8 15 -10 15 -2 0
-4 -7 -4 -15z"/>
<path d="M6040 4026 c0 -3 5 -15 12 -26 16 -26 5 -35 -24 -19 -21 11 -22 11
-9 -4 7 -10 22 -17 32 -17 24 0 26 42 4 60 -8 7 -15 10 -15 6z"/>
<path d="M6231 4014 c0 -11 3 -14 6 -6 3 7 2 16 -1 19 -3 4 -6 -2 -5 -13z"/>
<path d="M8292 4010 c0 -14 2 -19 5 -12 2 6 2 18 0 25 -3 6 -5 1 -5 -13z"/>
<path d="M8675 4020 c-3 -5 -1 -10 4 -10 6 0 11 5 11 10 0 6 -2 10 -4 10 -3 0
-8 -4 -11 -10z"/>
<path d="M8891 4020 c0 -8 4 -22 9 -30 12 -18 12 -2 0 25 -6 13 -9 15 -9 5z"/>
<path d="M9492 4010 c0 -14 2 -19 5 -12 2 6 2 18 0 25 -3 6 -5 1 -5 -13z"/>
<path d="M6260 3999 c-22 -18 -22 -19 -3 -10 12 6 25 16 28 21 9 15 3 12 -25
-11z"/>
<path d="M8957 4001 c-4 -17 -3 -21 5 -13 5 5 8 16 6 23 -3 8 -7 3 -11 -10z"/>
<path d="M8329 3993 c-13 -16 -12 -17 4 -4 16 13 21 21 13 21 -2 0 -10 -8 -17
-17z"/>
<path d="M7201 3976 c-1 -28 -71 -147 -81 -141 -6 3 -19 -13 -31 -37 -11 -24
-36 -54 -55 -68 -18 -14 -34 -29 -34 -33 0 -4 16 4 35 19 20 15 50 28 66 29
l31 3 -6 -47 c-4 -29 -3 -40 2 -31 15 24 24 120 12 120 -5 0 -10 -6 -10 -14 0
-7 -9 -16 -20 -19 -11 -3 -20 -2 -20 2 0 7 60 92 71 101 14 10 51 109 46 122
-3 8 -6 5 -6 -6z"/>
<path d="M9338 3983 c7 -3 16 -2 19 1 4 3 -2 6 -13 5 -11 0 -14 -3 -6 -6z"/>
<path d="M9822 3960 c0 -14 2 -19 5 -12 2 6 2 18 0 25 -3 6 -5 1 -5 -13z"/>
<path d="M3785 3941 c-4 -12 -4 -39 -1 -59 5 -34 3 -39 -27 -57 -17 -11 -33
-30 -35 -43 -5 -32 24 -39 53 -12 l23 22 7 -21 c3 -12 11 -21 17 -21 6 0 7 9
3 23 -5 12 -10 56 -12 97 -5 78 -16 107 -28 71z m5 -116 c0 -14 -32 -65 -40
-65 -16 0 -12 32 7 52 15 17 33 24 33 13z"/>
<path d="M2257 3943 c-4 -3 -7 -26 -7 -50 l0 -43 -45 0 c-35 0 -45 -4 -45 -16
0 -11 -5 -14 -17 -10 -10 4 -14 4 -10 0 9 -9 -23 -45 -34 -38 -5 3 -6 -2 -3
-10 3 -9 1 -16 -5 -16 -6 0 -11 -7 -11 -17 0 -30 -15 -1 -19 39 -2 13 -31 1
-57 -23 -15 -13 -24 -18 -20 -11 9 16 6 15 -33 -4 -18 -9 -35 -14 -38 -11 -3
4 7 9 22 13 19 5 23 9 14 15 -7 4 -22 3 -33 -3 -19 -10 -18 -8 3 15 13 14 26
26 30 25 11 -2 41 14 41 21 0 15 -66 -2 -88 -22 -20 -18 -24 -19 -32 -7 -14
21 -12 30 5 36 18 7 20 34 3 34 -36 -1 -65 -51 -69 -116 -3 -44 -1 -49 17 -50
12 -1 26 -4 33 -8 6 -4 11 -2 11 5 0 10 3 10 12 1 14 -14 78 -16 78 -2 0 5
-13 7 -29 4 -23 -5 -29 -2 -34 16 -5 21 -5 21 15 3 12 -10 18 -13 15 -7 -4 7
0 15 9 18 21 8 26 8 20 -2 -7 -11 50 -34 76 -30 13 2 28 -4 35 -12 10 -13 12
-11 13 13 0 15 5 27 10 27 5 0 9 3 9 8 -4 23 3 34 17 28 8 -3 13 -2 10 3 -3 5
1 15 10 22 13 10 17 10 24 -1 5 -8 6 -18 4 -22 -3 -4 0 -8 5 -8 6 0 11 -13 11
-30 0 -52 53 -35 80 27 8 17 18 29 23 26 4 -3 7 17 6 44 -1 26 1 59 6 73 7 22
6 23 -8 11 -15 -12 -17 -10 -13 18 3 30 -3 39 -17 24z m-67 -138 c0 -8 -2 -15
-4 -15 -2 0 -6 7 -10 15 -3 8 -1 15 4 15 6 0 10 -7 10 -15z m-140 -54 c0 -6
-4 -13 -10 -16 -5 -3 -10 1 -10 9 0 9 5 16 10 16 6 0 10 -4 10 -9z m159 -18
c0 -25 -1 -25 -8 -8 -5 11 -7 23 -4 28 8 14 13 7 12 -20z m-173 -30 c-7 -7
-26 7 -26 19 0 6 6 6 15 -2 9 -7 13 -15 11 -17z"/>
<path d="M3343 3933 c-7 -3 -13 -16 -13 -29 0 -14 -7 -27 -15 -30 -8 -4 -15
-11 -15 -16 0 -6 7 -8 15 -4 9 3 15 0 15 -9 0 -8 -8 -15 -18 -15 -49 0 -79
-60 -51 -100 8 -11 9 -7 4 16 -4 22 -1 34 12 46 19 17 63 33 63 23 0 -15 -29
-73 -44 -88 -16 -15 -16 -17 -1 -17 8 0 25 16 36 35 15 24 25 33 33 26 12 -10
71 -21 126 -24 38 -2 41 7 25 66 -6 23 -4 27 15 27 12 0 35 -15 53 -35 27 -31
36 -35 76 -34 25 1 38 3 28 6 -17 4 -17 7 -3 28 9 13 13 31 10 39 -15 38 -68
1 -58 -40 9 -35 -7 -30 -35 11 -26 38 -56 51 -97 41 -19 -5 -24 -11 -19 -24
35 -82 33 -92 -14 -72 -23 9 -29 18 -29 39 1 36 -9 52 -28 44 -12 -4 -14 -14
-9 -39 4 -25 2 -34 -8 -34 -28 0 -36 22 -30 90 6 66 0 82 -24 73z m337 -100
c0 -5 -4 -15 -10 -23 -11 -18 -25 -7 -17 15 6 15 27 21 27 8z m-253 -25 c-3
-8 -6 -5 -6 6 -1 11 2 17 5 13 3 -3 4 -12 1 -19z"/>
<path d="M7610 3937 c0 -4 10 -27 22 -50 12 -23 25 -58 29 -77 7 -34 7 -34 7
-5 1 25 -56 155 -58 132z"/>
<path d="M2319 3928 c-10 -34 -13 -56 -15 -125 -2 -73 0 -84 16 -93 46 -24 66
-10 61 43 -1 9 3 17 8 17 6 0 11 -7 11 -16 0 -21 57 -77 71 -69 6 5 -2 18 -22
34 -39 33 -35 66 6 59 13 -3 22 -2 20 2 -3 5 3 11 12 14 15 6 15 8 0 23 -13
13 -21 14 -40 6 -22 -10 -23 -9 -25 25 -4 55 -19 72 -17 19 0 -25 -2 -44 -6
-41 -4 2 -9 -1 -11 -8 -2 -6 -12 -9 -20 -5 -14 5 -15 11 -6 34 12 34 -4 83
-27 83 -8 0 -15 -1 -16 -2z m6 -108 c-12 -39 -14 -40 -9 -10 8 49 16 77 21 65
2 -6 -4 -30 -12 -55z m68 -28 c-10 -7 -23 -10 -30 -8 -19 8 -28 -16 -9 -26 20
-11 21 -38 2 -38 -22 0 -29 17 -22 54 6 30 9 32 41 32 31 -1 33 -3 18 -14z
m67 8 c-20 -13 -33 -13 -25 0 3 6 14 10 23 10 15 0 15 -2 2 -10z"/>
<path d="M1077 3883 c-3 -16 -2 -30 3 -33 4 -3 11 -25 14 -50 15 -99 28 -150
38 -150 6 0 8 21 3 60 -6 51 -4 61 10 66 37 15 103 -44 89 -80 -3 -9 -18 -23
-33 -31 -14 -8 -19 -14 -11 -14 8 0 24 6 34 14 10 8 22 13 25 11 12 -8 5 50
-9 71 -8 13 -37 30 -64 39 -26 9 -44 19 -40 23 5 3 8 15 8 26 -1 11 -3 31 -4
45 l-2 25 -8 -25 -7 -25 -11 28 c-15 35 -28 35 -35 0z m50 -55 c-3 -8 -6 -5
-6 6 -1 11 2 17 5 13 3 -3 4 -12 1 -19z"/>
<path d="M1606 3894 c-4 -9 -1 -23 5 -30 6 -8 9 -23 6 -33 -3 -11 -1 -21 4
-23 12 -4 18 -79 8 -106 -9 -23 -33 -29 -44 -11 -10 15 3 59 16 56 6 -1 13 9
15 23 l5 24 -31 -29 c-33 -32 -40 -74 -15 -95 18 -15 64 -5 72 16 5 12 8 12
20 -3 13 -17 14 -16 8 7 -12 50 -18 131 -9 129 20 -3 35 2 29 11 -3 5 -11 7
-18 4 -8 -3 -23 13 -36 36 -25 45 -27 46 -35 24z"/>
<path d="M3190 3861 c0 -25 6 -27 13 -6 4 8 2 17 -3 20 -6 4 -10 -3 -10 -14z"/>
<path d="M3710 3870 c0 -5 5 -10 10 -10 6 0 10 5 10 10 0 6 -4 10 -10 10 -5 0
-10 -4 -10 -10z"/>
<path d="M4130 3856 c-68 -15 -132 -45 -124 -58 4 -6 9 -7 13 -1 7 11 131 56
137 50 2 -2 -5 -12 -16 -22 -24 -21 -26 -51 -5 -59 9 -3 21 4 31 19 l16 25 17
-22 17 -21 23 29 c31 39 61 55 83 43 27 -15 22 -46 -8 -53 -15 -4 -24 -9 -21
-12 11 -11 57 9 63 28 7 25 -21 58 -51 58 -12 0 -38 -16 -58 -37 -20 -20 -40
-34 -43 -31 -3 3 -6 20 -6 37 -1 18 -4 33 -7 35 -3 2 -31 -2 -61 -8z m35 -50
c-16 -24 -35 -35 -35 -19 0 10 43 54 48 49 2 -2 -4 -16 -13 -30z"/>
<path d="M2705 3828 c-20 -23 -25 -40 -23 -67 l3 -36 83 -2 c85 -1 112 9 112
44 0 8 6 13 13 10 7 -2 11 -17 9 -37 -4 -38 13 -33 23 7 14 60 55 97 55 50 0
-27 17 -47 40 -47 8 0 26 18 40 40 27 44 32 47 50 25 10 -12 10 -21 0 -44 -13
-32 -7 -51 15 -51 14 0 25 21 25 51 0 11 4 17 10 14 6 -3 7 1 4 9 -14 36 14
12 35 -30 13 -25 25 -43 28 -41 2 3 -6 27 -19 53 -17 35 -29 48 -45 49 -12 1
-20 -2 -17 -6 2 -4 0 -10 -6 -14 -5 -3 -10 0 -10 7 0 7 -9 19 -19 25 -16 10
-24 8 -50 -18 -17 -16 -31 -34 -31 -39 0 -24 -22 -6 -38 30 l-17 41 -23 -21
c-12 -11 -22 -25 -22 -31 0 -13 -41 -1 -55 16 -5 7 -20 16 -33 20 -27 8 -86
-44 -76 -69 4 -10 -3 -20 -20 -28 -22 -10 -29 -9 -44 5 -15 16 -15 19 2 51 10
19 27 38 39 43 18 8 18 10 4 16 -11 4 -25 -4 -42 -25z m142 -14 c-3 -3 -12 -4
-19 -1 -8 3 -5 6 6 6 11 1 17 -2 13 -5z m-47 -35 c-7 -11 -14 -18 -17 -15 -3
3 0 12 7 21 18 21 23 19 10 -6z m60 -7 c0 -10 -5 -23 -12 -30 -11 -11 -48 -17
-48 -7 0 2 5 16 12 30 13 29 48 34 48 7z m273 -17 c-3 -9 -8 -14 -10 -11 -3 3
-2 9 2 15 9 16 15 13 8 -4z"/>
<path d="M1400 3840 c0 -5 5 -10 10 -10 6 0 10 5 10 10 0 6 -4 10 -10 10 -5 0
-10 -4 -10 -10z"/>
<path d="M1530 3843 c0 -5 5 -15 11 -23 9 -13 10 -13 6 2 -3 9 -1 19 6 22 7 2
4 5 -5 5 -10 1 -18 -2 -18 -6z"/>
<path d="M3840 3840 c0 -5 5 -10 11 -10 5 0 7 5 4 10 -3 6 -8 10 -11 10 -2 0
-4 -4 -4 -10z"/>
<path d="M6484 3803 c3 -51 2 -53 -23 -54 -25 -2 -25 -2 -3 -6 19 -4 23 -9 18
-29 -4 -13 -4 -24 -2 -24 13 0 23 79 16 120 l-9 45 3 -52z"/>
<path d="M1493 3822 c-24 -4 -32 -22 -10 -22 15 0 43 18 37 22 -3 2 -15 2 -27
0z"/>
<path d="M3930 3809 c0 -5 5 -7 10 -4 6 3 10 8 10 11 0 2 -4 4 -10 4 -5 0 -10
-5 -10 -11z"/>
<path d="M2071 3794 c0 -11 3 -14 6 -6 3 7 2 16 -1 19 -3 4 -6 -2 -5 -13z"/>
<path d="M3081 3784 c0 -11 3 -14 6 -6 3 7 2 16 -1 19 -3 4 -6 -2 -5 -13z"/>
<path d="M6961 3793 c-1 -7 -6 -13 -12 -13 -6 0 -18 -8 -27 -17 -16 -16 -16
-16 0 -10 10 3 20 1 24 -5 4 -7 9 -6 15 3 7 11 9 11 9 1 0 -7 5 -10 10 -7 6 4
8 10 5 15 -3 5 3 11 12 13 14 4 13 5 -4 6 -12 0 -24 7 -26 14 -4 10 -6 10 -6
0z"/>
<path d="M1357 3779 c-34 -9 -66 -46 -67 -76 0 -33 10 -53 28 -53 12 0 13 3 4
12 -7 7 -12 23 -12 36 0 20 3 22 14 13 10 -9 15 -8 19 3 4 9 1 18 -4 22 -6 3
-2 12 10 20 16 12 25 12 42 4 17 -10 20 -18 15 -43 -3 -17 -14 -39 -23 -49
-15 -17 -15 -18 0 -18 9 0 24 11 32 24 20 29 70 65 63 45 -3 -8 3 -21 11 -30
19 -20 61 -34 61 -21 0 5 -9 12 -20 15 -23 6 -41 46 -33 76 3 12 1 21 -6 21
-6 0 -11 -7 -11 -15 0 -22 -40 -41 -51 -24 -5 8 -9 17 -9 21 0 15 -36 25 -63
17z"/>
<path d="M6097 3770 c12 -5 27 -18 33 -30 13 -24 4 -81 -14 -92 -8 -6 -7 -8 2
-8 15 0 32 41 32 80 0 30 -31 61 -60 59 -9 0 -7 -4 7 -9z"/>
<path d="M6735 3771 c45 -5 50 -8 49 -31 -1 -14 -4 -33 -9 -42 -4 -11 -3 -18
3 -18 17 0 33 60 21 81 -8 15 -20 19 -62 17 l-52 -1 50 -6z"/>
<path d="M924 3755 c-3 -8 -23 -20 -45 -26 -21 -7 -36 -16 -33 -21 3 -5 14 -6
25 -3 21 7 23 2 10 -24 -5 -9 -6 -23 -2 -30 6 -9 10 -5 15 13 7 28 26 36 26
11 0 -8 4 -15 9 -15 5 0 7 9 4 20 -4 16 0 20 21 20 16 0 26 5 26 15 0 8 -8 15
-17 15 -14 0 -15 2 -4 9 7 5 10 14 7 20 -10 16 -36 14 -42 -4z"/>
<path d="M6577 3737 c3 -26 1 -28 -6 -12 -9 19 -10 19 -10 -2 -1 -23 33 -54
59 -52 8 0 3 5 -12 10 -23 9 -26 14 -21 43 3 19 1 36 -4 39 -5 3 -8 -8 -6 -26z"/>
<path d="M6676 3737 c5 -30 2 -41 -12 -53 -18 -14 -18 -14 4 -4 23 11 28 39
12 75 -7 14 -8 9 -4 -18z"/>
<path d="M7627 3735 c-15 -14 -24 -25 -19 -25 5 0 19 11 32 25 30 32 23 32
-13 0z"/>
<path d="M5952 3720 c0 -19 2 -27 5 -17 2 9 2 25 0 35 -3 9 -5 1 -5 -18z"/>
<path d="M6354 3734 c9 -8 16 -20 16 -26 0 -6 3 -9 6 -5 10 10 -7 47 -22 47
-13 0 -13 -2 0 -16z"/>
<path d="M6205 3720 c-9 -10 -15 -26 -12 -35 7 -16 32 -20 41 -6 4 5 -3 7 -14
4 -25 -7 -26 13 -3 39 9 10 14 18 11 18 -3 0 -13 -9 -23 -20z"/>
<path d="M6247 3726 c-10 -24 -9 -34 2 -18 6 10 11 6 19 -17 6 -17 13 -31 16
-31 3 0 13 15 22 33 16 29 16 31 1 18 -10 -7 -17 -21 -17 -30 0 -9 -9 2 -18
24 -15 32 -19 36 -25 21z"/>
<path d="M6415 3729 c-4 -6 -5 -12 -2 -15 2 -3 7 2 10 11 7 17 1 20 -8 4z"/>
<path d="M6500 3728 c0 -9 5 -20 10 -23 13 -8 13 5 0 25 -8 13 -10 13 -10 -2z"/>
<path d="M5645 3720 l-20 -9 20 0 c11 0 38 4 60 8 l40 9 -40 0 c-22 0 -49 -3
-60 -8z"/>
<path d="M6031 3708 c-1 -9 -11 -24 -23 -32 -12 -9 -17 -16 -11 -16 6 0 18 7
26 15 13 12 17 12 32 -5 10 -11 23 -20 29 -20 6 0 0 7 -12 16 -13 9 -27 26
-32 38 -7 16 -9 17 -9 4z"/>
<path d="M6406 3685 c4 -8 11 -15 16 -15 6 0 5 6 -2 15 -7 8 -14 15 -16 15 -2
0 -1 -7 2 -15z"/>
<path d="M8265 3680 c-27 -7 -27 -8 -5 -8 14 0 36 4 50 8 20 6 21 8 5 8 -11 0
-33 -4 -50 -8z"/>
<path d="M6918 3663 c-10 -2 -18 -8 -18 -13 0 -10 38 -1 46 11 5 9 1 10 -28 2z"/>
<path d="M7380 3593 c0 -5 14 -8 30 -8 17 0 30 3 30 8 0 4 -13 7 -30 7 -16 0
-30 -3 -30 -7z"/>
<path d="M7468 3593 c6 -2 18 -2 25 0 6 3 1 5 -13 5 -14 0 -19 -2 -12 -5z"/>
<path d="M6330 3580 l-45 -7 40 -1 c22 0 60 3 85 7 l45 8 -40 0 c-22 0 -60 -3
-85 -7z"/>
<path d="M6155 3560 l-30 -8 35 0 c19 0 46 4 60 8 24 8 24 8 -5 8 -16 0 -43
-4 -60 -8z"/>
<path d="M7230 3559 c-52 -4 -234 -8 -405 -7 -231 0 -338 -4 -420 -15 -60 -9
-164 -21 -230 -27 -66 -7 -123 -14 -127 -16 -4 -2 -9 8 -11 23 l-4 28 -2 -27
c-1 -24 -6 -27 -51 -33 -28 -4 -81 -22 -119 -41 -38 -19 -73 -34 -78 -34 -13
0 -159 -152 -174 -181 -8 -15 -26 -46 -40 -70 -27 -45 -45 -119 -28 -119 5 0
9 11 9 25 0 34 75 173 118 219 67 70 151 126 191 127 31 1 33 2 11 8 -22 6
-18 9 35 29 33 12 76 24 96 28 32 5 37 3 42 -18 4 -12 7 -44 7 -70 0 -45 2
-48 25 -48 38 0 92 25 105 49 24 47 -37 84 -72 44 -28 -33 -32 -48 -5 -20 29
30 62 35 71 12 9 -24 -3 -42 -39 -59 -44 -21 -66 -21 -58 1 4 11 3 14 -5 9 -9
-5 -12 6 -13 38 -1 25 -2 52 -3 59 -1 8 26 14 84 20 47 4 155 16 241 27 86 11
197 20 247 20 104 0 93 10 96 -95 0 -30 7 -54 15 -61 22 -17 4 -34 -36 -34
-37 0 -39 7 -18 65 5 16 3 15 -14 -5 -16 -20 -21 -22 -21 -8 0 17 -37 44 -47
35 -2 -3 5 -8 16 -12 13 -4 21 -15 21 -29 0 -13 8 -30 18 -39 21 -19 77 -23
87 -7 4 6 16 8 27 4 l20 -6 -20 28 c-13 20 -22 51 -25 95 l-4 66 281 6 c159 3
292 9 306 15 28 12 30 12 -100 1z"/>
<path d="M8633 3505 c0 -27 2 -38 4 -22 2 15 2 37 0 50 -2 12 -4 0 -4 -28z"/>
<path d="M5973 3533 c9 -2 25 -2 35 0 9 3 1 5 -18 5 -19 0 -27 -2 -17 -5z"/>
<path d="M5770 3502 c-14 -2 -29 -8 -35 -14 -7 -7 1 -8 25 -3 51 11 60 24 10
17z"/>
<path d="M8763 3503 c-7 -2 -13 -14 -12 -26 0 -21 0 -21 10 1 5 13 15 22 21
20 20 -7 21 -63 3 -82 -9 -9 -12 -16 -6 -16 27 0 41 76 19 98 -13 13 -16 13
-35 5z"/>
<path d="M8415 3476 c-16 -16 -22 -31 -18 -45 8 -32 20 -34 15 -2 -3 20 3 35
19 50 12 11 19 21 15 21 -4 0 -18 -11 -31 -24z"/>
<path d="M3597 3472 c-19 -21 -22 -86 -7 -127 11 -28 -10 -85 -31 -85 -6 0 -7
5 -4 10 3 6 2 10 -3 10 -6 0 -8 10 -4 22 3 14 2 19 -6 14 -7 -4 -12 -13 -12
-20 0 -18 -37 -49 -49 -41 -6 3 -12 16 -12 28 -1 17 -2 18 -6 5 -2 -10 -9 -18
-14 -18 -5 0 -9 -7 -9 -15 0 -8 -4 -15 -10 -15 -5 0 -10 17 -10 38 0 46 -14
62 -56 62 -44 0 -63 -24 -39 -50 16 -18 16 -19 -4 -32 -26 -16 -27 -28 -1 -21
28 7 35 40 15 64 -16 17 -16 19 -1 25 9 3 30 1 47 -6 28 -12 30 -15 24 -51 -6
-35 -4 -39 14 -39 11 0 24 7 29 16 6 11 11 13 16 5 11 -17 54 -13 65 7 6 9 11
11 11 5 0 -23 47 -15 55 10 6 22 7 21 17 -5 5 -16 16 -28 23 -28 7 0 15 -7 19
-15 9 -25 42 -17 70 16 14 17 26 35 26 40 0 13 22 -9 38 -36 6 -11 12 -14 12
-7 0 18 -51 93 -60 87 -4 -2 -5 -15 -3 -27 5 -27 -30 -78 -53 -78 -25 0 -27
28 -5 56 30 38 27 54 -10 54 -30 0 -31 -1 -25 -35 8 -41 -10 -49 -20 -10 -4
16 2 45 15 77 24 59 25 68 9 103 -13 30 -29 32 -51 7z m43 -38 c0 -19 -8 -49
-17 -67 l-17 -32 -7 25 c-12 44 -10 88 7 104 22 22 34 11 34 -30z m40 -124 c0
-5 -7 -10 -15 -10 -8 0 -15 5 -15 10 0 6 7 10 15 10 8 0 15 -4 15 -10z"/>
<path d="M7676 3477 c3 -10 9 -15 12 -12 3 3 0 11 -7 18 -10 9 -11 8 -5 -6z"/>
<path d="M8310 3481 c30 -5 36 -11 41 -41 6 -35 6 -35 8 -4 0 16 -4 35 -11 42
-7 7 -26 11 -42 11 -31 -2 -31 -2 4 -8z"/>
<path d="M8658 3483 c7 -3 16 -2 19 1 4 3 -2 6 -13 5 -11 0 -14 -3 -6 -6z"/>
<path d="M5663 3464 c-32 -14 -52 -34 -34 -34 5 0 11 3 13 8 2 4 19 15 38 24
42 20 28 22 -17 2z"/>
<path d="M8481 3463 c0 -12 -4 -30 -7 -40 -5 -17 -5 -17 6 0 6 10 9 28 7 40
-4 22 -4 22 -6 0z"/>
<path d="M8149 3454 c-10 -12 -9 -13 6 -8 23 9 36 -14 23 -40 -11 -21 -11 -21
9 -1 15 16 17 24 9 37 -15 25 -33 29 -47 12z"/>
<path d="M8440 3466 c0 -2 7 -7 16 -10 8 -3 12 -2 9 4 -6 10 -25 14 -25 6z"/>
<path d="M10032 3455 c9 -10 21 -16 28 -13 7 2 -1 10 -16 17 -27 12 -28 11
-12 -4z"/>
<path d="M8043 3436 c-17 -21 -20 -22 -30 -8 -9 15 -11 15 -26 0 -19 -18 -23
-58 -7 -58 6 0 10 11 10 24 0 35 18 42 26 11 l6 -25 18 32 c24 46 47 48 53 6
l5 -33 -2 35 c-1 43 -26 51 -53 16z"/>
<path d="M8266 3447 c3 -10 9 -15 12 -12 3 3 0 11 -7 18 -10 9 -11 8 -5 -6z"/>
<path d="M8716 3445 c-3 -9 -6 -22 -5 -28 0 -7 5 -1 10 12 5 13 8 26 5 28 -2
2 -6 -3 -10 -12z"/>
<path d="M7280 3435 c-6 -8 -10 -22 -7 -32 4 -14 5 -13 6 5 1 18 7 22 39 23
30 0 33 2 17 9 -29 13 -41 12 -55 -5z"/>
<path d="M7659 3433 c-13 -16 -12 -17 4 -4 9 7 17 15 17 17 0 8 -8 3 -21 -13z"/>
<path d="M2396 3415 c-3 -9 -6 -33 -6 -54 0 -27 -7 -44 -25 -61 -29 -27 -33
-21 -37 54 -4 65 -25 73 -25 9 1 -26 -4 -69 -10 -95 -6 -27 -6 -48 -2 -48 5 0
9 7 9 15 0 23 25 18 38 -7 11 -22 12 -21 7 7 -3 24 1 34 25 53 l30 24 1 -24
c2 -28 20 54 22 101 2 36 -16 53 -27 26z m14 -42 c-11 -17 -11 -17 -6 0 3 10
7 26 7 35 1 15 2 15 6 0 2 -10 -1 -25 -7 -35z m-93 -95 c-3 -8 -6 -5 -6 6 -1
11 2 17 5 13 3 -3 4 -12 1 -19z"/>
<path d="M6252 3417 c-9 -11 -6 -13 16 -9 30 4 47 -10 55 -43 2 -11 3 -6 1 12
-1 18 3 34 9 37 7 2 1 4 -13 4 -14 0 -32 2 -41 6 -9 4 -21 1 -27 -7z"/>
<path d="M6350 3395 c0 -19 3 -35 8 -35 4 0 7 16 7 35 0 19 -3 35 -7 35 -5 0
-8 -16 -8 -35z"/>
<path d="M7118 3422 c-16 -2 -28 -7 -28 -12 0 -5 6 -7 13 -5 6 3 25 -7 41 -22
l29 -27 -6 26 c-6 22 -3 27 15 30 19 3 18 4 -7 8 -16 3 -42 4 -57 2z"/>
<path d="M8131 3414 c0 -11 3 -14 6 -6 3 7 2 16 -1 19 -3 4 -6 -2 -5 -13z"/>
<path d="M1763 3369 c5 -37 2 -69 -10 -106 -18 -57 -25 -55 -43 10 -13 45 -23
41 -52 -21 l-22 -46 -13 32 c-15 38 -33 42 -33 8 0 -33 -23 -50 -49 -36 -24
12 -26 23 -9 50 10 15 10 22 0 32 -11 11 -16 9 -28 -6 -8 -11 -14 -27 -14 -35
0 -9 -9 -27 -20 -41 l-19 -25 -7 53 c-8 65 -21 71 -86 48 -27 -9 -53 -14 -58
-11 -6 3 -10 2 -10 -4 0 -5 -9 -13 -20 -16 -30 -10 -50 -34 -50 -61 0 -31 31
-33 59 -3 18 20 20 20 29 2 17 -30 24 -8 7 23 -15 29 -15 29 23 46 53 24 56
22 21 -12 -19 -18 -29 -35 -25 -45 9 -24 52 -18 75 11 l20 25 7 -35 c3 -20 2
-42 -4 -49 -20 -26 -33 -84 -23 -109 12 -31 33 -40 65 -28 35 13 40 43 17 96
-25 55 -26 68 -7 83 11 9 19 9 34 0 26 -16 71 -4 80 22 8 20 9 20 20 -5 6 -14
15 -26 19 -26 5 1 19 24 33 52 l25 51 10 -41 c5 -23 15 -47 22 -53 12 -12 15
-8 38 59 8 22 21 13 35 -25 9 -25 15 -32 18 -21 2 9 -2 27 -9 40 -7 13 -15 54
-18 92 -4 47 -11 71 -20 74 -11 4 -13 -5 -8 -49z m14 -6 c-3 -10 -5 -4 -5 12
0 17 2 24 5 18 2 -7 2 -21 0 -30z m-247 -87 c0 -3 -4 -8 -10 -11 -5 -3 -10 -1
-10 4 0 6 5 11 10 11 6 0 10 -2 10 -4z m-110 -12 c0 -15 -43 -64 -56 -64 -20
0 -17 13 11 44 22 24 45 34 45 20z m-151 -55 c-16 -23 -31 -27 -38 -8 -2 6 1
9 7 5 5 -3 12 1 16 9 3 8 11 15 17 15 8 0 7 -6 -2 -21z m221 -150 c0 -10 -9
-23 -20 -29 -16 -8 -24 -6 -40 10 -22 22 -21 39 7 94 l15 29 19 -43 c10 -23
19 -51 19 -61z"/>
<path d="M6520 3401 c0 -11 -6 -22 -12 -25 -7 -3 -3 -3 10 0 17 4 22 1 22 -15
0 -12 5 -21 10 -21 6 0 10 4 10 9 0 5 3 18 6 28 5 14 4 15 -4 4 -9 -12 -12
-10 -17 12 -8 31 -25 36 -25 8z"/>
<path d="M3972 3368 c-2 -35 -6 -48 -17 -48 -8 0 -15 -4 -15 -9 0 -5 9 -7 19
-4 15 4 20 -1 24 -24 4 -28 4 -28 6 4 1 29 4 32 48 41 56 12 63 9 38 -18 -35
-39 15 -101 69 -84 46 14 48 51 5 96 l-31 33 21 -32 c38 -56 17 -108 -34 -85
-29 14 -35 62 -9 83 14 11 14 13 -1 22 -9 5 -38 6 -65 2 l-49 -7 -4 39 c-3 36
-4 35 -5 -9z"/>
<path d="M5559 3383 l-24 -28 28 24 c25 23 32 31 24 31 -2 0 -14 -12 -28 -27z"/>
<path d="M6418 3389 c-4 -22 0 -28 26 -37 26 -10 28 -9 14 2 -10 7 -21 23 -26
36 l-9 24 -5 -25z"/>
<path d="M7630 3391 c-5 -11 -10 -30 -9 -43 1 -18 3 -17 8 8 4 17 11 36 15 42
4 7 5 12 2 12 -3 0 -10 -9 -16 -19z"/>
<path d="M8861 3387 c-13 -21 -12 -21 5 -5 10 10 16 20 13 22 -3 3 -11 -5 -18
-17z"/>
<path d="M6232 3370 c0 -14 2 -19 5 -12 2 6 2 18 0 25 -3 6 -5 1 -5 -13z"/>
<path d="M2225 3370 c-3 -5 1 -10 9 -10 9 0 16 5 16 10 0 6 -4 10 -9 10 -6 0
-13 -4 -16 -10z"/>
<path d="M7289 3368 c7 -10 11 -25 7 -33 -7 -19 -2 -19 13 -2 8 11 6 18 -11
33 -18 15 -20 16 -9 2z"/>
<path d="M9900 3308 c0 -64 0 -65 -25 -60 -15 2 -25 0 -25 -7 0 -7 6 -11 13
-10 34 4 46 -3 50 -28 2 -16 2 15 -1 67 -5 111 -12 132 -12 38z"/>
<path d="M5490 3290 c-48 -71 -74 -90 -132 -97 -40 -5 -98 -28 -98 -38 0 -2
12 0 28 7 15 6 47 15 72 20 111 22 124 26 107 27 -17 1 -16 4 8 32 26 32 69
109 61 109 -3 0 -24 -27 -46 -60z"/>
<path d="M2166 3311 c15 -30 11 -76 -8 -87 -12 -8 -37 25 -39 51 -1 12 -6 4
-14 -20 -10 -31 -14 -36 -20 -23 -4 10 -11 15 -17 12 -12 -8 10 -34 28 -34 8
0 14 7 14 17 0 15 1 15 18 0 26 -24 41 -21 54 11 13 33 12 70 -3 88 -20 24
-28 15 -13 -15z"/>
<path d="M2687 3322 c-25 -27 -21 -49 14 -69 l30 -18 -38 -17 c-40 -18 -22
-25 21 -8 35 13 33 36 -4 55 -35 18 -38 30 -10 47 11 7 20 16 20 20 0 14 -16
9 -33 -10z"/>
<path d="M2786 3325 c-4 -11 1 -15 19 -15 29 0 43 -37 25 -69 -13 -24 -33 -27
-49 -7 -9 11 -9 19 1 35 7 11 9 24 5 28 -10 10 -27 -16 -27 -42 0 -27 18 -45
46 -45 34 0 62 52 43 81 -5 9 -3 16 9 20 27 10 41 -1 48 -37 l6 -35 24 33 c24
32 28 31 25 -9 -1 -11 3 -24 8 -28 9 -5 15 13 13 36 -1 4 7 14 18 24 17 16 19
15 36 -10 17 -27 91 -71 102 -61 3 3 0 6 -7 6 -10 0 -11 10 -7 35 4 20 4 46 0
57 -6 21 -7 21 -20 3 -8 -10 -14 -29 -14 -42 0 -31 -16 -29 -37 5 -24 38 -35
43 -54 26 -9 -8 -24 -12 -33 -8 -9 3 -23 1 -30 -5 -11 -10 -16 -8 -21 9 -6 18
-14 21 -54 19 -26 -1 -52 1 -58 4 -6 4 -13 0 -17 -8z m325 -56 l-10 -24 0 26
c-1 14 2 29 6 33 12 12 14 -9 4 -35z"/>
<path d="M8263 3308 c-1 -31 0 -32 10 -10 7 15 7 26 0 33 -7 7 -10 -1 -10 -23z"/>
<path d="M2439 3288 c-16 -18 -29 -37 -29 -43 0 -5 6 -3 13 5 7 8 25 26 40 40
24 21 30 22 37 10 5 -8 10 -32 10 -53 0 -26 4 -36 11 -31 15 9 5 84 -13 95
-23 15 -38 10 -69 -23z"/>
<path d="M7621 3304 c0 -11 3 -14 6 -6 3 7 2 16 -1 19 -3 4 -6 -2 -5 -13z"/>
<path d="M2070 3290 c0 -13 -5 -17 -14 -14 -9 4 -20 -6 -31 -25 -8 -17 -12
-31 -8 -31 5 0 13 10 18 23 6 13 17 21 28 19 12 -2 17 4 17 23 0 14 -2 25 -5
25 -3 0 -5 -9 -5 -20z"/>
<path d="M8326 3283 c-6 -14 -5 -15 5 -6 7 7 10 15 7 18 -3 3 -9 -2 -12 -12z"/>
<path d="M2217 3263 c-10 -9 -8 -25 1 -19 5 3 16 -4 26 -15 10 -12 20 -19 22
-16 3 3 -6 16 -19 31 -13 14 -27 23 -30 19z"/>
<path d="M3240 3261 c0 -4 11 -13 25 -19 14 -6 25 -8 25 -4 0 4 -11 12 -25 19
-14 6 -25 8 -25 4z"/>
<path d="M8120 3218 c-3 -31 -1 -53 3 -49 5 5 7 30 5 57 l-3 49 -5 -57z"/>
<path d="M10260 3242 c0 -5 7 -15 15 -22 8 -7 15 -8 15 -2 0 5 -7 15 -15 22
-8 7 -15 8 -15 2z"/>
<path d="M7988 3225 c-3 -11 -9 -29 -13 -40 -6 -17 -5 -17 9 3 10 12 16 30 14
40 -3 15 -5 14 -10 -3z"/>
<path d="M9640 3221 c0 -11 4 -22 9 -25 4 -3 6 6 3 19 -5 30 -12 33 -12 6z"/>
<path d="M8235 3210 c-4 -12 -5 -24 -2 -27 3 -2 8 5 12 17 4 12 5 24 2 27 -3
2 -8 -5 -12 -17z"/>
<path d="M9128 3190 c2 -22 6 -40 8 -40 2 0 4 18 4 40 0 22 -3 40 -8 40 -4 0
-6 -18 -4 -40z"/>
<path d="M9691 3218 c-1 -9 -11 -24 -23 -32 -12 -9 -18 -16 -12 -16 17 0 47
38 41 52 -4 9 -6 7 -6 -4z"/>
<path d="M8047 3200 c-3 -11 -1 -20 4 -20 5 0 9 9 9 20 0 11 -2 20 -4 20 -2 0
-6 -9 -9 -20z"/>
<path d="M8180 3208 c0 -9 -6 -19 -12 -21 -10 -4 -10 -6 0 -6 14 -1 28 26 18
36 -3 4 -6 -1 -6 -9z"/>
<path d="M8912 3200 c0 -14 2 -19 5 -12 2 6 2 18 0 25 -3 6 -5 1 -5 -13z"/>
<path d="M9444 3186 c-9 -30 -9 -34 2 -25 11 9 14 8 14 -2 0 -8 9 -3 20 11 11
14 20 30 20 35 0 6 -9 -1 -19 -15 l-19 -24 -4 28 c-3 27 -3 27 -14 -8z"/>
<path d="M9557 3205 c-12 -11 -17 -12 -20 -2 -3 6 -5 -6 -5 -28 0 -22 2 -31 5
-20 3 11 14 30 26 43 23 24 17 31 -6 7z"/>
<path d="M9741 3193 c-1 -41 7 -41 44 -3 16 17 24 30 18 30 -5 0 -19 -11 -29
-25 l-19 -26 -6 28 c-7 28 -7 28 -8 -4z"/>
<path d="M9862 3183 c-15 -48 -8 -55 8 -8 7 20 10 38 8 41 -3 2 -10 -13 -16
-33z"/>
<path d="M8612 3190 c0 -14 2 -19 5 -12 2 6 2 18 0 25 -3 6 -5 1 -5 -13z"/>
<path d="M8836 3195 c-9 -26 -7 -32 5 -12 6 10 9 21 6 23 -2 3 -7 -2 -11 -11z"/>
<path d="M9210 3204 c8 -4 21 -14 28 -23 13 -14 13 -14 10 4 -2 13 -12 21 -28
22 -14 1 -18 0 -10 -3z"/>
<path d="M9380 3182 c0 -17 4 -34 10 -37 6 -4 7 6 3 27 -8 44 -13 48 -13 10z"/>
<path d="M9600 3206 c0 -2 8 -10 18 -17 15 -13 16 -12 3 4 -13 16 -21 21 -21
13z"/>
<path d="M9832 3190 c0 -14 2 -19 5 -12 2 6 2 18 0 25 -3 6 -5 1 -5 -13z"/>
<path d="M8712 3180 c0 -14 2 -19 5 -12 2 6 2 18 0 25 -3 6 -5 1 -5 -13z"/>
<path d="M7430 3172 c0 -11 -8 -23 -17 -25 -16 -4 -16 -5 -1 -6 15 -1 15 -6 3
-48 -7 -27 -20 -65 -30 -87 -9 -21 -14 -40 -12 -43 5 -4 16 24 47 112 l17 49
7 -51 c3 -28 13 -69 21 -90 9 -21 13 -27 10 -13 -3 14 -12 68 -21 120 -15 93
-24 124 -24 82z"/>
<path d="M8735 3179 c-4 -6 -5 -12 -2 -15 2 -3 7 2 10 11 7 17 1 20 -8 4z"/>
<path d="M9061 3174 c0 -11 3 -14 6 -6 3 7 2 16 -1 19 -3 4 -6 -2 -5 -13z"/>
<path d="M9180 3181 c0 -4 11 -6 25 -3 14 2 25 6 25 8 0 2 -11 4 -25 4 -14 0
-25 -4 -25 -9z"/>
<path d="M9317 3163 c-2 -12 -3 -23 -2 -23 2 0 10 11 18 23 12 19 12 24 2 24
-7 0 -15 -11 -18 -24z"/>
<path d="M8970 3171 c0 -11 49 -51 62 -51 5 0 3 7 -6 15 -8 8 -19 15 -25 15
-6 0 -11 7 -11 15 0 8 -4 15 -10 15 -5 0 -10 -4 -10 -9z"/>
<path d="M10310 3158 c0 -9 5 -20 10 -23 13 -8 13 5 0 25 -8 13 -10 13 -10 -2z"/>
<path d="M6452 3113 c-2 -26 -7 -52 -11 -58 -5 -5 -11 -26 -14 -45 l-6 -35 19
40 18 40 10 -25 11 -25 0 27 c1 17 7 28 19 31 9 2 5 3 -10 1 -26 -3 -26 -2
-22 46 3 28 1 50 -3 50 -4 0 -9 -21 -11 -47z"/>
<path d="M5225 3140 c-3 -5 -2 -10 4 -10 5 0 13 5 16 10 3 6 2 10 -4 10 -5 0
-13 -4 -16 -10z"/>
<path d="M4886 3095 c-9 -26 -7 -32 5 -12 6 10 9 21 6 23 -2 3 -7 -2 -11 -11z"/>
<path d="M6090 3100 c-9 -6 -10 -10 -3 -10 6 0 15 5 18 10 8 12 4 12 -15 0z"/>
<path d="M6912 3063 l-20 -38 -11 27 c-12 31 -27 43 -36 28 -4 -6 -1 -9 6 -8
7 2 17 -12 22 -29 12 -40 19 -41 37 -8 15 27 33 15 22 -14 -3 -9 -1 -12 3 -8
9 7 8 77 0 85 -2 2 -12 -13 -23 -35z"/>
<path d="M6970 3077 c-10 -19 -9 -20 2 -6 7 9 19 14 26 12 17 -6 15 4 -3 11
-9 3 -19 -3 -25 -17z"/>
<path d="M7026 3079 c-14 -11 -26 -28 -25 -37 0 -13 3 -11 9 5 5 12 18 26 28
32 17 9 25 4 57 -34 46 -57 65 -58 65 -5 0 22 -4 40 -8 40 -4 0 -6 -17 -4 -37
4 -35 3 -37 -12 -23 -12 9 -16 23 -13 39 5 23 4 24 -8 8 -12 -16 -14 -16 -29
8 -20 30 -26 31 -60 4z"/>
<path d="M6326 3033 c-20 -21 -36 -42 -36 -48 0 -5 14 7 31 28 16 20 38 41 47
47 9 5 12 10 5 10 -6 0 -28 -17 -47 -37z"/>
<path d="M6540 3045 c-13 -14 -22 -27 -19 -29 2 -2 14 10 27 25 29 36 24 38
-8 4z"/>
<path d="M6590 3047 c0 -14 -4 -29 -10 -32 -5 -3 -10 -11 -10 -17 0 -5 8 0 18
12 16 20 19 21 31 6 7 -9 23 -16 35 -15 19 1 18 2 -4 8 -14 4 -30 17 -36 29
-17 35 -24 37 -24 9z"/>
<path d="M6750 3040 c-7 -17 -10 -33 -7 -36 3 -3 8 4 12 15 3 12 11 21 16 21
5 0 9 7 9 15 0 25 -17 17 -30 -15z"/>
<path d="M5092 3021 c-31 -38 -45 -67 -19 -39 6 8 25 28 41 46 17 18 25 32 20
32 -6 0 -25 -18 -42 -39z"/>
<path d="M6136 3024 c-26 -19 -60 -35 -75 -35 -22 -2 -23 -2 -4 -6 12 -2 35 3
51 11 16 8 32 12 36 9 3 -4 6 0 6 8 0 8 12 22 28 31 15 10 23 17 17 17 -5 0
-32 -16 -59 -35z"/>
<path d="M6680 3058 c-9 -29 10 -68 33 -68 6 0 3 8 -5 18 -9 9 -18 26 -21 37
-2 11 -6 17 -7 13z"/>
<path d="M7206 3028 c-10 -19 -11 -25 -3 -15 11 14 16 15 20 5 3 -7 6 -1 6 15
1 15 0 27 -2 27 -1 0 -11 -15 -21 -32z"/>
<path d="M6027 3043 c-4 -3 -7 -13 -7 -22 1 -13 3 -13 11 2 11 19 8 33 -4 20z"/>
<path d="M6210 3040 c-19 -6 -20 -8 -6 -9 14 -1 17 -7 12 -28 -4 -24 -3 -24
10 6 13 29 19 33 44 29 16 -2 27 -1 24 4 -6 10 -50 9 -84 -2z"/>
<path d="M7279 3033 c-13 -16 -12 -17 4 -4 9 7 17 15 17 17 0 8 -8 3 -21 -13z"/>
<path d="M7736 3022 l-19 -27 24 22 c12 12 21 24 18 27 -2 2 -13 -8 -23 -22z"/>
<path d="M7333 3000 c0 -25 2 -35 4 -22 2 12 2 32 0 45 -2 12 -4 2 -4 -23z"/>
<path d="M5528 3004 c-3 -55 3 -119 13 -129 6 -5 7 21 3 70 -7 85 -13 107 -16
59z"/>
<path d="M6386 3010 c7 -28 12 -35 18 -29 2 2 -2 15 -10 29 l-15 25 7 -25z"/>
<path d="M6778 3003 c3 -18 7 -21 13 -11 12 18 11 25 -4 31 -10 4 -13 -2 -9
-20z"/>
<path d="M6520 2990 c0 -5 5 -10 11 -10 5 0 7 5 4 10 -3 6 -8 10 -11 10 -2 0
-4 -4 -4 -10z"/>
<path d="M4817 2934 c-15 -30 -27 -60 -27 -67 0 -6 14 17 31 52 16 35 28 65
26 67 -2 2 -15 -21 -30 -52z"/>
<path d="M5708 2983 c6 -2 18 -2 25 0 6 3 1 5 -13 5 -14 0 -19 -2 -12 -5z"/>
<path d="M6150 2981 c0 -10 19 -25 25 -20 1 2 -3 10 -11 17 -8 7 -14 8 -14 3z"/>
<path d="M10287 2937 c-18 -39 -19 -41 -28 -19 -4 12 -6 30 -3 40 5 15 4 15
-6 -1 -9 -14 -9 -25 0 -47 9 -21 9 -34 0 -52 -10 -20 -9 -21 3 -6 13 16 15 16
36 -5 l22 -22 -17 31 c-17 30 -17 33 0 68 9 20 16 41 14 46 -2 5 -11 -10 -21
-33z"/>
<path d="M5011 2907 c-13 -21 -12 -21 5 -5 10 10 16 20 13 22 -3 3 -11 -5 -18
-17z"/>
<path d="M8386 2880 c3 -30 10 -59 16 -65 11 -10 8 6 -12 85 -8 29 -8 26 -4
-20z"/>
<path d="M8447 2907 c-4 -15 -12 -27 -17 -27 -6 0 -10 -10 -10 -22 0 -18 4
-15 21 16 11 21 18 43 16 49 -2 7 -7 0 -10 -16z"/>
<path d="M8857 2903 c-6 -31 -62 -103 -79 -103 -7 0 -9 17 -5 47 4 35 2 42 -5
29 -11 -20 -3 -135 10 -148 5 -5 7 5 4 21 -3 25 4 39 37 77 38 44 60 88 49
100 -3 2 -8 -8 -11 -23z"/>
<path d="M1651 2850 c-1 -41 -6 -93 -10 -115 l-7 -40 -17 32 c-9 18 -17 39
-17 48 0 22 -28 19 -35 -5 -3 -11 -11 -20 -16 -20 -5 0 -9 -8 -10 -17 0 -10
-6 -4 -12 14 -18 48 -23 48 -36 -2 -6 -25 -17 -45 -24 -45 -22 0 -37 23 -37
57 0 42 -11 42 -34 1 -10 -18 -13 -27 -6 -21 11 10 17 7 32 -17 27 -45 77 -35
78 15 1 17 3 16 16 -7 8 -16 17 -28 19 -28 2 0 12 16 21 35 17 36 34 46 34 20
0 -22 30 -65 45 -65 9 0 16 20 20 58 9 82 11 83 24 20 7 -32 17 -60 22 -64 6
-3 8 6 4 23 -5 27 -5 27 6 5 13 -25 44 -36 80 -29 16 3 12 5 -13 6 -45 1 -63
26 -48 65 5 14 14 26 20 26 6 0 8 -5 4 -12 -4 -7 -3 -8 4 -4 17 10 15 26 -2
26 -8 0 -23 -12 -34 -27 l-19 -26 -21 64 c-11 35 -23 73 -25 84 -3 11 -5 -14
-6 -55z"/>
<path d="M7521 2902 c-17 -31 -14 -82 4 -82 8 0 15 5 15 10 0 6 12 10 28 9 26
0 26 -1 5 -9 -32 -13 -29 -20 4 -11 15 4 29 13 31 20 4 11 -6 13 -42 9 -42 -5
-46 -4 -46 16 0 12 5 27 12 34 6 6 9 14 6 18 -4 3 -11 -3 -17 -14z"/>
<path d="M2802 2875 c-1 -22 2 -46 7 -54 7 -10 2 -20 -14 -33 -13 -10 -26 -18
-29 -18 -3 0 -6 21 -7 48 -1 76 -15 96 -22 32 -4 -30 -10 -74 -13 -97 -5 -30
-3 -43 5 -43 7 0 10 4 7 9 -3 5 1 14 8 20 11 10 15 8 19 -6 4 -15 5 -14 6 4 1
19 34 53 51 53 4 0 17 -21 31 -47 19 -38 24 -44 27 -27 3 22 39 44 70 44 22 0
44 -35 53 -85 l6 -40 2 38 c1 41 -20 82 -51 98 -15 8 -27 5 -54 -10 l-34 -20
-16 31 c-12 23 -13 36 -6 52 18 38 20 65 6 77 -8 7 -17 9 -21 5 -3 -3 -1 -6 5
-6 17 0 15 -42 -2 -66 -14 -18 -15 -18 -20 6 -3 14 -7 36 -9 50 -3 15 -5 10
-5 -15z m-55 -107 c-3 -8 -6 -5 -6 6 -1 11 2 17 5 13 3 -3 4 -12 1 -19z"/>
<path d="M3315 2876 c-4 -19 -2 -51 5 -71 6 -20 9 -42 6 -50 -3 -8 -1 -15 4
-15 5 0 11 -8 13 -17 3 -11 5 -8 6 9 1 16 9 32 20 38 17 9 21 5 31 -25 6 -19
16 -35 20 -35 5 0 3 17 -4 38 -13 35 -12 40 10 65 24 29 31 61 15 71 -5 4 -7
-3 -4 -14 3 -11 -4 -30 -16 -46 l-21 -27 -1 29 c0 28 -1 28 -10 6 -5 -13 -7
-27 -5 -30 2 -4 -7 -15 -20 -25 -23 -17 -23 -17 -30 18 -3 20 -4 52 -1 70 7
46 -10 56 -18 11z"/>
<path d="M9097 2903 c-8 -14 -19 -68 -13 -62 8 8 26 69 21 69 -2 0 -6 -3 -8
-7z"/>
<path d="M9906 2884 c-4 -14 -5 -28 -3 -31 3 -2 8 8 11 23 4 14 5 28 3 31 -3
2 -8 -8 -11 -23z"/>
<path d="M7410 2890 c0 -5 -12 -11 -27 -11 -24 -2 -25 -2 -5 -6 12 -2 22 -9
22 -14 0 -6 4 -8 9 -5 5 4 12 0 14 -6 4 -8 6 -7 6 4 1 9 9 19 19 21 16 4 16 5
0 6 -10 0 -18 6 -18 11 0 6 -4 10 -10 10 -5 0 -10 -4 -10 -10z"/>
<path d="M9992 2870 c0 -19 2 -27 5 -17 2 9 2 25 0 35 -3 9 -5 1 -5 -18z"/>
<path d="M10095 2890 c3 -5 8 -10 11 -10 2 0 4 5 4 10 0 6 -5 10 -11 10 -5 0
-7 -4 -4 -10z"/>
<path d="M10120 2896 c0 -2 14 -6 30 -8 17 -3 30 -1 30 4 0 4 -13 8 -30 8 -16
0 -30 -2 -30 -4z"/>
<path d="M3405 2880 c-3 -5 -1 -10 4 -10 6 0 11 5 11 10 0 6 -2 10 -4 10 -3 0
-8 -4 -11 -10z"/>
<path d="M9040 2885 c0 -5 5 -17 10 -25 5 -8 10 -10 10 -5 0 6 -5 17 -10 25
-5 8 -10 11 -10 5z"/>
<path d="M9486 2865 c8 -37 14 -45 14 -19 0 10 -5 26 -10 34 -8 11 -9 7 -4
-15z"/>
<path d="M9547 2882 c6 -4 13 -23 16 -42 4 -33 4 -33 5 8 2 34 -1 42 -15 42
-12 0 -14 -3 -6 -8z"/>
<path d="M10045 2880 c-3 -5 -1 -10 4 -10 6 0 11 5 11 10 0 6 -2 10 -4 10 -3
0 -8 -4 -11 -10z"/>
<path d="M2208 2835 c-3 -27 -9 -60 -13 -72 -6 -19 -4 -23 14 -23 16 0 21 -6
21 -24 0 -14 5 -28 11 -32 8 -4 9 3 4 25 -5 22 -3 31 7 31 8 0 7 4 -4 11 -13
7 -18 23 -19 52 0 23 -4 51 -8 62 -6 15 -10 8 -13 -30z"/>
<path d="M4361 2838 c-1 -40 -4 -47 -23 -50 -22 -4 -22 -5 5 -18 15 -7 27 -19
27 -26 0 -19 20 -68 25 -62 3 3 0 19 -6 36 -6 17 -14 61 -18 99 -8 61 -9 63
-10 21z"/>
<path d="M4972 2853 c-31 -46 -110 -253 -131 -343 -11 -47 -31 -139 -46 -205
-14 -66 -37 -169 -51 -230 -13 -60 -24 -118 -24 -128 0 -10 -11 -63 -25 -118
-14 -54 -27 -127 -30 -161 l-5 -63 15 70 c8 39 21 95 29 125 9 30 23 96 32
145 8 50 29 153 46 230 86 406 110 491 176 623 42 86 46 101 14 55z"/>
<path d="M9374 2864 c-10 -8 -13 -12 -6 -9 8 4 26 11 40 15 22 7 23 8 6 9 -11
1 -29 -6 -40 -15z"/>
<path d="M8087 2863 c-12 -11 -8 -40 8 -53 8 -7 12 -17 9 -24 -3 -6 2 -2 10 8
9 11 16 25 16 30 0 6 -4 5 -9 -3 -13 -20 -34 -2 -28 25 5 26 4 28 -6 17z"/>
<path d="M9000 2859 c0 -5 5 -7 10 -4 6 3 10 8 10 11 0 2 -4 4 -10 4 -5 0 -10
-5 -10 -11z"/>
<path d="M9152 2847 c-14 -15 -19 -30 -16 -44 6 -21 32 -39 42 -28 3 3 0 5 -6
5 -6 0 -16 9 -23 21 -9 17 -7 25 12 45 12 13 20 24 17 24 -2 0 -14 -10 -26
-23z"/>
<path d="M8484 2849 c-5 -8 -3 -9 6 -4 7 4 16 2 22 -6 8 -12 9 -12 6 0 -6 20
-24 25 -34 10z"/>
<path d="M8902 2847 c-7 -8 -7 -18 -2 -27 8 -12 10 -11 10 7 0 12 6 24 13 26
7 4 8 6 1 6 -6 1 -16 -5 -22 -12z"/>
<path d="M10152 2840 c0 -14 2 -19 5 -12 2 6 2 18 0 25 -3 6 -5 1 -5 -13z"/>
<path d="M4771 2836 c-16 -19 -62 -138 -51 -131 5 3 14 22 21 42 6 20 21 51
31 70 20 34 20 44 -1 19z"/>
<path d="M5550 2840 c0 -51 99 -174 192 -238 41 -28 158 -78 158 -67 0 2 -28
17 -62 34 -35 17 -78 39 -95 49 -49 29 -131 121 -160 180 -25 51 -33 62 -33
42z"/>
<path d="M8035 2839 c-4 -6 -5 -12 -2 -15 2 -3 7 2 10 11 7 17 1 20 -8 4z"/>
<path d="M8537 2832 c-15 -16 -15 -20 -1 -40 8 -12 21 -22 27 -22 7 0 4 5 -5
11 -21 12 -23 40 -6 57 7 7 10 12 7 12 -3 0 -13 -8 -22 -18z"/>
<path d="M8578 2843 c18 -7 15 -30 -5 -42 -10 -6 -13 -11 -7 -11 18 0 37 28
30 45 -3 8 -11 15 -18 14 -10 0 -10 -2 0 -6z"/>
<path d="M8162 2810 c-2 -38 21 -147 33 -158 4 -4 4 9 0 28 -5 19 -9 42 -10
50 -1 8 -5 22 -8 30 -4 8 -8 31 -10 50 l-4 35 -1 -35z"/>
<path d="M8185 2829 c-4 -6 -5 -12 -2 -15 2 -3 7 2 10 11 7 17 1 20 -8 4z"/>
<path d="M9065 2832 c4 -8 -1 -22 -11 -33 -15 -17 -15 -19 -2 -14 22 9 31 36
17 49 -9 8 -10 8 -4 -2z"/>
<path d="M9410 2830 c0 -5 5 -10 10 -10 6 0 10 5 10 10 0 6 -4 10 -10 10 -5 0
-10 -4 -10 -10z"/>
<path d="M8954 2811 c0 -11 4 -17 8 -15 4 3 8 12 8 20 0 8 -4 14 -8 14 -4 0
-8 -9 -8 -19z"/>
<path d="M3286 2799 c-23 -27 -15 -35 9 -9 10 11 16 22 14 25 -3 2 -13 -5 -23
-16z"/>
<path d="M3613 2812 c-8 -5 0 -8 20 -8 70 0 86 -10 90 -57 l4 -42 1 42 c2 31
-3 45 -15 51 -28 15 -87 22 -100 14z"/>
<path d="M10196 2804 c-11 -8 -16 -14 -10 -14 13 0 39 18 34 24 -3 2 -14 -2
-24 -10z"/>
<path d="M1856 2801 c48 -12 54 -19 55 -69 1 -43 1 -45 10 -17 17 56 -15 97
-74 94 -16 -1 -14 -3 9 -8z"/>
<path d="M3171 2781 c-38 -35 -41 -75 -8 -91 20 -10 20 -10 5 3 -25 20 -22 50
7 77 21 19 25 21 25 7 0 -9 7 -17 15 -17 18 0 19 -14 5 -40 -8 -16 -8 -18 5
-14 8 4 15 17 15 29 0 13 6 26 13 28 11 5 -16 11 -35 8 -4 0 -5 8 -3 19 5 28
-8 25 -44 -9z"/>
<path d="M9723 2803 c9 -2 25 -2 35 0 9 3 1 5 -18 5 -19 0 -27 -2 -17 -5z"/>
<path d="M1827 2780 c6 -8 13 -26 15 -40 3 -21 4 -22 10 -8 5 12 0 26 -15 41
-12 13 -17 16 -10 7z"/>
<path d="M1993 2792 c-30 -19 -39 -102 -11 -102 7 0 6 5 -1 14 -16 19 -4 63
22 81 22 15 12 21 -10 7z"/>
<path d="M2591 2774 c10 -29 4 -64 -13 -64 -5 0 -15 14 -21 30 -6 17 -15 30
-20 30 -5 0 -6 -7 -3 -15 8 -21 -43 -42 -56 -23 -11 18 -10 32 4 46 7 7 8 12
2 12 -11 0 -64 -58 -64 -71 0 -15 18 -10 24 8 6 14 8 14 20 -3 13 -16 18 -17
45 -8 24 10 33 9 42 -2 18 -22 48 -17 59 11 10 27 -2 75 -20 75 -6 0 -6 -9 1
-26z"/>
<path d="M3835 2790 c-13 -6 -5 -7 25 -3 25 3 47 7 49 9 9 8 -55 2 -74 -6z"/>
<path d="M3916 2777 c-20 -16 -27 -29 -23 -40 8 -21 31 -22 47 -2 11 14 14 13
25 -2 11 -14 12 -12 11 15 0 18 -3 32 -5 32 -3 0 -17 -12 -33 -27 -15 -14 -31
-24 -34 -20 -10 10 17 38 51 53 23 10 25 13 10 14 -11 0 -33 -11 -49 -23z"/>
<path d="M4012 2788 c-6 -6 -12 -19 -11 -27 0 -10 4 -7 9 7 5 12 17 22 26 22
13 0 15 -9 12 -45 -2 -25 -3 -45 -2 -45 1 0 14 7 30 15 19 9 32 11 38 5 6 -6
20 -10 33 -10 16 0 25 8 29 27 l7 28 16 -35 16 -35 32 33 c35 36 29 43 -11 11
-20 -16 -26 -17 -26 -6 0 8 -7 20 -15 27 -12 10 -17 7 -26 -14 -16 -34 -45
-33 -57 2 -9 24 -10 25 -11 5 -1 -16 -7 -23 -20 -23 -15 0 -21 8 -23 32 -3 35
-25 47 -46 26z"/>
<path d="M8021 2784 c0 -11 3 -14 6 -6 3 7 2 16 -1 19 -3 4 -6 -2 -5 -13z"/>
<path d="M3623 2759 c2 -30 -2 -35 -33 -46 -23 -8 -28 -12 -15 -12 47 -2 78
43 56 78 -7 10 -9 4 -8 -20z"/>
<path d="M4118 2783 c7 -3 16 -2 19 1 4 3 -2 6 -13 5 -11 0 -14 -3 -6 -6z"/>
<path d="M8998 2778 c5 -5 16 -8 23 -6 8 3 3 7 -10 11 -17 4 -21 3 -13 -5z"/>
<path d="M2083 2770 c-47 -19 -19 -82 34 -79 13 1 11 3 -6 8 -13 3 -29 14 -35
24 -9 15 -6 21 14 37 28 22 26 23 -7 10z"/>
<path d="M2670 2770 c0 -5 -10 -19 -22 -31 -23 -21 -23 -21 -1 -10 29 15 30
15 37 -14 5 -18 13 -25 29 -24 17 1 18 2 5 6 -12 3 -20 18 -24 44 -4 21 -10
39 -15 39 -5 0 -9 -4 -9 -10z"/>
<path d="M3531 2770 c-15 -9 -7 -60 9 -60 14 0 12 18 -2 22 -7 3 -9 11 -4 24
8 19 8 19 16 -1 7 -16 9 -17 9 -3 1 21 -11 29 -28 18z"/>
<path d="M2026 2746 c4 -17 0 -28 -13 -36 -17 -11 -17 -11 0 -6 10 3 22 6 26
6 4 0 6 14 3 30 -2 17 -8 30 -13 30 -5 0 -7 -11 -3 -24z"/>
<path d="M4293 2720 c0 -30 2 -43 4 -27 2 15 2 39 0 55 -2 15 -4 2 -4 -28z"/>
<path d="M3453 2753 c9 -2 23 -2 30 0 6 3 -1 5 -18 5 -16 0 -22 -2 -12 -5z"/>
<path d="M4333 2719 c-7 -18 -11 -35 -8 -37 6 -6 27 48 23 60 -2 5 -9 -6 -15
-23z"/>
<path d="M3491 2723 c-1 -16 5 -23 17 -23 10 0 13 3 6 8 -6 4 -14 14 -17 22
-4 10 -6 8 -6 -7z"/>
<path d="M7002 2669 c-89 -18 -147 -38 -112 -39 8 0 31 5 50 10 44 13 217 38
290 43 30 2 12 4 -40 4 -58 1 -132 -6 -188 -18z"/>
<path d="M4060 2628 c-3 -31 -1 -53 3 -49 5 5 7 30 5 57 l-3 49 -5 -57z"/>
<path d="M7403 2673 c9 -2 23 -2 30 0 6 3 -1 5 -18 5 -16 0 -22 -2 -12 -5z"/>
<path d="M4687 2663 c-4 -3 -7 -11 -7 -17 0 -6 5 -5 12 2 6 6 9 14 7 17 -3 3
-9 2 -12 -2z"/>
<path d="M6826 2629 c-22 -5 -42 -12 -45 -16 -9 -9 73 8 84 18 5 5 7 9 5 8 -3
-1 -23 -5 -44 -10z"/>
<path d="M4660 2610 c-6 -11 -8 -20 -6 -20 3 0 10 9 16 20 6 11 8 20 6 20 -3
0 -10 -9 -16 -20z"/>
<path d="M10261 2608 c-14 -23 -14 -23 8 -4 22 20 25 26 13 26 -4 0 -13 -10
-21 -22z"/>
<path d="M3940 2613 c0 -12 51 -59 73 -66 9 -4 17 -2 17 3 0 6 -9 10 -19 10
-11 0 -31 14 -45 31 -14 17 -26 27 -26 22z"/>
<path d="M6723 2603 c-13 -2 -23 -8 -23 -13 0 -10 38 -1 46 11 3 5 4 8 2 8 -2
-1 -13 -4 -25 -6z"/>
<path d="M7581 2605 c0 -5 15 -28 34 -50 19 -22 35 -35 35 -30 0 6 -16 28 -35
50 -19 22 -34 36 -34 30z"/>
<path d="M6645 2583 c-11 -3 -24 -9 -30 -15 -13 -12 46 1 60 13 10 10 4 10
-30 2z"/>
<path d="M4613 2530 c-12 -22 -18 -38 -13 -35 12 8 50 75 42 75 -4 0 -17 -18
-29 -40z"/>
<path d="M6535 2554 l-50 -13 44 5 c24 2 51 9 60 14 21 12 6 11 -54 -6z"/>
<path d="M10209 2543 c-13 -16 -12 -17 4 -4 16 13 21 21 13 21 -2 0 -10 -8
-17 -17z"/>
<path d="M3676 2541 c-3 -5 -11 -53 -16 -107 -6 -54 -12 -100 -15 -102 -8 -8
-45 63 -45 86 l0 23 -27 -21 c-16 -12 -33 -31 -40 -43 l-12 -22 -1 24 0 24
-21 -27 c-26 -34 -89 -38 -89 -6 0 25 17 26 24 3 4 -15 5 -15 3 1 -3 27 -27
32 -34 7 -7 -27 -12 -26 -54 5 -24 18 -42 24 -61 20 -17 -3 -28 -1 -28 5 0 8
-5 7 -15 -1 -16 -14 -105 -20 -105 -8 0 11 -25 10 -54 -3 -44 -21 -45 -89 0
-89 26 0 64 32 64 54 0 14 21 26 46 26 11 0 13 -7 8 -27 -7 -28 -7 -28 22 6
l29 35 12 -40 13 -39 -3 35 c-2 42 23 52 56 22 12 -11 32 -25 44 -31 29 -15
96 -14 111 1 10 10 15 10 23 -2 8 -12 12 -12 16 -2 3 7 16 26 30 43 l26 30 19
-43 c27 -59 58 -74 58 -27 0 26 14 24 29 -3 10 -21 11 -20 4 7 -5 17 -7 67 -6
113 1 80 0 91 -11 73z m-561 -151 c-19 -8 -19 -9 3 -9 12 -1 22 -7 22 -16 0
-20 -46 -49 -66 -41 -31 12 8 77 45 75 12 0 10 -3 -4 -9z"/>
<path d="M10135 2508 c3 -27 15 -52 30 -68 14 -13 25 -22 25 -18 0 4 -8 14
-17 24 -20 19 -20 20 -22 69 0 19 -6 35 -11 35 -6 0 -8 -17 -5 -42z"/>
<path d="M6428 2533 c-9 -2 -63 -10 -120 -18 -76 -9 -90 -13 -54 -14 45 -1
215 25 225 35 5 5 -28 3 -51 -3z"/>
<path d="M5959 2515 c24 -8 85 -17 135 -19 106 -6 97 -1 -24 14 -47 5 -101 12
-120 15 -32 4 -31 3 9 -10z"/>
<path d="M9601 2500 c0 -19 2 -53 6 -75 6 -38 7 -39 14 -13 4 16 1 48 -6 75
-13 47 -13 47 -14 13z"/>
<path d="M2188 2513 c6 -2 18 -2 25 0 6 3 1 5 -13 5 -14 0 -19 -2 -12 -5z"/>
<path d="M2110 2428 c0 -89 -12 -125 -30 -98 -6 8 -9 25 -7 38 6 34 -7 27 -27
-15 -16 -33 -16 -35 -1 -23 15 12 18 12 26 -3 18 -31 38 -19 46 25 l6 43 11
-32 c15 -42 31 -56 22 -19 -5 22 -2 33 14 48 24 23 25 23 42 -18 l13 -30 23
23 c12 13 19 23 14 23 -4 0 -13 -5 -20 -12 -6 -6 -14 -9 -17 -6 -10 9 -10 70
-1 101 6 18 5 27 -4 27 -6 0 -8 -4 -5 -10 3 -5 2 -18 -4 -27 -8 -15 -10 -16
-15 -3 -13 40 -16 41 -11 4 4 -32 1 -45 -15 -59 -26 -24 -32 -16 -38 50 -7 84
-22 65 -22 -27z"/>
<path d="M9220 2451 c0 -33 -3 -67 -6 -76 -6 -15 -4 -15 15 -4 22 15 29 53 10
65 -6 3 -9 22 -7 40 2 19 0 34 -4 34 -4 0 -8 -27 -8 -59z"/>
<path d="M9250 2500 c0 -5 5 -10 11 -10 5 0 7 5 4 10 -3 6 -8 10 -11 10 -2 0
-4 -4 -4 -10z"/>
<path d="M8910 2459 c0 -17 -4 -28 -10 -24 -6 4 -7 -5 -4 -23 4 -17 1 -32 -5
-36 -6 -4 -11 -12 -11 -17 0 -6 6 -4 14 4 14 14 34 127 22 127 -3 0 -6 -14 -6
-31z"/>
<path d="M10084 2465 c-9 -13 -14 -29 -12 -35 2 -6 11 5 19 24 19 42 16 46 -7
11z"/>
<path d="M10239 2481 c10 -7 11 -13 2 -30 -16 -29 -34 -27 -29 4 3 13 1 22 -3
19 -17 -10 -9 -53 10 -64 24 -12 41 -13 21 0 -12 8 -12 11 3 28 22 24 22 52 0
52 -14 0 -15 -2 -4 -9z"/>
<path d="M9811 2460 c-9 -50 -10 -170 -1 -170 5 0 10 22 10 48 0 26 6 54 13
61 8 10 8 12 0 7 -8 -4 -13 6 -16 31 -2 21 -5 31 -6 23z"/>
<path d="M10015 2451 c-3 -10 -1 -29 4 -42 8 -21 9 -18 9 19 0 46 -4 52 -13
23z"/>
<path d="M10121 2454 c0 -11 3 -14 6 -6 3 7 2 16 -1 19 -3 4 -6 -2 -5 -13z"/>
<path d="M9908 2437 c-3 -19 -2 -25 4 -19 6 6 8 18 6 28 -3 14 -5 12 -10 -9z"/>
<path d="M9961 2434 c0 -11 3 -14 6 -6 3 7 2 16 -1 19 -3 4 -6 -2 -5 -13z"/>
<path d="M4546 2423 c-6 -14 -5 -15 5 -6 7 7 10 15 7 18 -3 3 -9 -2 -12 -12z"/>
<path d="M2475 2410 c-38 -42 18 -94 78 -71 15 6 27 15 27 21 0 5 5 10 11 10
6 0 9 -7 6 -15 -4 -8 -2 -17 3 -20 5 -3 11 4 15 15 3 11 14 27 23 37 16 15 18
14 28 -22 13 -47 30 -55 45 -21 l12 26 18 -30 c22 -35 39 -38 46 -10 5 20 6
20 25 3 18 -16 18 -16 4 13 -9 16 -13 37 -10 48 4 11 2 16 -4 12 -6 -3 -13
-24 -17 -46 -4 -22 -10 -40 -15 -40 -4 0 -16 21 -27 48 l-20 47 -13 -42 c-7
-24 -17 -43 -21 -43 -4 0 -10 18 -14 40 -7 44 -27 52 -47 20 -17 -27 -26 -25
-30 8 -4 27 -4 27 -20 -10 -21 -48 -60 -60 -91 -29 -18 18 -19 21 -5 21 9 0
19 4 22 9 4 5 -4 7 -16 3 -21 -5 -22 -4 -9 11 15 19 56 24 45 6 -4 -7 -1 -10
6 -7 8 2 16 10 18 16 6 20 -53 14 -73 -8z"/>
<path d="M2940 2421 c0 -6 11 -11 24 -11 29 0 35 -12 29 -60 -3 -28 -1 -31 6
-15 14 29 13 61 -1 73 -21 16 -58 24 -58 13z"/>
<path d="M7690 2423 c0 -11 46 -80 74 -112 24 -27 104 -81 120 -81 6 0 -11 14
-39 31 -59 37 -72 50 -105 104 -27 44 -50 71 -50 58z"/>
<path d="M1445 2405 c-57 -16 -95 -35 -95 -47 0 -5 10 -2 23 5 12 8 43 20 70
27 43 12 49 11 69 -6 20 -18 21 -18 15 -1 -4 10 -7 23 -7 28 0 12 -13 10 -75
-6z"/>
<path d="M1566 2402 c-2 -4 3 -23 11 -41 14 -28 14 -34 2 -43 -12 -8 -12 -9 1
-5 15 4 17 25 5 65 -7 20 -4 22 28 22 35 0 35 0 30 -39 -3 -21 -1 -41 3 -44 5
-3 10 17 11 44 l2 49 -44 0 c-24 0 -46 -4 -49 -8z"/>
<path d="M8354 2400 c-16 -6 -20 -15 -17 -34 3 -14 -1 -34 -8 -44 -13 -16 -12
-16 4 -3 13 10 17 24 15 42 -4 22 0 29 18 33 36 9 54 -3 55 -38 l2 -31 4 30
c7 44 -26 64 -73 45z"/>
<path d="M8581 2323 c0 -50 2 -94 7 -96 4 -3 5 17 4 44 -5 62 3 94 28 119 11
11 16 20 11 20 -6 0 -16 -9 -25 -21 l-14 -21 -5 23 c-2 13 -5 -17 -6 -68z"/>
<path d="M9306 2388 c8 -26 22 -38 45 -38 19 0 45 27 35 37 -3 3 -6 0 -6 -8 0
-11 -2 -11 -10 1 -8 13 -10 12 -10 -3 0 -27 -34 -17 -38 11 -2 12 -8 22 -13
22 -6 0 -7 -10 -3 -22z"/>
<path d="M9448 2403 c7 -3 16 -2 19 1 4 3 -2 6 -13 5 -11 0 -14 -3 -6 -6z"/>
<path d="M1836 2350 c-15 -27 -23 -50 -18 -50 4 0 14 16 22 35 l14 35 12 -30
c13 -30 37 -39 49 -19 5 6 13 3 22 -10 8 -12 20 -21 28 -21 33 0 61 89 34 106
-9 5 -10 -1 -5 -21 5 -18 2 -35 -9 -51 -21 -32 -34 -30 -46 6 -13 35 -24 39
-32 10 -3 -11 -10 -20 -15 -20 -13 0 -26 55 -17 70 3 5 2 10 -3 10 -5 0 -21
-22 -36 -50z"/>
<path d="M2292 2394 c19 -6 30 -37 32 -85 1 -15 5 -24 9 -20 4 4 4 30 0 57 -7
43 -12 49 -33 51 -15 1 -18 0 -8 -3z"/>
<path d="M2950 2363 c-3 -23 -2 -39 3 -34 5 5 7 24 5 42 -3 33 -4 33 -8 -8z"/>
<path d="M8131 2375 c-30 -14 -52 -27 -50 -30 3 -2 31 9 64 25 73 36 61 40
-14 5z"/>
<path d="M9690 2386 c0 -8 -3 -23 -6 -33 -5 -16 -4 -16 10 1 18 22 21 46 6 46
-5 0 -10 -6 -10 -14z"/>
<path d="M1472 2370 c-12 -11 -22 -26 -22 -33 0 -6 7 -1 16 11 l15 22 20 -22
c17 -20 19 -20 11 -3 -5 11 -11 26 -13 33 -3 9 -11 7 -27 -8z"/>
<path d="M2848 2359 c-7 -41 -7 -40 14 -25 13 10 14 15 3 35 -12 24 -12 24
-17 -10z"/>
<path d="M4502 2369 c-19 -30 -11 -32 11 -3 10 13 14 24 10 24 -5 0 -14 -9
-21 -21z"/>
<path d="M8200 2377 c-8 -7 -22 -21 -30 -32 -14 -18 -14 -19 2 -7 9 8 21 11
26 8 6 -3 12 4 15 16 8 27 6 29 -13 15z"/>
<path d="M8704 2375 c-3 -8 -4 -20 -2 -27 3 -7 7 -1 10 15 6 29 1 36 -8 12z"/>
<path d="M9441 2374 c0 -11 3 -14 6 -6 3 7 2 16 -1 19 -3 4 -6 -2 -5 -13z"/>
<path d="M9530 2371 c0 -11 3 -22 8 -24 4 -3 7 6 7 19 0 13 -3 24 -7 24 -5 0
-8 -9 -8 -19z"/>
<path d="M8734 2355 c-10 -20 -9 -23 7 -22 20 1 21 3 11 29 -6 15 -9 14 -18
-7z"/>
<path d="M8224 2353 c-3 -10 -10 -27 -16 -38 -10 -18 -9 -18 5 -7 9 8 20 11
25 8 4 -3 6 8 4 25 -5 33 -10 37 -18 12z"/>
<path d="M8801 2354 c0 -11 3 -14 6 -6 3 7 2 16 -1 19 -3 4 -6 -2 -5 -13z"/>
<path d="M9245 2361 c-3 -5 -1 -12 5 -16 5 -3 10 1 10 9 0 18 -6 21 -15 7z"/>
<path d="M9940 2360 c0 -5 -8 -10 -17 -10 -10 0 -25 -5 -33 -11 -11 -8 -8 -9
14 -4 16 3 39 13 50 21 18 12 18 14 3 14 -9 0 -17 -4 -17 -10z"/>
<path d="M1531 2349 c-3 -37 -72 -67 -84 -36 -3 7 -6 5 -6 -5 -1 -12 6 -18 22
-18 23 0 111 29 90 30 -6 0 -14 10 -16 23 -2 12 -5 15 -6 6z"/>
<path d="M8659 2343 c-13 -16 -12 -17 4 -4 16 13 21 21 13 21 -2 0 -10 -8 -17
-17z"/>
<path d="M9081 2345 c-1 -11 -4 -31 -6 -45 l-6 -25 11 25 c6 13 9 33 7 45 -4
19 -4 19 -6 0z"/>
<path d="M8610 2320 c-8 -5 -10 -10 -5 -10 6 0 17 5 25 10 8 5 11 10 5 10 -5
0 -17 -5 -25 -10z"/>
<path d="M4449 2303 c-13 -16 -12 -17 4 -4 9 7 17 15 17 17 0 8 -8 3 -21 -13z"/>
<path d="M8158 2293 c6 -2 18 -2 25 0 6 3 1 5 -13 5 -14 0 -19 -2 -12 -5z"/>
<path d="M4317 2181 c-119 -115 -167 -154 -314 -254 -144 -98 -283 -181 -425
-253 -65 -32 -120 -64 -122 -71 -7 -17 91 28 188 86 45 27 108 62 142 79 33
17 66 37 73 46 8 9 18 16 23 16 15 0 215 141 314 222 73 59 244 228 231 228
-4 0 -54 -45 -110 -99z"/>
<path d="M9640 2249 c0 -5 5 -7 10 -4 6 3 10 8 10 11 0 2 -4 4 -10 4 -5 0 -10
-5 -10 -11z"/>
<path d="M6024 2207 c22 -16 23 -64 2 -105 -9 -17 -19 -32 -21 -32 -2 0 -9 15
-15 33 -10 32 -10 32 -6 -10 2 -22 -1 -47 -8 -54 -8 -9 -7 -11 5 -6 9 3 21 -3
28 -15 15 -25 26 -17 12 9 -8 15 -4 31 15 69 17 33 23 57 19 74 -8 29 -23 50
-38 50 -6 0 -3 -6 7 -13z"/>
<path d="M7922 2204 c10 -10 20 -15 24 -12 3 4 -5 12 -18 18 -22 12 -22 12 -6
-6z"/>
<path d="M5469 2202 c-3 -8 -35 -16 -89 -21 -58 -6 -70 -9 -39 -10 45 -1 47
-2 53 -38 3 -21 6 -66 6 -100 0 -40 4 -63 11 -63 8 0 10 28 4 100 l-7 100 30
0 c29 0 30 -2 36 -57 14 -118 18 -143 27 -137 5 3 7 10 3 15 -8 13 15 79 28
79 6 0 25 -16 43 -36 28 -30 41 -37 82 -40 39 -3 42 -2 17 5 -58 15 -69 37
-39 77 13 16 16 17 25 4 5 -8 8 -21 5 -27 -17 -43 -17 -48 0 -28 9 11 15 31
13 45 -2 19 -9 25 -28 25 -19 0 -27 -7 -35 -31 l-10 -32 -28 24 c-33 28 -52
30 -66 7 -11 -20 -14 -11 -28 92 -5 33 -11 54 -14 47z"/>
<path d="M9488 2203 c7 -3 16 -2 19 1 4 3 -2 6 -13 5 -11 0 -14 -3 -6 -6z"/>
<path d="M5985 2189 c-4 -6 -5 -12 -2 -15 2 -3 7 2 10 11 7 17 1 20 -8 4z"/>
<path d="M9448 2193 c7 -3 16 -2 19 1 4 3 -2 6 -13 5 -11 0 -14 -3 -6 -6z"/>
<path d="M9270 2160 c-9 -6 -10 -10 -3 -10 6 0 15 5 18 10 8 12 4 12 -15 0z"/>
<path d="M9208 2143 c7 -3 16 -2 19 1 4 3 -2 6 -13 5 -11 0 -14 -3 -6 -6z"/>
<path d="M9035 2100 c-28 -7 -28 -8 -5 -9 14 0 32 4 40 9 17 11 8 11 -35 0z"/>
<path d="M5889 2087 c-5 -50 4 -214 12 -226 7 -11 9 4 6 52 -4 64 -3 69 18 77
35 13 48 67 21 89 -20 17 -56 22 -57 8z m49 -19 c19 -19 14 -44 -13 -56 -24
-11 -25 -11 -25 28 0 41 14 52 38 28z"/>
<path d="M6516 2084 c-26 -25 -33 -46 -39 -104 -3 -30 -4 -47 -1 -37 5 15 8
16 27 2 36 -25 63 -19 88 23 12 20 24 39 26 41 8 11 43 -35 43 -56 0 -22 -9
-28 -40 -23 -11 1 -12 -1 -4 -10 23 -23 49 -7 52 31 3 32 -2 40 -36 68 -42 33
-63 41 -42 16 10 -12 8 -22 -14 -55 -29 -44 -45 -49 -69 -22 -24 26 -21 63 8
106 26 38 26 46 1 20z"/>
<path d="M6227 2052 c4 -29 1 -43 -13 -56 -17 -18 -18 -17 -31 0 -8 11 -12 27
-9 36 2 10 1 20 -4 23 -4 3 -10 -5 -14 -18 -8 -29 -8 -42 0 -34 4 3 15 -4 25
-16 l19 -22 19 23 c19 22 20 22 30 3 15 -28 14 -32 -14 -65 -32 -37 -34 -89
-3 -110 12 -8 26 -12 31 -9 5 3 1 10 -9 16 -42 23 -45 63 -9 97 14 13 25 19
25 14 1 -5 8 -31 16 -59 l14 -50 -4 54 c-3 29 -10 59 -15 65 -8 9 -2 20 18 40
27 26 48 96 29 96 -4 0 -8 -12 -8 -27 -1 -16 -11 -41 -24 -56 l-23 -29 -17 41
c-9 23 -16 50 -16 61 0 11 -4 20 -9 20 -5 0 -7 -17 -4 -38z"/>
<path d="M8398 2083 c12 -2 32 -2 45 0 12 2 2 4 -23 4 -25 0 -35 -2 -22 -4z"/>
<path d="M8968 2083 c7 -3 16 -2 19 1 4 3 -2 6 -13 5 -11 0 -14 -3 -6 -6z"/>
<path d="M6378 2060 c41 -25 49 -46 27 -70 -10 -11 -13 -20 -7 -20 6 0 18 10
26 22 16 22 16 22 31 3 8 -11 14 -15 14 -10 0 15 -25 45 -32 38 -4 -3 -9 2
-13 11 -4 9 -19 23 -35 31 -41 22 -49 18 -11 -5z"/>
<path d="M7675 2064 c-24 -24 -44 -80 -52 -141 -6 -59 14 -220 30 -230 5 -3 7
3 3 13 -10 32 -24 184 -19 203 3 10 19 24 36 30 l32 11 -32 -5 c-23 -3 -33 -1
-33 9 0 23 29 85 50 106 11 11 16 20 11 20 -5 0 -17 -7 -26 -16z"/>
<path d="M6062 2040 c-12 -12 -22 -28 -22 -38 0 -12 4 -11 13 7 27 53 77 49
77 -5 0 -13 5 -24 10 -24 13 0 13 4 -4 45 -17 40 -41 45 -74 15z"/>
<path d="M6906 2014 c-3 -9 -6 -24 -6 -33 0 -24 -33 -53 -53 -46 -19 8 -30 46
-17 59 6 6 10 14 10 20 0 5 -9 0 -20 -12 -12 -12 -25 -22 -30 -22 -6 0 -10 -4
-10 -9 0 -5 9 -7 20 -4 14 4 20 0 20 -10 0 -28 38 -41 66 -22 13 8 25 21 25
28 1 6 3 24 5 40 3 30 -1 35 -10 11z"/>
<path d="M7318 2010 c19 -4 39 -13 45 -19 8 -8 -28 -11 -133 -11 -79 0 -141
-2 -139 -4 2 -2 64 -6 137 -7 72 -2 132 -5 132 -8 0 -2 -12 -19 -26 -38 -14
-19 -24 -36 -21 -39 2 -2 17 12 33 33 15 21 31 39 35 41 4 2 4 12 2 23 -6 22
-41 40 -76 38 -15 -1 -11 -4 11 -9z"/>
<path d="M6965 1968 c25 -30 26 -33 9 -45 -20 -15 -14 -26 10 -17 9 3 16 13
16 20 0 20 -28 61 -47 68 -8 4 -3 -7 12 -26z"/>
<path d="M7851 1971 c-10 -6 -12 -19 -7 -41 4 -21 1 -39 -6 -48 -11 -13 -10
-14 2 -10 10 3 15 19 15 49 0 38 3 44 19 41 26 -5 43 -24 49 -53 4 -23 4 -23
6 3 1 18 -8 33 -25 47 -30 24 -33 24 -53 12z"/>
<path d="M2324 1954 c9 -8 16 -32 16 -52 -1 -29 -3 -33 -10 -21 -5 9 -11 26
-13 38 -3 22 -17 41 -17 24 0 -6 7 -29 15 -53 15 -41 14 -42 -14 -71 -33 -32
-81 -40 -81 -13 0 9 10 24 23 34 27 22 13 44 -24 37 -20 -4 -19 -4 6 -6 l30
-1 -30 -20 c-28 -18 -30 -18 -37 -2 -6 15 -7 15 -7 1 -1 -12 -8 -15 -26 -11
-15 2 -25 0 -25 -7 0 -6 9 -11 20 -11 28 0 25 -26 -6 -47 -25 -16 -27 -16 -40
2 -18 24 -18 29 5 73 18 35 25 67 22 102 -1 12 -3 12 -16 -1 -18 -17 -48 -151
-36 -159 4 -3 10 -13 14 -22 3 -10 13 -18 22 -18 26 0 65 31 65 51 0 25 26 24
33 -1 8 -32 78 -21 100 16 12 21 27 17 27 -6 0 -25 8 -25 40 0 14 11 33 20 44
20 16 0 17 -5 12 -37 -5 -28 -4 -34 3 -23 7 10 11 11 11 3 0 -8 12 -12 28 -12
22 1 23 2 5 6 -14 3 -24 14 -28 34 -9 39 -31 47 -68 25 -39 -22 -48 -8 -40 61
6 51 -5 83 -29 83 -5 0 -2 -7 6 -16z m-209 -61 c-8 -27 -15 -50 -15 -52 0 -2
-2 -2 -5 1 -8 8 16 98 26 98 4 0 2 -21 -6 -47z"/>
<path d="M7966 1929 c-25 -42 -16 -44 11 -3 12 19 19 34 15 34 -4 0 -16 -14
-26 -31z"/>
<path d="M9172 1906 c-1 -43 -7 -62 -19 -72 -17 -12 -16 -13 3 -8 19 5 23 0
29 -35 4 -23 11 -43 15 -46 5 -3 5 9 -1 27 -16 56 -13 60 30 56 22 -2 37 0 35
4 -3 5 -23 8 -44 8 l-39 0 -4 63 -3 62 -2 -59z"/>
<path d="M7735 1940 c4 -6 10 -8 14 -6 8 5 11 -10 12 -53 1 -16 4 -20 11 -13
6 6 18 8 27 5 14 -4 14 -3 -1 6 -9 6 -19 25 -23 41 -5 21 -13 30 -26 30 -11 0
-17 -5 -14 -10z"/>
<path d="M8717 1934 c-8 -14 -38 -176 -33 -181 2 -3 9 22 16 54 22 112 24 115
44 52 10 -31 28 -69 41 -85 22 -26 22 -24 -5 31 -16 33 -35 78 -43 99 -8 21
-17 35 -20 30z"/>
<path d="M8046 1911 c-29 -32 -17 -71 31 -105 24 -16 45 -27 49 -24 3 3 -13
17 -36 31 -37 22 -39 25 -24 38 23 19 34 52 22 67 -14 17 -22 15 -42 -7z m34
-7 c0 -21 -18 -54 -30 -54 -13 0 -13 26 0 51 13 23 30 25 30 3z"/>
<path d="M8830 1843 c-3 -51 -1 -89 3 -84 4 4 7 46 5 92 l-3 84 -5 -92z"/>
<path d="M9560 1924 c14 -3 44 -7 67 -10 l42 -5 4 -82 3 -82 2 81 2 81 28 -3
c19 -3 16 0 -13 10 -22 8 -67 14 -100 14 -33 0 -49 -2 -35 -4z"/>
<path d="M9967 1919 c-24 -14 -47 -69 -47 -113 0 -26 -7 -40 -31 -60 -17 -14
-27 -26 -23 -26 4 0 21 12 37 28 26 25 29 26 38 10 6 -10 15 -18 20 -18 6 0 3
7 -5 16 -20 20 -20 38 0 55 22 18 44 64 44 94 0 27 -6 30 -33 14z m18 -36 c-3
-15 -17 -41 -30 -58 -23 -28 -25 -28 -25 -8 0 31 18 76 37 90 22 17 26 11 18
-24z"/>
<path d="M1061 1903 c-1 -25 -21 -42 -21 -19 0 9 -4 16 -10 16 -5 0 -10 -6
-10 -13 0 -8 -10 -19 -22 -26 -22 -11 -22 -11 5 -6 34 7 34 2 1 -41 -15 -19
-22 -34 -16 -34 5 0 18 12 27 27 15 23 19 24 27 10 13 -24 31 -22 18 2 -18 34
-12 45 15 27 24 -16 25 -16 25 4 0 11 -4 20 -8 20 -5 0 -13 12 -19 28 -10 24
-11 25 -12 5z"/>
<path d="M6928 1913 c7 -3 16 -2 19 1 4 3 -2 6 -13 5 -11 0 -14 -3 -6 -6z"/>
<path d="M8440 1908 c19 -5 41 -14 48 -20 8 -7 12 -7 12 1 0 14 -43 31 -73 30
-15 -1 -11 -4 13 -11z"/>
<path d="M9597 1893 c-9 -9 -8 -103 2 -127 4 -11 7 14 7 57 -1 43 -1 77 -2 77
0 0 -4 -3 -7 -7z"/>
<path d="M1358 1874 c-29 -15 -38 -44 -14 -44 16 0 46 -27 46 -41 0 -5 -10
-14 -22 -19 -23 -10 -23 -10 2 -7 15 1 26 9 28 20 4 21 -24 57 -45 57 -10 0
-21 20 -10 20 16 1 77 29 62 29 -11 0 -32 -7 -47 -15z"/>
<path d="M1762 1878 c-14 -14 -16 -68 -2 -68 6 0 10 -4 10 -10 0 -5 -6 -10
-14 -10 -17 0 -66 56 -66 76 0 18 -24 18 -40 -1 -9 -10 -9 -15 -1 -15 6 0 11
5 11 10 0 21 17 8 33 -25 16 -34 24 -40 92 -62 17 -6 39 -14 50 -18 14 -6 12
-1 -8 14 -15 13 -24 27 -21 33 4 6 1 9 -7 6 -16 -6 -38 20 -39 44 0 27 49 36
68 12 14 -18 14 -18 8 -1 -3 10 -6 21 -6 23 0 10 -57 3 -68 -8z"/>
<path d="M2670 1855 c-1 -46 -11 -75 -26 -75 -8 0 -14 1 -14 3 0 1 -6 20 -14
41 l-13 39 -15 -44 c-8 -24 -19 -44 -24 -44 -5 0 -16 15 -24 32 -14 31 -42 43
-54 24 -4 -5 4 -7 16 -3 19 5 21 2 15 -29 -5 -25 -4 -30 3 -19 9 13 12 13 21
-2 15 -26 38 -22 45 7 7 27 24 34 24 11 0 -16 34 -31 50 -21 5 3 10 13 10 21
0 20 13 17 28 -6 15 -24 38 -26 50 -5 7 13 10 11 21 -11 20 -44 23 -20 3 27
l-19 43 -6 -33 c-10 -48 -37 -37 -58 24 -16 44 -18 46 -19 20z"/>
<path d="M7700 1868 c0 -13 7 -18 28 -17 21 1 22 2 7 6 -11 3 -23 10 -27 17
-5 7 -8 5 -8 -6z"/>
<path d="M2964 1836 c8 -43 -5 -66 -38 -66 -16 0 -24 9 -31 33 -12 40 -46 48
-69 15 -18 -25 -21 -54 -7 -62 5 -4 7 3 4 14 -3 11 0 27 8 36 11 14 14 12 27
-11 12 -24 12 -28 -5 -42 -17 -14 -17 -14 2 -7 11 3 38 10 60 13 61 11 68 18
61 63 l-6 39 30 -16 c18 -9 32 -26 36 -43 10 -48 13 -52 37 -52 26 0 46 19 69
64 l15 28 21 -34 c26 -42 27 -51 6 -86 l-16 -27 25 27 c22 24 25 32 16 57 -5
15 -23 40 -38 56 l-29 27 -7 -30 c-13 -62 -85 -95 -85 -39 0 23 -33 67 -50 67
-4 0 -16 3 -26 7 -15 5 -16 2 -10 -31z m-80 -22 c11 -27 7 -37 -9 -24 -16 14
-20 40 -6 40 5 0 12 -7 15 -16z"/>
<path d="M7969 1858 c7 -10 23 -17 35 -17 20 1 20 2 1 6 -11 3 -27 10 -35 17
-13 10 -13 9 -1 -6z"/>
<path d="M8230 1858 c0 -11 200 -9 225 2 12 5 -29 7 -102 7 -68 -1 -123 -5
-123 -9z"/>
<path d="M8491 1854 c0 -11 3 -14 6 -6 3 7 2 16 -1 19 -3 4 -6 -2 -5 -13z"/>
<path d="M1437 1853 c-13 -12 -7 -70 7 -83 23 -18 61 -8 64 16 2 12 12 30 23
40 17 16 19 16 20 1 4 -50 13 -55 29 -17 7 16 16 30 20 30 10 0 20 -26 20 -52
0 -12 3 -18 7 -15 9 10 10 66 1 60 -5 -2 -8 1 -8 6 0 17 -32 13 -46 -6 -13
-17 -13 -17 -14 0 0 20 -4 21 -32 6 -17 -9 -23 -8 -30 5 -5 9 -14 16 -20 16
-6 0 -5 -6 3 -16 12 -14 11 -16 -6 -12 -11 2 -19 10 -17 16 2 13 -11 16 -21 5z
m50 -33 c22 0 12 -44 -11 -48 -21 -4 -36 13 -36 42 0 12 5 16 16 12 9 -3 22
-6 31 -6z"/>
<path d="M8905 1850 c-3 -5 0 -7 9 -4 8 3 16 -2 19 -13 4 -14 5 -14 6 5 1 22
-22 31 -34 12z"/>
<path d="M9099 1834 c13 -17 21 -42 21 -68 1 -34 2 -38 11 -23 14 23 4 75 -18
99 -25 28 -37 21 -14 -8z"/>
<path d="M8470 1810 c-6 -11 -8 -20 -6 -20 3 0 10 9 16 20 6 11 8 20 6 20 -3
0 -10 -9 -16 -20z"/>
<path d="M8890 1807 c0 -14 5 -29 10 -32 7 -4 8 3 4 22 -9 38 -14 42 -14 10z"/>
<path d="M9031 1813 c-2 -33 -12 -53 -27 -53 -16 0 -33 30 -27 50 2 8 -1 6 -8
-5 -7 -11 -17 -24 -23 -28 -7 -6 -5 -7 6 -4 9 3 22 -1 28 -9 15 -17 50 -19 50
-2 0 7 8 1 17 -12 21 -30 33 -40 53 -39 9 0 7 3 -5 9 -30 12 -47 36 -56 78 -3
20 -7 27 -8 15z"/>
<path d="M9298 1823 c7 -3 16 -2 19 1 4 3 -2 6 -13 5 -11 0 -14 -3 -6 -6z"/>
<path d="M9329 1811 c-23 -5 -25 -8 -13 -19 8 -7 14 -9 14 -4 0 5 10 14 23 20
24 12 16 13 -24 3z"/>
<path d="M6753 1803 c32 -4 36 -7 26 -19 -6 -8 -10 -17 -7 -20 3 -2 13 7 22
21 l16 25 -47 -2 c-45 -1 -45 -2 -10 -5z"/>
<path d="M9398 1796 c-26 -19 -22 -30 4 -12 33 24 43 20 56 -21 l11 -38 -6 35
c-3 19 -7 38 -10 43 -7 11 -36 8 -55 -7z"/>
<path d="M6670 1780 l-75 -6 83 -2 c49 -1 82 2 82 8 0 6 -3 9 -7 8 -5 -1 -42
-4 -83 -8z"/>
<path d="M9360 1766 c0 -22 3 -27 11 -19 8 8 8 16 0 30 -9 16 -10 14 -11 -11z"/>
<path d="M10010 1775 c-7 -9 -11 -17 -9 -20 3 -2 10 5 17 15 14 24 10 26 -8 5z"/>
<path d="M10044 1765 c-9 -14 -24 -25 -33 -26 -11 0 -12 -2 -3 -6 7 -3 20 1
28 8 13 10 17 10 23 0 5 -8 8 -1 7 18 -1 17 -2 31 -3 31 -2 0 -10 -11 -19 -25z"/>
<path d="M10275 1771 c11 -5 40 -11 65 -14 l45 -7 -50 15 c-54 16 -94 19 -60
6z"/>
<path d="M10190 1747 c0 -30 -24 -52 -46 -43 -12 5 -14 14 -10 34 l7 27 -18
-21 c-10 -12 -25 -24 -33 -27 -9 -3 -5 -6 11 -6 14 -1 30 -6 37 -13 9 -9 18
-9 37 0 20 10 25 9 25 -3 0 -20 44 -47 72 -43 32 4 55 49 41 79 -11 22 -11 21
-11 -14 1 -40 -12 -57 -44 -57 -25 0 -59 48 -52 75 3 13 1 26 -5 29 -7 5 -11
-2 -11 -17z"/>
<path d="M9258 1743 c6 -2 18 -2 25 0 6 3 1 5 -13 5 -14 0 -19 -2 -12 -5z"/>
<path d="M9541 1736 c2 -2 33 -6 69 -9 41 -3 54 -2 35 3 -31 8 -112 13 -104 6z"/>
<path d="M6438 1723 c-64 -7 -49 -24 34 -39 21 -3 43 -13 50 -21 10 -13 6 -21
-27 -49 -22 -19 -35 -34 -29 -34 14 0 74 63 74 78 0 16 -37 35 -85 43 l-40 6
50 3 c28 2 58 4 67 5 9 0 20 4 24 8 7 7 -49 7 -118 0z"/>
<path d="M6658 1685 c3 -24 0 -35 -9 -35 -9 0 -8 -4 3 -12 9 -7 19 -34 23 -60
3 -27 11 -48 16 -48 6 0 8 3 6 8 -3 4 -8 28 -11 54 l-6 46 52 8 53 9 -55 5
c-47 4 -55 8 -58 27 -3 20 2 22 50 26 l53 3 -60 2 -61 2 4 -35z"/>
<path d="M2401 1690 c-103 -13 -104 -24 -1 -13 47 4 167 7 267 6 250 -2 407
-22 682 -89 79 -19 145 -33 148 -30 3 2 -15 10 -38 16 -24 6 -55 15 -69 20
-47 17 -104 29 -285 60 -156 27 -210 32 -405 35 -124 2 -258 0 -299 -5z"/>
<path d="M6050 1681 c0 -5 9 -13 20 -16 39 -12 19 -22 -47 -24 -93 -2 -93 -11
0 -11 80 0 95 7 77 40 -11 20 -50 28 -50 11z"/>
<path d="M2240 1661 c-107 -30 -228 -81 -275 -117 -25 -19 -49 -34 -54 -34
-11 0 -111 -108 -111 -121 0 -5 -17 -10 -37 -10 -31 -2 -33 -3 -10 -6 32 -5
31 -2 11 -42 -9 -18 -14 -34 -12 -37 3 -2 13 14 23 36 14 31 24 40 44 41 17 1
20 3 9 6 -27 7 -22 17 31 68 93 89 196 147 332 189 48 14 94 26 103 26 9 0 16
5 16 10 0 6 -1 10 -2 9 -2 0 -32 -9 -68 -18z"/>
<path d="M3635 1640 c-19 -8 -19 -9 3 -9 12 -1 22 4 22 9 0 6 -1 10 -2 9 -2 0
-12 -4 -23 -9z"/>
<path d="M7033 1594 c-39 -17 -39 -20 -11 -73 26 -49 34 -48 13 2 -8 20 -15
41 -15 46 0 15 78 33 111 26 18 -4 29 -3 29 4 0 16 -89 12 -127 -5z"/>
<path d="M4647 1593 c-2 -5 -7 -21 -11 -38 -35 -154 -103 -309 -164 -378 -20
-23 -46 -53 -57 -67 l-20 -25 25 20 c13 11 32 29 41 40 9 11 27 31 39 45 55
63 135 254 156 373 6 34 1 48 -9 30z"/>
<path d="M6185 1590 l-30 -8 35 0 c19 0 44 3 55 8 18 8 18 9 -5 8 -14 0 -38
-4 -55 -8z"/>
<path d="M3652 1553 c-1 -23 -9 -77 -17 -120 -16 -84 -18 -99 -10 -91 11 11
36 173 32 211 l-4 42 -1 -42z"/>
<path d="M6020 1579 c-35 -14 -70 -49 -70 -71 0 -28 43 -44 80 -28 16 7 30 17
30 22 0 5 -10 2 -22 -6 -28 -20 -52 -20 -68 -1 -20 24 12 62 68 79 26 8 38 15
27 15 -11 0 -31 -5 -45 -10z"/>
<path d="M2234 1496 c-1 -103 -16 -131 -25 -46 -6 64 -6 64 -4 -15 1 -44 0
-86 -2 -92 -9 -25 -32 -12 -43 25 -7 20 -16 41 -20 45 -8 9 -86 -7 -137 -28
-55 -23 -34 -27 25 -5 l52 20 -2 -32 c-3 -38 22 -50 51 -24 15 14 18 13 29 -4
15 -24 35 -26 52 -5 9 11 16 13 24 5 17 -17 54 -11 70 12 15 21 16 21 29 4 10
-14 22 -17 61 -12 26 2 58 12 71 20 14 9 27 16 30 16 15 0 1 -49 -26 -91 -33
-52 -35 -92 -6 -97 35 -7 57 26 57 86 0 54 21 106 47 116 9 4 13 -5 13 -29 0
-19 5 -35 10 -35 6 0 10 16 10 36 0 34 1 36 27 29 35 -8 45 -23 38 -58 -7 -41
22 -48 51 -12 20 25 22 26 26 9 3 -13 8 -6 18 24 7 23 17 42 22 42 4 0 8 5 8
11 0 8 -6 7 -17 -2 -13 -11 -17 -11 -20 -1 -8 22 -23 12 -23 -15 0 -16 -11
-41 -25 -58 l-25 -30 6 27 c7 32 -32 78 -67 78 -12 0 -28 8 -35 18 -10 12 -13
13 -14 3 0 -7 -13 -28 -29 -46 l-29 -33 -6 38 c-5 34 -10 40 -42 49 -48 13
-68 2 -83 -49 -14 -48 -32 -48 -46 -2 -10 35 -25 43 -25 14 0 -41 -57 -82 -74
-53 -3 4 1 39 9 77 13 64 12 129 -4 138 -3 2 -6 -29 -7 -68z m221 -68 c17 3
27 -1 32 -13 8 -23 -29 -55 -63 -55 -19 0 -24 5 -24 25 0 14 5 25 10 25 6 0 9
3 9 8 -3 15 3 27 7 16 3 -6 16 -9 29 -6z m-315 -47 c0 -24 -25 -45 -45 -37
-19 7 -19 21 1 40 21 22 44 20 44 -3z m367 -108 c-3 -21 -8 -46 -12 -55 -9
-21 -45 -24 -45 -4 0 13 49 96 57 96 2 0 2 -17 0 -37z"/>
<path d="M6069 1547 c-7 -31 8 -107 21 -107 4 0 4 17 0 38 -5 20 -10 51 -12
67 l-3 30 -6 -28z"/>
<path d="M6431 1556 c-12 -14 -10 -16 16 -16 16 0 51 -7 77 -16 26 -9 49 -14
52 -11 6 6 -83 37 -107 37 -10 0 -19 5 -21 11 -2 7 -9 5 -17 -5z"/>
<path d="M6233 1553 c-18 -2 -33 -8 -33 -14 0 -12 17 -10 60 6 36 14 31 15
-27 8z"/>
<path d="M8988 1550 c-24 -15 -19 -182 7 -210 10 -11 23 -20 29 -20 6 0 0 7
-12 16 -14 10 -22 26 -22 44 0 25 4 29 33 33 l32 4 -35 1 -35 2 -2 61 -2 61
42 -6 c40 -6 41 -5 17 9 -30 17 -30 17 -52 5z"/>
<path d="M8354 1524 c-4 -14 -4 -48 -1 -75 10 -85 -20 -123 -65 -82 -17 15
-18 15 -18 0 0 -10 -5 -17 -11 -17 -7 0 -9 10 -7 25 3 13 1 22 -3 19 -5 -3 -9
4 -9 15 0 26 -36 51 -73 51 -26 0 -28 -3 -23 -22 18 -61 17 -93 -5 -128 l-22
-35 -17 85 c-10 47 -18 73 -19 59 0 -15 -11 -39 -23 -55 l-22 -29 26 23 26 24
7 -56 c7 -51 5 -60 -20 -96 -29 -42 -30 -73 -1 -78 25 -5 36 14 36 64 0 25 6
47 16 55 32 27 47 71 41 126 -3 29 -4 53 -3 53 2 0 17 -5 35 -11 35 -12 38
-27 15 -67 l-16 -27 20 24 20 25 4 -24 c3 -21 9 -24 50 -26 39 -3 50 1 63 19
8 12 15 16 15 10 0 -20 20 -66 26 -60 3 3 0 16 -7 29 -8 15 -12 57 -11 116 2
89 -10 122 -24 66z m13 -41 c-3 -10 -5 -2 -5 17 0 19 2 27 5 18 2 -10 2 -26 0
-35z m-271 -309 c-7 -19 -36 -18 -36 1 0 9 8 28 18 43 l17 26 3 -28 c2 -15 1
-34 -2 -42z"/>
<path d="M9297 1499 c-4 -28 -2 -73 4 -99 8 -35 7 -55 -1 -70 -15 -28 -31 -22
-52 21 -17 32 -18 32 -18 9 0 -15 -6 -32 -12 -40 -11 -12 -10 -12 5 0 17 12
20 12 28 -3 13 -22 38 -22 54 0 12 16 14 16 29 0 23 -23 33 -22 13 1 -14 15
-16 35 -13 113 4 81 4 85 -3 27 -11 -100 -23 -96 -19 5 3 95 -6 117 -15 36z"/>
<path d="M7060 1534 c0 -5 26 -21 58 -37 70 -33 86 -47 138 -117 45 -62 81
-120 180 -295 37 -66 86 -145 110 -175 91 -118 292 -293 396 -346 27 -13 48
-23 48 -20 0 2 -37 27 -82 57 -151 98 -303 242 -386 364 -48 72 -59 91 -121
210 -51 97 -91 165 -115 196 -12 14 -32 40 -46 58 -26 36 -92 84 -125 93 -11
3 -28 9 -37 13 -10 4 -18 3 -18 -1z"/>
<path d="M7886 1514 c-9 -25 -7 -72 4 -79 6 -4 10 13 10 44 0 53 -4 62 -14 35z"/>
<path d="M3148 1480 c3 -30 -1 -41 -19 -54 -20 -14 -21 -16 -5 -16 16 0 18 -6
13 -52 -3 -29 -4 -47 -1 -40 10 22 24 13 24 -15 0 -18 3 -24 10 -17 6 6 6 22
0 44 -6 19 -10 67 -10 107 0 39 -3 74 -8 77 -4 2 -6 -13 -4 -34z"/>
<path d="M3857 1513 c-4 -3 -7 -25 -6 -47 l1 -41 9 44 c9 45 8 56 -4 44z"/>
<path d="M3757 1489 c-3 -11 -10 -18 -16 -15 -5 4 -12 2 -16 -4 -3 -5 1 -10
10 -10 12 0 14 -4 5 -19 -13 -25 -13 -41 1 -18 6 9 14 15 20 12 5 -4 9 1 9 9
0 8 10 16 22 18 12 2 23 9 26 16 2 8 -2 10 -14 5 -10 -4 -22 0 -29 11 -12 15
-13 15 -18 -5z"/>
<path d="M7660 1490 c0 -5 9 -10 20 -10 11 0 20 5 20 10 0 6 -9 10 -20 10 -11
0 -20 -4 -20 -10z"/>
<path d="M6470 1459 c-51 -4 -27 -6 75 -3 83 1 184 -1 225 -5 77 -8 119 -2 65
10 -39 8 -268 7 -365 -2z"/>
<path d="M7682 1398 c-2 -54 -5 -67 -19 -71 -10 -3 0 -5 22 -5 22 0 32 2 23 5
-14 3 -18 18 -21 71 l-3 67 -2 -67z"/>
<path d="M7949 1433 c-13 -16 -12 -17 3 -5 20 16 38 8 39 -16 0 -11 2 -12 6
-4 5 13 -13 42 -27 42 -4 0 -14 -8 -21 -17z"/>
<path d="M8648 1433 c6 -2 18 -2 25 0 6 3 1 5 -13 5 -14 0 -19 -2 -12 -5z"/>
<path d="M2914 1380 c8 -60 -4 -65 -36 -15 -22 34 -40 41 -72 29 -18 -7 -23
-74 -6 -74 6 0 10 16 10 35 0 47 30 48 59 2 18 -30 25 -33 71 -34 42 -1 53 3
62 21 12 21 12 21 18 -4 l7 -25 13 28 c18 37 26 34 35 -10 4 -21 10 -32 12
-26 6 17 -16 83 -27 83 -5 0 -12 -4 -15 -10 -9 -15 -25 -12 -25 5 0 8 -4 15
-10 15 -5 0 -10 -8 -10 -18 0 -29 -23 -54 -43 -46 -14 5 -17 13 -12 36 4 17 2
35 -5 43 -24 29 -33 16 -26 -35z m25 -2 c1 -5 -3 -8 -9 -8 -5 0 -10 12 -9 28
0 24 1 25 9 7 5 -11 9 -23 9 -27z"/>
<path d="M7756 1396 c2 -16 4 -35 4 -42 0 -27 18 -13 24 19 l7 32 29 -35 c25
-29 31 -32 40 -20 5 8 9 22 9 30 0 8 -5 4 -10 -9 l-10 -25 -26 37 c-26 36 -43
40 -43 9 0 -18 -15 -6 -23 18 -2 8 -3 2 -1 -14z"/>
<path d="M7871 1414 c0 -11 3 -14 6 -6 3 7 2 16 -1 19 -3 4 -6 -2 -5 -13z"/>
<path d="M8035 1420 c-3 -5 -2 -10 4 -10 5 0 13 5 16 10 3 6 2 10 -4 10 -5 0
-13 -4 -16 -10z"/>
<path d="M8690 1427 c0 -16 31 -117 37 -117 9 0 -8 72 -22 100 -8 14 -14 21
-15 17z"/>
<path d="M9495 1410 c-4 -11 -3 -35 0 -52 6 -27 3 -35 -21 -55 -16 -13 -23
-23 -16 -23 22 0 65 50 59 68 -19 59 -19 62 -2 68 24 10 47 -19 56 -68 l6 -43
2 41 c2 65 -67 117 -84 64z"/>
<path d="M7902 1395 c0 -16 3 -39 8 -50 8 -18 9 -17 9 8 1 32 11 35 29 7 7
-11 17 -20 23 -20 6 0 3 8 -7 17 -15 16 -15 17 2 24 14 6 9 8 -18 8 -26 1 -38
6 -41 19 -3 9 -5 4 -5 -13z"/>
<path d="M8600 1411 c0 -8 -15 -10 -52 -6 -29 3 -47 2 -40 -1 13 -6 17 -84 5
-84 -26 1 -36 20 -30 56 4 27 3 34 -3 24 -19 -30 -12 -70 16 -82 33 -15 46 3
38 50 -7 34 3 40 36 22 13 -7 21 -6 30 5 7 9 10 18 6 22 -3 3 -6 1 -6 -6z"/>
<path d="M6624 1398 c-12 -19 -16 -100 -4 -93 5 3 10 14 10 23 0 9 9 28 19 41
l18 24 8 -29 c4 -16 9 -40 12 -54 7 -40 13 -36 13 8 0 76 15 89 55 46 31 -34
39 -58 26 -83 -7 -12 -7 -22 -2 -26 16 -9 24 60 11 86 -14 28 -60 68 -76 69
-7 0 -15 -10 -18 -22 l-7 -23 -9 23 c-10 23 -44 30 -56 10z m26 -7 c0 -6 -4
-13 -10 -16 -5 -3 -10 1 -10 9 0 9 5 16 10 16 6 0 10 -4 10 -9z"/>
<path d="M8408 1400 c17 -8 22 -18 24 -52 l1 -43 4 38 c5 41 -10 67 -36 66
-11 0 -9 -3 7 -9z"/>
<path d="M9158 1378 c-3 -16 -1 -28 3 -28 5 0 9 -6 9 -14 0 -17 18 -31 28 -21
3 3 0 10 -7 14 -7 5 -16 24 -20 42 l-7 34 -6 -27z"/>
<path d="M9360 1368 c1 -7 8 -24 16 -38 l15 -25 -6 25 c-4 14 -7 31 -7 38 -1
6 -5 12 -10 12 -4 0 -8 -6 -8 -12z"/>
<path d="M8578 1364 c-5 -4 -8 -16 -8 -28 0 -14 3 -17 11 -9 6 6 9 19 7 28 -1
9 -6 13 -10 9z"/>
<path d="M9404 1338 c3 -11 -3 -23 -17 -33 -14 -10 -17 -15 -7 -15 8 0 26 -3
40 -6 22 -5 23 -4 7 6 -9 6 -15 15 -12 21 3 5 1 17 -5 26 -11 17 -11 17 -6 1z"/>
<path d="M3611 1327 c-5 -43 -114 -404 -127 -418 -9 -11 -12 -19 -7 -19 25 0
44 49 98 255 7 28 21 77 29 109 9 33 15 64 12 70 -2 6 -5 8 -5 3z"/>
<path d="M3105 1290 c-16 -7 -17 -9 -3 -9 9 -1 20 4 23 9 7 11 7 11 -20 0z"/>
<path d="M5053 1233 c37 -3 47 -8 47 -22 0 -17 -5 -18 -43 -9 -26 5 -58 5 -82
-1 -39 -9 -39 -9 25 -11 36 -1 71 -2 78 -1 6 1 12 -6 12 -16 1 -12 6 -7 14 12
20 45 11 55 -48 53 l-51 -2 48 -3z"/>
<path d="M6070 1231 c0 -5 8 -12 18 -15 9 -3 -16 -3 -55 0 -40 3 -73 3 -73 0
0 -2 34 -10 75 -17 66 -10 75 -14 75 -33 1 -20 2 -19 15 4 20 35 18 45 -10 58
-31 14 -45 15 -45 3z"/>
<path d="M10126 1219 l19 -22 -55 6 c-40 4 -49 3 -31 -4 20 -8 111 -9 111 -2
0 1 -10 11 -22 23 -29 27 -46 26 -22 -1z"/>
<path d="M1721 1184 c0 -11 3 -14 6 -6 3 7 2 16 -1 19 -3 4 -6 -2 -5 -13z"/>
<path d="M9440 1186 c0 -2 7 -7 16 -10 8 -3 12 -2 9 4 -6 10 -25 14 -25 6z"/>
<path d="M10725 1127 c-10 -18 -23 -35 -29 -39 -16 -10 -6 -15 44 -22 l45 -6
-33 15 c-32 15 -32 15 -16 46 21 42 13 47 -11 6z"/>
<path d="M5010 1143 c-13 -3 -14 -21 -9 -119 4 -63 10 -118 14 -122 4 -4 4 27
0 68 l-7 75 54 -2 c38 -2 48 0 33 6 -11 5 -35 10 -52 10 -31 1 -33 3 -33 36 0
34 1 35 42 35 23 0 38 3 35 7 -8 7 -54 11 -77 6z"/>
<path d="M5458 1103 c37 -25 71 -49 75 -53 4 -4 -11 -19 -34 -35 -46 -30 -119
-99 -119 -112 0 -4 34 -8 75 -8 41 0 75 3 75 8 0 8 -31 10 -95 7 l-40 -2 40
42 c22 23 56 51 75 62 19 12 37 23 39 24 8 7 -25 38 -69 65 -25 16 -40 29 -35
30 6 0 39 0 75 -1 95 -2 70 7 -37 13 l-92 5 67 -45z"/>
<path d="M6040 1113 c0 -47 9 -83 21 -83 5 0 4 12 -1 26 -22 57 -5 111 20 65
25 -48 -10 -142 -57 -149 -21 -3 -31 15 -46 83 -4 18 -5 17 -6 -3 0 -12 6 -38
13 -57 21 -49 56 -48 91 2 41 62 29 153 -21 153 -10 0 -14 -12 -14 -37z"/>
<path d="M8354 1141 c4 -5 -7 -11 -26 -14 -23 -3 -16 -4 20 -5 39 -2 53 1 50
11 -3 6 -15 14 -27 15 -14 2 -21 0 -17 -7z"/>
<path d="M9388 1143 c7 -3 16 -2 19 1 4 3 -2 6 -13 5 -11 0 -14 -3 -6 -6z"/>
<path d="M10170 1126 c-12 -34 -13 -56 0 -76 6 -10 4 -22 -6 -37 -8 -13 -11
-23 -6 -23 12 0 47 79 39 87 -4 3 -7 -2 -7 -13 -1 -18 -1 -18 -11 -1 -7 13 -7
27 0 49 14 39 5 51 -9 14z"/>
<path d="M1717 1133 c-11 -10 -8 -111 3 -118 6 -4 9 18 7 59 -1 36 -2 66 -3
66 0 0 -4 -3 -7 -7z"/>
<path d="M10356 1124 c-3 -9 -6 -29 -6 -45 0 -21 -5 -29 -17 -30 -14 0 -14 -2
4 -9 12 -5 24 -18 28 -29 3 -12 11 -21 16 -21 5 0 2 11 -7 25 -13 20 -13 25
-3 25 12 0 12 2 0 9 -10 7 -12 20 -7 50 6 42 3 53 -8 25z"/>
<path d="M10430 1132 c0 -6 9 -26 20 -44 11 -18 20 -45 20 -60 0 -16 5 -28 10
-28 14 0 12 25 -5 66 -17 42 -45 83 -45 66z"/>
<path d="M8253 1123 c9 -2 23 -2 30 0 6 3 -1 5 -18 5 -16 0 -22 -2 -12 -5z"/>
<path d="M9563 1118 c-32 -42 -43 -141 -18 -174 8 -10 15 -14 15 -7 0 6 -5 15
-11 19 -15 9 -7 101 13 142 17 33 17 41 1 20z"/>
<path d="M10286 1115 c-3 -9 -6 -22 -5 -28 0 -7 5 -1 10 12 5 13 8 26 5 28 -2
2 -6 -3 -10 -12z"/>
<path d="M2321 1096 c17 -36 3 -109 -27 -141 -33 -36 -26 -42 10 -8 19 17 30
22 35 15 7 -12 4 124 -4 146 -2 6 -9 12 -14 12 -7 0 -7 -9 0 -24z"/>
<path d="M10196 1107 c3 -10 9 -15 12 -12 3 3 0 11 -7 18 -10 9 -11 8 -5 -6z"/>
<path d="M10587 1080 c-26 -28 -34 -45 -30 -57 7 -16 8 -16 11 2 2 11 18 35
35 52 17 18 28 35 25 38 -3 3 -21 -12 -41 -35z"/>
<path d="M9700 1104 c0 -5 7 -19 15 -30 8 -10 15 -14 15 -8 0 5 -7 19 -15 30
-8 10 -15 14 -15 8z"/>
<path d="M10070 1079 c0 -19 4 -41 9 -48 6 -10 8 1 4 30 -7 55 -13 63 -13 18z"/>
<path d="M10640 1110 c0 -3 11 -36 25 -75 18 -52 25 -62 24 -40 0 24 -47 134
-49 115z"/>
<path d="M9850 1080 c0 -11 4 -20 9 -20 5 0 7 9 4 20 -3 11 -7 20 -9 20 -2 0
-4 -9 -4 -20z"/>
<path d="M9403 1083 c-20 -4 -23 -10 -22 -56 0 -29 4 -61 9 -72 5 -12 6 5 3
45 -5 65 -5 65 23 77 30 11 25 13 -13 6z"/>
<path d="M4345 1044 c-22 -20 -57 -48 -77 -62 -141 -101 -232 -159 -310 -199
-49 -24 -87 -47 -85 -50 11 -11 149 67 322 184 71 47 209 162 195 162 -3 0
-23 -16 -45 -35z"/>
<path d="M8457 1051 c-25 -42 -22 -141 4 -141 6 0 5 8 -1 19 -15 28 -12 77 6
112 20 40 13 47 -9 10z"/>
<path d="M8930 1075 c0 -6 6 -19 14 -30 7 -11 17 -38 20 -60 8 -45 26 -82 26
-54 0 41 -58 184 -60 144z"/>
<path d="M9457 1059 c4 -13 8 -18 11 -10 2 7 -1 18 -6 23 -8 8 -9 4 -5 -13z"/>
<path d="M9621 1043 c-1 -31 -6 -43 -18 -46 -15 -4 -14 -5 3 -6 12 0 26 -11
33 -23 l11 -23 -6 23 c-3 13 -9 45 -14 70 l-8 47 -1 -42z"/>
<path d="M3760 1058 c0 -4 -15 -18 -32 -29 -32 -20 -32 -21 -6 -15 22 5 27 2
30 -16 4 -22 5 -22 17 4 8 15 21 29 30 31 14 4 14 5 -1 6 -10 1 -15 7 -12 14
3 8 -2 14 -11 14 -8 0 -15 -4 -15 -9z"/>
<path d="M3845 1060 c4 -6 11 -8 16 -5 14 9 11 -23 -6 -55 -8 -16 -12 -31 -7
-33 4 -2 32 -1 62 3 61 8 58 13 -8 10 -41 -1 -43 0 -33 19 19 34 14 71 -10 71
-11 0 -17 -5 -14 -10z"/>
<path d="M8310 1061 c-22 -6 -24 -11 -21 -51 1 -25 7 -63 11 -85 7 -29 7 -17
4 41 l-6 81 28 7 c18 5 30 3 35 -6 7 -10 9 -9 9 5 0 18 -16 20 -60 8z"/>
<path d="M8532 1033 c-2 -30 -7 -43 -19 -46 -13 -3 -14 -5 -3 -6 8 -1 22 -16
30 -33 8 -18 22 -34 30 -36 10 -2 8 2 -5 13 -15 12 -21 33 -26 83 -4 48 -6 55
-7 25z"/>
<path d="M10270 1044 c0 -16 5 -36 10 -44 6 -10 7 -2 3 25 -7 49 -13 58 -13
19z"/>
<path d="M5203 1053 c15 -2 39 -2 55 0 15 2 2 4 -28 4 -30 0 -43 -2 -27 -4z"/>
<path d="M10711 1047 c-1 -26 16 -55 42 -68 l22 -12 -20 22 c-11 13 -25 35
-32 49 -8 20 -12 22 -12 9z"/>
<path d="M5764 1042 c-11 -4 -33 -17 -50 -30 -16 -12 -21 -19 -11 -16 12 5 17
1 17 -14 0 -24 36 -52 65 -51 15 0 12 3 -10 11 -57 21 -62 61 -10 79 50 18 49
36 -1 21z"/>
<path d="M8662 1023 c-2 -24 -7 -33 -24 -36 -23 -4 -23 -4 -1 -6 16 -1 23 -9
26 -28 l4 -28 2 28 c1 20 6 27 20 27 11 0 23 5 27 11 5 8 -1 10 -19 5 -23 -5
-26 -3 -30 26 l-4 33 -1 -32z"/>
<path d="M8849 1021 c-5 -26 -1 -39 16 -57 12 -13 26 -24 30 -24 5 0 0 9 -11
21 -16 17 -16 22 -4 29 13 8 12 10 -2 10 -11 0 -18 10 -20 28 -3 26 -4 26 -9
-7z"/>
<path d="M9737 1015 c7 -49 13 -58 13 -19 0 16 -5 36 -10 44 -6 10 -7 2 -3
-25z"/>
<path d="M9838 1043 c17 -3 22 -11 22 -36 0 -18 4 -39 9 -46 6 -10 8 0 4 27
-5 41 -5 42 23 43 l29 1 -30 8 c-16 4 -41 8 -55 7 -23 0 -23 0 -2 -4z"/>
<path d="M2062 1004 c-29 -14 -52 -30 -52 -34 0 -5 21 3 48 17 26 14 48 25 50
24 11 -5 32 1 32 9 0 16 -23 12 -78 -16z"/>
<path d="M6144 1009 c-19 -22 -19 -22 3 -8 17 10 27 10 47 1 106 -48 70 -252
-44 -252 -36 0 -80 53 -80 95 0 36 23 105 36 105 3 0 4 -6 1 -13 -6 -16 29
-65 39 -55 3 4 -1 15 -10 24 -10 9 -15 23 -12 30 3 8 1 14 -5 14 -6 0 -8 7 -5
16 3 8 2 12 -4 9 -17 -11 -40 -63 -49 -112 -11 -58 5 -95 48 -113 81 -33 163
35 163 135 0 61 -28 114 -68 131 -42 17 -37 18 -60 -7z"/>
<path d="M6457 1023 c-11 -10 -8 -25 3 -18 6 4 10 -12 10 -39 0 -27 5 -46 11
-46 7 0 9 9 5 23 -3 12 -6 37 -6 55 0 30 -9 40 -23 25z"/>
<path d="M6755 1020 c3 -5 13 -10 21 -10 18 0 18 -19 -1 -44 -22 -28 -18 -46
8 -45 16 1 18 2 5 6 -23 6 -22 9 3 41 l20 27 -21 17 c-24 19 -45 24 -35 8z"/>
<path d="M7141 1013 c-1 -17 -7 -23 -23 -23 -21 -1 -21 -2 -7 -13 9 -7 19 -21
22 -32 5 -19 5 -19 12 3 5 13 15 22 29 22 16 0 18 2 7 9 -7 5 -10 14 -7 20 4
6 1 11 -8 11 -8 0 -17 6 -19 13 -3 6 -6 2 -6 -10z"/>
<path d="M7246 999 c-29 -34 -32 -50 -15 -82 21 -39 49 -49 49 -18 0 11 -9 23
-20 26 -21 7 -28 49 -10 60 11 7 33 45 26 45 -2 0 -16 -14 -30 -31z m24 -100
c0 -6 -4 -7 -10 -4 -5 3 -10 11 -10 16 0 6 5 7 10 4 6 -3 10 -11 10 -16z"/>
<path d="M2700 1010 c8 -6 24 -16 35 -22 20 -11 20 -11 1 11 -11 11 -26 21
-35 21 -14 0 -14 -2 -1 -10z"/>
<path d="M5220 1010 c-11 -7 -2 -10 29 -10 48 0 51 4 11 13 -14 3 -32 2 -40
-3z"/>
<path d="M6384 997 c-4 -12 -12 -25 -18 -29 -8 -6 -7 -8 1 -8 7 0 10 -7 7 -17
-5 -15 -3 -15 10 1 11 13 16 15 16 6 0 -22 9 -6 14 27 7 38 -19 55 -30 20z"/>
<path d="M3105 1001 c-27 -12 -65 -57 -65 -79 0 -12 6 -8 18 13 21 33 38 49
65 58 22 8 44 -37 54 -108 3 -25 10 -45 15 -45 22 0 -30 164 -53 167 -8 1 -23
-2 -34 -6z"/>
<path d="M6653 994 c-7 -7 -13 -16 -13 -19 0 -4 6 -12 13 -19 16 -16 49 15 36
35 -7 12 -9 11 -10 -1 0 -12 -2 -12 -7 1 -6 14 -9 15 -19 3z"/>
<path d="M8759 983 c-22 -46 -22 -50 1 -15 13 18 20 35 18 37 -3 3 -11 -7 -19
-22z"/>
<path d="M8800 1003 c1 -12 39 -79 40 -70 0 12 -28 77 -34 77 -4 0 -6 -3 -6
-7z"/>
<path d="M9081 1006 c2 -2 24 -6 49 -10 31 -4 40 -3 30 4 -13 9 -89 15 -79 6z"/>
<path d="M10090 1004 c0 -13 18 -39 24 -34 2 3 -2 14 -10 24 -8 11 -14 16 -14
10z"/>
<path d="M2785 988 c-21 -12 -35 -28 -35 -41 0 -5 5 -5 10 -2 6 4 10 -5 10
-19 0 -28 -16 -35 -23 -11 -4 11 -4 10 -3 -2 1 -10 10 -19 20 -21 17 -4 18 1
13 36 -4 31 -1 42 11 47 19 7 28 -7 36 -58 4 -22 9 -37 12 -34 7 7 -17 117
-25 117 -3 0 -15 -6 -26 -12z"/>
<path d="M2876 974 c-11 -29 -6 -71 10 -84 13 -12 14 -10 3 13 -9 21 -9 33 -1
52 14 31 15 35 3 35 -5 0 -12 -7 -15 -16z"/>
<path d="M1783 973 c9 -2 23 -2 30 0 6 3 -1 5 -18 5 -16 0 -22 -2 -12 -5z"/>
<path d="M2183 961 c-6 -10 -35 -30 -64 -45 -29 -14 -47 -26 -41 -26 7 0 30 9
52 20 48 25 45 25 47 -2 2 -21 27 -48 45 -48 4 0 17 9 28 20 21 21 16 60 -9
68 -10 3 -10 0 -2 -16 15 -29 14 -49 -4 -56 -25 -9 -43 4 -47 35 -6 36 1 44
18 21 7 -9 15 -14 19 -11 3 4 0 13 -8 20 -8 8 -16 20 -18 27 -3 8 -8 6 -16 -7z"/>
<path d="M2371 961 c-23 -23 -27 -46 -11 -56 6 -3 10 4 10 18 0 61 67 57 88
-4 l12 -34 -5 35 c-6 40 -11 46 -47 55 -19 5 -32 1 -47 -14z"/>
<path d="M2634 938 c-15 -24 -32 -47 -38 -51 -7 -6 -6 -7 4 -5 8 3 27 26 42
51 34 59 28 62 -8 5z"/>
<path d="M2529 956 c12 -14 5 -46 -10 -46 -4 0 -15 10 -23 22 -18 26 -21 17
-5 -14 6 -11 26 -26 44 -34 45 -18 58 -17 22 2 -23 13 -26 18 -16 35 12 23 6
49 -12 49 -9 0 -9 -3 0 -14z"/>
<path d="M2905 960 c-12 -19 4 -58 26 -65 28 -9 34 -1 23 37 -10 33 -36 48
-49 28z m33 -28 c4 -25 -13 -30 -22 -6 -9 25 -7 36 7 32 6 -3 13 -14 15 -26z"/>
<path d="M9100 961 c0 -9 60 -21 95 -20 12 1 3 7 -20 14 -48 16 -75 18 -75 6z"/>
<path d="M5840 930 c-5 -35 16 -100 32 -100 5 0 6 5 2 11 -4 6 -12 32 -19 58
-7 25 -14 39 -15 31z"/>
<path d="M8785 930 c27 -12 43 -12 25 0 -8 5 -22 9 -30 9 -10 0 -8 -3 5 -9z"/>
<path d="M6570 905 c-6 -15 -8 -30 -6 -33 3 -3 10 8 16 23 6 15 8 30 6 33 -3
3 -10 -8 -16 -23z"/>
<path d="M1760 914 c0 -6 7 -19 16 -30 14 -18 14 -18 3 6 -14 31 -19 36 -19
24z"/>
<path d="M9460 885 c0 -3 10 -10 23 -15 16 -7 5 -9 -45 -7 -36 1 -64 -1 -61
-5 5 -10 115 -10 138 -2 14 6 10 10 -15 20 -36 16 -40 16 -40 9z"/>
<path d="M10205 840 c16 -16 30 -28 32 -26 5 5 -45 56 -54 56 -4 0 6 -13 22
-30z"/>
<path d="M1830 812 c18 -24 34 -41 37 -39 2 3 -13 22 -33 43 l-37 39 33 -43z"/>
<path d="M8414 826 c4 -10 1 -25 -5 -32 -7 -9 -8 -14 -1 -14 16 0 23 30 11 48
-9 15 -10 15 -5 -2z"/>
<path d="M10110 836 c0 -2 9 -6 20 -9 11 -3 18 -1 14 4 -5 9 -34 13 -34 5z"/>
<path d="M9762 825 c7 -22 59 -115 63 -115 9 0 -15 51 -41 88 -14 20 -24 33
-22 27z"/>
<path d="M10356 815 c-9 -26 -7 -32 5 -12 6 10 9 21 6 23 -2 3 -7 -2 -11 -11z"/>
<path d="M9670 768 c-5 -55 8 -109 29 -123 6 -3 4 10 -4 29 -14 33 -14 35 8
39 l22 4 -22 2 c-19 1 -22 8 -25 54 l-3 52 -5 -57z"/>
<path d="M8530 774 c-23 -70 -8 -175 27 -188 10 -4 8 2 -6 20 -23 30 -29 121
-11 170 6 15 9 29 6 31 -2 2 -10 -12 -16 -33z"/>
<path d="M9466 794 c-18 -17 -21 -50 -7 -58 5 -4 7 3 4 14 -5 20 12 50 28 50
14 0 10 -60 -6 -115 -19 -62 -3 -47 19 17 26 78 3 134 -38 92z"/>
<path d="M9596 794 c-8 -20 3 -113 16 -134 6 -10 7 -6 3 15 -3 17 -6 54 -7 83
-1 56 -3 60 -12 36z"/>
<path d="M8298 788 c6 -6 18 -8 28 -6 14 3 12 5 -9 10 -19 3 -25 2 -19 -4z"/>
<path d="M10754 765 c-7 -19 -14 -44 -14 -55 0 -25 24 -85 38 -94 5 -3 0 13
-11 35 -11 22 -17 42 -14 46 3 3 20 0 37 -5 18 -7 28 -7 25 -2 -4 6 -12 10
-19 10 -7 0 -20 6 -30 13 -17 12 -17 16 -2 50 8 20 13 37 10 37 -3 0 -12 -16
-20 -35z"/>
<path d="M10413 750 c0 -25 2 -35 4 -22 2 12 2 32 0 45 -2 12 -4 2 -4 -23z"/>
<path d="M9063 753 c8 -16 20 -52 28 -80 7 -29 16 -53 19 -53 8 0 -14 89 -31
133 -6 15 -15 27 -20 27 -5 0 -3 -12 4 -27z"/>
<path d="M9956 752 c6 -31 5 -32 -26 -32 -42 0 -36 -5 12 -13 l37 -6 -6 32
c-3 18 -10 36 -15 42 -5 5 -6 -4 -2 -23z"/>
<path d="M10500 775 c0 -3 8 -18 17 -32 10 -15 21 -50 24 -77 l6 -51 2 43 c0
26 -7 59 -19 82 -18 36 -30 49 -30 35z"/>
<path d="M5420 760 c-15 -5 6 -6 50 -3 67 5 82 3 131 -21 31 -14 61 -37 69
-50 19 -37 38 -39 55 -7 8 16 20 31 27 34 8 3 7 6 -4 6 -10 1 -25 -10 -34 -24
l-16 -24 -26 31 c-38 44 -96 68 -167 67 -33 -1 -71 -5 -85 -9z"/>
<path d="M8741 738 c-1 -26 -6 -38 -18 -41 -14 -4 -13 -5 4 -6 16 -1 23 -9 26
-28 l4 -28 2 28 c0 16 7 27 15 27 8 0 17 4 20 8 3 5 -5 8 -17 8 -17 -1 -23 6
-28 34 l-6 35 -2 -37z"/>
<path d="M10219 766 c-8 -8 5 -81 20 -116 10 -22 10 -21 4 10 -3 19 -9 52 -12
73 -3 22 -9 36 -12 33z"/>
<path d="M10336 739 c-8 -42 0 -50 9 -9 4 17 5 34 2 36 -2 3 -7 -10 -11 -27z"/>
<path d="M1890 756 c0 -9 37 -42 65 -57 19 -11 19 -11 0 7 -46 42 -65 57 -65
50z"/>
<path d="M7020 745 c-83 -47 -204 -62 -615 -75 -361 -11 -438 -16 -300 -18
144 -3 650 17 727 28 83 12 198 45 225 65 25 20 -3 19 -37 0z"/>
<path d="M8616 744 c-3 -9 -6 -31 -6 -49 0 -24 -5 -35 -17 -38 -12 -3 -10 -5
7 -6 24 -1 25 2 26 54 1 59 -1 64 -10 39z"/>
<path d="M5127 740 c18 -20 149 -23 213 -6 l55 15 -55 -7 c-77 -9 -170 -9
-200 2 -20 7 -23 6 -13 -4z"/>
<path d="M8381 717 c1 -31 1 -31 10 -7 5 17 8 -1 6 -57 -1 -44 1 -76 5 -70 4
7 8 44 8 83 0 55 -4 73 -15 78 -12 4 -15 -2 -14 -27z"/>
<path d="M10650 740 c0 -5 5 -10 11 -10 5 0 7 5 4 10 -3 6 -8 10 -11 10 -2 0
-4 -4 -4 -10z"/>
<path d="M8868 709 c-20 -35 -23 -59 -7 -59 5 0 7 5 3 11 -7 12 14 59 27 59 5
0 24 -21 44 -46 34 -46 50 -50 19 -6 -19 27 -1 29 23 2 19 -19 19 -19 19 0 0
11 -4 20 -8 20 -4 0 -9 12 -9 28 -2 23 -2 24 -6 5 -6 -29 -36 -30 -63 -3 -11
11 -21 20 -22 20 -2 0 -11 -14 -20 -31z"/>
<path d="M9410 730 c0 -16 41 -93 46 -88 5 5 -34 98 -41 98 -3 0 -5 -5 -5 -10z"/>
<path d="M3772 692 c-35 -14 -60 -28 -55 -29 10 -4 123 45 123 53 0 5 4 7 -68
-24z"/>
<path d="M9190 708 c0 -5 18 -8 40 -8 22 0 40 2 40 4 0 2 -18 6 -40 8 -22 2
-40 0 -40 -4z"/>
<path d="M9990 710 c0 -6 7 -10 15 -10 8 0 15 2 15 4 0 2 -7 6 -15 10 -8 3
-15 1 -15 -4z"/>
<path d="M10620 705 c-6 -8 -10 -19 -8 -24 1 -6 8 1 15 14 13 28 11 31 -7 10z"/>
<path d="M10686 700 c6 -8 16 -24 22 -35 6 -11 12 -15 12 -8 0 7 -10 22 -22
35 -13 13 -18 17 -12 8z"/>
<path d="M5790 700 c8 -5 22 -9 30 -9 10 0 8 3 -5 9 -27 12 -43 12 -25 0z"/>
<path d="M9832 680 c0 -14 4 -36 8 -50 l8 -25 0 25 c0 14 -4 36 -8 50 l-8 25
0 -25z"/>
<path d="M10410 690 c0 -6 7 -10 15 -10 8 0 15 2 15 4 0 2 -7 6 -15 10 -8 3
-15 1 -15 -4z"/>
<path d="M1980 685 c0 -2 23 -16 50 -30 28 -14 50 -23 50 -20 0 2 -22 16 -50
30 -27 14 -50 23 -50 20z"/>
<path d="M9972 665 c0 -16 2 -22 5 -12 2 9 2 23 0 30 -3 6 -5 -1 -5 -18z"/>
<path d="M10340 674 c0 -10 5 -26 10 -34 8 -11 9 -7 4 15 -8 37 -14 45 -14 19z"/>
<path d="M5878 673 c6 -2 18 -2 25 0 6 3 1 5 -13 5 -14 0 -19 -2 -12 -5z"/>
<path d="M5933 663 c9 -2 25 -2 35 0 9 3 1 5 -18 5 -19 0 -27 -2 -17 -5z"/>
<path d="M8322 640 c-1 -19 5 -48 13 -65 8 -17 12 -21 10 -9 -3 12 -10 42 -14
65 -9 43 -9 43 -9 9z"/>
<path d="M9205 661 c11 -5 36 -11 55 -15 l35 -6 -35 14 c-19 8 -44 15 -55 15
l-20 0 20 -8z"/>
<path d="M3655 644 l-30 -14 30 6 c17 3 34 10 40 15 14 13 -5 11 -40 -7z"/>
<path d="M7250 627 c0 -39 27 -134 45 -160 12 -17 13 -15 13 20 -1 21 3 56 6
78 6 29 3 45 -8 60 -14 19 -15 18 -7 -11 5 -18 6 -47 2 -65 l-8 -34 -16 52
c-8 28 -13 61 -10 72 3 12 1 21 -6 21 -6 0 -11 -15 -11 -33z"/>
<path d="M8627 629 c7 -7 15 -10 18 -7 3 3 -2 9 -12 12 -14 6 -15 5 -6 -5z"/>
<path d="M9010 630 c8 -5 20 -10 25 -10 6 0 3 5 -5 10 -8 5 -19 10 -25 10 -5
0 -3 -5 5 -10z"/>
<path d="M6120 586 c0 -55 -25 -89 -58 -80 -15 5 -21 12 -17 22 4 12 3 13 -10
2 -20 -17 -19 -30 4 -30 26 0 44 -25 36 -50 -12 -37 -55 -17 -55 26 0 28 -37
74 -59 74 -23 0 -42 -60 -31 -98 7 -24 8 -22 9 18 1 25 5 51 9 58 19 28 54
-12 64 -72 8 -50 70 -44 76 8 4 32 42 38 42 7 0 -11 4 -22 8 -25 5 -3 8 38 8
90 -1 69 -4 94 -13 94 -9 0 -13 -15 -13 -44z m10 -76 c0 -5 -4 -10 -10 -10 -5
0 -10 5 -10 10 0 6 5 10 10 10 6 0 10 -4 10 -10z"/>
<path d="M6728 620 c25 -11 29 -45 8 -73 -13 -17 -15 -17 -30 5 -9 12 -16 19
-16 15 0 -15 28 -62 48 -80 19 -17 20 -17 25 10 7 35 0 43 -11 13 -8 -21 -9
-21 -16 -5 -4 11 0 25 9 36 10 10 15 30 13 51 -2 27 -8 33 -28 35 -25 3 -25 3
-2 -7z"/>
<path d="M3535 605 c-40 -19 -16 -19 26 0 19 8 27 14 19 14 -8 0 -28 -7 -45
-14z"/>
<path d="M6291 568 c-1 -32 3 -58 8 -58 5 0 6 21 4 48 -7 70 -11 74 -12 10z"/>
<path d="M2170 590 c8 -5 20 -10 25 -10 6 0 3 5 -5 10 -8 5 -19 10 -25 10 -5
0 -3 -5 5 -10z"/>
<path d="M7111 581 c-40 -40 -13 -120 42 -121 10 0 17 7 16 18 0 10 -3 12 -6
5 -8 -22 -32 -14 -48 17 -20 40 -19 56 7 74 12 9 19 18 16 22 -4 3 -16 -4 -27
-15z"/>
<path d="M3450 581 c-13 -7 -139 -39 -229 -57 -13 -3 -22 -7 -19 -9 2 -2 47 5
101 16 103 21 216 57 182 58 -11 0 -27 -3 -35 -8z"/>
<path d="M7434 555 c-11 -8 -14 -14 -6 -15 7 0 26 -15 42 -32 27 -31 29 -31
30 -11 0 12 -5 25 -12 29 -7 4 -8 3 -4 -4 4 -7 3 -12 -3 -12 -14 0 -33 38 -26
50 9 14 2 12 -21 -5z"/>
<path d="M6442 548 c-6 -6 -35 -12 -64 -11 l-53 0 48 -4 c52 -4 61 -21 30 -55
-9 -10 -11 -18 -6 -18 6 0 14 7 17 16 5 12 10 13 19 5 11 -8 13 -4 9 21 -3 22
0 35 14 45 10 7 13 13 8 13 -6 0 -15 -5 -22 -12z"/>
<path d="M6627 553 c-10 -9 -9 -161 1 -167 4 -2 8 32 7 77 0 64 3 83 15 89 13
6 13 7 -1 7 -9 1 -19 -2 -22 -6z"/>
<path d="M7574 553 c-7 -5 -14 -19 -15 -33 -2 -14 -15 -30 -29 -37 -16 -8 -19
-13 -9 -13 20 0 46 28 51 55 2 12 13 21 27 23 24 4 24 3 18 -70 -4 -45 -3 -65
3 -52 4 12 10 45 12 75 3 51 2 54 -22 57 -14 1 -30 -1 -36 -5z"/>
<path d="M10517 554 c-3 -4 -61 -10 -129 -14 l-123 -7 95 -1 c82 -1 259 24
189 27 -14 1 -28 -2 -32 -5z"/>
<path d="M5912 525 c0 -16 2 -22 5 -12 2 9 2 23 0 30 -3 6 -5 -1 -5 -18z"/>
<path d="M6676 536 c5 -13 1 -23 -12 -33 -19 -14 -19 -15 1 -11 23 4 32 35 15
52 -8 8 -9 6 -4 -8z"/>
<path d="M6973 531 c6 -25 -1 -35 -40 -55 l-33 -17 0 31 c0 39 -16 39 -22 1
-2 -17 -1 -28 3 -25 11 6 19 -10 29 -58 l9 -43 -2 45 c-2 42 1 47 33 66 20 11
34 28 34 37 -2 21 0 21 20 1 9 -8 16 -26 16 -40 0 -13 5 -24 11 -24 5 0 8 3 6
8 -3 4 0 18 5 32 9 24 10 24 24 6 8 -11 14 -16 14 -10 0 5 -6 17 -14 26 -9 13
-16 14 -24 6 -9 -9 -17 -6 -35 10 -29 27 -41 28 -34 3z"/>
<path d="M2338 533 c6 -2 18 -2 25 0 6 3 1 5 -13 5 -14 0 -19 -2 -12 -5z"/>
<path d="M6494 532 c11 -5 23 -17 28 -28 6 -16 7 -15 5 6 -1 19 -8 26 -27 27
-21 2 -22 1 -6 -5z"/>
<path d="M6786 518 c3 -13 11 -30 16 -38 8 -12 8 -11 4 3 -3 10 -6 27 -6 38 0
10 -5 19 -11 19 -6 0 -8 -9 -3 -22z"/>
<path d="M8010 534 c0 -3 25 -16 55 -30 105 -46 293 -85 405 -83 45 1 35 4
-50 14 -162 21 -259 43 -357 83 -29 12 -53 19 -53 16z"/>
<path d="M2388 523 c6 -2 18 -2 25 0 6 3 1 5 -13 5 -14 0 -19 -2 -12 -5z"/>
<path d="M7190 519 c0 -5 5 -7 10 -4 6 3 10 8 10 11 0 2 -4 4 -10 4 -5 0 -10
-5 -10 -11z"/>
<path d="M7410 501 c0 -17 4 -32 8 -35 4 -2 6 11 4 30 -5 42 -12 45 -12 5z"/>
<path d="M6831 513 c0 -6 -3 -17 -6 -25 -3 -7 5 -19 17 -27 20 -12 21 -12 11
0 -6 8 -13 25 -16 39 -2 14 -5 20 -6 13z"/>
<path d="M2498 503 c7 -3 16 -2 19 1 4 3 -2 6 -13 5 -11 0 -14 -3 -6 -6z"/>
<path d="M10265 489 c-44 -28 -177 -70 -270 -85 l-80 -14 67 5 c99 8 318 81
318 106 0 11 1 11 -35 -12z"/>
<path d="M2588 493 c7 -3 16 -2 19 1 4 3 -2 6 -13 5 -11 0 -14 -3 -6 -6z"/>
<path d="M6302 480 c0 -14 2 -19 5 -12 2 6 2 18 0 25 -3 6 -5 1 -5 -13z"/>
<path d="M7201 482 c-7 -14 -5 -21 12 -31 17 -10 19 -10 10 -1 -8 9 -9 19 -2
32 6 12 6 18 0 18 -6 0 -15 -8 -20 -18z"/>
<path d="M6340 476 c0 -3 9 -10 20 -16 11 -6 20 -8 20 -6 0 3 -9 10 -20 16
-11 6 -20 8 -20 6z"/>
<path d="M6505 471 c-6 -5 -19 -11 -30 -14 -19 -4 -19 -5 1 -6 12 0 27 6 34
14 14 16 10 20 -5 6z"/>
<path d="M7966 433 c8 -27 19 -65 26 -85 6 -21 17 -38 24 -38 7 0 29 -17 50
-37 l36 -38 -33 48 c-33 47 -33 49 -15 63 11 8 16 17 11 21 -4 5 -10 2 -12 -4
-3 -7 -11 -13 -19 -13 -10 0 -14 14 -14 55 0 56 -14 75 -54 75 -13 0 -13 -5 0
-47z m33 23 c7 -8 11 -32 9 -53 l-3 -38 -12 35 c-6 19 -14 43 -18 53 -9 21 8
23 24 3z"/>
<path d="M6590 417 c0 -51 -17 -94 -32 -79 -27 27 -48 9 -62 -51 -4 -18 -3
-26 3 -22 6 3 13 22 17 41 8 45 33 42 50 -6 12 -34 13 -34 13 -7 1 15 7 27 14
27 7 0 18 -12 25 -27 l12 -28 -4 28 c-5 40 21 35 38 -8 20 -47 28 -45 12 3
-11 33 -17 37 -49 40 -27 2 -37 8 -37 20 0 15 2 15 10 2 7 -10 8 2 4 40 -8 65
-14 77 -14 27z"/>
<path d="M6321 419 c-1 -8 9 -36 22 -61 21 -42 22 -49 10 -75 -13 -25 -12 -26
1 -9 8 10 18 16 23 13 8 -5 6 68 -2 109 -3 12 -12 24 -20 28 -14 5 -14 4 0
-16 15 -22 22 -78 8 -64 -5 4 -16 26 -25 49 -9 23 -17 35 -17 26z"/>
<path d="M7494 386 c3 -27 6 -57 6 -68 0 -11 4 -16 10 -13 11 7 2 92 -12 115
-6 10 -7 -2 -4 -34z"/>
<path d="M8608 413 c46 -2 118 -2 160 0 42 1 5 3 -83 3 -88 0 -123 -2 -77 -3z"/>
<path d="M8917 413 c18 -2 50 -2 70 0 21 2 7 4 -32 4 -38 0 -55 -2 -38 -4z"/>
<path d="M6861 402 c-1 -20 18 -52 32 -52 9 0 9 2 0 8 -7 4 -16 19 -22 32 -5
14 -10 19 -10 12z"/>
<path d="M6971 395 c0 -11 4 -38 8 -60 l9 -40 1 45 c0 25 -4 52 -9 60 -8 12
-10 12 -9 -5z"/>
<path d="M9088 403 c18 -2 45 -2 60 0 15 2 0 4 -33 4 -33 0 -45 -2 -27 -4z"/>
<path d="M7214 370 c3 -19 8 -46 10 -60 2 -14 11 -41 20 -60 9 -19 14 -26 11
-15 -2 11 -9 49 -16 85 -12 68 -35 114 -25 50z"/>
<path d="M9310 390 c131 -10 589 -14 598 -6 3 3 -93 6 -214 6 -120 0 -282 2
-359 4 l-140 4 115 -8z"/>
<path d="M6248 365 c-5 -26 6 -35 15 -12 3 6 6 2 6 -11 1 -13 -4 -32 -10 -44
-6 -11 -8 -23 -4 -26 3 -3 8 4 12 16 7 27 12 27 29 5 17 -22 -12 53 -31 80
-12 17 -13 16 -17 -8z"/>
<path d="M7900 348 c0 -18 5 -40 10 -48 7 -11 8 -3 4 27 -5 35 -3 42 12 46 16
4 15 5 -3 6 -19 1 -23 -4 -23 -31z"/>
<path d="M7951 349 c0 -13 4 -33 9 -44 7 -14 8 -8 3 20 -7 46 -13 59 -12 24z"/>
<path d="M6720 340 c-13 -25 0 -70 21 -70 7 0 6 8 -4 23 -11 17 -12 28 -5 41
5 10 8 20 5 23 -3 2 -11 -5 -17 -17z"/>
<path d="M8120 341 c0 -10 7 -24 15 -31 19 -16 19 -44 -1 -64 -8 -9 -12 -16
-7 -16 32 0 44 59 17 81 -8 7 -13 21 -11 31 3 10 1 18 -4 18 -5 0 -9 -8 -9
-19z"/>
<path d="M6063 310 c0 -25 2 -35 4 -22 2 12 2 32 0 45 -2 12 -4 2 -4 -23z"/>
<path d="M7720 342 c0 -5 10 -17 21 -28 22 -19 22 -19 10 3 -12 24 -31 39 -31
25z"/>
<path d="M6157 333 c-4 -3 -7 -11 -7 -17 0 -6 5 -4 10 4 8 12 10 11 10 -7 0
-27 -17 -30 -37 -5 -9 11 -13 12 -11 3 2 -8 14 -21 26 -29 20 -13 22 -12 28
13 6 26 -6 52 -19 38z"/>
<path d="M6420 330 c0 -5 5 -10 11 -10 5 0 7 5 4 10 -3 6 -8 10 -11 10 -2 0
-4 -4 -4 -10z"/>
<path d="M7422 320 c0 -14 2 -19 5 -12 2 6 2 18 0 25 -3 6 -5 1 -5 -13z"/>
<path d="M7812 314 c7 -15 14 -21 16 -15 5 16 -5 41 -17 41 -7 0 -6 -10 1 -26z"/>
<path d="M6220 315 c0 -12 -6 -27 -12 -34 -11 -10 -10 -11 2 -6 18 6 44 45 36
53 -3 3 -6 -1 -6 -9 0 -11 -2 -11 -10 1 -8 12 -10 11 -10 -5z"/>
<path d="M6870 291 c-11 -21 -14 -89 -3 -78 6 7 22 97 17 97 -2 0 -8 -9 -14
-19z"/>
<path d="M7164 261 c1 -28 3 -46 4 -41 2 6 8 7 14 4 7 -4 8 5 3 27 -12 58 -22
62 -21 10z"/>
<path d="M7683 284 c-10 -21 -10 -24 2 -14 8 7 19 9 26 5 8 -6 8 -2 0 14 -14
26 -14 26 -28 -5z"/>
<path d="M6547 293 c-4 -3 -7 -16 -6 -27 0 -19 1 -19 10 3 10 24 8 36 -4 24z"/>
<path d="M7740 275 c-8 -9 -8 -15 -2 -15 12 0 26 19 19 26 -2 2 -10 -2 -17
-11z"/>
<path d="M7014 265 c-3 -8 -4 -20 -1 -27 3 -8 6 -6 6 5 1 10 11 22 24 27 l22
9 -23 0 c-12 1 -25 -6 -28 -14z"/>
<path d="M6795 260 c-3 -5 -1 -10 4 -10 6 0 11 5 11 10 0 6 -2 10 -4 10 -3 0
-8 -4 -11 -10z"/>
<path d="M7070 260 c0 -5 -7 -10 -15 -10 -8 0 -15 -5 -15 -10 0 -7 6 -7 20 0
18 10 28 30 15 30 -3 0 -5 -4 -5 -10z"/>
</g>
</svg>
