<?xml version="1.0" standalone="no"?>
<!DOCTYPE svg PUBLIC "-//W3C//DTD SVG 20010904//EN"
 "http://www.w3.org/TR/2001/REC-SVG-20010904/DTD/svg10.dtd">
<svg version="1.0" xmlns="http://www.w3.org/2000/svg"
 width="566.000000pt" height="258.000000pt" viewBox="0 0 1132.000000 516.000000"
 preserveAspectRatio="xMidYMid meet">

<g transform="translate(0.000000,516.000000) scale(0.100000,-0.100000)"
fill="#000000" stroke="none">
<path d="M8636 3822 c-3 -4 8 -6 24 -4 25 4 29 1 33 -24 l4 -29 -1 30 c-1 25
-6 31 -28 33 -14 2 -29 -1 -32 -6z"/>
<path d="M8283 3807 c0 -7 -3 -26 -7 -42 -5 -22 -4 -26 4 -15 5 8 10 23 10 33
0 9 5 17 11 17 5 0 7 5 4 10 -9 14 -22 12 -22 -3z"/>
<path d="M8230 3795 c-7 -9 -11 -17 -9 -20 3 -2 10 5 17 15 14 24 10 26 -8 5z"/>
<path d="M8393 3745 c0 -38 2 -53 4 -32 2 20 2 52 0 70 -2 17 -4 1 -4 -38z"/>
<path d="M8492 3804 c9 -3 19 -13 22 -22 3 -12 4 -12 3 3 -1 12 -10 21 -22 22
-15 1 -15 0 -3 -3z"/>
<path d="M8601 3784 c0 -11 3 -14 6 -6 3 7 2 16 -1 19 -3 4 -6 -2 -5 -13z"/>
<path d="M4333 3684 c1 -45 5 -80 9 -78 3 2 8 -4 11 -13 2 -10 2 17 1 60 -2
42 -8 85 -13 95 -7 12 -9 -6 -8 -64z"/>
<path d="M8322 3730 c0 -19 2 -27 5 -17 2 9 2 25 0 35 -3 9 -5 1 -5 -18z"/>
<path d="M3160 3733 c0 -15 2 -16 9 -4 11 17 18 -6 24 -74 3 -38 4 -38 5 8 2
49 -11 87 -28 87 -6 0 -10 -8 -10 -17z"/>
<path d="M8464 3739 c-3 -5 6 -9 20 -9 31 0 34 6 6 13 -11 3 -23 1 -26 -4z"/>
<path d="M1172 3715 c0 -16 2 -22 5 -12 2 9 2 23 0 30 -3 6 -5 -1 -5 -18z"/>
<path d="M3851 3724 c0 -11 3 -14 6 -6 3 7 2 16 -1 19 -3 4 -6 -2 -5 -13z"/>
<path d="M8512 3702 c-11 -25 -11 -25 4 -10 9 9 15 21 13 27 -2 6 -10 -2 -17
-17z"/>
<path d="M3663 3672 c3 -29 2 -54 -2 -56 -8 -6 -7 -54 2 -63 4 -3 7 5 8 18 1
21 2 19 10 -8 5 -18 15 -35 21 -39 8 -5 9 -2 3 12 -4 10 -14 55 -22 99 -17 93
-27 112 -20 37z"/>
<path d="M1632 3635 c1 -44 -1 -102 -5 -130 l-6 -50 9 44 c5 25 13 47 17 50
12 9 13 111 1 111 -5 0 -8 6 -5 13 3 8 1 20 -4 28 -6 9 -8 -15 -7 -66z"/>
<path d="M8627 3698 c-7 -4 12 -8 41 -8 28 0 52 2 52 4 0 8 -81 11 -93 4z"/>
<path d="M3162 3680 c0 -14 2 -19 5 -12 2 6 2 18 0 25 -3 6 -5 1 -5 -13z"/>
<path d="M2951 3685 c-2 -5 -5 -37 -7 -69 -2 -33 -11 -73 -19 -89 -10 -20 -11
-27 -2 -24 6 2 16 20 22 41 9 30 13 34 24 24 11 -11 12 -10 5 2 -5 8 -12 40
-15 70 -3 30 -7 51 -8 45z"/>
<path d="M3862 3670 c0 -14 2 -19 5 -12 2 6 2 18 0 25 -3 6 -5 1 -5 -13z"/>
<path d="M4268 3683 c7 -3 16 -2 19 1 4 3 -2 6 -13 5 -11 0 -14 -3 -6 -6z"/>
<path d="M8290 3663 l-25 -25 28 17 c15 10 27 21 27 26 0 12 -2 11 -30 -18z"/>
<path d="M1955 3655 c-14 -68 -15 -80 -6 -65 9 16 22 90 16 90 -3 0 -7 -11
-10 -25z"/>
<path d="M2410 3622 c5 -50 23 -102 35 -102 2 0 -1 15 -7 33 -6 17 -13 50 -15
72 -3 22 -8 43 -12 47 -4 4 -4 -18 -1 -50z"/>
<path d="M8470 3670 c-9 -6 -10 -10 -3 -10 6 0 15 5 18 10 8 12 4 12 -15 0z"/>
<path d="M4288 3654 c-16 -8 -28 -19 -28 -25 0 -6 -4 -8 -9 -5 -5 3 -11 -2
-14 -12 -2 -9 -8 -26 -12 -37 -6 -18 -5 -18 5 -2 6 9 17 14 23 11 7 -4 9 -4 5
1 -12 12 11 44 45 65 37 23 25 26 -15 4z"/>
<path d="M4075 3653 c19 -5 35 -20 35 -35 0 -13 -28 -9 -43 6 -12 13 -16 11
-26 -11 -10 -22 -10 -24 1 -16 7 6 26 9 42 6 26 -5 28 -8 23 -41 -8 -43 3 -35
12 10 9 44 33 47 49 6 6 -17 15 -29 19 -25 4 4 1 13 -5 19 -7 7 -12 22 -12 35
0 20 -3 21 -24 13 -20 -7 -25 -5 -35 16 -7 16 -18 24 -33 23 -21 -1 -21 -2 -3
-6z"/>
<path d="M1191 3640 c0 -8 4 -24 9 -35 5 -13 9 -14 9 -5 0 8 -4 24 -9 35 -5
13 -9 14 -9 5z"/>
<path d="M1105 3629 c-4 -6 -5 -12 -2 -15 2 -3 7 2 10 11 7 17 1 20 -8 4z"/>
<path d="M3175 3618 c3 -15 -1 -44 -9 -63 -8 -19 -13 -35 -10 -35 3 0 11 15
19 33 8 17 14 26 15 20 0 -7 9 -27 21 -45 24 -37 21 -29 -16 57 -14 33 -24 48
-20 33z"/>
<path d="M3949 3623 c-13 -15 -12 -15 6 -6 11 6 27 13 35 16 10 4 8 6 -6 6
-12 1 -28 -6 -35 -16z"/>
<path d="M2684 3588 c-19 -21 -19 -21 4 -9 20 11 23 9 32 -14 6 -15 10 -31 10
-37 0 -6 3 -9 6 -5 7 7 -14 75 -25 82 -5 2 -17 -5 -27 -17z"/>
<path d="M2302 3586 c7 -8 15 -12 17 -11 5 6 -10 25 -20 25 -5 0 -4 -6 3 -14z"/>
<path d="M2631 3582 c-6 -12 -11 -27 -11 -34 0 -7 7 0 15 16 9 16 13 31 11 33
-2 3 -9 -4 -15 -15z"/>
<path d="M3071 3595 c1 -19 18 -51 18 -35 0 8 -4 22 -9 30 -5 8 -9 11 -9 5z"/>
<path d="M3494 3570 c-7 -32 -24 -32 -24 0 0 16 -3 15 -28 -8 -32 -31 -33 -38
-3 -22 17 9 25 8 39 -6 16 -17 17 -16 22 17 7 47 36 51 55 7 8 -18 14 -26 15
-18 0 25 -29 60 -51 60 -14 0 -21 -9 -25 -30z"/>
<path d="M3622 3584 c-7 -8 -8 -14 -3 -14 10 0 25 19 20 25 -2 1 -10 -3 -17
-11z"/>
<path d="M3985 3590 c-3 -5 -20 -14 -38 -19 -23 -7 -26 -9 -11 -10 12 -1 32 8
45 19 13 10 21 19 17 20 -4 0 -10 -4 -13 -10z"/>
<path d="M2780 3569 c-6 -10 -10 -26 -9 -36 1 -12 3 -10 8 7 5 17 16 27 36 30
l30 6 -28 6 c-20 4 -30 1 -37 -13z"/>
<path d="M2877 3583 c10 -3 10 -10 2 -24 -6 -11 -9 -24 -7 -28 2 -5 10 7 19
25 16 33 16 34 -5 33 -11 0 -15 -3 -9 -6z"/>
<path d="M3394 3575 c-3 -8 -4 -20 -2 -27 3 -7 7 -1 10 15 6 29 1 36 -8 12z"/>
<path d="M3905 3579 c-4 -6 -5 -12 -2 -15 2 -3 7 2 10 11 7 17 1 20 -8 4z"/>
<path d="M1328 3555 c-3 -14 -1 -28 3 -31 5 -3 9 9 9 25 0 38 -6 40 -12 6z"/>
<path d="M2271 3564 c0 -11 3 -14 6 -6 3 7 2 16 -1 19 -3 4 -6 -2 -5 -13z"/>
<path d="M2386 3573 c6 -4 14 -15 17 -23 5 -11 6 -9 4 4 -1 11 -9 21 -17 23
-10 3 -11 2 -4 -4z"/>
<path d="M2603 3540 c0 -25 2 -35 4 -22 2 12 2 32 0 45 -2 12 -4 2 -4 -23z"/>
<path d="M4035 3570 c3 -5 8 -10 11 -10 2 0 4 5 4 10 0 6 -5 10 -11 10 -5 0
-7 -4 -4 -10z"/>
<path d="M1133 3563 c9 -2 23 -2 30 0 6 3 -1 5 -18 5 -16 0 -22 -2 -12 -5z"/>
<path d="M1381 3544 c1 -20 3 -23 6 -10 4 15 7 16 14 5 5 -8 9 -9 9 -3 0 6 -7
17 -15 24 -13 11 -15 8 -14 -16z"/>
<path d="M2042 3550 c0 -14 2 -19 5 -12 2 6 2 18 0 25 -3 6 -5 1 -5 -13z"/>
<path d="M2656 3557 c3 -10 9 -15 12 -12 3 3 0 11 -7 18 -10 9 -11 8 -5 -6z"/>
<path d="M1546 3544 c-9 -24 -7 -31 5 -11 6 9 15 14 21 11 7 -4 8 -2 4 4 -10
17 -23 15 -30 -4z"/>
<path d="M1785 3550 c-7 -12 2 -12 30 0 19 8 19 9 -2 9 -12 1 -25 -3 -28 -9z"/>
<path d="M1894 3538 l-19 -23 23 19 c21 18 27 26 19 26 -2 0 -12 -10 -23 -22z"/>
<path d="M2008 3553 c7 -3 16 -2 19 1 4 3 -2 6 -13 5 -11 0 -14 -3 -6 -6z"/>
<path d="M2080 3551 c0 -6 4 -13 10 -16 6 -3 7 1 4 9 -7 18 -14 21 -14 7z"/>
<path d="M1242 3530 c0 -14 2 -19 5 -12 2 6 2 18 0 25 -3 6 -5 1 -5 -13z"/>
<path d="M1488 3525 c-3 -14 -1 -25 3 -25 5 0 9 11 9 25 0 14 -2 25 -4 25 -2
0 -6 -11 -8 -25z"/>
<path d="M3034 3532 c0 -10 8 -19 17 -19 16 -2 17 0 1 18 -9 10 -17 19 -17 19
0 0 -1 -8 -1 -18z"/>
<path d="M4058 3538 c5 -5 16 -8 23 -6 8 3 3 7 -10 11 -17 4 -21 3 -13 -5z"/>
<path d="M1660 3535 c0 -5 5 -17 10 -25 5 -8 10 -10 10 -5 0 6 -5 17 -10 25
-5 8 -10 11 -10 5z"/>
<path d="M1061 3514 c0 -11 3 -14 6 -6 3 7 2 16 -1 19 -3 4 -6 -2 -5 -13z"/>
<path d="M2227 3523 c-4 -3 -7 -11 -7 -17 0 -6 5 -5 12 2 6 6 9 14 7 17 -3 3
-9 2 -12 -2z"/>
<path d="M2382 3515 c-11 -12 -10 -15 3 -15 8 0 15 7 15 15 0 18 -2 18 -18 0z"/>
<path d="M3600 3521 c0 -6 4 -13 10 -16 6 -3 7 1 4 9 -7 18 -14 21 -14 7z"/>
<path d="M1387 3496 c-4 -10 -1 -13 9 -9 15 6 19 23 5 23 -5 0 -11 -7 -14 -14z"/>
<path d="M1987 3498 c2 -5 13 -8 23 -8 10 0 21 3 23 8 3 4 -8 7 -23 7 -15 0
-26 -3 -23 -7z"/>
<path d="M2271 3494 c0 -11 3 -14 6 -6 3 7 2 16 -1 19 -3 4 -6 -2 -5 -13z"/>
<path d="M1350 3470 c0 -5 5 -10 11 -10 5 0 7 5 4 10 -3 6 -8 10 -11 10 -2 0
-4 -4 -4 -10z"/>
<path d="M8788 3440 c-7 -43 -4 -59 8 -48 3 3 4 26 2 49 l-3 44 -7 -45z"/>
<path d="M9980 3446 c0 -2 7 -7 16 -10 8 -3 12 -2 9 4 -6 10 -25 14 -25 6z"/>
<path d="M10118 3439 c34 -10 42 -26 17 -35 -22 -9 -18 -34 5 -34 11 0 20 -7
20 -15 0 -8 -4 -15 -10 -15 -5 0 -10 -5 -10 -11 0 -8 5 -8 15 1 21 18 19 39
-6 48 -19 7 -19 9 -5 21 23 19 20 38 -6 45 -37 10 -56 5 -20 -5z"/>
<path d="M8278 3415 c-3 -13 -1 -22 4 -19 11 7 48 -80 48 -115 0 -15 -6 -33
-12 -41 -11 -12 -10 -12 5 -1 24 19 21 66 -8 129 -14 30 -22 58 -19 63 3 5 1
9 -4 9 -5 0 -12 -11 -14 -25z"/>
<path d="M9081 3383 c-1 -23 3 -44 7 -47 4 -2 6 12 4 32 -5 56 -10 62 -11 15z"/>
<path d="M9165 3410 c-8 -13 15 -13 35 0 12 8 11 10 -7 10 -12 0 -25 -4 -28
-10z"/>
<path d="M9866 3401 c-19 -21 -18 -63 2 -67 7 -1 8 0 2 3 -15 7 -12 44 7 65 9
10 14 18 11 18 -3 0 -13 -9 -22 -19z"/>
<path d="M9501 3393 c-1 -6 -4 -19 -8 -29 -4 -12 -3 -15 5 -10 7 4 12 1 12 -8
0 -28 15 -25 33 7 17 32 17 32 -2 10 l-18 -22 -11 32 c-5 18 -10 27 -11 20z"/>
<path d="M9582 3394 c9 -3 19 -13 22 -22 3 -12 4 -12 3 3 -1 12 -10 21 -22 22
-15 1 -15 0 -3 -3z"/>
<path d="M9406 3375 c-8 -9 -22 -12 -32 -8 -16 6 -16 4 2 -19 10 -15 20 -22
22 -18 2 5 11 6 20 3 15 -6 15 -5 3 10 -12 15 -12 19 5 32 10 8 14 15 7 15 -6
0 -18 -7 -27 -15z"/>
<path d="M1392 3360 c0 -14 2 -19 5 -12 2 6 2 18 0 25 -3 6 -5 1 -5 -13z"/>
<path d="M8590 3370 c-12 -7 -10 -9 7 -7 12 0 19 5 17 9 -6 10 -6 10 -24 -2z"/>
<path d="M8790 3371 c0 -5 -10 -12 -22 -14 -23 -4 -23 -4 -1 -6 12 0 24 -9 26
-18 3 -10 5 -3 6 15 0 17 -1 32 -4 32 -3 0 -5 -4 -5 -9z"/>
<path d="M9931 3373 c0 -6 -4 -20 -7 -30 -5 -14 -4 -15 5 -7 7 7 11 20 8 30
-3 11 -5 14 -6 7z"/>
<path d="M9184 3353 c11 -14 16 -30 12 -45 l-6 -23 12 23 c10 20 8 26 -12 45
l-24 22 18 -22z"/>
<path d="M8632 3330 c0 -19 2 -27 5 -17 2 9 2 25 0 35 -3 9 -5 1 -5 -18z"/>
<path d="M9765 3353 c-11 -3 -24 -9 -30 -15 -13 -12 46 1 60 13 10 10 4 10
-30 2z"/>
<path d="M8421 3334 c0 -11 3 -14 6 -6 3 7 2 16 -1 19 -3 4 -6 -2 -5 -13z"/>
<path d="M8520 3346 c0 -2 7 -7 16 -10 8 -3 12 -2 9 4 -6 10 -25 14 -25 6z"/>
<path d="M8707 3330 c3 -11 -1 -28 -8 -37 -12 -14 -12 -16 0 -9 8 5 17 3 23
-5 7 -10 8 -7 4 11 -3 14 -6 33 -6 43 0 9 -4 17 -9 17 -5 0 -7 -9 -4 -20z"/>
<path d="M9565 3329 c-16 -10 -25 -19 -19 -19 7 0 22 9 35 20 30 24 23 24 -16
-1z"/>
<path d="M9990 3339 c0 -5 9 -9 20 -9 11 0 20 2 20 4 0 2 -9 6 -20 9 -11 3
-20 1 -20 -4z"/>
<path d="M8767 3326 c-4 -10 -7 -25 -6 -34 0 -11 4 -9 10 7 5 13 8 29 6 35 -2
5 -6 2 -10 -8z"/>
<path d="M8361 3320 c0 -8 4 -22 9 -30 12 -18 12 -2 0 25 -6 13 -9 15 -9 5z"/>
<path d="M8508 3305 c-3 -14 -1 -25 3 -25 5 0 9 11 9 25 0 14 -2 25 -4 25 -2
0 -6 -11 -8 -25z"/>
<path d="M8872 3290 c0 -19 2 -27 5 -17 2 9 2 25 0 35 -3 9 -5 1 -5 -18z"/>
<path d="M9350 3305 c0 -8 4 -15 10 -15 5 0 7 7 4 15 -4 8 -8 15 -10 15 -2 0
-4 -7 -4 -15z"/>
<path d="M8407 3289 c-19 -22 -10 -25 16 -5 10 8 14 17 9 20 -4 3 -16 -4 -25
-15z"/>
<path d="M8552 3290 c0 -14 2 -19 5 -12 2 6 2 18 0 25 -3 6 -5 1 -5 -13z"/>
<path d="M9522 3290 c0 -14 2 -19 5 -12 2 6 2 18 0 25 -3 6 -5 1 -5 -13z"/>
<path d="M4061 3178 c-34 -131 -49 -238 -33 -238 4 0 13 43 20 95 13 90 30
168 47 208 4 9 3 17 -2 17 -6 0 -20 -37 -32 -82z"/>
<path d="M8236 3247 c3 -10 9 -15 12 -12 3 3 0 11 -7 18 -10 9 -11 8 -5 -6z"/>
<path d="M9523 3215 c0 -22 2 -30 4 -17 2 12 2 30 0 40 -3 9 -5 -1 -4 -23z"/>
<path d="M8268 3223 c6 -2 18 -2 25 0 6 3 1 5 -13 5 -14 0 -19 -2 -12 -5z"/>
<path d="M5487 3129 c-19 -108 -21 -147 -7 -169 7 -10 10 9 10 63 0 43 5 98
11 122 6 23 9 51 7 61 -2 11 -11 -24 -21 -77z"/>
<path d="M6126 3209 c-8 -24 -54 -193 -59 -216 -3 -13 -2 -25 3 -28 4 -2 12
19 18 48 7 28 21 85 32 126 11 41 18 77 15 79 -2 3 -7 -1 -9 -9z"/>
<path d="M3124 3138 c-1 -48 -6 -73 -15 -79 -10 -6 -7 -9 12 -9 23 0 28 -6 33
-35 4 -19 12 -37 18 -41 8 -5 9 -1 5 10 -20 51 -19 66 1 66 11 0 23 -6 25 -12
9 -23 5 36 -4 62 -8 22 -8 21 -4 -7 4 -29 2 -33 -19 -33 -25 0 -36 28 -36 94
0 65 -15 51 -16 -16z m13 -70 c-3 -8 -6 -5 -6 6 -1 11 2 17 5 13 3 -3 4 -12 1
-19z"/>
<path d="M3479 3192 c10 -19 -2 -106 -18 -126 -14 -18 -23 -69 -11 -61 6 4 19
1 28 -6 14 -11 15 -11 5 1 -16 17 -17 60 -2 60 6 0 17 7 25 15 14 13 14 15 -2
15 -14 0 -16 7 -11 40 6 45 -1 80 -15 80 -5 0 -5 -7 1 -18z"/>
<path d="M2201 3148 c0 -34 -6 -58 -13 -61 -8 -3 -6 -6 5 -6 23 -1 24 -66 1
-75 -36 -14 -64 -7 -65 17 -1 18 -2 19 -6 3 -8 -29 11 -39 62 -32 45 7 46 9
40 34 -4 15 -11 61 -15 102 -7 74 -7 74 -9 18z"/>
<path d="M3455 3180 c-3 -5 -8 -33 -10 -62 l-4 -53 9 49 c5 26 11 54 14 62 6
16 0 19 -9 4z"/>
<path d="M4142 3140 c0 -14 2 -19 5 -12 2 6 2 18 0 25 -3 6 -5 1 -5 -13z"/>
<path d="M4173 3126 c1 -32 3 -35 10 -18 6 12 5 27 -1 38 -8 15 -10 11 -9 -20z"/>
<path d="M5211 3137 c0 -15 -8 -40 -17 -55 -15 -25 -15 -25 0 -8 15 19 16 18
16 -16 0 -20 -6 -39 -12 -41 -8 -3 -6 -6 5 -6 9 -1 17 -9 17 -18 0 -10 5 -25
11 -33 8 -11 9 -8 4 15 -4 17 -11 66 -15 110 -4 44 -8 67 -9 52z"/>
<path d="M2380 3141 c0 -6 4 -13 10 -16 6 -3 7 1 4 9 -7 18 -14 21 -14 7z"/>
<path d="M4377 3143 c-4 -3 -6 -22 -6 -42 l1 -36 8 40 c8 42 8 49 -3 38z"/>
<path d="M1402 3120 c0 -14 2 -19 5 -12 2 6 2 18 0 25 -3 6 -5 1 -5 -13z"/>
<path d="M5970 3131 c-19 -3 -30 -9 -25 -12 6 -3 33 0 60 7 52 12 27 16 -35 5z"/>
<path d="M5820 3100 c-14 -10 -22 -21 -19 -24 3 -3 16 5 29 19 28 30 24 32
-10 5z"/>
<path d="M1288 3103 c-15 -4 -18 -14 -16 -61 l2 -57 3 54 c4 52 4 53 34 49 16
-3 29 -3 29 -2 0 9 -37 20 -52 17z"/>
<path d="M2386 3098 c3 -4 9 -8 15 -8 5 0 9 4 9 8 0 5 -7 9 -15 9 -8 0 -12 -4
-9 -9z"/>
<path d="M4134 3073 c2 -24 0 -46 -5 -49 -5 -3 -9 -11 -9 -17 0 -8 4 -7 9 2 8
12 13 11 30 -10 11 -13 20 -18 21 -11 0 6 -4 12 -9 12 -14 0 -23 32 -11 44 5
5 10 17 9 26 0 10 -3 9 -9 -5 -8 -21 -12 -17 -24 30 -3 11 -4 1 -2 -22z"/>
<path d="M5589 3089 c-22 -42 -28 -77 -15 -95 11 -15 12 -13 8 15 -5 36 15 94
31 84 6 -3 7 -1 3 5 -10 16 -14 15 -27 -9z"/>
<path d="M5680 3084 c-12 -31 -13 -61 -1 -68 4 -3 6 6 3 19 -2 14 3 36 12 50
9 14 12 25 6 25 -6 0 -15 -12 -20 -26z"/>
<path d="M1214 3053 c-1 -43 0 -45 9 -20 5 17 6 37 1 48 -7 14 -9 7 -10 -28z"/>
<path d="M1456 3085 c-9 -26 -7 -32 5 -12 6 10 9 21 6 23 -2 3 -7 -2 -11 -11z"/>
<path d="M3810 3068 c-24 -40 -25 -57 -4 -86 18 -26 69 -30 78 -6 9 23 7 86
-2 80 -5 -3 -7 -18 -5 -33 5 -40 -9 -57 -42 -49 -26 7 -27 10 -22 47 3 22 13
49 23 60 10 11 12 19 5 19 -6 0 -20 -15 -31 -32z"/>
<path d="M5734 3084 c9 -8 16 -24 16 -34 0 -10 -7 -26 -16 -34 -8 -9 -11 -16
-4 -16 20 0 34 48 22 75 -6 14 -16 25 -22 25 -7 0 -4 -7 4 -16z"/>
<path d="M5881 3084 c0 -11 3 -14 6 -6 3 7 2 16 -1 19 -3 4 -6 -2 -5 -13z"/>
<path d="M5940 3088 c0 -12 7 -18 23 -17 15 0 17 2 7 6 -8 3 -18 11 -22 17 -5
7 -8 4 -8 -6z"/>
<path d="M1410 3082 c0 -25 64 -112 82 -112 5 0 -2 10 -16 23 -13 12 -34 40
-45 62 -12 22 -21 34 -21 27z"/>
<path d="M2666 3082 c13 -9 28 -43 25 -59 -1 -6 3 -14 9 -18 5 -3 10 0 10 8 0
14 31 47 45 47 4 0 5 -13 2 -30 -4 -16 -3 -30 1 -30 5 0 13 -15 19 -32 5 -18
8 -24 6 -13 -2 11 -6 41 -10 68 -6 50 -20 59 -48 31 -18 -18 -18 -18 -34 14
-6 12 -17 22 -24 22 -8 0 -9 -3 -1 -8z"/>
<path d="M1131 3038 c-1 -27 3 -48 7 -48 4 0 6 17 4 38 -5 58 -10 62 -11 10z"/>
<path d="M2385 3070 c-6 -9 -4 -11 5 -5 10 6 12 0 7 -31 -4 -33 -4 -35 5 -17
10 21 12 22 24 5 7 -9 13 -12 13 -7 0 6 -10 23 -23 39 -17 20 -26 25 -31 16z"/>
<path d="M2599 3048 c-3 -22 -1 -34 4 -29 5 5 7 21 5 37 -3 27 -4 26 -9 -8z"/>
<path d="M3260 3070 c0 -5 5 -10 10 -10 6 0 10 5 10 10 0 6 -4 10 -10 10 -5 0
-10 -4 -10 -10z"/>
<path d="M3713 3047 c-25 -37 -28 -47 -13 -47 6 0 10 7 10 15 0 22 14 18 25
-7 6 -13 19 -24 30 -26 19 -4 19 -3 1 10 -10 8 -21 31 -25 51 l-6 37 -22 -33z"/>
<path d="M3851 3058 c0 -16 2 -18 6 -8 3 8 11 18 17 22 7 5 4 8 -6 8 -12 0
-18 -7 -17 -22z"/>
<path d="M5363 3068 c-12 -16 -24 -48 -17 -48 2 0 9 12 15 27 l10 26 20 -21
c11 -12 23 -22 26 -22 4 0 -4 11 -17 25 -27 29 -25 28 -37 13z"/>
<path d="M5621 3057 c0 -16 -6 -37 -12 -49 -6 -11 -8 -22 -5 -25 9 -10 27 49
23 76 -4 25 -4 25 -6 -2z"/>
<path d="M2242 3045 c0 -16 2 -22 5 -12 2 9 2 23 0 30 -3 6 -5 -1 -5 -18z"/>
<path d="M2293 3045 c1 -28 17 -55 33 -55 3 0 2 6 -3 13 -6 6 -15 26 -21 42
l-11 30 2 -30z"/>
<path d="M2926 3048 c-19 -27 -20 -44 -5 -54 7 -4 10 -1 7 7 -3 8 1 26 9 42
16 33 10 36 -11 5z"/>
<path d="M2977 3051 c3 -11 -4 -28 -16 -40 -12 -12 -17 -21 -12 -21 5 0 14 7
21 15 9 11 16 13 23 6 7 -7 1 -23 -17 -48 l-28 -38 27 29 c26 29 28 29 41 11
13 -18 14 -17 8 11 -4 21 -1 34 10 43 13 11 16 11 16 -2 0 -9 4 -18 9 -21 5
-4 4 10 -2 29 -10 33 -11 34 -21 13 -17 -33 -33 -32 -44 2 -12 33 -23 41 -15
11z"/>
<path d="M3370 3051 c0 -11 -2 -25 -3 -33 -2 -7 -2 -9 1 -5 2 4 9 3 16 -2 9
-8 11 -1 8 24 -4 37 -22 49 -22 16z"/>
<path d="M5273 3063 c-18 -7 -16 -38 4 -54 9 -8 14 -9 10 -3 -4 7 0 14 8 18 8
3 14 13 14 23 -1 16 -2 16 -6 1 -2 -9 -11 -19 -19 -22 -17 -6 -18 -1 -4 25 6
10 9 19 8 18 -2 0 -9 -3 -15 -6z"/>
<path d="M6011 3047 c13 -13 26 -22 28 -20 7 5 -31 43 -42 43 -6 0 1 -10 14
-23z"/>
<path d="M2470 3033 c0 -17 6 -33 14 -36 11 -5 13 0 5 25 -12 43 -19 47 -19
11z"/>
<path d="M2524 3027 c0 -26 4 -32 23 -33 20 -2 20 0 8 13 -8 8 -15 21 -15 28
0 8 -4 16 -8 19 -4 2 -8 -10 -8 -27z"/>
<path d="M3517 3040 c3 -11 0 -27 -7 -35 -7 -9 -8 -15 -2 -15 5 0 13 7 16 16
9 23 7 54 -3 54 -5 0 -7 -9 -4 -20z"/>
<path d="M4613 3048 c15 -5 27 -17 28 -26 0 -13 2 -14 6 -3 6 16 -23 41 -46
40 -9 0 -4 -5 12 -11z"/>
<path d="M4693 3045 c-3 -9 -3 -18 -1 -21 3 -3 8 4 11 16 6 23 -1 27 -10 5z"/>
<path d="M4963 3053 c9 -2 23 -2 30 0 6 3 -1 5 -18 5 -16 0 -22 -2 -12 -5z"/>
<path d="M5810 3051 c8 -6 25 -11 38 -11 16 0 22 -6 22 -22 0 -13 4 -29 8 -35
5 -7 8 4 7 27 0 36 -2 40 -27 40 -14 0 -35 3 -45 6 -15 5 -15 4 -3 -5z"/>
<path d="M3320 3041 c0 -5 -2 -16 -5 -24 -3 -7 0 -14 8 -14 9 0 12 8 9 24 -4
23 -12 32 -12 14z"/>
<path d="M4227 3031 c3 -11 -4 -27 -17 -39 l-21 -19 25 -5 c15 -3 26 -1 26 3
0 5 -5 9 -10 9 -7 0 -7 6 0 19 12 24 13 51 1 51 -5 0 -7 -8 -4 -19z"/>
<path d="M4392 3030 c-18 -11 -32 -22 -32 -25 0 -5 33 11 69 33 2 1 2 4 0 7
-3 2 -19 -5 -37 -15z"/>
<path d="M4722 3025 c0 -16 2 -22 5 -12 2 9 2 23 0 30 -3 6 -5 -1 -5 -18z"/>
<path d="M5066 3031 c-23 -25 -17 -66 9 -67 15 -1 16 0 3 3 -24 6 -23 45 1 60
10 6 29 10 42 7 22 -4 22 -3 4 5 -30 14 -40 13 -59 -8z"/>
<path d="M2622 3020 c0 -14 2 -19 5 -12 2 6 2 18 0 25 -3 6 -5 1 -5 -13z"/>
<path d="M3220 3025 c-7 -9 -10 -18 -7 -21 3 -3 10 4 17 15 13 25 8 27 -10 6z"/>
<path d="M4818 3020 c-11 -12 -13 -22 -7 -25 13 -8 39 13 39 31 0 19 -11 16
-32 -6z"/>
<path d="M4912 3025 c-7 -8 -9 -15 -4 -15 5 0 15 7 22 15 16 19 -1 19 -18 0z"/>
<path d="M3106 3015 c-9 -26 -7 -32 5 -12 6 10 9 21 6 23 -2 3 -7 -2 -11 -11z"/>
<path d="M3276 3017 c3 -10 9 -15 12 -12 3 3 0 11 -7 18 -10 9 -11 8 -5 -6z"/>
<path d="M5021 3018 c0 -9 -4 -25 -7 -35 -5 -17 -5 -17 6 0 6 10 9 25 7 35 -4
15 -5 15 -6 0z"/>
<path d="M8737 3023 c12 -2 24 -14 27 -26 3 -18 4 -18 3 3 -2 19 -8 25 -27 26
-20 1 -21 0 -3 -3z"/>
<path d="M1710 3009 c0 -5 5 -7 10 -4 6 3 10 8 10 11 0 2 -4 4 -10 4 -5 0 -10
-5 -10 -11z"/>
<path d="M4271 3004 c0 -11 3 -14 6 -6 3 7 2 16 -1 19 -3 4 -6 -2 -5 -13z"/>
<path d="M4571 3013 c-1 -6 -4 -20 -7 -30 -5 -17 -5 -17 6 0 6 10 9 23 6 30
-3 9 -5 9 -5 0z"/>
<path d="M5122 2992 c-11 -25 -11 -25 4 -10 9 9 15 21 13 27 -2 6 -10 -2 -17
-17z"/>
<path d="M5420 3006 c0 -8 -10 -17 -22 -19 -20 -4 -19 -4 5 -6 21 -1 27 4 27
19 0 11 -2 20 -5 20 -3 0 -5 -6 -5 -14z"/>
<path d="M8675 3010 c-3 -6 1 -7 9 -4 18 7 21 14 7 14 -6 0 -13 -4 -16 -10z"/>
<path d="M9435 3009 c-11 -16 -1 -19 13 -3 7 8 8 14 3 14 -5 0 -13 -5 -16 -11z"/>
<path d="M9498 3013 c6 -2 18 -2 25 0 6 3 1 5 -13 5 -14 0 -19 -2 -12 -5z"/>
<path d="M9585 3010 c27 -12 43 -12 25 0 -8 5 -22 9 -30 9 -10 0 -8 -3 5 -9z"/>
<path d="M2257 2999 c7 -7 15 -10 18 -7 3 3 -2 9 -12 12 -14 6 -15 5 -6 -5z"/>
<path d="M4480 3000 c0 -5 -10 -10 -22 -10 -12 0 -19 -3 -15 -6 9 -9 57 5 57
16 0 6 -4 10 -10 10 -5 0 -10 -4 -10 -10z"/>
<path d="M4693 2998 c7 -21 3 -22 -25 -7 -14 8 -18 8 -14 0 8 -12 86 -35 94
-27 3 3 -1 6 -8 6 -7 0 -22 10 -33 23 -15 16 -18 17 -14 5z"/>
<path d="M5310 3000 c-8 -5 -10 -10 -5 -10 6 0 17 5 25 10 8 5 11 10 5 10 -5
0 -17 -5 -25 -10z"/>
<path d="M6000 2995 c-14 -8 -20 -14 -14 -15 5 0 19 7 30 15 24 18 16 19 -16
0z"/>
<path d="M8455 3000 c-3 -6 1 -7 9 -4 18 7 21 14 7 14 -6 0 -13 -4 -16 -10z"/>
<path d="M8483 2974 c-12 -25 -12 -26 6 -10 22 20 29 13 40 -46 7 -34 9 -37
10 -15 1 29 -26 97 -38 97 -3 0 -11 -12 -18 -26z"/>
<path d="M8637 2983 c3 -7 6 -13 8 -13 2 0 5 6 8 13 3 8 -1 14 -8 14 -7 0 -11
-6 -8 -14z"/>
<path d="M9150 2969 c-10 -24 -10 -35 0 -54 17 -32 24 -25 9 8 -10 22 -9 31 5
52 9 14 12 25 7 25 -5 0 -14 -14 -21 -31z"/>
<path d="M9320 2981 c0 -11 -8 -22 -17 -24 -17 -4 -17 -5 0 -6 10 0 20 6 23
14 4 8 10 12 15 9 5 -3 6 2 3 10 -9 22 -24 20 -24 -3z"/>
<path d="M9557 2993 c-4 -3 -7 -13 -7 -22 1 -13 3 -13 11 2 11 19 8 33 -4 20z"/>
<path d="M4320 2980 c-23 -7 -23 -8 -3 -9 12 -1 25 4 28 9 3 6 5 10 3 9 -2 -1
-14 -5 -28 -9z"/>
<path d="M8432 2970 c0 -14 2 -19 5 -12 2 6 2 18 0 25 -3 6 -5 1 -5 -13z"/>
<path d="M8826 2975 c4 -8 10 -15 15 -15 4 0 6 7 3 15 -4 8 -10 15 -15 15 -4
0 -6 -7 -3 -15z"/>
<path d="M1180 2970 c-9 -6 -10 -10 -3 -10 6 0 15 5 18 10 8 12 4 12 -15 0z"/>
<path d="M8610 2946 c0 -19 3 -37 8 -40 4 -2 6 13 4 35 -5 48 -12 51 -12 5z"/>
<path d="M9228 2945 c2 -14 6 -25 8 -25 2 0 4 11 4 25 0 14 -4 25 -9 25 -4 0
-6 -11 -3 -25z"/>
<path d="M8381 2948 c0 -9 -4 -25 -7 -35 -5 -17 -5 -17 6 0 6 10 9 25 7 35 -4
15 -5 15 -6 0z"/>
<path d="M9350 2945 c0 -8 4 -15 10 -15 5 0 7 7 4 15 -4 8 -8 15 -10 15 -2 0
-4 -7 -4 -15z"/>
<path d="M9630 2939 c0 -11 -5 -30 -11 -42 -10 -21 -10 -21 5 -3 15 18 22 66
11 66 -3 0 -5 -9 -5 -21z"/>
<path d="M2726 2919 c-14 -17 -26 -35 -26 -41 0 -6 1 -9 3 -7 2 2 15 21 30 42
34 45 29 49 -7 6z"/>
<path d="M8737 2943 c-13 -12 -7 -51 10 -64 15 -13 15 -12 4 9 -7 12 -9 32 -6
42 7 20 3 25 -8 13z"/>
<path d="M8955 2940 c3 -5 15 -10 25 -10 10 0 22 5 25 10 4 6 -7 10 -25 10
-18 0 -29 -4 -25 -10z"/>
<path d="M3031 2924 c0 -11 3 -14 6 -6 3 7 2 16 -1 19 -3 4 -6 -2 -5 -13z"/>
<path d="M8262 2920 c0 -14 2 -19 5 -12 2 6 2 18 0 25 -3 6 -5 1 -5 -13z"/>
<path d="M8805 2910 c-9 -16 -13 -30 -11 -30 3 0 12 14 21 30 9 17 13 30 11
30 -3 0 -12 -13 -21 -30z"/>
<path d="M2791 2904 c0 -11 3 -14 6 -6 3 7 2 16 -1 19 -3 4 -6 -2 -5 -13z"/>
<path d="M9347 2901 c-4 -17 -3 -21 5 -13 5 5 8 16 6 23 -3 8 -7 3 -11 -10z"/>
<path d="M9473 2902 c1 -14 5 -18 11 -12 7 7 6 14 -1 21 -9 9 -12 7 -10 -9z"/>
<path d="M3042 2880 c0 -14 2 -19 5 -12 2 6 2 18 0 25 -3 6 -5 1 -5 -13z"/>
<path d="M2931 2879 c-1 -9 9 -24 22 -35 22 -19 22 -19 6 1 -9 11 -19 27 -22
35 -5 13 -6 13 -6 -1z"/>
<path d="M8264 2870 c1 -9 12 -16 26 -17 21 -1 21 -1 3 3 -12 3 -24 11 -26 17
-2 7 -3 5 -3 -3z"/>
<path d="M2803 2835 c0 -27 2 -38 4 -22 2 15 2 37 0 50 -2 12 -4 0 -4 -28z"/>
<path d="M8480 2854 c-16 -8 -19 -14 -9 -14 8 0 24 7 35 15 24 18 7 18 -26 -1z"/>
<path d="M2690 2844 c0 -10 5 -26 10 -34 8 -11 9 -7 4 15 -8 37 -14 45 -14 19z"/>
<path d="M2716 2777 c3 -10 9 -15 12 -12 3 3 0 11 -7 18 -10 9 -11 8 -5 -6z"/>
<path d="M3483 2633 c22 -6 24 -94 2 -116 -8 -8 -12 -17 -9 -20 3 -3 0 -15 -6
-27 -10 -19 -10 -20 9 -8 11 6 18 15 15 19 -2 4 3 23 11 43 27 63 15 118 -24
115 -12 -1 -12 -2 2 -6z"/>
<path d="M2218 2545 c2 -53 0 -85 -7 -85 -9 0 -17 40 -24 125 -3 26 -4 19 -5
-23 -1 -34 4 -77 12 -95 13 -33 6 -77 -13 -77 -10 0 -16 17 -24 70 -3 17 -5
14 -6 -12 -2 -68 22 -89 54 -45 11 14 19 18 22 10 2 -7 12 -9 20 -6 14 6 14 7
-3 13 -17 6 -19 16 -16 109 2 55 0 101 -5 101 -4 0 -7 -38 -5 -85z"/>
<path d="M3445 2619 c-4 -6 -5 -12 -2 -15 2 -3 7 2 10 11 7 17 1 20 -8 4z"/>
<path d="M4892 2550 c0 -47 3 -79 6 -72 3 10 9 9 24 -5 21 -18 21 -18 7 7 -8
14 -14 48 -14 77 0 29 -6 58 -13 65 -10 10 -12 -5 -10 -72z"/>
<path d="M5661 2604 c-12 -15 -21 -32 -21 -38 0 -6 9 4 20 22 11 18 25 30 30
27 6 -3 10 -1 10 4 0 19 -18 12 -39 -15z"/>
<path d="M3070 2560 c0 -33 4 -60 9 -60 4 0 9 27 10 60 1 36 -3 60 -9 60 -6 0
-10 -25 -10 -60z"/>
<path d="M3810 2601 c0 -5 -3 -17 -7 -27 -4 -11 -3 -15 4 -11 7 5 14 -15 18
-56 4 -34 11 -71 16 -82 8 -20 8 -20 8 1 1 11 -3 45 -9 75 -5 30 -11 66 -12
82 -2 24 -18 40 -18 18z"/>
<path d="M3452 2563 c4 -29 1 -32 -36 -44 -39 -13 -106 -47 -106 -54 0 -2 29
9 65 26 35 16 71 29 80 29 11 0 13 8 8 33 -8 42 -17 51 -11 10z"/>
<path d="M5667 2557 l-17 -32 20 24 c17 20 26 41 18 41 -2 0 -11 -15 -21 -33z"/>
<path d="M6005 2565 c-5 -16 -21 -43 -37 -58 -26 -27 -39 -77 -19 -77 5 0 7 9
4 20 -5 20 21 60 39 60 16 0 8 -59 -9 -69 -10 -6 -13 -11 -7 -11 6 0 17 7 24
15 9 11 16 12 20 5 3 -5 5 18 3 52 -6 87 -9 98 -18 63z"/>
<path d="M3786 2533 c-6 -14 -5 -15 5 -6 7 7 10 15 7 18 -3 3 -9 -2 -12 -12z"/>
<path d="M4005 2540 c11 -5 27 -9 35 -9 9 0 8 4 -5 9 -11 5 -27 9 -35 9 -9 0
-8 -4 5 -9z"/>
<path d="M5629 2525 c-3 -16 -10 -39 -15 -50 -7 -19 -7 -19 10 -3 11 12 16 29
14 50 l-3 33 -6 -30z"/>
<path d="M8410 2531 c-14 -28 -12 -87 5 -154 13 -52 13 -61 0 -87 -14 -26 -14
-29 0 -24 8 4 15 13 15 21 0 12 3 13 13 4 11 -8 14 -4 14 22 1 17 7 60 14 94
9 46 10 68 1 85 -9 20 -10 16 -6 -22 3 -25 -1 -65 -9 -90 l-14 -45 -13 30
c-19 45 -19 163 0 175 9 6 10 10 3 10 -7 0 -17 -9 -23 -19z"/>
<path d="M3872 2531 c-9 -5 -4 -8 16 -7 17 1 28 4 25 9 -6 9 -25 9 -41 -2z"/>
<path d="M4962 2528 c-18 -18 -15 -75 4 -82 25 -10 34 2 33 42 -1 26 -3 30 -6
12 -8 -48 -13 -56 -23 -40 -15 24 -11 58 8 69 9 6 12 11 7 11 -6 0 -16 -5 -23
-12z"/>
<path d="M5094 2524 c-18 -15 -18 -15 3 -5 29 15 30 14 36 -11 4 -12 0 -35 -8
-50 -13 -27 -13 -28 9 -22 14 3 27 -1 35 -10 8 -9 27 -15 45 -15 29 2 29 2 4
6 -42 7 -55 29 -35 63 23 38 21 48 -3 20 -11 -13 -20 -27 -20 -32 0 -4 -5 -8
-11 -8 -6 0 -8 7 -5 16 8 22 -4 64 -18 64 -7 0 -21 -7 -32 -16z"/>
<path d="M5358 2533 c7 -3 16 -2 19 1 4 3 -2 6 -13 5 -11 0 -14 -3 -6 -6z"/>
<path d="M4059 2508 c-7 -31 14 -68 37 -68 8 0 14 4 14 9 0 5 -8 8 -17 7 -14
-1 -19 9 -23 39 -5 36 -6 38 -11 13z"/>
<path d="M4540 2515 c-8 -9 -8 -15 -2 -15 12 0 26 19 19 26 -2 2 -10 -2 -17
-11z"/>
<path d="M4855 2520 c-3 -6 1 -7 9 -4 18 7 21 14 7 14 -6 0 -13 -4 -16 -10z"/>
<path d="M3710 2500 c-6 -11 -8 -20 -6 -20 3 0 10 9 16 20 6 11 8 20 6 20 -3
0 -10 -9 -16 -20z"/>
<path d="M4355 2500 c-11 -13 -22 -17 -29 -11 -8 6 -12 -2 -13 -26 l-2 -35 25
33 c13 19 32 40 41 47 9 6 12 12 6 12 -5 0 -18 -9 -28 -20z"/>
<path d="M4636 2493 c-10 -43 -43 -54 -68 -23 -10 12 -18 18 -18 12 0 -15 29
-42 46 -42 8 0 23 9 33 19 20 20 20 20 27 -1 5 -16 8 -18 15 -7 10 17 12 35 2
25 -4 -3 -12 6 -18 21 l-12 28 -7 -32z"/>
<path d="M4704 2504 c-18 -14 -18 -15 4 -4 35 17 54 9 67 -29 6 -19 14 -31 17
-25 4 5 0 24 -7 42 -16 36 -48 43 -81 16z"/>
<path d="M5670 2511 c0 -6 5 -13 12 -17 7 -4 8 -3 4 4 -12 20 70 14 108 -8 21
-11 38 -15 41 -10 4 6 1 10 -5 10 -6 0 -18 7 -26 15 -17 17 -134 22 -134 6z"/>
<path d="M4203 2498 c-13 -16 -26 -58 -19 -58 8 0 38 61 33 66 -2 3 -9 -1 -14
-8z"/>
<path d="M4820 2495 c-20 -24 -3 -55 30 -55 16 0 32 4 35 10 4 6 -6 7 -24 4
-35 -7 -52 16 -31 41 7 8 10 15 7 15 -2 0 -10 -7 -17 -15z"/>
<path d="M5459 2493 c-12 -16 -12 -17 2 -5 24 18 42 -8 35 -50 l-6 -33 11 28
c8 21 8 36 0 53 -13 29 -24 30 -42 7z"/>
<path d="M5881 2489 c-1 -25 33 -68 45 -56 3 3 -3 10 -14 16 -12 6 -23 23 -25
38 l-4 28 -2 -26z"/>
<path d="M6943 2483 c-29 -15 -53 -32 -52 -38 1 -5 26 -32 57 -60 31 -28 50
-41 44 -28 -7 12 -30 37 -52 55 l-40 35 58 26 c31 14 64 28 72 31 8 2 4 5 -10
5 -14 0 -49 -11 -77 -26z"/>
<path d="M2120 2494 c-8 -3 -21 -17 -27 -31 -19 -39 -15 -54 3 -17 8 17 25 36
37 42 22 11 15 13 -13 6z"/>
<path d="M2394 2485 c-10 -8 -14 -15 -8 -15 6 0 17 7 24 15 16 19 9 19 -16 0z"/>
<path d="M2637 2493 c-4 -3 -7 -11 -7 -17 0 -6 5 -5 12 2 6 6 9 14 7 17 -3 3
-9 2 -12 -2z"/>
<path d="M2808 2462 c18 -19 37 -30 40 -26 4 3 1 9 -5 11 -18 6 -16 43 1 43 8
0 17 -8 19 -17 4 -14 5 -12 6 5 1 29 -38 31 -46 1 -5 -19 -6 -19 -27 -2 -12
10 -7 3 12 -15z"/>
<path d="M3539 2474 c-5 -15 -7 -29 -4 -32 3 -3 5 0 5 8 0 9 3 10 13 1 11 -8
13 -5 9 19 -5 37 -10 38 -23 4z"/>
<path d="M3618 2475 c-3 -15 -1 -25 6 -25 6 0 12 11 12 25 2 32 -12 32 -18 0z"/>
<path d="M3881 2479 c-20 -16 -22 -22 -11 -32 9 -8 11 -9 6 0 -3 6 6 21 20 32
15 12 23 21 18 21 -5 -1 -20 -10 -33 -21z"/>
<path d="M4126 2488 c-9 -19 13 -48 35 -48 9 0 7 4 -3 13 -9 6 -18 21 -21 32
-3 18 -5 18 -11 3z"/>
<path d="M4225 2480 c-27 -29 -15 -32 18 -4 16 14 22 24 14 24 -8 0 -22 -9
-32 -20z"/>
<path d="M4401 2484 c-1 -27 -26 -48 -46 -40 -10 3 -14 2 -9 -5 3 -6 16 -8 29
-5 27 7 31 -5 41 -112 6 -62 4 -75 -12 -95 l-19 -22 23 19 c17 15 22 29 21 65
-1 52 -26 227 -28 195z"/>
<path d="M5040 2485 c-7 -9 -11 -17 -9 -20 3 -2 10 5 17 15 14 24 10 26 -8 5z"/>
<path d="M5756 2485 c-3 -8 -1 -25 4 -37 7 -20 8 -17 8 15 -1 41 -3 44 -12 22z"/>
<path d="M1801 2464 c-18 -23 -21 -24 -22 -8 0 16 -2 15 -10 -5 -7 -18 -15
-22 -34 -18 -14 2 -28 0 -31 -4 -5 -8 17 -13 53 -12 7 0 5 -15 -8 -44 -25 -58
-24 -69 2 -20 11 20 26 37 35 37 8 0 12 5 9 10 -4 6 8 10 27 11 33 0 33 0 8
12 -14 6 -26 12 -28 13 -2 1 4 14 13 28 22 34 12 34 -14 0z"/>
<path d="M2293 2474 c-3 -9 3 -24 18 -37 l23 -22 -18 22 c-10 12 -16 29 -13
38 4 8 4 15 1 15 -2 0 -7 -7 -11 -16z"/>
<path d="M2572 2483 c33 -68 43 -77 54 -48 4 8 10 12 15 9 5 -3 9 0 9 5 0 17
-18 13 -28 -6 -8 -14 -12 -12 -26 15 -9 18 -19 32 -22 32 -3 0 -4 -3 -2 -7z"/>
<path d="M2681 2483 c-1 -6 -4 -20 -7 -30 -5 -17 -5 -17 6 0 6 10 9 23 6 30
-3 9 -5 9 -5 0z"/>
<path d="M3070 2479 c0 -16 66 -79 82 -79 7 1 1 7 -14 15 -14 8 -32 28 -40 45
-13 30 -28 40 -28 19z"/>
<path d="M3384 2476 c-3 -8 -4 -23 -2 -33 3 -11 6 -6 9 15 6 34 2 42 -7 18z"/>
<path d="M3795 2460 c9 -16 18 -30 21 -30 2 0 -2 14 -11 30 -9 17 -18 30 -21
30 -2 0 2 -13 11 -30z"/>
<path d="M2038 2459 c-21 -11 -38 -22 -38 -24 0 -5 79 32 89 41 12 11 -18 1
-51 -17z"/>
<path d="M2353 2454 c-6 -13 -8 -26 -3 -29 4 -3 11 7 14 21 9 35 4 39 -11 8z"/>
<path d="M5328 2473 c-20 -5 -23 -48 -7 -93 6 -17 7 -9 3 26 -4 40 -2 53 10
57 9 4 17 -1 19 -11 4 -16 5 -15 6 1 0 9 5 17 10 17 5 0 11 -8 15 -17 3 -10 9
-24 12 -30 3 -8 -2 -13 -14 -13 -11 0 -23 6 -25 13 -4 9 -6 9 -6 -1 -1 -18 27
-26 52 -14 12 5 30 13 40 16 10 3 16 14 16 28 l-2 23 -4 -22 c-2 -13 -7 -23
-11 -23 -21 1 -52 14 -52 22 0 5 6 6 13 2 8 -5 8 -2 -2 9 -13 16 -37 20 -73
10z"/>
<path d="M1732 2454 c10 -10 20 -15 24 -12 3 4 -5 12 -18 18 -22 12 -22 12 -6
-6z"/>
<path d="M2417 2453 c3 -10 13 -27 21 -38 l14 -20 -7 20 c-4 11 -10 28 -12 38
-3 9 -9 17 -14 17 -5 0 -6 -8 -2 -17z"/>
<path d="M2501 2454 c0 -11 3 -14 6 -6 3 7 2 16 -1 19 -3 4 -6 -2 -5 -13z"/>
<path d="M2712 2445 c0 -16 2 -22 5 -12 2 9 2 23 0 30 -3 6 -5 -1 -5 -18z"/>
<path d="M2921 2454 c0 -11 3 -14 6 -6 3 7 2 16 -1 19 -3 4 -6 -2 -5 -13z"/>
<path d="M5664 2449 c14 -11 32 -18 39 -16 7 4 6 6 -4 6 -9 1 -22 8 -29 16 -7
8 -17 15 -23 15 -5 0 2 -9 17 -21z"/>
<path d="M2381 2444 c0 -11 3 -14 6 -6 3 7 2 16 -1 19 -3 4 -6 -2 -5 -13z"/>
<path d="M2942 2440 c-7 -11 -8 -20 -3 -20 9 0 24 30 18 36 -1 2 -8 -6 -15
-16z"/>
<path d="M5813 2446 c-4 -7 -15 -16 -23 -19 -12 -4 -12 -6 2 -6 10 -1 22 8 28
19 12 22 6 28 -7 6z"/>
<path d="M3660 2440 c-23 -7 -23 -8 -3 -9 12 -1 25 4 28 9 3 6 5 10 3 9 -2 -1
-14 -5 -28 -9z"/>
<path d="M5005 2440 c-3 -6 1 -7 9 -4 18 7 21 14 7 14 -6 0 -13 -4 -16 -10z"/>
<path d="M7080 2439 c127 -9 361 -33 447 -46 21 -3 35 -3 32 1 -12 13 -307 45
-459 49 l-155 5 135 -9z"/>
<path d="M3020 2431 c0 -5 5 -13 10 -16 6 -3 10 -2 10 4 0 5 -4 13 -10 16 -5
3 -10 2 -10 -4z"/>
<path d="M3760 2423 c0 -12 5 -25 11 -28 16 -11 17 -2 2 25 -12 24 -13 24 -13
3z"/>
<path d="M2511 2414 c0 -11 3 -14 6 -6 3 7 2 16 -1 19 -3 4 -6 -2 -5 -13z"/>
<path d="M2650 2420 c0 -5 5 -10 10 -10 6 0 10 5 10 10 0 6 -4 10 -10 10 -5 0
-10 -4 -10 -10z"/>
<path d="M3918 2423 c7 -3 16 -2 19 1 4 3 -2 6 -13 5 -11 0 -14 -3 -6 -6z"/>
<path d="M2088 2393 c7 -3 16 -2 19 1 4 3 -2 6 -13 5 -11 0 -14 -3 -6 -6z"/>
<path d="M7595 2380 c17 -4 39 -8 50 -8 16 0 15 2 -5 8 -14 4 -36 8 -50 8 -22
0 -22 -1 5 -8z"/>
<path d="M8038 2383 c7 -3 16 -2 19 1 4 3 -2 6 -13 5 -11 0 -14 -3 -6 -6z"/>
<path d="M9365 2375 c-20 -16 -19 -16 2 -6 30 15 33 14 33 -9 0 -11 -11 -27
-25 -36 -30 -20 -26 -31 4 -14 15 8 21 8 21 0 0 -7 12 -4 30 6 33 20 33 32 0
14 -20 -11 -21 -10 -18 22 4 38 -16 48 -47 23z"/>
<path d="M7992 2368 c-7 -7 -12 -22 -12 -35 0 -13 -6 -23 -12 -23 -9 0 -10 -2
-2 -8 7 -4 17 -34 23 -67 15 -73 20 -89 26 -83 3 3 -1 31 -10 64 -20 78 -19
93 8 105 l22 10 -22 -5 c-26 -5 -32 21 -11 42 7 7 10 12 7 12 -3 0 -10 -5 -17
-12z"/>
<path d="M8715 2370 c-3 -6 -3 -20 0 -33 4 -12 9 -30 11 -39 3 -9 -5 -26 -18
-38 l-23 -22 28 13 c30 14 30 17 11 93 -7 28 6 33 53 20 28 -8 34 -25 23 -66
-9 -30 -8 -31 5 -14 20 27 19 59 -3 79 -20 19 -77 23 -87 7z"/>
<path d="M9779 2353 c-9 -22 -8 -34 5 -55 11 -20 12 -28 3 -29 -7 0 -1 -5 12
-10 34 -13 35 -6 6 25 -29 31 -28 27 -15 60 12 33 37 33 43 1 4 -23 4 -23 3 2
-2 41 -42 45 -57 6z"/>
<path d="M7678 2363 c6 -2 18 -2 25 0 6 3 1 5 -13 5 -14 0 -19 -2 -12 -5z"/>
<path d="M9480 2356 c-15 -19 -9 -61 9 -61 8 0 16 7 18 15 4 13 3 13 -6 0 -18
-26 -26 1 -9 31 18 30 10 40 -12 15z"/>
<path d="M9609 2353 c-11 -15 -11 -16 1 -6 11 10 19 9 39 -10 l26 -22 -24 28
c-14 15 -25 27 -27 27 -1 0 -8 -8 -15 -17z"/>
<path d="M2461 2344 c0 -11 3 -14 6 -6 3 7 2 16 -1 19 -3 4 -6 -2 -5 -13z"/>
<path d="M7735 2350 c11 -5 27 -9 35 -9 9 0 8 4 -5 9 -11 5 -27 9 -35 9 -9 0
-8 -4 5 -9z"/>
<path d="M9516 2345 c-3 -9 1 -28 9 -43 10 -20 14 -22 15 -9 0 10 7 29 16 42
10 15 12 25 5 25 -6 0 -11 -5 -11 -11 0 -8 -4 -8 -14 0 -11 9 -15 8 -20 -4z"/>
<path d="M8065 2342 c-11 -4 -21 -17 -22 -30 -2 -13 1 -21 7 -17 6 3 10 11 10
17 0 6 8 17 18 24 19 15 17 15 -13 6z"/>
<path d="M8178 2335 c-3 -11 -9 -29 -13 -40 -6 -19 -6 -19 8 -2 14 17 15 16
22 -10 5 -21 8 -24 16 -12 5 7 9 23 9 34 0 15 -2 17 -9 6 -6 -10 -11 -6 -18
15 -8 25 -10 26 -15 9z"/>
<path d="M8225 2340 c-3 -5 -1 -10 4 -10 6 0 11 5 11 10 0 6 -2 10 -4 10 -3 0
-8 -4 -11 -10z"/>
<path d="M8267 2330 c-8 -11 -17 -17 -22 -12 -4 4 -5 -1 -2 -11 4 -10 7 -24 8
-30 0 -7 5 3 12 22 16 46 34 50 45 9 6 -26 14 -33 33 -34 19 -1 24 4 24 23 0
28 -11 30 -20 3 -10 -30 -22 -24 -29 15 -8 39 -28 45 -49 15z"/>
<path d="M9332 2330 c0 -14 2 -19 5 -12 2 6 2 18 0 25 -3 6 -5 1 -5 -13z"/>
<path d="M9581 2340 c0 -8 4 -24 9 -35 l9 -20 0 20 c0 11 -4 27 -9 35 -9 13
-10 13 -9 0z"/>
<path d="M2410 2314 c-6 -14 -10 -37 -9 -52 1 -19 4 -15 10 16 4 23 11 47 14
52 3 6 4 10 0 10 -3 0 -10 -12 -15 -26z"/>
<path d="M7808 2333 c7 -3 16 -2 19 1 4 3 -2 6 -13 5 -11 0 -14 -3 -6 -6z"/>
<path d="M8485 2306 c0 -25 5 -36 18 -40 14 -3 17 -1 12 12 -4 9 -10 27 -12
40 -8 33 -18 26 -18 -12z"/>
<path d="M8574 2332 c-6 -4 -17 -18 -23 -31 -15 -27 -3 -45 25 -38 16 4 15 5
-3 6 -28 1 -29 12 -3 42 16 20 21 21 29 10 5 -8 7 -21 3 -30 -3 -9 -1 -13 3
-8 5 4 17 -1 28 -10 14 -13 12 -6 -8 25 -29 44 -33 46 -51 34z"/>
<path d="M4333 2297 c-13 -18 -23 -41 -23 -50 0 -18 37 -47 60 -46 8 0 0 7
-17 15 -40 17 -42 39 -8 78 27 31 29 36 18 36 -5 0 -18 -15 -30 -33z"/>
<path d="M8101 2312 c-1 -14 -10 -26 -23 -32 -17 -6 -18 -9 -6 -9 9 -1 20 4
23 10 4 6 14 8 22 4 12 -4 13 -2 6 7 -6 7 -13 20 -16 28 -3 10 -6 7 -6 -8z"/>
<path d="M8957 2316 c-6 -16 39 -56 63 -56 9 0 22 6 28 12 10 10 15 10 21 -1
7 -11 10 -10 18 3 5 10 23 26 39 37 21 14 24 19 12 19 -10 0 -18 -4 -18 -8 0
-5 -11 -14 -24 -20 -21 -9 -23 -8 -19 9 8 31 -12 22 -24 -11 -7 -20 -18 -30
-32 -30 -13 0 -26 11 -36 30 -18 34 -21 36 -28 16z"/>
<path d="M9180 2285 c0 -27 2 -46 5 -43 8 8 9 77 2 85 -4 3 -7 -15 -7 -42z"/>
<path d="M9750 2290 c6 -11 13 -20 16 -20 2 0 0 9 -6 20 -6 11 -13 20 -16 20
-2 0 0 -9 6 -20z"/>
<path d="M9331 2255 c-17 -20 -31 -39 -31 -42 0 -4 3 -3 8 3 4 5 20 24 36 42
17 17 27 32 24 32 -3 0 -20 -16 -37 -35z"/>
<path d="M5842 2240 c0 -14 2 -19 5 -12 2 6 2 18 0 25 -3 6 -5 1 -5 -13z"/>
<path d="M4567 2133 c-28 -101 -34 -163 -17 -163 6 0 10 18 10 39 0 22 5 52
11 68 16 42 38 153 30 153 -4 0 -19 -44 -34 -97z"/>
<path d="M3036 2145 c4 -44 7 -90 8 -102 0 -13 7 -23 13 -23 15 0 9 65 -13
150 l-14 55 6 -80z"/>
<path d="M3773 2157 c1 -39 -2 -67 -8 -67 -5 0 -5 -4 1 -8 7 -4 13 -16 16 -27
2 -11 6 -15 9 -10 2 6 -1 48 -7 95 l-12 85 1 -68z"/>
<path d="M5821 2122 c-7 -48 -11 -109 -9 -137 2 -36 7 -13 16 84 7 73 11 135
9 137 -2 2 -9 -36 -16 -84z"/>
<path d="M6410 2160 c-7 -28 -10 -53 -8 -55 2 -3 10 18 17 46 7 27 11 52 8 55
-3 3 -10 -18 -17 -46z"/>
<path d="M2480 2165 c-7 -78 1 -174 13 -154 1 2 -1 47 -4 99 -3 55 -7 78 -9
55z"/>
<path d="M3842 2170 c0 -19 2 -27 5 -17 2 9 2 25 0 35 -3 9 -5 1 -5 -18z"/>
<path d="M2821 2140 c-1 -62 7 -100 20 -100 5 0 7 11 3 25 -3 14 -10 49 -14
78 l-8 52 -1 -55z"/>
<path d="M4063 2160 c3 -14 11 -58 18 -97 11 -64 14 -73 34 -73 11 0 30 6 41
14 16 13 17 17 5 28 -12 11 -13 11 -6 -1 4 -8 2 -17 -6 -22 -23 -14 -45 -10
-46 9 -1 31 -31 153 -38 160 -4 4 -5 -4 -2 -18z"/>
<path d="M4666 2158 c-13 -64 -15 -135 -3 -155 10 -18 12 -6 13 78 1 100 -2
118 -10 77z"/>
<path d="M5547 2106 c5 -74 21 -148 22 -103 1 9 8 17 16 17 7 0 19 -8 24 -17
8 -14 9 -9 4 19 -5 33 -3 39 18 48 19 8 20 9 4 7 -11 -1 -24 -12 -30 -25 -5
-12 -17 -22 -26 -22 -13 0 -19 17 -27 78 l-11 77 6 -79z"/>
<path d="M4863 2080 c1 -33 5 -60 10 -60 4 0 7 -9 7 -19 0 -11 4 -22 9 -25 4
-3 5 13 0 37 -4 23 -8 61 -9 85 0 23 -4 42 -10 42 -5 0 -8 -27 -7 -60z"/>
<path d="M6116 2116 c-20 -32 -12 -53 25 -61 25 -6 29 -11 30 -43 0 -32 1 -34
9 -15 12 29 10 113 -1 113 -5 0 -9 -11 -9 -24 0 -19 -4 -22 -25 -18 -14 2 -25
8 -25 12 0 19 13 39 21 34 5 -3 9 2 9 10 0 23 -15 19 -34 -8z"/>
<path d="M2311 2098 c-2 -53 -17 -88 -40 -88 -11 0 -22 5 -24 10 -3 6 -4 5 -3
-2 5 -23 43 -20 60 4 12 17 16 19 16 6 0 -9 5 -20 11 -24 8 -4 9 1 4 16 -4 12
-10 43 -15 68 -7 46 -8 46 -9 10z"/>
<path d="M2778 2114 c-16 -8 -28 -20 -28 -26 0 -6 8 -4 18 5 10 10 24 17 30
17 7 0 12 5 12 10 0 12 1 12 -32 -6z"/>
<path d="M3396 2108 c-9 -12 -16 -34 -15 -48 1 -23 2 -22 8 6 9 37 19 54 32
54 12 0 12 -47 -1 -55 -5 -3 -10 -11 -10 -17 0 -7 6 -6 15 2 13 10 15 9 16
-11 0 -13 3 -42 7 -64 12 -74 8 -145 -8 -155 -17 -11 -51 -3 -62 14 -5 8 -8 7
-8 -2 0 -21 51 -35 77 -21 29 15 30 64 7 206 -20 125 -27 136 -58 91z"/>
<path d="M3621 2113 c-7 -8 -11 -16 -8 -19 2 -2 10 2 17 11 17 20 9 27 -9 8z"/>
<path d="M3851 2105 c0 -16 4 -48 11 -70 l11 -40 8 28 c4 16 16 35 26 44 17
13 16 13 -4 3 -13 -6 -23 -16 -23 -22 0 -25 -14 5 -21 45 -5 34 -7 36 -8 12z"/>
<path d="M6030 2120 c0 -5 5 -10 11 -10 5 0 7 5 4 10 -3 6 -8 10 -11 10 -2 0
-4 -4 -4 -10z"/>
<path d="M6243 2123 c30 -5 36 -18 12 -27 -26 -9 -16 -31 17 -41 40 -12 47
-38 16 -53 -17 -8 -19 -11 -6 -11 23 -1 48 26 42 44 -3 8 -22 20 -41 27 -34
12 -34 13 -14 29 24 20 10 40 -28 38 -26 -2 -26 -2 2 -6z"/>
<path d="M2385 2110 c-4 -7 2 -9 18 -5 22 6 26 3 30 -22 4 -27 4 -27 6 5 1 28
-2 32 -23 32 -14 0 -28 -5 -31 -10z"/>
<path d="M2925 2081 c0 -28 3 -37 11 -30 8 6 14 4 18 -7 4 -9 9 -15 11 -12 3
3 -1 18 -10 34 -8 16 -15 35 -15 42 0 6 -3 12 -7 12 -5 0 -8 -18 -8 -39z"/>
<path d="M3671 2108 c-1 -9 -4 -24 -8 -34 -4 -11 -3 -15 4 -11 13 8 39 -116
28 -132 -12 -20 -44 -11 -59 17 -9 16 -15 21 -16 11 0 -21 21 -46 47 -53 18
-6 25 -1 38 24 17 32 16 37 -30 185 -2 6 -4 2 -4 -7z"/>
<path d="M3720 2077 c0 -25 4 -48 10 -52 10 -6 8 80 -3 91 -4 4 -7 -13 -7 -39z"/>
<path d="M3308 2103 c7 -3 16 -2 19 1 4 3 -2 6 -13 5 -11 0 -14 -3 -6 -6z"/>
<path d="M5905 2077 c-9 -18 -15 -43 -12 -57 4 -21 4 -20 6 8 0 17 10 41 21
52 10 10 16 22 11 24 -4 3 -16 -9 -26 -27z"/>
<path d="M2881 2089 c-1 -8 6 -24 15 -35 15 -19 15 -19 6 1 -5 11 -12 27 -15
35 -5 13 -6 13 -6 -1z"/>
<path d="M3000 2085 c-7 -9 -11 -17 -9 -20 3 -2 10 5 17 15 14 24 10 26 -8 5z"/>
<path d="M3115 2071 c5 -34 12 -49 18 -40 2 2 -3 20 -10 39 l-14 35 6 -34z"/>
<path d="M3273 2080 c-7 -25 -20 -26 -26 -2 -4 16 -5 16 -6 -1 0 -10 8 -28 20
-40 12 -13 18 -16 14 -6 -3 8 -1 28 4 42 6 15 8 27 5 27 -3 0 -8 -9 -11 -20z"/>
<path d="M6014 2065 c-10 -25 -12 -41 -5 -53 9 -14 10 -11 11 16 0 18 5 42 10
53 6 10 8 19 5 19 -3 0 -13 -16 -21 -35z"/>
<path d="M6071 2080 c1 -14 5 -38 9 -55 7 -29 8 -29 9 10 0 22 -4 47 -9 55 -8
12 -9 10 -9 -10z"/>
<path d="M4281 2075 c1 -11 5 -31 9 -45 8 -24 8 -24 9 5 0 17 -4 37 -9 45 -8
12 -10 11 -9 -5z"/>
<path d="M4348 2064 c-14 -31 -1 -57 30 -62 28 -4 47 30 32 59 -7 11 -14 18
-17 15 -3 -3 -1 -12 6 -19 6 -8 9 -22 5 -31 -8 -20 -40 -21 -47 -2 -8 21 4 57
16 49 6 -3 7 -1 3 5 -10 17 -15 15 -28 -14z"/>
<path d="M6382 2073 c-15 -28 -25 -101 -16 -115 5 -8 13 14 20 57 13 74 12 88
-4 58z"/>
<path d="M2370 2064 c0 -10 5 -26 10 -34 8 -11 9 -7 4 15 -8 37 -14 45 -14 19z"/>
<path d="M3613 2070 c2 -8 12 -16 23 -17 13 -2 15 -1 4 4 -8 3 -19 11 -23 17
-6 7 -7 6 -4 -4z"/>
<path d="M5349 2063 c-13 -17 -13 -17 6 -3 11 8 22 16 24 17 2 2 0 3 -6 3 -6
0 -17 -8 -24 -17z"/>
<path d="M5684 2065 c-7 -16 24 -71 33 -61 4 3 -1 14 -10 24 -20 22 -22 38 -4
45 9 4 9 6 -1 6 -7 1 -15 -6 -18 -14z"/>
<path d="M5956 2042 c4 -28 1 -48 -8 -60 -12 -15 -11 -16 5 -3 18 14 21 54 6
86 -6 14 -7 7 -3 -23z"/>
<path d="M3517 2063 c-4 -3 -7 -11 -7 -17 0 -6 5 -5 12 2 6 6 9 14 7 17 -3 3
-9 2 -12 -2z"/>
<path d="M3979 2046 c-7 -14 -16 -26 -21 -26 -5 0 -6 5 -2 12 4 7 3 8 -4 4
-17 -10 -15 -36 3 -36 9 0 18 7 22 16 5 14 8 12 19 -7 12 -22 13 -21 7 16 -7
51 -10 53 -24 21z"/>
<path d="M4030 2041 c0 -16 5 -33 10 -36 6 -4 10 6 10 24 0 16 -4 33 -10 36
-6 4 -10 -6 -10 -24z"/>
<path d="M4730 2060 c-13 -8 -12 -10 3 -10 9 0 17 5 17 10 0 12 -1 12 -20 0z"/>
<path d="M3172 2048 c-8 -10 -5 -13 13 -13 18 0 21 3 13 13 -6 6 -12 12 -13
12 -1 0 -7 -6 -13 -12z"/>
<path d="M4760 2048 c0 -19 -33 -34 -39 -17 -2 8 -6 8 -12 -2 -7 -12 32 -59
49 -59 4 0 -1 7 -10 14 -22 16 -23 26 -4 26 15 0 32 37 22 47 -3 4 -6 -1 -6
-9z"/>
<path d="M4805 2040 c-26 -28 -15 -31 12 -3 12 13 19 23 14 23 -4 0 -16 -9
-26 -20z"/>
<path d="M4983 2030 c0 -16 4 -30 9 -30 10 0 10 31 0 48 -6 8 -9 2 -9 -18z"/>
<path d="M5031 2043 c1 -10 5 -29 9 -43 8 -22 9 -21 7 9 -2 29 2 36 23 42 23
6 23 7 -7 8 -26 1 -33 -3 -32 -16z"/>
<path d="M5636 2045 c-11 -8 -15 -15 -9 -15 6 0 16 7 23 15 16 19 11 19 -14 0z"/>
<path d="M4115 2040 c-3 -5 -2 -10 4 -10 5 0 13 5 16 10 3 6 2 10 -4 10 -5 0
-13 -4 -16 -10z"/>
<path d="M4911 2043 c11 -3 15 -12 13 -26 -4 -21 -4 -21 5 -2 11 25 5 35 -17
34 -15 -1 -15 -2 -1 -6z"/>
<path d="M5141 2041 c-10 -7 -7 -9 12 -8 15 1 27 5 27 10 0 10 -22 9 -39 -2z"/>
<path d="M5481 2044 c20 -6 42 -51 33 -67 -4 -8 -2 -7 7 1 12 11 11 17 -1 40
-9 15 -25 28 -35 29 -13 1 -15 0 -4 -3z"/>
<path d="M5327 2020 c3 -11 7 -20 9 -20 2 0 4 9 4 20 0 11 -4 20 -9 20 -5 0
-7 -9 -4 -20z"/>
<path d="M5412 2015 c0 -16 2 -22 5 -12 2 9 2 23 0 30 -3 6 -5 -1 -5 -18z"/>
<path d="M2763 2023 c9 -2 23 -2 30 0 6 3 -1 5 -18 5 -16 0 -22 -2 -12 -5z"/>
<path d="M4220 2020 c-13 -8 -12 -10 3 -10 9 0 17 5 17 10 0 12 -1 12 -20 0z"/>
<path d="M5451 2015 c-1 -22 16 -45 33 -45 5 0 3 6 -6 13 -9 6 -18 21 -21 32
-5 20 -5 20 -6 0z"/>
<path d="M5114 2006 c-9 -10 -8 -15 6 -23 14 -10 16 -8 12 13 -2 13 -5 24 -6
24 0 -1 -6 -7 -12 -14z"/>
<path d="M3008 2003 c7 -3 16 -2 19 1 4 3 -2 6 -13 5 -11 0 -14 -3 -6 -6z"/>
<path d="M5228 2003 c7 -3 16 -2 19 1 4 3 -2 6 -13 5 -11 0 -14 -3 -6 -6z"/>
<path d="M5730 1991 c0 -5 -8 -12 -17 -14 -14 -4 -12 -5 5 -6 13 -1 22 5 22
14 0 8 -2 15 -5 15 -3 0 -5 -4 -5 -9z"/>
<path d="M4789 1978 c14 -19 61 -25 61 -9 0 5 -9 7 -20 4 -11 -3 -28 1 -38 8
-15 13 -16 12 -3 -3z"/>
<path d="M4930 1980 c0 -5 5 -10 11 -10 5 0 7 5 4 10 -3 6 -8 10 -11 10 -2 0
-4 -4 -4 -10z"/>
<path d="M6030 1980 c8 -5 20 -10 25 -10 6 0 3 5 -5 10 -8 5 -19 10 -25 10 -5
0 -3 -5 5 -10z"/>
<path d="M5158 1953 c7 -3 16 -2 19 1 4 3 -2 6 -13 5 -11 0 -14 -3 -6 -6z"/>
<path d="M9735 1700 c-3 -5 -1 -10 4 -10 6 0 11 5 11 10 0 6 -2 10 -4 10 -3 0
-8 -4 -11 -10z"/>
<path d="M2053 1640 c0 -30 2 -43 4 -27 2 15 2 39 0 55 -2 15 -4 2 -4 -28z"/>
<path d="M9763 1671 c3 -13 3 -30 -1 -39 -5 -13 -8 -10 -13 13 -5 25 -7 21 -8
-21 0 -27 -8 -59 -16 -70 -14 -19 -15 -18 -35 6 -11 14 -20 21 -20 16 0 -5 7
-17 16 -27 14 -16 14 -20 -1 -42 -15 -24 -15 -26 4 -36 28 -15 38 -14 16 3
-17 13 -17 15 9 49 28 37 46 40 46 9 0 -9 5 -24 10 -32 9 -13 12 -13 24 2 7
10 23 21 36 26 13 5 19 12 13 15 -6 4 -22 -2 -36 -13 -14 -11 -28 -16 -31 -11
-9 13 -9 71 -1 117 5 29 4 44 -5 49 -10 6 -12 2 -7 -14z"/>
<path d="M5377 1666 c-4 -10 -1 -13 9 -9 7 3 14 9 14 14 0 14 -17 10 -23 -5z"/>
<path d="M8466 1648 c-3 -13 -6 -41 -6 -62 0 -33 -6 -45 -36 -73 -20 -18 -38
-33 -39 -33 -2 0 -5 9 -8 20 -7 26 -33 35 -62 22 -20 -9 -23 -16 -18 -50 4
-32 1 -44 -16 -61 -15 -15 -17 -21 -7 -21 30 0 47 31 44 79 -3 43 -1 46 22 46
22 0 26 -5 31 -45 3 -25 7 -39 7 -32 1 8 11 10 25 7 17 -4 27 2 44 27 l22 32
11 -25 c7 -17 8 5 4 81 -4 58 -8 106 -9 108 -1 1 -5 -8 -9 -20z m-24 -158
c-17 -30 -42 -48 -42 -29 0 10 45 59 54 59 3 0 -3 -13 -12 -30z"/>
<path d="M9584 1645 c-17 -13 -17 -14 -2 -15 9 0 20 5 23 11 11 17 0 20 -21 4z"/>
<path d="M3698 1633 c7 -3 16 -2 19 1 4 3 -2 6 -13 5 -11 0 -14 -3 -6 -6z"/>
<path d="M4075 1630 c-3 -5 1 -10 9 -10 9 0 16 5 16 10 0 6 -4 10 -9 10 -6 0
-13 -4 -16 -10z"/>
<path d="M4777 1600 c9 -57 9 -100 -1 -125 l-9 -20 16 20 c14 17 16 18 17 3 0
-9 5 -20 12 -24 6 -4 8 -3 5 3 -4 6 -11 43 -17 83 -6 40 -15 80 -21 89 -7 11
-8 3 -2 -29z"/>
<path d="M5356 1625 c-3 -9 -6 -22 -5 -28 0 -7 5 -1 10 12 5 13 8 26 5 28 -2
2 -6 -3 -10 -12z"/>
<path d="M5400 1608 c0 -19 -5 -50 -12 -69 l-12 -34 -12 30 c-10 23 -13 25
-13 10 -1 -11 3 -27 8 -34 6 -9 5 -23 -1 -35 -10 -19 -10 -20 5 -7 14 11 20
11 32 1 9 -7 18 -10 22 -6 3 3 1 6 -5 6 -20 0 -23 37 -7 96 10 38 12 61 5 68
-7 7 -10 -2 -10 -26z"/>
<path d="M5572 1583 c-5 -31 -6 -64 -2 -73 4 -8 13 -26 19 -40 11 -25 10 -9
-4 38 -5 18 -2 22 18 22 20 0 23 -4 19 -29 -2 -16 1 -32 9 -36 8 -5 10 -4 5 4
-9 14 1 61 13 61 4 0 14 -11 21 -25 26 -49 121 -19 107 34 -4 16 1 21 22 24
23 3 22 4 -7 6 -29 1 -32 -1 -26 -23 3 -15 -1 -29 -11 -40 -20 -19 -55 -21
-55 -3 0 7 -7 22 -16 33 -14 18 -15 18 -4 -4 7 -13 9 -26 6 -29 -3 -3 -10 5
-16 18 -10 21 -17 24 -51 21 l-40 -4 7 51 c9 69 -2 65 -14 -6z"/>
<path d="M3676 1604 c-3 -9 -6 -37 -6 -62 0 -45 -1 -46 -16 -24 -17 24 -40 29
-45 10 -2 -7 -2 -62 2 -123 l5 -110 2 118 c1 64 5 117 10 117 4 0 13 -9 20
-20 7 -12 16 -19 21 -16 4 3 18 -8 30 -24 12 -17 29 -30 39 -29 13 0 12 2 -4
9 -33 13 -36 26 -14 62 20 33 27 92 12 102 -5 3 -7 -8 -4 -23 2 -15 -4 -45
-13 -67 -14 -35 -17 -37 -27 -20 -6 10 -8 40 -6 67 5 52 4 59 -6 33z"/>
<path d="M4386 1595 c9 -22 -5 -87 -17 -79 -5 3 -7 22 -4 42 5 36 4 36 -5 7
-12 -37 -3 -92 17 -99 10 -4 13 -1 8 13 -9 28 12 71 34 71 45 0 50 -9 27 -51
-11 -21 -28 -39 -36 -40 -11 0 -12 -2 -2 -6 17 -7 52 25 52 47 0 15 18 30 36
30 2 0 4 -11 4 -25 0 -17 -7 -29 -22 -35 l-23 -9 23 0 c14 -1 26 7 31 21 10
28 2 68 -15 69 -8 1 -18 3 -24 4 -5 1 -23 3 -40 4 -25 1 -30 5 -30 26 0 14 -4
25 -10 25 -5 0 -7 -7 -4 -15z"/>
<path d="M8050 1583 c0 -71 14 -193 21 -193 5 0 9 18 9 39 0 28 7 48 25 68
l25 28 20 -24 c30 -35 26 -75 -9 -100 -16 -12 -36 -21 -45 -21 -9 0 -16 -4
-16 -9 0 -10 29 -3 80 17 14 5 32 22 40 36 l14 27 13 -25 c8 -15 16 -26 19
-26 2 0 0 10 -7 21 -6 12 -9 42 -6 65 2 24 1 44 -4 44 -5 0 -9 -10 -9 -22 -1
-13 -7 -34 -14 -47 l-13 -24 -6 24 c-10 36 -52 84 -66 75 -7 -5 -21 -22 -32
-40 l-19 -31 -1 65 c-1 36 -1 68 0 73 0 4 -3 7 -9 7 -5 0 -10 -12 -10 -27z"/>
<path d="M2108 1570 c12 -5 28 -21 34 -36 11 -23 10 -28 -11 -45 -25 -21 -21
-25 10 -9 10 6 19 19 19 29 0 25 -38 71 -58 70 -12 0 -11 -3 6 -9z"/>
<path d="M4957 1560 c4 -14 7 -43 6 -65 0 -22 2 -31 5 -20 l5 20 9 -20 c6 -15
7 -12 4 12 -3 18 -1 35 4 38 6 3 10 12 10 18 0 7 -4 6 -10 -3 -10 -16 -11 -15
-28 20 l-12 25 7 -25z"/>
<path d="M1852 1545 c-24 -31 -32 -31 -32 -3 0 27 -13 15 -15 -14 -1 -14 -11
-25 -26 -30 -18 -6 -17 -7 9 -3 30 4 32 3 21 -16 -8 -16 -8 -20 1 -14 6 4 18
-1 25 -11 17 -22 20 -11 5 17 -9 15 -7 19 5 19 9 0 14 4 10 9 -3 5 7 12 22 14
l28 4 -27 2 c-32 1 -34 7 -11 33 9 10 13 18 10 18 -3 0 -14 -11 -25 -25z"/>
<path d="M2230 1558 c0 -19 30 -101 36 -96 1 2 -6 28 -16 58 -11 30 -19 47
-20 38z"/>
<path d="M2294 1545 c-9 -18 -8 -22 2 -21 7 1 17 5 20 9 14 14 22 7 28 -25 3
-17 8 -29 10 -27 10 10 -8 61 -23 67 -9 3 -18 9 -21 13 -3 4 -10 -3 -16 -16z"/>
<path d="M2420 1555 c-9 -11 -10 -19 -3 -26 8 -8 11 -6 10 7 -2 23 41 32 55
12 8 -10 9 -10 5 2 -5 21 -51 24 -67 5z"/>
<path d="M2525 1560 c-8 -13 5 -13 25 0 13 8 13 10 -2 10 -9 0 -20 -4 -23 -10z"/>
<path d="M4111 1554 c0 -11 3 -14 6 -6 3 7 2 16 -1 19 -3 4 -6 -2 -5 -13z"/>
<path d="M4696 1547 c-13 -14 -20 -16 -26 -7 -5 8 -9 3 -12 -14 -4 -20 -1 -26
13 -26 11 0 19 5 19 11 0 7 7 17 16 24 9 6 15 16 13 21 -2 6 -12 1 -23 -9z"/>
<path d="M5835 1560 c-4 -6 0 -10 9 -10 8 0 17 -6 19 -12 4 -8 6 -7 6 3 1 19
-25 33 -34 19z"/>
<path d="M9568 1545 c2 -14 6 -25 8 -25 2 0 4 11 4 25 0 14 -4 25 -9 25 -4 0
-6 -11 -3 -25z"/>
<path d="M2756 1545 c-3 -8 -1 -15 4 -15 6 0 10 7 10 15 0 8 -2 15 -4 15 -2 0
-6 -7 -10 -15z"/>
<path d="M2825 1550 c-7 -12 12 -50 25 -50 21 0 10 -39 -12 -43 -20 -4 -19 -4
5 -6 22 -1 27 3 27 22 0 12 -9 31 -21 40 -11 10 -18 25 -15 33 6 16 0 19 -9 4z"/>
<path d="M3281 1544 c0 -11 3 -14 6 -6 3 7 2 16 -1 19 -3 4 -6 -2 -5 -13z"/>
<path d="M4558 1530 c-14 -16 -23 -30 -19 -30 4 0 20 14 36 30 16 17 24 30 19
30 -5 0 -21 -13 -36 -30z"/>
<path d="M4750 1549 c0 -5 5 -7 10 -4 6 3 10 8 10 11 0 2 -4 4 -10 4 -5 0 -10
-5 -10 -11z"/>
<path d="M5019 1533 c10 -36 33 -40 48 -8 7 16 7 25 1 25 -5 0 -12 -9 -15 -20
-7 -28 -23 -25 -23 5 0 14 -4 25 -9 25 -5 0 -6 -12 -2 -27z"/>
<path d="M2576 1534 c-18 -18 -21 -44 -5 -44 5 0 8 4 5 9 -3 4 1 16 8 27 12
16 16 16 30 5 10 -8 14 -21 11 -30 -5 -13 -4 -13 6 -4 10 10 9 17 -6 33 -22
24 -29 25 -49 4z"/>
<path d="M4150 1534 c0 -2 15 -11 33 -20 45 -23 45 -23 17 -44 -24 -19 -24
-19 -2 -13 47 12 40 53 -13 69 -19 6 -35 10 -35 8z"/>
<path d="M4250 1530 c0 -5 9 -10 20 -10 11 0 20 5 20 10 0 6 -9 10 -20 10 -11
0 -20 -4 -20 -10z"/>
<path d="M4626 1522 c4 -15 -1 -31 -13 -44 -12 -15 -14 -20 -4 -16 26 8 36 34
23 60 l-12 23 6 -23z"/>
<path d="M5083 1525 c-9 -24 1 -27 20 -5 14 17 15 20 2 20 -9 0 -18 -7 -22
-15z"/>
<path d="M2067 1523 c-4 -3 -7 -13 -7 -22 1 -13 3 -13 11 2 11 19 8 33 -4 20z"/>
<path d="M2170 1518 c0 -9 5 -20 10 -23 13 -8 13 5 0 25 -8 13 -10 13 -10 -2z"/>
<path d="M2485 1521 c-3 -5 -2 -12 3 -15 5 -3 9 1 9 9 0 17 -3 19 -12 6z"/>
<path d="M3143 1514 c1 -11 -5 -29 -13 -40 -14 -18 -14 -18 3 -5 15 12 17 11
17 -8 0 -11 5 -21 10 -21 11 0 5 36 -11 75 -9 19 -9 19 -6 -1z"/>
<path d="M3328 1514 c-16 -8 -28 -17 -28 -21 0 -3 3 -3 7 1 4 3 13 -4 20 -16
13 -23 13 -22 7 5 -6 26 4 34 39 28 4 0 7 4 7 9 0 14 -20 12 -52 -6z"/>
<path d="M3424 1495 c-9 -30 -9 -33 3 -23 11 8 16 9 21 1 5 -7 12 -2 19 13 6
13 7 21 1 18 -5 -3 -15 1 -21 10 -10 14 -13 12 -23 -19z"/>
<path d="M4742 1505 c0 -16 2 -22 5 -12 2 9 2 23 0 30 -3 6 -5 -1 -5 -18z"/>
<path d="M5130 1510 c0 -11 4 -20 10 -20 5 0 7 6 4 14 -4 10 3 16 23 19 27 4
27 4 -4 6 -27 1 -33 -3 -33 -19z"/>
<path d="M5294 1500 c-10 -35 -34 -53 -34 -26 0 8 -4 17 -9 20 -5 4 -7 -3 -4
-14 8 -29 22 -34 41 -17 15 13 19 13 31 0 7 -8 16 -12 19 -8 4 3 1 10 -6 14
-7 4 -16 21 -20 36 l-8 29 -10 -34z"/>
<path d="M5455 1510 c-9 -10 -15 -26 -12 -35 7 -17 23 -20 32 -5 5 8 11 7 21
-1 20 -17 25 -8 8 15 -13 19 -14 19 -34 1 -17 -16 -20 -16 -20 -2 0 9 8 20 17
26 10 5 15 12 12 15 -3 4 -14 -3 -24 -14z"/>
<path d="M9536 1505 c21 -104 32 -148 33 -120 0 17 -8 57 -19 90 -11 33 -17
47 -14 30z"/>
<path d="M9868 1516 c5 -11 8 -38 6 -60 -3 -31 -2 -36 5 -21 14 30 13 59 -5
81 -15 18 -15 18 -6 0z"/>
<path d="M3507 1491 c-9 -16 -17 -33 -17 -38 0 -4 9 7 20 25 12 20 25 30 32
26 7 -4 8 -3 4 4 -11 18 -20 14 -39 -17z"/>
<path d="M4115 1509 c-4 -6 -5 -12 -2 -15 2 -3 7 2 10 11 7 17 1 20 -8 4z"/>
<path d="M5214 1512 c-10 -6 -26 -52 -19 -52 2 0 10 14 19 30 8 17 14 30 13
30 -1 0 -7 -4 -13 -8z"/>
<path d="M2520 1500 c-8 -5 -10 -10 -5 -10 6 0 17 5 25 10 8 5 11 10 5 10 -5
0 -17 -5 -25 -10z"/>
<path d="M3797 1489 c4 -13 8 -18 11 -10 2 7 -1 18 -6 23 -8 8 -9 4 -5 -13z"/>
<path d="M9580 1503 c0 -5 9 -18 20 -28 11 -10 20 -15 20 -11 0 4 -9 16 -20
28 -11 12 -20 17 -20 11z"/>
<path d="M2680 1490 c0 -5 5 -10 11 -10 5 0 7 5 4 10 -3 6 -8 10 -11 10 -2 0
-4 -4 -4 -10z"/>
<path d="M3080 1475 c0 -8 4 -15 10 -15 5 0 7 7 4 15 -4 8 -8 15 -10 15 -2 0
-4 -7 -4 -15z"/>
<path d="M3756 1470 c3 -14 12 -31 19 -38 10 -11 13 -10 17 6 4 14 2 19 -6 16
-7 -3 -18 5 -24 18 -12 23 -12 23 -6 -2z"/>
<path d="M4680 1475 c7 -8 20 -15 28 -15 13 0 12 3 -4 15 -25 19 -40 19 -24 0z"/>
<path d="M4069 1468 c23 -6 37 -6 44 1 8 8 -2 11 -33 10 l-45 -1 34 -10z"/>
<path d="M2068 1463 c7 -3 16 -2 19 1 4 3 -2 6 -13 5 -11 0 -14 -3 -6 -6z"/>
<path d="M2378 1463 c7 -3 16 -2 19 1 4 3 -2 6 -13 5 -11 0 -14 -3 -6 -6z"/>
<path d="M2782 1450 c0 -14 2 -19 5 -12 2 6 2 18 0 25 -3 6 -5 1 -5 -13z"/>
<path d="M3646 1455 c-16 -12 -17 -15 -4 -15 8 0 21 7 28 15 16 19 1 19 -24 0z"/>
<path d="M2941 1414 c0 -11 3 -14 6 -6 3 7 2 16 -1 19 -3 4 -6 -2 -5 -13z"/>
<path d="M2790 1414 c0 -6 -6 -19 -14 -29 -12 -17 -16 -18 -32 -5 -17 14 -18
14 -5 -2 7 -10 19 -18 26 -18 13 0 39 49 30 58 -3 3 -5 1 -5 -4z"/>
<path d="M9720 1278 c1 -7 8 -24 16 -38 14 -23 13 -13 -3 26 -4 12 -2 15 8 12
17 -6 36 -67 23 -76 -12 -9 -12 -62 0 -81 8 -12 11 -10 17 7 5 13 17 22 29 22
17 0 20 -4 15 -21 -5 -15 -4 -19 4 -15 6 4 11 16 11 28 0 17 -5 20 -34 16
l-35 -4 6 48 c5 38 2 53 -12 68 -20 22 -45 27 -45 8z"/>
<path d="M2885 1247 c9 -58 -2 -100 -26 -94 -10 3 -19 1 -19 -4 0 -5 9 -9 19
-9 14 0 18 -5 14 -21 -5 -16 -8 -18 -15 -7 -8 10 -9 10 -6 -1 8 -28 26 -22 34
11 6 29 8 30 15 13 4 -11 5 12 2 50 -3 39 -10 77 -15 85 -6 10 -7 2 -3 -23z"/>
<path d="M3949 1262 c16 -11 11 -104 -8 -143 -12 -23 -12 -23 4 -4 9 11 19 19
23 18 4 -1 5 28 2 65 -4 47 -9 67 -20 69 -12 4 -13 3 -1 -5z"/>
<path d="M4071 1254 c0 -11 3 -14 6 -6 3 7 2 16 -1 19 -3 4 -6 -2 -5 -13z"/>
<path d="M4107 1242 c3 -15 0 -38 -5 -52 l-10 -25 -11 25 c-12 26 -9 -1 3 -30
4 -9 -2 -25 -14 -38 -11 -12 -17 -22 -12 -22 5 0 15 7 22 16 12 13 16 12 37
-13 l24 -28 -19 40 c-13 26 -17 47 -11 60 10 27 11 83 1 89 -5 3 -7 -7 -5 -22z"/>
<path d="M8506 1262 c-3 -5 -1 -37 5 -71 8 -54 7 -66 -11 -103 -13 -26 -15
-35 -5 -24 8 11 15 23 15 28 0 4 5 8 10 8 6 0 10 -7 10 -16 0 -8 4 -12 10 -9
5 3 23 -1 39 -10 43 -22 52 -18 14 6 -18 12 -33 25 -33 30 0 5 19 22 42 39 22
16 34 30 25 30 -8 0 -32 -15 -51 -34 -20 -18 -37 -31 -38 -27 -1 3 -2 39 -2
80 -1 47 -5 76 -13 78 -6 2 -14 0 -17 -5z m24 -44 c0 -49 -5 -47 -13 5 -3 20
-2 37 4 37 5 0 9 -19 9 -42z"/>
<path d="M3477 1216 c4 -35 1 -50 -18 -75 -35 -48 -76 -36 -44 13 19 28 6 42
-25 26 -11 -6 -20 -13 -20 -16 0 -2 9 0 20 6 24 13 27 -2 5 -24 -8 -8 -15 -17
-15 -19 0 -13 74 -38 96 -33 18 5 22 3 18 -9 -4 -8 -1 -15 6 -15 8 0 10 12 6
38 -3 20 -8 63 -11 95 -4 31 -10 57 -14 57 -5 0 -6 -20 -4 -44z m13 -74 c0
-15 -28 -47 -35 -40 -8 8 13 48 25 48 6 0 10 -4 10 -8z"/>
<path d="M8310 1224 c-6 -14 -10 -37 -10 -52 -1 -32 -35 -74 -78 -96 l-31 -16
-4 43 c-3 41 -4 41 -5 -8 0 -27 3 -70 8 -95 l9 -45 -2 43 c-3 41 0 45 46 78
45 32 50 34 61 18 11 -14 12 -8 9 37 -4 62 3 102 17 94 6 -3 7 1 4 9 -8 22
-13 20 -24 -10z"/>
<path d="M3115 1200 c-1 -21 3 -36 7 -34 10 6 11 61 1 67 -5 3 -8 -12 -8 -33z"/>
<path d="M10055 1200 c-4 -21 -6 -52 -5 -67 4 -52 0 -59 -16 -33 l-15 25 5
-24 c3 -14 0 -32 -7 -40 -7 -8 3 -5 21 8 24 17 32 19 32 8 0 -8 6 -20 13 -26
11 -8 13 -7 12 7 -1 9 -6 25 -10 35 -4 10 -1 27 9 42 18 27 22 90 6 100 -7 4
-9 -2 -4 -19 7 -29 -13 -99 -27 -91 -12 8 -12 57 1 89 5 15 6 26 1 26 -5 0
-12 -18 -16 -40z"/>
<path d="M3084 1164 c1 -34 4 -57 8 -50 5 7 8 7 8 0 0 -5 7 -19 16 -30 14 -18
14 -18 3 6 -7 13 -14 36 -15 50 -2 14 -8 39 -12 55 -7 24 -9 18 -8 -31z"/>
<path d="M3750 1201 c0 -5 5 -13 10 -16 6 -3 10 -2 10 4 0 5 -4 13 -10 16 -5
3 -10 2 -10 -4z"/>
<path d="M9606 1171 c22 -22 41 -37 43 -35 6 6 -61 74 -72 74 -5 0 8 -18 29
-39z"/>
<path d="M3681 1172 c-5 -16 -10 -20 -10 -10 -1 9 -5 19 -10 22 -4 3 -3 -16 3
-42 l10 -47 9 43 c10 53 23 54 32 2 4 -22 11 -40 16 -40 12 0 12 27 -1 35 -5
3 -10 17 -10 30 0 34 -27 39 -39 7z"/>
<path d="M8196 1185 c-3 -9 -6 -22 -5 -28 0 -7 5 -1 10 12 5 13 8 26 5 28 -2
2 -6 -3 -10 -12z"/>
<path d="M8321 1184 c0 -11 3 -14 6 -6 3 7 2 16 -1 19 -3 4 -6 -2 -5 -13z"/>
<path d="M9686 1183 c-6 -14 -5 -15 5 -6 7 7 10 15 7 18 -3 3 -9 -2 -12 -12z"/>
<path d="M3824 1181 c-11 -11 -2 -60 14 -72 14 -11 15 -11 5 1 -7 8 -13 25
-13 40 0 23 4 25 51 27 48 3 50 2 38 -15 -13 -15 -12 -16 3 -3 10 7 15 17 12
23 -5 8 -101 8 -110 -1z"/>
<path d="M2325 1170 c-19 -8 -19 -9 3 -9 12 -1 22 4 22 9 0 6 -1 10 -2 9 -2 0
-12 -4 -23 -9z"/>
<path d="M3320 1150 c24 -24 29 -37 25 -63 -4 -27 -4 -28 4 -7 7 23 8 23 13 5
4 -16 5 -15 4 5 0 23 -50 90 -68 90 -4 0 6 -14 22 -30z"/>
<path d="M9883 1163 c-17 -13 -17 -14 -1 -9 11 3 23 -3 33 -17 21 -30 19 -46
-7 -57 -14 -5 -17 -9 -7 -9 35 -2 52 46 24 69 -24 20 -18 26 21 22 28 -3 34
-8 28 -21 -20 -49 -11 -92 20 -91 6 0 3 5 -6 11 -22 12 -22 22 -2 65 9 19 15
36 13 38 -2 2 -25 6 -51 8 -33 4 -53 1 -65 -9z"/>
<path d="M3784 1143 c9 -18 18 -33 20 -33 9 0 -8 41 -22 52 -13 11 -12 8 2
-19z"/>
<path d="M4025 1160 c3 -5 8 -10 11 -10 2 0 4 5 4 10 0 6 -5 10 -11 10 -5 0
-7 -4 -4 -10z"/>
<path d="M2291 1141 c0 -14 -9 -34 -18 -45 -17 -20 -17 -20 6 0 15 14 21 29
18 45 l-4 24 -2 -24z"/>
<path d="M2478 1144 c-39 -20 -35 -28 3 -8 40 20 79 12 79 -19 0 -12 5 -29 11
-37 7 -11 8 -4 3 25 -4 22 -9 43 -11 48 -7 12 -56 7 -85 -9z"/>
<path d="M2800 1149 c0 -5 -4 -7 -10 -4 -6 4 -10 -5 -10 -19 0 -34 5 -33 24 4
8 17 10 30 5 30 -5 0 -9 -5 -9 -11z"/>
<path d="M3178 1153 c13 -3 21 -10 18 -16 -3 -7 -9 -20 -12 -29 -6 -16 -8 -15
-25 5 l-19 22 13 -27 c15 -34 25 -35 37 -3 13 35 27 31 23 -7 -3 -32 -3 -32 6
-6 14 44 4 64 -32 65 -21 0 -24 -1 -9 -4z"/>
<path d="M3882 1140 c0 -14 2 -19 5 -12 2 6 2 18 0 25 -3 6 -5 1 -5 -13z"/>
<path d="M8455 1136 c-19 -28 -17 -78 3 -82 7 -1 8 0 2 3 -15 7 -12 56 6 81 8
12 13 22 10 22 -3 0 -13 -11 -21 -24z"/>
<path d="M9671 1144 c0 -11 3 -14 6 -6 3 7 2 16 -1 19 -3 4 -6 -2 -5 -13z"/>
<path d="M2353 1105 c0 -27 2 -38 4 -22 2 15 2 37 0 50 -2 12 -4 0 -4 -28z"/>
<path d="M2633 1122 c-1 -22 0 -24 9 -8 6 10 6 22 2 26 -5 5 -10 -3 -11 -18z"/>
<path d="M2687 1130 c4 -14 7 -32 7 -41 0 -9 7 -14 16 -12 10 3 16 17 16 41
l2 37 -10 -29 -11 -29 -13 29 c-11 24 -13 25 -7 4z"/>
<path d="M3120 1140 c0 -5 7 -7 15 -4 8 4 15 8 15 10 0 2 -7 4 -15 4 -8 0 -15
-4 -15 -10z"/>
<path d="M3274 1133 c-4 -12 -13 -24 -23 -26 -14 -4 -14 -5 1 -6 18 -1 44 36
33 47 -3 3 -8 -4 -11 -15z"/>
<path d="M8360 1131 c-13 -25 -13 -51 0 -71 7 -11 9 -7 5 15 -7 40 8 64 29 46
20 -17 21 -50 1 -57 -8 -4 -15 -10 -15 -15 0 -6 9 -5 20 1 24 13 26 47 4 78
-19 27 -30 28 -44 3z"/>
<path d="M2757 1133 c-4 -3 -7 -11 -7 -17 0 -6 5 -5 12 2 6 6 9 14 7 17 -3 3
-9 2 -12 -2z"/>
<path d="M3900 1126 c0 -8 4 -17 9 -20 5 -4 7 3 4 14 -6 23 -13 26 -13 6z"/>
<path d="M4015 1127 c-17 -13 -17 -14 1 -19 14 -4 20 0 20 13 0 11 -1 19 -1
19 -1 0 -9 -6 -20 -13z"/>
<path d="M9862 1120 c0 -14 2 -19 5 -12 2 6 2 18 0 25 -3 6 -5 1 -5 -13z"/>
<path d="M2083 1098 c1 -37 10 -48 22 -28 3 6 2 10 -4 10 -5 0 -12 12 -14 28
-3 19 -4 16 -4 -10z"/>
<path d="M2190 1121 c0 -5 6 -14 14 -20 12 -10 13 -8 9 8 -5 21 -23 30 -23 12z"/>
<path d="M2611 1114 c0 -11 3 -14 6 -6 3 7 2 16 -1 19 -3 4 -6 -2 -5 -13z"/>
<path d="M2983 1123 c9 -2 25 -2 35 0 9 3 1 5 -18 5 -19 0 -27 -2 -17 -5z"/>
<path d="M9600 1110 l-25 -8 27 -1 c15 -1 30 4 33 9 7 11 0 11 -35 0z"/>
<path d="M9688 1108 c5 -5 16 -8 23 -6 8 3 3 7 -10 11 -17 4 -21 3 -13 -5z"/>
<path d="M2140 1095 c-29 -17 -19 -20 11 -4 17 8 24 6 40 -12 10 -12 19 -18
19 -12 0 10 -32 43 -41 43 -2 -1 -15 -7 -29 -15z"/>
<path d="M2911 1094 c0 -11 3 -14 6 -6 3 7 2 16 -1 19 -3 4 -6 -2 -5 -13z"/>
<path d="M2163 1066 c1 -11 9 -21 17 -23 10 -3 11 -2 4 4 -6 4 -14 15 -17 23
-5 11 -6 9 -4 -4z"/>
<path d="M3148 1063 c7 -3 16 -2 19 1 4 3 -2 6 -13 5 -11 0 -14 -3 -6 -6z"/>
<path d="M2092 1020 c0 -19 2 -27 5 -17 2 9 2 25 0 35 -3 9 -5 1 -5 -18z"/>
<path d="M2672 1025 c0 -16 2 -22 5 -12 2 9 2 23 0 30 -3 6 -5 -1 -5 -18z"/>
<path d="M7316 1028 c-5 -20 -8 -21 -17 -8 -8 12 -9 9 -4 -13 4 -20 -1 -37
-15 -58 -26 -35 -37 -37 -43 -6 -3 19 -4 19 -3 -3 1 -19 6 -24 21 -21 11 2 33
3 48 4 16 0 26 5 24 11 -3 6 -10 10 -16 9 -13 -3 -15 9 -2 23 9 10 25 84 18
84 -3 0 -7 -10 -11 -22z"/>
<path d="M2635 1019 c-4 -6 -5 -12 -2 -15 2 -3 7 2 10 11 7 17 1 20 -8 4z"/>
<path d="M6980 941 c0 -44 3 -87 7 -97 13 -36 19 15 9 86 -5 38 -6 73 -3 77 4
4 20 2 35 -3 35 -12 41 -47 10 -68 -12 -9 -18 -16 -12 -16 15 0 44 34 44 52 0
23 -33 48 -63 48 -27 0 -27 0 -27 -79z"/>
<path d="M7109 1003 c-12 -16 -12 -17 2 -5 9 7 23 10 32 6 8 -3 18 -1 22 5 11
19 -42 12 -56 -6z"/>
<path d="M7347 985 c-21 -43 -21 -41 -1 -49 9 -3 12 -2 9 5 -4 5 -1 24 5 40
18 43 7 46 -13 4z"/>
<path d="M2621 974 c0 -11 3 -14 6 -6 3 7 2 16 -1 19 -3 4 -6 -2 -5 -13z"/>
<path d="M7114 966 c-7 -28 1 -46 19 -46 8 0 7 3 -2 9 -9 6 -11 18 -7 35 3 14
4 26 1 26 -2 0 -7 -11 -11 -24z"/>
<path d="M2101 954 c0 -11 3 -14 6 -6 3 7 2 16 -1 19 -3 4 -6 -2 -5 -13z"/>
<path d="M7161 948 c-13 -21 -13 -22 2 -10 9 8 21 11 26 7 7 -3 8 0 5 9 -8 22
-17 20 -33 -6z"/>
<path d="M7456 944 c-4 -14 -5 -28 -3 -31 3 -2 8 8 11 23 4 14 5 28 3 31 -3 2
-8 -8 -11 -23z"/>
<path d="M7324 793 c6 -52 11 -61 54 -100 26 -24 51 -43 56 -43 6 0 0 9 -12
21 -12 11 -20 24 -17 29 3 6 -1 7 -11 3 -28 -10 -54 34 -54 95 0 32 -4 52 -11
52 -8 0 -10 -17 -5 -57z"/>
<path d="M7418 750 c2 -16 6 -30 8 -30 2 0 4 14 4 30 0 17 -4 30 -8 30 -5 0
-7 -13 -4 -30z"/>
<path d="M7030 733 c0 -21 3 -24 9 -14 5 8 7 20 4 28 -8 21 -13 15 -13 -14z"/>
<path d="M7131 714 c-1 -38 -35 -84 -61 -84 -14 0 -20 9 -23 33 -2 18 -4 8 -4
-23 0 -30 1 -48 4 -39 2 9 17 19 33 23 35 6 63 54 57 94 -4 25 -4 25 -6 -4z"/>
<path d="M7381 724 c0 -11 3 -14 6 -6 3 7 2 16 -1 19 -3 4 -6 -2 -5 -13z"/>
<path d="M7065 700 c0 -15 3 -26 8 -23 4 2 7 13 7 23 0 10 -3 21 -7 23 -5 3
-8 -8 -8 -23z"/>
<path d="M7160 725 c0 -5 5 -17 10 -25 5 -8 10 -10 10 -5 0 6 -5 17 -10 25 -5
8 -10 11 -10 5z"/>
<path d="M7211 712 c-1 -12 -8 -25 -16 -28 -8 -4 -12 -11 -8 -17 4 -6 11 -3
20 8 13 18 13 18 28 -1 8 -10 15 -14 15 -7 0 6 -5 15 -11 18 -6 4 -14 17 -19
29 -9 21 -9 21 -9 -2z"/>
<path d="M7277 723 c-9 -9 -9 -51 1 -56 4 -3 7 10 7 29 0 19 0 34 -1 34 0 0
-4 -3 -7 -7z"/>
<path d="M7316 703 c-6 -14 -5 -15 5 -6 7 7 10 15 7 18 -3 3 -9 -2 -12 -12z"/>
<path d="M7500 686 c0 -8 5 -18 10 -21 6 -3 10 3 10 14 0 12 -4 21 -10 21 -5
0 -10 -6 -10 -14z"/>
<path d="M7465 551 c3 -18 6 -57 6 -85 2 -48 2 -49 9 -16 6 29 8 31 9 10 2
-14 9 -43 16 -65 l14 -40 -6 45 c-3 25 -16 77 -29 115 -13 39 -22 55 -19 36z"/>
<path d="M7120 484 c0 -21 4 -45 9 -53 5 -8 7 5 4 35 -7 61 -13 70 -13 18z"/>
<path d="M7276 487 c3 -10 9 -15 12 -12 3 3 0 11 -7 18 -10 9 -11 8 -5 -6z"/>
<path d="M7368 493 c6 -2 18 -2 25 0 6 3 1 5 -13 5 -14 0 -19 -2 -12 -5z"/>
<path d="M7177 484 c12 -3 24 -13 27 -22 3 -12 4 -11 3 3 -2 14 -10 21 -27 22
-21 1 -21 1 -3 -3z"/>
<path d="M7345 465 c6 -33 0 -46 -30 -63 -17 -9 -17 -11 -3 -12 38 0 61 54 38
90 -7 11 -9 7 -5 -15z"/>
<path d="M7403 435 c0 -27 2 -38 4 -22 2 15 2 37 0 50 -2 12 -4 0 -4 -28z"/>
<path d="M7439 463 c-13 -16 -12 -17 4 -4 9 7 17 15 17 17 0 8 -8 3 -21 -13z"/>
<path d="M7257 438 c-10 -11 -16 -22 -13 -26 6 -6 35 27 36 41 0 10 -2 8 -23
-15z"/>
<path d="M7192 403 c-15 -48 -10 -52 10 -8 9 20 12 37 8 40 -4 2 -12 -12 -18
-32z"/>
<path d="M7440 396 c7 -7 13 -7 20 0 6 6 3 10 -10 10 -13 0 -16 -4 -10 -10z"/>
</g>
</svg>
