<?xml version="1.0" encoding="UTF-8"?>
<!DOCTYPE svg PUBLIC "-//W3C//DTD SVG 1.1//EN" "http://www.w3.org/Graphics/SVG/1.1/DTD/svg11.dtd">
<svg xmlns="http://www.w3.org/2000/svg" version="1.1" width="542px" height="412px" style="shape-rendering:geometricPrecision; text-rendering:geometricPrecision; image-rendering:optimizeQuality; fill-rule:evenodd; clip-rule:evenodd" xmlns:xlink="http://www.w3.org/1999/xlink">
<g><path style="opacity:1" fill="#fdfdfd" d="M -0.5,-0.5 C 15.1667,-0.5 30.8333,-0.5 46.5,-0.5C 46.5,9.5 46.5,19.5 46.5,29.5C 41.1667,29.8333 41.1667,30.1667 46.5,30.5C 46.5,40.5 46.5,50.5 46.5,60.5C 41.1667,60.8333 41.1667,61.1667 46.5,61.5C 46.5,71.5 46.5,81.5 46.5,91.5C 41.1667,91.8333 41.1667,92.1667 46.5,92.5C 46.5,102.167 46.5,111.833 46.5,121.5C 41.1667,121.833 41.1667,122.167 46.5,122.5C 46.5,132.5 46.5,142.5 46.5,152.5C 41.1667,152.833 41.1667,153.167 46.5,153.5C 46.5,163.5 46.5,173.5 46.5,183.5C 41.1667,183.833 41.1667,184.167 46.5,184.5C 46.5,194.5 46.5,204.5 46.5,214.5C 41.1667,214.833 41.1667,215.167 46.5,215.5C 46.5,225.5 46.5,235.5 46.5,245.5C 41.1667,245.833 41.1667,246.167 46.5,246.5C 46.5,256.167 46.5,265.833 46.5,275.5C 41.1667,275.833 41.1667,276.167 46.5,276.5C 46.5,286.5 46.5,296.5 46.5,306.5C 41.1667,306.833 41.1667,307.167 46.5,307.5C 46.5,317.5 46.5,327.5 46.5,337.5C 41.1667,337.833 41.1667,338.167 46.5,338.5C 46.5,348.833 46.5,359.167 46.5,369.5C 53.8333,369.5 61.1667,369.5 68.5,369.5C 68.8333,374.833 69.1667,374.833 69.5,369.5C 88.1667,369.5 106.833,369.5 125.5,369.5C 125.833,374.833 126.167,374.833 126.5,369.5C 144.833,369.5 163.167,369.5 181.5,369.5C 181.833,374.833 182.167,374.833 182.5,369.5C 201.167,369.5 219.833,369.5 238.5,369.5C 238.833,374.833 239.167,374.833 239.5,369.5C 257.833,369.5 276.167,369.5 294.5,369.5C 294.833,374.833 295.167,374.833 295.5,369.5C 313.833,369.5 332.167,369.5 350.5,369.5C 350.833,374.833 351.167,374.833 351.5,369.5C 370.167,369.5 388.833,369.5 407.5,369.5C 407.833,374.833 408.167,374.833 408.5,369.5C 426.833,369.5 445.167,369.5 463.5,369.5C 463.833,374.833 464.167,374.833 464.5,369.5C 482.833,369.5 501.167,369.5 519.5,369.5C 519.833,374.833 520.167,374.833 520.5,369.5C 527.5,369.5 534.5,369.5 541.5,369.5C 541.5,383.5 541.5,397.5 541.5,411.5C 360.833,411.5 180.167,411.5 -0.5,411.5C -0.5,274.167 -0.5,136.833 -0.5,-0.5 Z"/></g>
<g><path style="opacity:1" fill="#000000" d="M 46.5,-0.5 C 46.8333,-0.5 47.1667,-0.5 47.5,-0.5C 47.5,9.5 47.5,19.5 47.5,29.5C 47.5,29.8333 47.5,30.1667 47.5,30.5C 47.5,40.5 47.5,50.5 47.5,60.5C 47.5,60.8333 47.5,61.1667 47.5,61.5C 47.5,71.5 47.5,81.5 47.5,91.5C 47.5,91.8333 47.5,92.1667 47.5,92.5C 47.5,102.167 47.5,111.833 47.5,121.5C 47.5,121.833 47.5,122.167 47.5,122.5C 47.5,132.5 47.5,142.5 47.5,152.5C 47.5,152.833 47.5,153.167 47.5,153.5C 47.5,163.5 47.5,173.5 47.5,183.5C 47.5,183.833 47.5,184.167 47.5,184.5C 47.5,194.5 47.5,204.5 47.5,214.5C 47.5,214.833 47.5,215.167 47.5,215.5C 47.5,225.5 47.5,235.5 47.5,245.5C 47.5,245.833 47.5,246.167 47.5,246.5C 47.5,256.167 47.5,265.833 47.5,275.5C 47.5,275.833 47.5,276.167 47.5,276.5C 47.5,286.5 47.5,296.5 47.5,306.5C 47.5,306.833 47.5,307.167 47.5,307.5C 47.5,327.833 47.5,348.167 47.5,368.5C 54.5,368.5 61.5,368.5 68.5,368.5C 68.8333,368.5 69.1667,368.5 69.5,368.5C 88.1667,368.5 106.833,368.5 125.5,368.5C 125.833,368.5 126.167,368.5 126.5,368.5C 144.833,368.5 163.167,368.5 181.5,368.5C 181.833,368.5 182.167,368.5 182.5,368.5C 201.167,368.5 219.833,368.5 238.5,368.5C 238.833,368.5 239.167,368.5 239.5,368.5C 257.833,368.5 276.167,368.5 294.5,368.5C 294.833,368.5 295.167,368.5 295.5,368.5C 313.833,368.5 332.167,368.5 350.5,368.5C 350.833,368.5 351.167,368.5 351.5,368.5C 370.167,368.5 388.833,368.5 407.5,368.5C 407.833,368.5 408.167,368.5 408.5,368.5C 426.833,368.5 445.167,368.5 463.5,368.5C 463.833,368.5 464.167,368.5 464.5,368.5C 482.833,368.5 501.167,368.5 519.5,368.5C 519.833,368.5 520.167,368.5 520.5,368.5C 527.5,368.5 534.5,368.5 541.5,368.5C 541.5,368.833 541.5,369.167 541.5,369.5C 534.5,369.5 527.5,369.5 520.5,369.5C 520.167,374.833 519.833,374.833 519.5,369.5C 501.167,369.5 482.833,369.5 464.5,369.5C 464.167,374.833 463.833,374.833 463.5,369.5C 445.167,369.5 426.833,369.5 408.5,369.5C 408.167,374.833 407.833,374.833 407.5,369.5C 388.833,369.5 370.167,369.5 351.5,369.5C 351.167,374.833 350.833,374.833 350.5,369.5C 332.167,369.5 313.833,369.5 295.5,369.5C 295.167,374.833 294.833,374.833 294.5,369.5C 276.167,369.5 257.833,369.5 239.5,369.5C 239.167,374.833 238.833,374.833 238.5,369.5C 219.833,369.5 201.167,369.5 182.5,369.5C 182.167,374.833 181.833,374.833 181.5,369.5C 163.167,369.5 144.833,369.5 126.5,369.5C 126.167,374.833 125.833,374.833 125.5,369.5C 106.833,369.5 88.1667,369.5 69.5,369.5C 69.1667,374.833 68.8333,374.833 68.5,369.5C 61.1667,369.5 53.8333,369.5 46.5,369.5C 46.5,359.167 46.5,348.833 46.5,338.5C 41.1667,338.167 41.1667,337.833 46.5,337.5C 46.5,327.5 46.5,317.5 46.5,307.5C 41.1667,307.167 41.1667,306.833 46.5,306.5C 46.5,296.5 46.5,286.5 46.5,276.5C 41.1667,276.167 41.1667,275.833 46.5,275.5C 46.5,265.833 46.5,256.167 46.5,246.5C 41.1667,246.167 41.1667,245.833 46.5,245.5C 46.5,235.5 46.5,225.5 46.5,215.5C 41.1667,215.167 41.1667,214.833 46.5,214.5C 46.5,204.5 46.5,194.5 46.5,184.5C 41.1667,184.167 41.1667,183.833 46.5,183.5C 46.5,173.5 46.5,163.5 46.5,153.5C 41.1667,153.167 41.1667,152.833 46.5,152.5C 46.5,142.5 46.5,132.5 46.5,122.5C 41.1667,122.167 41.1667,121.833 46.5,121.5C 46.5,111.833 46.5,102.167 46.5,92.5C 41.1667,92.1667 41.1667,91.8333 46.5,91.5C 46.5,81.5 46.5,71.5 46.5,61.5C 41.1667,61.1667 41.1667,60.8333 46.5,60.5C 46.5,50.5 46.5,40.5 46.5,30.5C 41.1667,30.1667 41.1667,29.8333 46.5,29.5C 46.5,19.5 46.5,9.5 46.5,-0.5 Z"/></g>
<g><path style="opacity:1" fill="#fdfdfd" d="M 47.5,-0.5 C 54.5,-0.5 61.5,-0.5 68.5,-0.5C 68.5,9.5 68.5,19.5 68.5,29.5C 61.5,29.5 54.5,29.5 47.5,29.5C 47.5,19.5 47.5,9.5 47.5,-0.5 Z"/></g>
<g><path style="opacity:1" fill="#b0afaf" d="M 68.5,-0.5 C 68.8333,-0.5 69.1667,-0.5 69.5,-0.5C 69.5,9.5 69.5,19.5 69.5,29.5C 88.1667,29.5 106.833,29.5 125.5,29.5C 125.5,19.5 125.5,9.5 125.5,-0.5C 125.833,-0.5 126.167,-0.5 126.5,-0.5C 126.5,9.5 126.5,19.5 126.5,29.5C 144.833,29.5 163.167,29.5 181.5,29.5C 181.5,19.5 181.5,9.5 181.5,-0.5C 181.833,-0.5 182.167,-0.5 182.5,-0.5C 182.5,9.5 182.5,19.5 182.5,29.5C 201.167,29.5 219.833,29.5 238.5,29.5C 238.5,19.5 238.5,9.5 238.5,-0.5C 238.833,-0.5 239.167,-0.5 239.5,-0.5C 239.5,9.5 239.5,19.5 239.5,29.5C 257.833,29.5 276.167,29.5 294.5,29.5C 294.5,19.5 294.5,9.5 294.5,-0.5C 294.833,-0.5 295.167,-0.5 295.5,-0.5C 295.5,9.5 295.5,19.5 295.5,29.5C 313.833,29.5 332.167,29.5 350.5,29.5C 350.5,19.5 350.5,9.5 350.5,-0.5C 350.833,-0.5 351.167,-0.5 351.5,-0.5C 351.5,9.5 351.5,19.5 351.5,29.5C 370.167,29.5 388.833,29.5 407.5,29.5C 407.5,19.5 407.5,9.5 407.5,-0.5C 407.833,-0.5 408.167,-0.5 408.5,-0.5C 408.5,9.5 408.5,19.5 408.5,29.5C 426.833,29.5 445.167,29.5 463.5,29.5C 463.5,19.5 463.5,9.5 463.5,-0.5C 463.833,-0.5 464.167,-0.5 464.5,-0.5C 464.5,9.5 464.5,19.5 464.5,29.5C 481.577,29.8184 498.577,29.4851 515.5,28.5C 515.5,29.5 515.5,30.5 515.5,31.5C 498.577,30.5149 481.577,30.1816 464.5,30.5C 464.5,40.5 464.5,50.5 464.5,60.5C 472.833,60.5 481.167,60.5 489.5,60.5C 489.5,60.8333 489.5,61.1667 489.5,61.5C 481.167,61.5 472.833,61.5 464.5,61.5C 464.5,70.8333 464.5,80.1667 464.5,89.5C 464.167,89.5 463.833,89.5 463.5,89.5C 463.5,80.1667 463.5,70.8333 463.5,61.5C 445.167,61.5 426.833,61.5 408.5,61.5C 408.5,71.5 408.5,81.5 408.5,91.5C 426.167,91.5 443.833,91.5 461.5,91.5C 461.5,91.8333 461.5,92.1667 461.5,92.5C 443.833,92.5 426.167,92.5 408.5,92.5C 408.5,102.167 408.5,111.833 408.5,121.5C 416.833,121.5 425.167,121.5 433.5,121.5C 433.5,121.833 433.5,122.167 433.5,122.5C 425.167,122.5 416.833,122.5 408.5,122.5C 408.197,131.251 408.53,139.918 409.5,148.5C 408.5,148.5 407.5,148.5 406.5,148.5C 407.47,139.918 407.803,131.251 407.5,122.5C 388.833,122.5 370.167,122.5 351.5,122.5C 351.5,132.5 351.5,142.5 351.5,152.5C 368.91,152.819 386.244,152.485 403.5,151.5C 403.5,152.5 403.5,153.5 403.5,154.5C 386.244,153.515 368.91,153.181 351.5,153.5C 351.5,163.5 351.5,173.5 351.5,183.5C 370.167,183.5 388.833,183.5 407.5,183.5C 407.803,174.749 407.47,166.082 406.5,157.5C 407.5,157.5 408.5,157.5 409.5,157.5C 408.53,166.082 408.197,174.749 408.5,183.5C 426.833,183.5 445.167,183.5 463.5,183.5C 463.5,173.5 463.5,163.5 463.5,153.5C 446.423,153.182 429.423,153.515 412.5,154.5C 412.5,153.5 412.5,152.5 412.5,151.5C 429.423,152.485 446.423,152.818 463.5,152.5C 463.5,142.5 463.5,132.5 463.5,122.5C 455.167,122.5 446.833,122.5 438.5,122.5C 438.5,122.167 438.5,121.833 438.5,121.5C 446.833,121.5 455.167,121.5 463.5,121.5C 463.5,112.5 463.5,103.5 463.5,94.5C 463.833,94.5 464.167,94.5 464.5,94.5C 464.5,103.5 464.5,112.5 464.5,121.5C 482.833,121.5 501.167,121.5 519.5,121.5C 519.5,111.833 519.5,102.167 519.5,92.5C 501.833,92.5 484.167,92.5 466.5,92.5C 466.5,92.1667 466.5,91.8333 466.5,91.5C 484.167,91.5 501.833,91.5 519.5,91.5C 519.5,81.5 519.5,71.5 519.5,61.5C 511.167,61.5 502.833,61.5 494.5,61.5C 494.5,61.1667 494.5,60.8333 494.5,60.5C 502.833,60.5 511.167,60.5 519.5,60.5C 519.803,51.7489 519.47,43.0823 518.5,34.5C 519.5,34.5 520.5,34.5 521.5,34.5C 520.53,43.0823 520.197,51.7489 520.5,60.5C 527.5,60.5 534.5,60.5 541.5,60.5C 541.5,60.8333 541.5,61.1667 541.5,61.5C 534.5,61.5 527.5,61.5 520.5,61.5C 520.5,71.5 520.5,81.5 520.5,91.5C 527.5,91.5 534.5,91.5 541.5,91.5C 541.5,91.8333 541.5,92.1667 541.5,92.5C 534.5,92.5 527.5,92.5 520.5,92.5C 520.5,102.167 520.5,111.833 520.5,121.5C 527.5,121.5 534.5,121.5 541.5,121.5C 541.5,121.833 541.5,122.167 541.5,122.5C 534.5,122.5 527.5,122.5 520.5,122.5C 520.5,132.5 520.5,142.5 520.5,152.5C 527.5,152.5 534.5,152.5 541.5,152.5C 541.5,152.833 541.5,153.167 541.5,153.5C 534.5,153.5 527.5,153.5 520.5,153.5C 520.5,163.5 520.5,173.5 520.5,183.5C 527.5,183.5 534.5,183.5 541.5,183.5C 541.5,183.833 541.5,184.167 541.5,184.5C 534.5,184.5 527.5,184.5 520.5,184.5C 520.5,194.5 520.5,204.5 520.5,214.5C 527.5,214.5 534.5,214.5 541.5,214.5C 541.5,214.833 541.5,215.167 541.5,215.5C 534.5,215.5 527.5,215.5 520.5,215.5C 520.5,225.5 520.5,235.5 520.5,245.5C 527.5,245.5 534.5,245.5 541.5,245.5C 541.5,245.833 541.5,246.167 541.5,246.5C 534.5,246.5 527.5,246.5 520.5,246.5C 520.5,256.167 520.5,265.833 520.5,275.5C 527.5,275.5 534.5,275.5 541.5,275.5C 541.5,275.833 541.5,276.167 541.5,276.5C 534.5,276.5 527.5,276.5 520.5,276.5C 520.5,286.5 520.5,296.5 520.5,306.5C 527.5,306.5 534.5,306.5 541.5,306.5C 541.5,306.833 541.5,307.167 541.5,307.5C 534.5,307.5 527.5,307.5 520.5,307.5C 520.5,317.5 520.5,327.5 520.5,337.5C 527.5,337.5 534.5,337.5 541.5,337.5C 541.5,337.833 541.5,338.167 541.5,338.5C 534.5,338.5 527.5,338.5 520.5,338.5C 520.5,348.5 520.5,358.5 520.5,368.5C 520.167,368.5 519.833,368.5 519.5,368.5C 519.5,358.5 519.5,348.5 519.5,338.5C 501.167,338.5 482.833,338.5 464.5,338.5C 464.5,348.5 464.5,358.5 464.5,368.5C 464.167,368.5 463.833,368.5 463.5,368.5C 463.5,358.5 463.5,348.5 463.5,338.5C 445.167,338.5 426.833,338.5 408.5,338.5C 408.5,348.5 408.5,358.5 408.5,368.5C 408.167,368.5 407.833,368.5 407.5,368.5C 407.5,358.5 407.5,348.5 407.5,338.5C 388.833,338.5 370.167,338.5 351.5,338.5C 351.5,348.5 351.5,358.5 351.5,368.5C 351.167,368.5 350.833,368.5 350.5,368.5C 350.5,358.5 350.5,348.5 350.5,338.5C 332.167,338.5 313.833,338.5 295.5,338.5C 295.5,348.5 295.5,358.5 295.5,368.5C 295.167,368.5 294.833,368.5 294.5,368.5C 294.5,358.5 294.5,348.5 294.5,338.5C 276.167,338.5 257.833,338.5 239.5,338.5C 239.5,348.5 239.5,358.5 239.5,368.5C 239.167,368.5 238.833,368.5 238.5,368.5C 238.5,358.5 238.5,348.5 238.5,338.5C 219.833,338.5 201.167,338.5 182.5,338.5C 182.5,348.5 182.5,358.5 182.5,368.5C 182.167,368.5 181.833,368.5 181.5,368.5C 181.5,358.5 181.5,348.5 181.5,338.5C 163.167,338.5 144.833,338.5 126.5,338.5C 126.5,348.5 126.5,358.5 126.5,368.5C 126.167,368.5 125.833,368.5 125.5,368.5C 125.5,358.5 125.5,348.5 125.5,338.5C 108.09,338.181 90.7564,338.515 73.5,339.5C 73.5,338.5 73.5,337.5 73.5,336.5C 90.7564,337.485 108.09,337.819 125.5,337.5C 125.5,333.5 125.5,329.5 125.5,325.5C 125.833,325.5 126.167,325.5 126.5,325.5C 126.5,329.5 126.5,333.5 126.5,337.5C 144.833,337.5 163.167,337.5 181.5,337.5C 181.803,328.749 181.47,320.082 180.5,311.5C 181.5,311.5 182.5,311.5 183.5,311.5C 182.53,320.082 182.197,328.749 182.5,337.5C 201.167,337.5 219.833,337.5 238.5,337.5C 238.5,327.5 238.5,317.5 238.5,307.5C 221.09,307.181 203.756,307.515 186.5,308.5C 186.5,307.5 186.5,306.5 186.5,305.5C 203.756,306.485 221.09,306.819 238.5,306.5C 238.5,297.167 238.5,287.833 238.5,278.5C 238.833,278.5 239.167,278.5 239.5,278.5C 239.5,287.833 239.5,297.167 239.5,306.5C 257.833,306.5 276.167,306.5 294.5,306.5C 294.5,296.5 294.5,286.5 294.5,276.5C 276.833,276.5 259.167,276.5 241.5,276.5C 241.5,276.167 241.5,275.833 241.5,275.5C 259.167,275.5 276.833,275.5 294.5,275.5C 294.802,267.082 294.469,258.748 293.5,250.5C 294.5,250.5 295.5,250.5 296.5,250.5C 295.531,258.748 295.198,267.082 295.5,275.5C 313.833,275.5 332.167,275.5 350.5,275.5C 350.5,265.833 350.5,256.167 350.5,246.5C 333.423,246.182 316.423,246.515 299.5,247.5C 299.5,246.5 299.5,245.5 299.5,244.5C 316.423,245.485 333.423,245.818 350.5,245.5C 350.5,235.5 350.5,225.5 350.5,215.5C 332.167,215.5 313.833,215.5 295.5,215.5C 295.197,224.251 295.53,232.918 296.5,241.5C 295.5,241.5 294.5,241.5 293.5,241.5C 294.47,232.918 294.803,224.251 294.5,215.5C 276.167,215.5 257.833,215.5 239.5,215.5C 239.5,225.5 239.5,235.5 239.5,245.5C 256.577,245.818 273.577,245.485 290.5,244.5C 290.5,245.5 290.5,246.5 290.5,247.5C 273.577,246.515 256.577,246.182 239.5,246.5C 239.5,255.5 239.5,264.5 239.5,273.5C 239.167,273.5 238.833,273.5 238.5,273.5C 238.5,264.5 238.5,255.5 238.5,246.5C 219.833,246.5 201.167,246.5 182.5,246.5C 182.5,256.167 182.5,265.833 182.5,275.5C 200.5,275.5 218.5,275.5 236.5,275.5C 236.5,275.833 236.5,276.167 236.5,276.5C 218.5,276.5 200.5,276.5 182.5,276.5C 182.197,285.251 182.53,293.918 183.5,302.5C 182.5,302.5 181.5,302.5 180.5,302.5C 181.47,293.918 181.803,285.251 181.5,276.5C 163.167,276.5 144.833,276.5 126.5,276.5C 126.5,286.5 126.5,296.5 126.5,306.5C 143.577,306.818 160.577,306.485 177.5,305.5C 177.5,306.5 177.5,307.5 177.5,308.5C 160.577,307.515 143.577,307.182 126.5,307.5C 126.5,311.833 126.5,316.167 126.5,320.5C 126.167,320.5 125.833,320.5 125.5,320.5C 125.5,316.167 125.5,311.833 125.5,307.5C 106.833,307.5 88.1667,307.5 69.5,307.5C 69.1968,316.251 69.5301,324.918 70.5,333.5C 69.5,333.5 68.5,333.5 67.5,333.5C 68.4699,324.918 68.8032,316.251 68.5,307.5C 61.5,307.5 54.5,307.5 47.5,307.5C 47.5,307.167 47.5,306.833 47.5,306.5C 54.5,306.5 61.5,306.5 68.5,306.5C 68.5,296.5 68.5,286.5 68.5,276.5C 61.5,276.5 54.5,276.5 47.5,276.5C 47.5,276.167 47.5,275.833 47.5,275.5C 54.5,275.5 61.5,275.5 68.5,275.5C 68.5,265.833 68.5,256.167 68.5,246.5C 61.5,246.5 54.5,246.5 47.5,246.5C 47.5,246.167 47.5,245.833 47.5,245.5C 54.5,245.5 61.5,245.5 68.5,245.5C 68.5,235.5 68.5,225.5 68.5,215.5C 61.5,215.5 54.5,215.5 47.5,215.5C 47.5,215.167 47.5,214.833 47.5,214.5C 54.5,214.5 61.5,214.5 68.5,214.5C 68.5,204.5 68.5,194.5 68.5,184.5C 61.5,184.5 54.5,184.5 47.5,184.5C 47.5,184.167 47.5,183.833 47.5,183.5C 54.5,183.5 61.5,183.5 68.5,183.5C 68.5,173.5 68.5,163.5 68.5,153.5C 61.5,153.5 54.5,153.5 47.5,153.5C 47.5,153.167 47.5,152.833 47.5,152.5C 54.5,152.5 61.5,152.5 68.5,152.5C 68.5,142.5 68.5,132.5 68.5,122.5C 61.5,122.5 54.5,122.5 47.5,122.5C 47.5,122.167 47.5,121.833 47.5,121.5C 54.5,121.5 61.5,121.5 68.5,121.5C 68.5,111.833 68.5,102.167 68.5,92.5C 61.5,92.5 54.5,92.5 47.5,92.5C 47.5,92.1667 47.5,91.8333 47.5,91.5C 54.5,91.5 61.5,91.5 68.5,91.5C 68.5,81.5 68.5,71.5 68.5,61.5C 61.5,61.5 54.5,61.5 47.5,61.5C 47.5,61.1667 47.5,60.8333 47.5,60.5C 54.5,60.5 61.5,60.5 68.5,60.5C 68.5,50.5 68.5,40.5 68.5,30.5C 61.5,30.5 54.5,30.5 47.5,30.5C 47.5,30.1667 47.5,29.8333 47.5,29.5C 54.5,29.5 61.5,29.5 68.5,29.5C 68.5,19.5 68.5,9.5 68.5,-0.5 Z"/></g>
<g><path style="opacity:1" fill="#fefefe" d="M 69.5,-0.5 C 88.1667,-0.5 106.833,-0.5 125.5,-0.5C 125.5,9.5 125.5,19.5 125.5,29.5C 106.833,29.5 88.1667,29.5 69.5,29.5C 69.5,19.5 69.5,9.5 69.5,-0.5 Z"/></g>
<g><path style="opacity:1" fill="#fefefe" d="M 126.5,-0.5 C 144.833,-0.5 163.167,-0.5 181.5,-0.5C 181.5,9.5 181.5,19.5 181.5,29.5C 163.167,29.5 144.833,29.5 126.5,29.5C 126.5,19.5 126.5,9.5 126.5,-0.5 Z"/></g>
<g><path style="opacity:1" fill="#fefefe" d="M 182.5,-0.5 C 201.167,-0.5 219.833,-0.5 238.5,-0.5C 238.5,9.5 238.5,19.5 238.5,29.5C 219.833,29.5 201.167,29.5 182.5,29.5C 182.5,19.5 182.5,9.5 182.5,-0.5 Z"/></g>
<g><path style="opacity:1" fill="#fefefe" d="M 239.5,-0.5 C 257.833,-0.5 276.167,-0.5 294.5,-0.5C 294.5,9.5 294.5,19.5 294.5,29.5C 276.167,29.5 257.833,29.5 239.5,29.5C 239.5,19.5 239.5,9.5 239.5,-0.5 Z"/></g>
<g><path style="opacity:1" fill="#fefefe" d="M 295.5,-0.5 C 313.833,-0.5 332.167,-0.5 350.5,-0.5C 350.5,9.5 350.5,19.5 350.5,29.5C 332.167,29.5 313.833,29.5 295.5,29.5C 295.5,19.5 295.5,9.5 295.5,-0.5 Z"/></g>
<g><path style="opacity:1" fill="#fefefe" d="M 351.5,-0.5 C 370.167,-0.5 388.833,-0.5 407.5,-0.5C 407.5,9.5 407.5,19.5 407.5,29.5C 388.833,29.5 370.167,29.5 351.5,29.5C 351.5,19.5 351.5,9.5 351.5,-0.5 Z"/></g>
<g><path style="opacity:1" fill="#fefefe" d="M 408.5,-0.5 C 426.833,-0.5 445.167,-0.5 463.5,-0.5C 463.5,9.5 463.5,19.5 463.5,29.5C 445.167,29.5 426.833,29.5 408.5,29.5C 408.5,19.5 408.5,9.5 408.5,-0.5 Z"/></g>
<g><path style="opacity:1" fill="#fefefe" d="M 464.5,-0.5 C 482.833,-0.5 501.167,-0.5 519.5,-0.5C 519.803,8.25108 519.47,16.9177 518.5,25.5C 517.167,26.1667 516.167,27.1667 515.5,28.5C 498.577,29.4851 481.577,29.8184 464.5,29.5C 464.5,19.5 464.5,9.5 464.5,-0.5 Z"/></g>
<g><path style="opacity:1" fill="#b5adad" d="M 519.5,-0.5 C 519.833,-0.5 520.167,-0.5 520.5,-0.5C 520.197,8.25108 520.53,16.9177 521.5,25.5C 520.5,25.5 519.5,25.5 518.5,25.5C 519.47,16.9177 519.803,8.25108 519.5,-0.5 Z"/></g>
<g><path style="opacity:1" fill="#fefdfd" d="M 520.5,-0.5 C 527.5,-0.5 534.5,-0.5 541.5,-0.5C 541.5,9.5 541.5,19.5 541.5,29.5C 535.741,29.7857 530.075,29.4524 524.5,28.5C 523.833,27.1667 522.833,26.1667 521.5,25.5C 520.53,16.9177 520.197,8.25108 520.5,-0.5 Z"/></g>
<g><path style="opacity:1" fill="#0a0a0a" d="M 22.5,26.5 C 22.56,25.9569 22.8933,25.6236 23.5,25.5C 24.4841,28.4281 24.8174,31.4281 24.5,34.5C 27.2627,35.4551 26.2627,35.6218 21.5,35C 22.6841,33.8197 23.3507,32.3197 23.5,30.5C 23.4892,28.9549 23.1558,27.6216 22.5,26.5 Z"/></g>
<g><path style="opacity:1" fill="#ff0403" d="M 518.5,25.5 C 519.5,25.5 520.5,25.5 521.5,25.5C 522.833,26.1667 523.833,27.1667 524.5,28.5C 524.5,29.5 524.5,30.5 524.5,31.5C 523.833,32.8333 522.833,33.8333 521.5,34.5C 520.5,34.5 519.5,34.5 518.5,34.5C 517.167,33.8333 516.167,32.8333 515.5,31.5C 515.5,30.5 515.5,29.5 515.5,28.5C 516.167,27.1667 517.167,26.1667 518.5,25.5 Z"/></g>
<g><path style="opacity:1" fill="#c5c5c5" d="M 29.5,33.5 C 28.1667,31.5 28.1667,29.5 29.5,27.5C 32.3872,26.0318 33.7205,27.0318 33.5,30.5C 33.7205,33.9682 32.3872,34.9682 29.5,33.5 Z"/></g>
<g><path style="opacity:1" fill="#434343" d="M 29.5,33.5 C 32.3872,34.9682 33.7205,33.9682 33.5,30.5C 33.7205,27.0318 32.3872,26.0318 29.5,27.5C 32.5824,24.6236 34.5824,25.4569 35.5,30C 35.4786,32.9044 34.1452,34.7378 31.5,35.5C 30.2867,35.2528 29.62,34.5862 29.5,33.5 Z"/></g>
<g><path style="opacity:1" fill="#b8acac" d="M 524.5,28.5 C 530.075,29.4524 535.741,29.7857 541.5,29.5C 541.5,29.8333 541.5,30.1667 541.5,30.5C 535.741,30.2143 530.075,30.5476 524.5,31.5C 524.5,30.5 524.5,29.5 524.5,28.5 Z"/></g>
<g><path style="opacity:1" fill="#fdfdfd" d="M 47.5,30.5 C 54.5,30.5 61.5,30.5 68.5,30.5C 68.5,40.5 68.5,50.5 68.5,60.5C 61.5,60.5 54.5,60.5 47.5,60.5C 47.5,50.5 47.5,40.5 47.5,30.5 Z"/></g>
<g><path style="opacity:1" fill="#fefefe" d="M 69.5,30.5 C 88.1667,30.5 106.833,30.5 125.5,30.5C 125.5,40.5 125.5,50.5 125.5,60.5C 106.833,60.5 88.1667,60.5 69.5,60.5C 69.5,50.5 69.5,40.5 69.5,30.5 Z"/></g>
<g><path style="opacity:1" fill="#fefefe" d="M 126.5,30.5 C 144.833,30.5 163.167,30.5 181.5,30.5C 181.5,40.5 181.5,50.5 181.5,60.5C 163.167,60.5 144.833,60.5 126.5,60.5C 126.5,50.5 126.5,40.5 126.5,30.5 Z"/></g>
<g><path style="opacity:1" fill="#fefefe" d="M 182.5,30.5 C 201.167,30.5 219.833,30.5 238.5,30.5C 238.5,40.5 238.5,50.5 238.5,60.5C 219.833,60.5 201.167,60.5 182.5,60.5C 182.5,50.5 182.5,40.5 182.5,30.5 Z"/></g>
<g><path style="opacity:1" fill="#fefefe" d="M 239.5,30.5 C 257.833,30.5 276.167,30.5 294.5,30.5C 294.5,40.5 294.5,50.5 294.5,60.5C 276.167,60.5 257.833,60.5 239.5,60.5C 239.5,50.5 239.5,40.5 239.5,30.5 Z"/></g>
<g><path style="opacity:1" fill="#fefefe" d="M 295.5,30.5 C 313.833,30.5 332.167,30.5 350.5,30.5C 350.5,40.5 350.5,50.5 350.5,60.5C 332.167,60.5 313.833,60.5 295.5,60.5C 295.5,50.5 295.5,40.5 295.5,30.5 Z"/></g>
<g><path style="opacity:1" fill="#fefefe" d="M 351.5,30.5 C 370.167,30.5 388.833,30.5 407.5,30.5C 407.5,40.5 407.5,50.5 407.5,60.5C 388.833,60.5 370.167,60.5 351.5,60.5C 351.5,50.5 351.5,40.5 351.5,30.5 Z"/></g>
<g><path style="opacity:1" fill="#fefefe" d="M 408.5,30.5 C 426.833,30.5 445.167,30.5 463.5,30.5C 463.5,40.5 463.5,50.5 463.5,60.5C 445.167,60.5 426.833,60.5 408.5,60.5C 408.5,50.5 408.5,40.5 408.5,30.5 Z"/></g>
<g><path style="opacity:1" fill="#fefefe" d="M 515.5,31.5 C 516.167,32.8333 517.167,33.8333 518.5,34.5C 519.47,43.0823 519.803,51.7489 519.5,60.5C 511.167,60.5 502.833,60.5 494.5,60.5C 492.833,57.8333 491.167,57.8333 489.5,60.5C 481.167,60.5 472.833,60.5 464.5,60.5C 464.5,50.5 464.5,40.5 464.5,30.5C 481.577,30.1816 498.577,30.5149 515.5,31.5 Z"/></g>
<g><path style="opacity:1" fill="#fefefe" d="M 541.5,30.5 C 541.5,40.5 541.5,50.5 541.5,60.5C 534.5,60.5 527.5,60.5 520.5,60.5C 520.197,51.7489 520.53,43.0823 521.5,34.5C 522.833,33.8333 523.833,32.8333 524.5,31.5C 530.075,30.5476 535.741,30.2143 541.5,30.5 Z"/></g>
<g><path style="opacity:1" fill="#1f77b4" d="M 494.5,60.5 C 494.5,60.8333 494.5,61.1667 494.5,61.5C 492.833,64.1667 491.167,64.1667 489.5,61.5C 489.5,61.1667 489.5,60.8333 489.5,60.5C 491.167,57.8333 492.833,57.8333 494.5,60.5 Z"/></g>
<g><path style="opacity:1" fill="#323232" d="M 34.5,57.5 C 37.1445,60.2171 37.1445,63.0505 34.5,66C 33.1667,66.6667 31.8333,66.6667 30.5,66C 35.9868,64.1298 35.8201,62.6298 30,61.5C 29.0062,56.9845 30.5062,55.6512 34.5,57.5 Z"/></g>
<g><path style="opacity:1" fill="#e1e1e1" d="M 34.5,57.5 C 34.5,58.8333 34.5,60.1667 34.5,61.5C 32.6536,61.7778 31.3202,61.1112 30.5,59.5C 31.3202,57.8888 32.6536,57.2222 34.5,57.5 Z"/></g>
<g><path style="opacity:1" fill="#fdfdfd" d="M 47.5,61.5 C 54.5,61.5 61.5,61.5 68.5,61.5C 68.5,71.5 68.5,81.5 68.5,91.5C 61.5,91.5 54.5,91.5 47.5,91.5C 47.5,81.5 47.5,71.5 47.5,61.5 Z"/></g>
<g><path style="opacity:1" fill="#fefefe" d="M 69.5,61.5 C 88.1667,61.5 106.833,61.5 125.5,61.5C 125.5,71.5 125.5,81.5 125.5,91.5C 106.833,91.5 88.1667,91.5 69.5,91.5C 69.5,81.5 69.5,71.5 69.5,61.5 Z"/></g>
<g><path style="opacity:1" fill="#fefefe" d="M 126.5,61.5 C 144.833,61.5 163.167,61.5 181.5,61.5C 181.5,71.5 181.5,81.5 181.5,91.5C 163.167,91.5 144.833,91.5 126.5,91.5C 126.5,81.5 126.5,71.5 126.5,61.5 Z"/></g>
<g><path style="opacity:1" fill="#fefefe" d="M 182.5,61.5 C 201.167,61.5 219.833,61.5 238.5,61.5C 238.5,71.5 238.5,81.5 238.5,91.5C 219.833,91.5 201.167,91.5 182.5,91.5C 182.5,81.5 182.5,71.5 182.5,61.5 Z"/></g>
<g><path style="opacity:1" fill="#fefefe" d="M 239.5,61.5 C 257.833,61.5 276.167,61.5 294.5,61.5C 294.5,71.5 294.5,81.5 294.5,91.5C 276.167,91.5 257.833,91.5 239.5,91.5C 239.5,81.5 239.5,71.5 239.5,61.5 Z"/></g>
<g><path style="opacity:1" fill="#fefefe" d="M 295.5,61.5 C 313.833,61.5 332.167,61.5 350.5,61.5C 350.5,71.5 350.5,81.5 350.5,91.5C 332.167,91.5 313.833,91.5 295.5,91.5C 295.5,81.5 295.5,71.5 295.5,61.5 Z"/></g>
<g><path style="opacity:1" fill="#fefefe" d="M 351.5,61.5 C 370.167,61.5 388.833,61.5 407.5,61.5C 407.5,71.5 407.5,81.5 407.5,91.5C 388.833,91.5 370.167,91.5 351.5,91.5C 351.5,81.5 351.5,71.5 351.5,61.5 Z"/></g>
<g><path style="opacity:1" fill="#fefefe" d="M 463.5,89.5 C 462.5,89.8333 461.833,90.5 461.5,91.5C 443.833,91.5 426.167,91.5 408.5,91.5C 408.5,81.5 408.5,71.5 408.5,61.5C 426.833,61.5 445.167,61.5 463.5,61.5C 463.5,70.8333 463.5,80.1667 463.5,89.5 Z"/></g>
<g><path style="opacity:1" fill="#fefefe" d="M 489.5,61.5 C 491.167,64.1667 492.833,64.1667 494.5,61.5C 502.833,61.5 511.167,61.5 519.5,61.5C 519.5,71.5 519.5,81.5 519.5,91.5C 501.833,91.5 484.167,91.5 466.5,91.5C 466.167,90.5 465.5,89.8333 464.5,89.5C 464.5,80.1667 464.5,70.8333 464.5,61.5C 472.833,61.5 481.167,61.5 489.5,61.5 Z"/></g>
<g><path style="opacity:1" fill="#fefefe" d="M 541.5,61.5 C 541.5,71.5 541.5,81.5 541.5,91.5C 534.5,91.5 527.5,91.5 520.5,91.5C 520.5,81.5 520.5,71.5 520.5,61.5C 527.5,61.5 534.5,61.5 541.5,61.5 Z"/></g>
<g><path style="opacity:1" fill="#4b4b4b" d="M 29.5,93.5 C 27.4347,88.3964 29.1013,86.563 34.5,88C 34.4595,90.7322 34.6262,93.5656 35,96.5C 33.2739,97.5762 31.4406,97.7429 29.5,97C 28.2089,95.7083 28.2089,94.5417 29.5,93.5 Z"/></g>
<g><path style="opacity:1" fill="#e7e7e7" d="M 30.5,88.5 C 31.5,88.5 32.5,88.5 33.5,88.5C 33.5,89.5 33.5,90.5 33.5,91.5C 32.5,91.5 31.5,91.5 30.5,91.5C 30.5,90.5 30.5,89.5 30.5,88.5 Z"/></g>
<g><path style="opacity:1" fill="#1f77b4" d="M 463.5,89.5 C 463.833,89.5 464.167,89.5 464.5,89.5C 465.5,89.8333 466.167,90.5 466.5,91.5C 466.5,91.8333 466.5,92.1667 466.5,92.5C 466.167,93.5 465.5,94.1667 464.5,94.5C 464.167,94.5 463.833,94.5 463.5,94.5C 462.5,94.1667 461.833,93.5 461.5,92.5C 461.5,92.1667 461.5,91.8333 461.5,91.5C 461.833,90.5 462.5,89.8333 463.5,89.5 Z"/></g>
<g><path style="opacity:1" fill="#fdfdfd" d="M 47.5,92.5 C 54.5,92.5 61.5,92.5 68.5,92.5C 68.5,102.167 68.5,111.833 68.5,121.5C 61.5,121.5 54.5,121.5 47.5,121.5C 47.5,111.833 47.5,102.167 47.5,92.5 Z"/></g>
<g><path style="opacity:1" fill="#fefefe" d="M 69.5,92.5 C 88.1667,92.5 106.833,92.5 125.5,92.5C 125.5,102.167 125.5,111.833 125.5,121.5C 106.833,121.5 88.1667,121.5 69.5,121.5C 69.5,111.833 69.5,102.167 69.5,92.5 Z"/></g>
<g><path style="opacity:1" fill="#fefefe" d="M 126.5,92.5 C 144.833,92.5 163.167,92.5 181.5,92.5C 181.5,102.167 181.5,111.833 181.5,121.5C 163.167,121.5 144.833,121.5 126.5,121.5C 126.5,111.833 126.5,102.167 126.5,92.5 Z"/></g>
<g><path style="opacity:1" fill="#fefefe" d="M 182.5,92.5 C 201.167,92.5 219.833,92.5 238.5,92.5C 238.5,102.167 238.5,111.833 238.5,121.5C 219.833,121.5 201.167,121.5 182.5,121.5C 182.5,111.833 182.5,102.167 182.5,92.5 Z"/></g>
<g><path style="opacity:1" fill="#fefefe" d="M 239.5,92.5 C 257.833,92.5 276.167,92.5 294.5,92.5C 294.5,102.167 294.5,111.833 294.5,121.5C 276.167,121.5 257.833,121.5 239.5,121.5C 239.5,111.833 239.5,102.167 239.5,92.5 Z"/></g>
<g><path style="opacity:1" fill="#fefefe" d="M 295.5,92.5 C 313.833,92.5 332.167,92.5 350.5,92.5C 350.5,102.167 350.5,111.833 350.5,121.5C 332.167,121.5 313.833,121.5 295.5,121.5C 295.5,111.833 295.5,102.167 295.5,92.5 Z"/></g>
<g><path style="opacity:1" fill="#fefefe" d="M 351.5,92.5 C 370.167,92.5 388.833,92.5 407.5,92.5C 407.5,102.167 407.5,111.833 407.5,121.5C 388.833,121.5 370.167,121.5 351.5,121.5C 351.5,111.833 351.5,102.167 351.5,92.5 Z"/></g>
<g><path style="opacity:1" fill="#fefefe" d="M 461.5,92.5 C 461.833,93.5 462.5,94.1667 463.5,94.5C 463.5,103.5 463.5,112.5 463.5,121.5C 455.167,121.5 446.833,121.5 438.5,121.5C 436.833,118.833 435.167,118.833 433.5,121.5C 425.167,121.5 416.833,121.5 408.5,121.5C 408.5,111.833 408.5,102.167 408.5,92.5C 426.167,92.5 443.833,92.5 461.5,92.5 Z"/></g>
<g><path style="opacity:1" fill="#fefefe" d="M 466.5,92.5 C 484.167,92.5 501.833,92.5 519.5,92.5C 519.5,102.167 519.5,111.833 519.5,121.5C 501.167,121.5 482.833,121.5 464.5,121.5C 464.5,112.5 464.5,103.5 464.5,94.5C 465.5,94.1667 466.167,93.5 466.5,92.5 Z"/></g>
<g><path style="opacity:1" fill="#fefefe" d="M 541.5,92.5 C 541.5,102.167 541.5,111.833 541.5,121.5C 534.5,121.5 527.5,121.5 520.5,121.5C 520.5,111.833 520.5,102.167 520.5,92.5C 527.5,92.5 534.5,92.5 541.5,92.5 Z"/></g>
<g><path style="opacity:1" fill="#dbdbdb" d="M 29.5,93.5 C 30.7079,92.7659 32.0413,92.4326 33.5,92.5C 33.5,93.8333 33.5,95.1667 33.5,96.5C 31.0274,96.9118 29.6941,95.9118 29.5,93.5 Z"/></g>
<g><path style="opacity:1" fill="#1f77b4" d="M 438.5,121.5 C 438.5,121.833 438.5,122.167 438.5,122.5C 436.833,125.167 435.167,125.167 433.5,122.5C 433.5,122.167 433.5,121.833 433.5,121.5C 435.167,118.833 436.833,118.833 438.5,121.5 Z"/></g>
<g><path style="opacity:1" fill="#222222" d="M 29.5,119.5 C 31.2646,118.539 33.2646,118.205 35.5,118.5C 35.1815,122.136 34.0148,125.469 32,128.5C 32.0632,125.513 32.8965,122.68 34.5,120C 32.8659,119.506 31.1992,119.34 29.5,119.5 Z"/></g>
<g><path style="opacity:1" fill="#fdfdfd" d="M 47.5,122.5 C 54.5,122.5 61.5,122.5 68.5,122.5C 68.5,132.5 68.5,142.5 68.5,152.5C 61.5,152.5 54.5,152.5 47.5,152.5C 47.5,142.5 47.5,132.5 47.5,122.5 Z"/></g>
<g><path style="opacity:1" fill="#fefefe" d="M 69.5,122.5 C 88.1667,122.5 106.833,122.5 125.5,122.5C 125.5,132.5 125.5,142.5 125.5,152.5C 106.833,152.5 88.1667,152.5 69.5,152.5C 69.5,142.5 69.5,132.5 69.5,122.5 Z"/></g>
<g><path style="opacity:1" fill="#fefefe" d="M 126.5,122.5 C 144.833,122.5 163.167,122.5 181.5,122.5C 181.5,132.5 181.5,142.5 181.5,152.5C 163.167,152.5 144.833,152.5 126.5,152.5C 126.5,142.5 126.5,132.5 126.5,122.5 Z"/></g>
<g><path style="opacity:1" fill="#fefefe" d="M 182.5,122.5 C 201.167,122.5 219.833,122.5 238.5,122.5C 238.5,132.5 238.5,142.5 238.5,152.5C 219.833,152.5 201.167,152.5 182.5,152.5C 182.5,142.5 182.5,132.5 182.5,122.5 Z"/></g>
<g><path style="opacity:1" fill="#fefefe" d="M 239.5,122.5 C 257.833,122.5 276.167,122.5 294.5,122.5C 294.5,132.5 294.5,142.5 294.5,152.5C 276.167,152.5 257.833,152.5 239.5,152.5C 239.5,142.5 239.5,132.5 239.5,122.5 Z"/></g>
<g><path style="opacity:1" fill="#fefefe" d="M 295.5,122.5 C 313.833,122.5 332.167,122.5 350.5,122.5C 350.5,132.5 350.5,142.5 350.5,152.5C 332.167,152.5 313.833,152.5 295.5,152.5C 295.5,142.5 295.5,132.5 295.5,122.5 Z"/></g>
<g><path style="opacity:1" fill="#fefefe" d="M 406.5,148.5 C 405.167,149.167 404.167,150.167 403.5,151.5C 386.244,152.485 368.91,152.819 351.5,152.5C 351.5,142.5 351.5,132.5 351.5,122.5C 370.167,122.5 388.833,122.5 407.5,122.5C 407.803,131.251 407.47,139.918 406.5,148.5 Z"/></g>
<g><path style="opacity:1" fill="#fefefe" d="M 433.5,122.5 C 435.167,125.167 436.833,125.167 438.5,122.5C 446.833,122.5 455.167,122.5 463.5,122.5C 463.5,132.5 463.5,142.5 463.5,152.5C 446.423,152.818 429.423,152.485 412.5,151.5C 411.833,150.167 410.833,149.167 409.5,148.5C 408.53,139.918 408.197,131.251 408.5,122.5C 416.833,122.5 425.167,122.5 433.5,122.5 Z"/></g>
<g><path style="opacity:1" fill="#fefefe" d="M 464.5,122.5 C 482.833,122.5 501.167,122.5 519.5,122.5C 519.5,132.5 519.5,142.5 519.5,152.5C 501.167,152.5 482.833,152.5 464.5,152.5C 464.5,142.5 464.5,132.5 464.5,122.5 Z"/></g>
<g><path style="opacity:1" fill="#fefefe" d="M 541.5,122.5 C 541.5,132.5 541.5,142.5 541.5,152.5C 534.5,152.5 527.5,152.5 520.5,152.5C 520.5,142.5 520.5,132.5 520.5,122.5C 527.5,122.5 534.5,122.5 541.5,122.5 Z"/></g>
<g><path style="opacity:1" fill="#ff0403" d="M 406.5,148.5 C 407.5,148.5 408.5,148.5 409.5,148.5C 410.833,149.167 411.833,150.167 412.5,151.5C 412.5,152.5 412.5,153.5 412.5,154.5C 411.833,155.833 410.833,156.833 409.5,157.5C 408.5,157.5 407.5,157.5 406.5,157.5C 405.167,156.833 404.167,155.833 403.5,154.5C 403.5,153.5 403.5,152.5 403.5,151.5C 404.167,150.167 405.167,149.167 406.5,148.5 Z"/></g>
<g><path style="opacity:1" fill="#3c3c3c" d="M 33.5,153.5 C 30.9162,154.048 29.9162,155.715 30.5,158.5C 27.8555,155.783 27.8555,152.95 30.5,150C 31.8333,149.333 33.1667,149.333 34.5,150C 29.9549,150.939 29.6216,152.106 33.5,153.5 Z"/></g>
<g><path style="opacity:1" fill="#fdfdfd" d="M 47.5,153.5 C 54.5,153.5 61.5,153.5 68.5,153.5C 68.5,163.5 68.5,173.5 68.5,183.5C 61.5,183.5 54.5,183.5 47.5,183.5C 47.5,173.5 47.5,163.5 47.5,153.5 Z"/></g>
<g><path style="opacity:1" fill="#fefefe" d="M 69.5,153.5 C 88.1667,153.5 106.833,153.5 125.5,153.5C 125.5,163.5 125.5,173.5 125.5,183.5C 106.833,183.5 88.1667,183.5 69.5,183.5C 69.5,173.5 69.5,163.5 69.5,153.5 Z"/></g>
<g><path style="opacity:1" fill="#fefefe" d="M 126.5,153.5 C 144.833,153.5 163.167,153.5 181.5,153.5C 181.5,163.5 181.5,173.5 181.5,183.5C 163.167,183.5 144.833,183.5 126.5,183.5C 126.5,173.5 126.5,163.5 126.5,153.5 Z"/></g>
<g><path style="opacity:1" fill="#fefefe" d="M 182.5,153.5 C 201.167,153.5 219.833,153.5 238.5,153.5C 238.5,163.5 238.5,173.5 238.5,183.5C 219.833,183.5 201.167,183.5 182.5,183.5C 182.5,173.5 182.5,163.5 182.5,153.5 Z"/></g>
<g><path style="opacity:1" fill="#fefefe" d="M 239.5,153.5 C 257.833,153.5 276.167,153.5 294.5,153.5C 294.5,163.5 294.5,173.5 294.5,183.5C 276.167,183.5 257.833,183.5 239.5,183.5C 239.5,173.5 239.5,163.5 239.5,153.5 Z"/></g>
<g><path style="opacity:1" fill="#fefefe" d="M 295.5,153.5 C 313.833,153.5 332.167,153.5 350.5,153.5C 350.5,163.5 350.5,173.5 350.5,183.5C 332.167,183.5 313.833,183.5 295.5,183.5C 295.5,173.5 295.5,163.5 295.5,153.5 Z"/></g>
<g><path style="opacity:1" fill="#fefefe" d="M 403.5,154.5 C 404.167,155.833 405.167,156.833 406.5,157.5C 407.47,166.082 407.803,174.749 407.5,183.5C 388.833,183.5 370.167,183.5 351.5,183.5C 351.5,173.5 351.5,163.5 351.5,153.5C 368.91,153.181 386.244,153.515 403.5,154.5 Z"/></g>
<g><path style="opacity:1" fill="#fefefe" d="M 409.5,157.5 C 410.833,156.833 411.833,155.833 412.5,154.5C 429.423,153.515 446.423,153.182 463.5,153.5C 463.5,163.5 463.5,173.5 463.5,183.5C 445.167,183.5 426.833,183.5 408.5,183.5C 408.197,174.749 408.53,166.082 409.5,157.5 Z"/></g>
<g><path style="opacity:1" fill="#fefefe" d="M 464.5,153.5 C 482.833,153.5 501.167,153.5 519.5,153.5C 519.5,163.5 519.5,173.5 519.5,183.5C 501.167,183.5 482.833,183.5 464.5,183.5C 464.5,173.5 464.5,163.5 464.5,153.5 Z"/></g>
<g><path style="opacity:1" fill="#fefefe" d="M 541.5,153.5 C 541.5,163.5 541.5,173.5 541.5,183.5C 534.5,183.5 527.5,183.5 520.5,183.5C 520.5,173.5 520.5,163.5 520.5,153.5C 527.5,153.5 534.5,153.5 541.5,153.5 Z"/></g>
<g><path style="opacity:1" fill="#e7e7e7" d="M 33.5,153.5 C 33.5,155.167 33.5,156.833 33.5,158.5C 32.5,158.5 31.5,158.5 30.5,158.5C 29.9162,155.715 30.9162,154.048 33.5,153.5 Z"/></g>
<g><path style="opacity:1" fill="#4f4f4f" d="M 33.5,153.5 C 35.3769,154.659 35.8769,156.326 35,158.5C 33.3845,159.801 31.8845,159.801 30.5,158.5C 31.5,158.5 32.5,158.5 33.5,158.5C 33.5,156.833 33.5,155.167 33.5,153.5 Z"/></g>
<g><path style="opacity:1" fill="#1f77b4" d="M 377.5,173.5 C 381.161,173.35 382.161,174.85 380.5,178C 376.707,178.487 375.707,176.987 377.5,173.5 Z"/></g>
<g><path style="opacity:1" fill="#202020" d="M 29.5,179.5 C 35.3239,179.347 35.6572,180.013 30.5,181.5C 34.3981,182.806 35.3981,185.306 33.5,189C 31.7412,189.798 30.0745,189.631 28.5,188.5C 29.5821,188.251 30.9154,188.085 32.5,188C 34.1612,184.85 33.1612,183.35 29.5,183.5C 29.5,182.167 29.5,180.833 29.5,179.5 Z"/></g>
<g><path style="opacity:1" fill="#383838" d="M 1.5,181.5 C 4.72481,183.021 8.05814,184.355 11.5,185.5C 12.5827,186.365 12.7494,187.365 12,188.5C 11.3261,187.422 10.3261,186.755 9,186.5C 6.53237,187.503 4.03237,188.003 1.5,188C 7.05514,186.431 7.38847,184.931 2.5,183.5C 1.70245,183.043 1.36912,182.376 1.5,181.5 Z"/></g>
<g><path style="opacity:1" fill="#fdfdfd" d="M 47.5,184.5 C 54.5,184.5 61.5,184.5 68.5,184.5C 68.5,194.5 68.5,204.5 68.5,214.5C 61.5,214.5 54.5,214.5 47.5,214.5C 47.5,204.5 47.5,194.5 47.5,184.5 Z"/></g>
<g><path style="opacity:1" fill="#fefefe" d="M 69.5,184.5 C 88.1667,184.5 106.833,184.5 125.5,184.5C 125.5,194.5 125.5,204.5 125.5,214.5C 106.833,214.5 88.1667,214.5 69.5,214.5C 69.5,204.5 69.5,194.5 69.5,184.5 Z"/></g>
<g><path style="opacity:1" fill="#fefefe" d="M 126.5,184.5 C 144.833,184.5 163.167,184.5 181.5,184.5C 181.5,194.5 181.5,204.5 181.5,214.5C 163.167,214.5 144.833,214.5 126.5,214.5C 126.5,204.5 126.5,194.5 126.5,184.5 Z"/></g>
<g><path style="opacity:1" fill="#fefefe" d="M 182.5,184.5 C 201.167,184.5 219.833,184.5 238.5,184.5C 238.5,194.5 238.5,204.5 238.5,214.5C 219.833,214.5 201.167,214.5 182.5,214.5C 182.5,204.5 182.5,194.5 182.5,184.5 Z"/></g>
<g><path style="opacity:1" fill="#fefefe" d="M 239.5,184.5 C 257.833,184.5 276.167,184.5 294.5,184.5C 294.5,194.5 294.5,204.5 294.5,214.5C 276.167,214.5 257.833,214.5 239.5,214.5C 239.5,204.5 239.5,194.5 239.5,184.5 Z"/></g>
<g><path style="opacity:1" fill="#fefefe" d="M 350.5,196.5 C 347.833,198.167 347.833,199.833 350.5,201.5C 350.5,205.833 350.5,210.167 350.5,214.5C 332.167,214.5 313.833,214.5 295.5,214.5C 295.5,204.5 295.5,194.5 295.5,184.5C 313.833,184.5 332.167,184.5 350.5,184.5C 350.5,188.5 350.5,192.5 350.5,196.5 Z"/></g>
<g><path style="opacity:1" fill="#fefefe" d="M 351.5,201.5 C 354.167,199.833 354.167,198.167 351.5,196.5C 351.5,192.5 351.5,188.5 351.5,184.5C 370.167,184.5 388.833,184.5 407.5,184.5C 407.5,194.5 407.5,204.5 407.5,214.5C 388.833,214.5 370.167,214.5 351.5,214.5C 351.5,210.167 351.5,205.833 351.5,201.5 Z"/></g>
<g><path style="opacity:1" fill="#fefefe" d="M 408.5,184.5 C 426.833,184.5 445.167,184.5 463.5,184.5C 463.5,194.5 463.5,204.5 463.5,214.5C 445.167,214.5 426.833,214.5 408.5,214.5C 408.5,204.5 408.5,194.5 408.5,184.5 Z"/></g>
<g><path style="opacity:1" fill="#fefefe" d="M 464.5,184.5 C 482.833,184.5 501.167,184.5 519.5,184.5C 519.5,194.5 519.5,204.5 519.5,214.5C 501.167,214.5 482.833,214.5 464.5,214.5C 464.5,204.5 464.5,194.5 464.5,184.5 Z"/></g>
<g><path style="opacity:1" fill="#fefefe" d="M 541.5,184.5 C 541.5,194.5 541.5,204.5 541.5,214.5C 534.5,214.5 527.5,214.5 520.5,214.5C 520.5,204.5 520.5,194.5 520.5,184.5C 527.5,184.5 534.5,184.5 541.5,184.5 Z"/></g>
<g><path style="opacity:1" fill="#1f77b4" d="M 350.5,196.5 C 350.833,196.5 351.167,196.5 351.5,196.5C 354.167,198.167 354.167,199.833 351.5,201.5C 351.167,201.5 350.833,201.5 350.5,201.5C 347.833,199.833 347.833,198.167 350.5,196.5 Z"/></g>
<g><path style="opacity:1" fill="#4e4e4e" d="M 32.5,212.5 C 32.573,214.027 31.9063,215.027 30.5,215.5C 30.427,213.973 31.0937,212.973 32.5,212.5 Z"/></g>
<g><path style="opacity:1" fill="#efefef" d="M 32.5,212.5 C 33.4345,213.568 33.7678,214.901 33.5,216.5C 32.209,216.737 31.209,216.404 30.5,215.5C 31.9063,215.027 32.573,214.027 32.5,212.5 Z"/></g>
<g><path style="opacity:1" fill="#fdfdfd" d="M 47.5,215.5 C 54.5,215.5 61.5,215.5 68.5,215.5C 68.5,225.5 68.5,235.5 68.5,245.5C 61.5,245.5 54.5,245.5 47.5,245.5C 47.5,235.5 47.5,225.5 47.5,215.5 Z"/></g>
<g><path style="opacity:1" fill="#fefefe" d="M 69.5,215.5 C 88.1667,215.5 106.833,215.5 125.5,215.5C 125.5,225.5 125.5,235.5 125.5,245.5C 106.833,245.5 88.1667,245.5 69.5,245.5C 69.5,235.5 69.5,225.5 69.5,215.5 Z"/></g>
<g><path style="opacity:1" fill="#fefefe" d="M 126.5,215.5 C 144.833,215.5 163.167,215.5 181.5,215.5C 181.5,225.5 181.5,235.5 181.5,245.5C 163.167,245.5 144.833,245.5 126.5,245.5C 126.5,235.5 126.5,225.5 126.5,215.5 Z"/></g>
<g><path style="opacity:1" fill="#fefefe" d="M 182.5,215.5 C 201.167,215.5 219.833,215.5 238.5,215.5C 238.5,225.5 238.5,235.5 238.5,245.5C 219.833,245.5 201.167,245.5 182.5,245.5C 182.5,235.5 182.5,225.5 182.5,215.5 Z"/></g>
<g><path style="opacity:1" fill="#fefefe" d="M 293.5,241.5 C 292.167,242.167 291.167,243.167 290.5,244.5C 273.577,245.485 256.577,245.818 239.5,245.5C 239.5,235.5 239.5,225.5 239.5,215.5C 257.833,215.5 276.167,215.5 294.5,215.5C 294.803,224.251 294.47,232.918 293.5,241.5 Z"/></g>
<g><path style="opacity:1" fill="#fefefe" d="M 299.5,244.5 C 298.833,243.167 297.833,242.167 296.5,241.5C 295.53,232.918 295.197,224.251 295.5,215.5C 313.833,215.5 332.167,215.5 350.5,215.5C 350.5,225.5 350.5,235.5 350.5,245.5C 333.423,245.818 316.423,245.485 299.5,244.5 Z"/></g>
<g><path style="opacity:1" fill="#fefefe" d="M 351.5,215.5 C 370.167,215.5 388.833,215.5 407.5,215.5C 407.5,225.5 407.5,235.5 407.5,245.5C 388.833,245.5 370.167,245.5 351.5,245.5C 351.5,235.5 351.5,225.5 351.5,215.5 Z"/></g>
<g><path style="opacity:1" fill="#fefefe" d="M 408.5,215.5 C 426.833,215.5 445.167,215.5 463.5,215.5C 463.5,225.5 463.5,235.5 463.5,245.5C 445.167,245.5 426.833,245.5 408.5,245.5C 408.5,235.5 408.5,225.5 408.5,215.5 Z"/></g>
<g><path style="opacity:1" fill="#fefefe" d="M 464.5,215.5 C 482.833,215.5 501.167,215.5 519.5,215.5C 519.5,225.5 519.5,235.5 519.5,245.5C 501.167,245.5 482.833,245.5 464.5,245.5C 464.5,235.5 464.5,225.5 464.5,215.5 Z"/></g>
<g><path style="opacity:1" fill="#fefefe" d="M 541.5,215.5 C 541.5,225.5 541.5,235.5 541.5,245.5C 534.5,245.5 527.5,245.5 520.5,245.5C 520.5,235.5 520.5,225.5 520.5,215.5C 527.5,215.5 534.5,215.5 541.5,215.5 Z"/></g>
<g><path style="opacity:1" fill="#2c2c2c" d="M 30.5,215.5 C 31.209,216.404 32.209,216.737 33.5,216.5C 33.7678,214.901 33.4345,213.568 32.5,212.5C 32.811,211.522 33.4777,210.855 34.5,210.5C 35.2208,212.686 35.8875,214.853 36.5,217C 35.9288,218.205 35.2621,219.372 34.5,220.5C 33.6143,219.675 33.281,218.675 33.5,217.5C 32.0222,217.762 30.6888,217.429 29.5,216.5C 29.6236,215.893 29.9569,215.56 30.5,215.5 Z"/></g>
<g><path style="opacity:1" fill="#1f77b4" d="M 321.5,219.5 C 325.161,219.35 326.161,220.85 324.5,224C 320.707,224.487 319.707,222.987 321.5,219.5 Z"/></g>
<g><path style="opacity:1" fill="#ff0403" d="M 293.5,241.5 C 294.5,241.5 295.5,241.5 296.5,241.5C 297.833,242.167 298.833,243.167 299.5,244.5C 299.5,245.5 299.5,246.5 299.5,247.5C 298.833,248.833 297.833,249.833 296.5,250.5C 295.5,250.5 294.5,250.5 293.5,250.5C 292.167,249.833 291.167,248.833 290.5,247.5C 290.5,246.5 290.5,245.5 290.5,244.5C 291.167,243.167 292.167,242.167 293.5,241.5 Z"/></g>
<g><path style="opacity:1" fill="#777777" d="M 33.5,245.5 C 32.3218,244.001 30.6551,243.001 28.5,242.5C 31.5075,240.9 33.8408,241.567 35.5,244.5C 35.0431,245.298 34.3764,245.631 33.5,245.5 Z"/></g>
<g><path style="opacity:1" fill="#fdfdfd" d="M 47.5,246.5 C 54.5,246.5 61.5,246.5 68.5,246.5C 68.5,256.167 68.5,265.833 68.5,275.5C 61.5,275.5 54.5,275.5 47.5,275.5C 47.5,265.833 47.5,256.167 47.5,246.5 Z"/></g>
<g><path style="opacity:1" fill="#fefefe" d="M 69.5,246.5 C 88.1667,246.5 106.833,246.5 125.5,246.5C 125.5,256.167 125.5,265.833 125.5,275.5C 106.833,275.5 88.1667,275.5 69.5,275.5C 69.5,265.833 69.5,256.167 69.5,246.5 Z"/></g>
<g><path style="opacity:1" fill="#fefefe" d="M 126.5,246.5 C 144.833,246.5 163.167,246.5 181.5,246.5C 181.5,256.167 181.5,265.833 181.5,275.5C 163.167,275.5 144.833,275.5 126.5,275.5C 126.5,265.833 126.5,256.167 126.5,246.5 Z"/></g>
<g><path style="opacity:1" fill="#fefefe" d="M 238.5,273.5 C 237.5,273.833 236.833,274.5 236.5,275.5C 218.5,275.5 200.5,275.5 182.5,275.5C 182.5,265.833 182.5,256.167 182.5,246.5C 201.167,246.5 219.833,246.5 238.5,246.5C 238.5,255.5 238.5,264.5 238.5,273.5 Z"/></g>
<g><path style="opacity:1" fill="#fdfefe" d="M 290.5,247.5 C 291.167,248.833 292.167,249.833 293.5,250.5C 294.469,258.748 294.802,267.082 294.5,275.5C 276.833,275.5 259.167,275.5 241.5,275.5C 241.167,274.5 240.5,273.833 239.5,273.5C 239.5,264.5 239.5,255.5 239.5,246.5C 256.577,246.182 273.577,246.515 290.5,247.5 Z"/></g>
<g><path style="opacity:1" fill="#fefefe" d="M 296.5,250.5 C 297.833,249.833 298.833,248.833 299.5,247.5C 316.423,246.515 333.423,246.182 350.5,246.5C 350.5,256.167 350.5,265.833 350.5,275.5C 332.167,275.5 313.833,275.5 295.5,275.5C 295.198,267.082 295.531,258.748 296.5,250.5 Z"/></g>
<g><path style="opacity:1" fill="#fefefe" d="M 351.5,246.5 C 370.167,246.5 388.833,246.5 407.5,246.5C 407.5,256.167 407.5,265.833 407.5,275.5C 388.833,275.5 370.167,275.5 351.5,275.5C 351.5,265.833 351.5,256.167 351.5,246.5 Z"/></g>
<g><path style="opacity:1" fill="#fefefe" d="M 408.5,246.5 C 426.833,246.5 445.167,246.5 463.5,246.5C 463.5,256.167 463.5,265.833 463.5,275.5C 445.167,275.5 426.833,275.5 408.5,275.5C 408.5,265.833 408.5,256.167 408.5,246.5 Z"/></g>
<g><path style="opacity:1" fill="#fefefe" d="M 464.5,246.5 C 482.833,246.5 501.167,246.5 519.5,246.5C 519.5,256.167 519.5,265.833 519.5,275.5C 501.167,275.5 482.833,275.5 464.5,275.5C 464.5,265.833 464.5,256.167 464.5,246.5 Z"/></g>
<g><path style="opacity:1" fill="#fefefe" d="M 541.5,246.5 C 541.5,256.167 541.5,265.833 541.5,275.5C 534.5,275.5 527.5,275.5 520.5,275.5C 520.5,265.833 520.5,256.167 520.5,246.5C 527.5,246.5 534.5,246.5 541.5,246.5 Z"/></g>
<g><path style="opacity:1" fill="#464646" d="M 33.5,245.5 C 36.3581,248.8 35.5248,250.8 31,251.5C 30.1667,251.167 29.3333,250.833 28.5,250.5C 29.5821,250.251 30.9154,250.085 32.5,250C 32.9574,249.586 33.2907,249.086 33.5,248.5C 29.6646,247.004 29.6646,246.004 33.5,245.5 Z"/></g>
<g><path style="opacity:1" fill="#1f77b4" d="M 265.5,258.5 C 269.161,258.35 270.161,259.85 268.5,263C 264.707,263.487 263.707,261.987 265.5,258.5 Z"/></g>
<g><path style="opacity:1" fill="#2a2a2a" d="M 28.5,272.5 C 35.7365,273.272 36.4032,276.106 30.5,281C 31.8333,281.333 33.1667,281.667 34.5,282C 32.4213,282.808 30.4213,282.641 28.5,281.5C 30.1667,279.5 31.8333,277.5 33.5,275.5C 32.3803,273.404 30.8803,273.07 29,274.5C 28.5357,273.906 28.369,273.239 28.5,272.5 Z"/></g>
<g><path style="opacity:1" fill="#1f77b4" d="M 238.5,273.5 C 238.833,273.5 239.167,273.5 239.5,273.5C 240.5,273.833 241.167,274.5 241.5,275.5C 241.5,275.833 241.5,276.167 241.5,276.5C 241.167,277.5 240.5,278.167 239.5,278.5C 239.167,278.5 238.833,278.5 238.5,278.5C 237.5,278.167 236.833,277.5 236.5,276.5C 236.5,276.167 236.5,275.833 236.5,275.5C 236.833,274.5 237.5,273.833 238.5,273.5 Z"/></g>
<g><path style="opacity:1" fill="#fdfdfd" d="M 47.5,276.5 C 54.5,276.5 61.5,276.5 68.5,276.5C 68.5,286.5 68.5,296.5 68.5,306.5C 61.5,306.5 54.5,306.5 47.5,306.5C 47.5,296.5 47.5,286.5 47.5,276.5 Z"/></g>
<g><path style="opacity:1" fill="#fefefe" d="M 69.5,276.5 C 88.1667,276.5 106.833,276.5 125.5,276.5C 125.5,286.5 125.5,296.5 125.5,306.5C 106.833,306.5 88.1667,306.5 69.5,306.5C 69.5,296.5 69.5,286.5 69.5,276.5 Z"/></g>
<g><path style="opacity:1" fill="#fefefe" d="M 180.5,302.5 C 179.167,303.167 178.167,304.167 177.5,305.5C 160.577,306.485 143.577,306.818 126.5,306.5C 126.5,296.5 126.5,286.5 126.5,276.5C 144.833,276.5 163.167,276.5 181.5,276.5C 181.803,285.251 181.47,293.918 180.5,302.5 Z"/></g>
<g><path style="opacity:1" fill="#fefefe" d="M 236.5,276.5 C 236.833,277.5 237.5,278.167 238.5,278.5C 238.5,287.833 238.5,297.167 238.5,306.5C 221.09,306.819 203.756,306.485 186.5,305.5C 185.833,304.167 184.833,303.167 183.5,302.5C 182.53,293.918 182.197,285.251 182.5,276.5C 200.5,276.5 218.5,276.5 236.5,276.5 Z"/></g>
<g><path style="opacity:1" fill="#fefefe" d="M 241.5,276.5 C 259.167,276.5 276.833,276.5 294.5,276.5C 294.5,286.5 294.5,296.5 294.5,306.5C 276.167,306.5 257.833,306.5 239.5,306.5C 239.5,297.167 239.5,287.833 239.5,278.5C 240.5,278.167 241.167,277.5 241.5,276.5 Z"/></g>
<g><path style="opacity:1" fill="#fefefe" d="M 295.5,276.5 C 313.833,276.5 332.167,276.5 350.5,276.5C 350.5,286.5 350.5,296.5 350.5,306.5C 332.167,306.5 313.833,306.5 295.5,306.5C 295.5,296.5 295.5,286.5 295.5,276.5 Z"/></g>
<g><path style="opacity:1" fill="#fefefe" d="M 351.5,276.5 C 370.167,276.5 388.833,276.5 407.5,276.5C 407.5,286.5 407.5,296.5 407.5,306.5C 388.833,306.5 370.167,306.5 351.5,306.5C 351.5,296.5 351.5,286.5 351.5,276.5 Z"/></g>
<g><path style="opacity:1" fill="#fefefe" d="M 408.5,276.5 C 426.833,276.5 445.167,276.5 463.5,276.5C 463.5,286.5 463.5,296.5 463.5,306.5C 445.167,306.5 426.833,306.5 408.5,306.5C 408.5,296.5 408.5,286.5 408.5,276.5 Z"/></g>
<g><path style="opacity:1" fill="#fefefe" d="M 464.5,276.5 C 482.833,276.5 501.167,276.5 519.5,276.5C 519.5,286.5 519.5,296.5 519.5,306.5C 501.167,306.5 482.833,306.5 464.5,306.5C 464.5,296.5 464.5,286.5 464.5,276.5 Z"/></g>
<g><path style="opacity:1" fill="#fefefe" d="M 541.5,276.5 C 541.5,286.5 541.5,296.5 541.5,306.5C 534.5,306.5 527.5,306.5 520.5,306.5C 520.5,296.5 520.5,286.5 520.5,276.5C 527.5,276.5 534.5,276.5 541.5,276.5 Z"/></g>
<g><path style="opacity:1" fill="#1f77b4" d="M 208.5,289.5 C 212.161,289.35 213.161,290.85 211.5,294C 207.707,294.487 206.707,292.987 208.5,289.5 Z"/></g>
<g><path style="opacity:1" fill="#0a0a0a" d="M 31.5,303.5 C 31.56,302.957 31.8933,302.624 32.5,302.5C 33.4841,305.428 33.8174,308.428 33.5,311.5C 36.2627,312.455 35.2627,312.622 30.5,312C 31.6841,310.82 32.3507,309.32 32.5,307.5C 32.4892,305.955 32.1558,304.622 31.5,303.5 Z"/></g>
<g><path style="opacity:1" fill="#ff0403" d="M 180.5,302.5 C 181.5,302.5 182.5,302.5 183.5,302.5C 184.833,303.167 185.833,304.167 186.5,305.5C 186.5,306.5 186.5,307.5 186.5,308.5C 185.833,309.833 184.833,310.833 183.5,311.5C 182.5,311.5 181.5,311.5 180.5,311.5C 179.167,310.833 178.167,309.833 177.5,308.5C 177.5,307.5 177.5,306.5 177.5,305.5C 178.167,304.167 179.167,303.167 180.5,302.5 Z"/></g>
<g><path style="opacity:1" fill="#fdfefe" d="M 125.5,320.5 C 122.833,322.167 122.833,323.833 125.5,325.5C 125.5,329.5 125.5,333.5 125.5,337.5C 108.09,337.819 90.7564,337.485 73.5,336.5C 72.8333,335.167 71.8333,334.167 70.5,333.5C 69.5301,324.918 69.1968,316.251 69.5,307.5C 88.1667,307.5 106.833,307.5 125.5,307.5C 125.5,311.833 125.5,316.167 125.5,320.5 Z"/></g>
<g><path style="opacity:1" fill="#fdfefe" d="M 177.5,308.5 C 178.167,309.833 179.167,310.833 180.5,311.5C 181.47,320.082 181.803,328.749 181.5,337.5C 163.167,337.5 144.833,337.5 126.5,337.5C 126.5,333.5 126.5,329.5 126.5,325.5C 129.167,323.833 129.167,322.167 126.5,320.5C 126.5,316.167 126.5,311.833 126.5,307.5C 143.577,307.182 160.577,307.515 177.5,308.5 Z"/></g>
<g><path style="opacity:1" fill="#fefefe" d="M 183.5,311.5 C 184.833,310.833 185.833,309.833 186.5,308.5C 203.756,307.515 221.09,307.181 238.5,307.5C 238.5,317.5 238.5,327.5 238.5,337.5C 219.833,337.5 201.167,337.5 182.5,337.5C 182.197,328.749 182.53,320.082 183.5,311.5 Z"/></g>
<g><path style="opacity:1" fill="#fefefe" d="M 239.5,307.5 C 257.833,307.5 276.167,307.5 294.5,307.5C 294.5,317.5 294.5,327.5 294.5,337.5C 276.167,337.5 257.833,337.5 239.5,337.5C 239.5,327.5 239.5,317.5 239.5,307.5 Z"/></g>
<g><path style="opacity:1" fill="#fefefe" d="M 295.5,307.5 C 313.833,307.5 332.167,307.5 350.5,307.5C 350.5,317.5 350.5,327.5 350.5,337.5C 332.167,337.5 313.833,337.5 295.5,337.5C 295.5,327.5 295.5,317.5 295.5,307.5 Z"/></g>
<g><path style="opacity:1" fill="#fefefe" d="M 351.5,307.5 C 370.167,307.5 388.833,307.5 407.5,307.5C 407.5,317.5 407.5,327.5 407.5,337.5C 388.833,337.5 370.167,337.5 351.5,337.5C 351.5,327.5 351.5,317.5 351.5,307.5 Z"/></g>
<g><path style="opacity:1" fill="#fefefe" d="M 408.5,307.5 C 426.833,307.5 445.167,307.5 463.5,307.5C 463.5,317.5 463.5,327.5 463.5,337.5C 445.167,337.5 426.833,337.5 408.5,337.5C 408.5,327.5 408.5,317.5 408.5,307.5 Z"/></g>
<g><path style="opacity:1" fill="#fefefe" d="M 464.5,307.5 C 482.833,307.5 501.167,307.5 519.5,307.5C 519.5,317.5 519.5,327.5 519.5,337.5C 501.167,337.5 482.833,337.5 464.5,337.5C 464.5,327.5 464.5,317.5 464.5,307.5 Z"/></g>
<g><path style="opacity:1" fill="#fefefe" d="M 541.5,307.5 C 541.5,317.5 541.5,327.5 541.5,337.5C 534.5,337.5 527.5,337.5 520.5,337.5C 520.5,327.5 520.5,317.5 520.5,307.5C 527.5,307.5 534.5,307.5 541.5,307.5 Z"/></g>
<g><path style="opacity:1" fill="#1f77b4" d="M 152.5,312.5 C 156.161,312.35 157.161,313.85 155.5,317C 151.707,317.487 150.707,315.987 152.5,312.5 Z"/></g>
<g><path style="opacity:1" fill="#1f77b4" d="M 125.5,320.5 C 125.833,320.5 126.167,320.5 126.5,320.5C 129.167,322.167 129.167,323.833 126.5,325.5C 126.167,325.5 125.833,325.5 125.5,325.5C 122.833,323.833 122.833,322.167 125.5,320.5 Z"/></g>
<g><path style="opacity:1" fill="#1f77b4" d="M 96.5,327.5 C 100.161,327.35 101.161,328.85 99.5,332C 95.7071,332.487 94.7071,330.987 96.5,327.5 Z"/></g>
<g><path style="opacity:1" fill="#ff0403" d="M 67.5,333.5 C 68.5,333.5 69.5,333.5 70.5,333.5C 71.8333,334.167 72.8333,335.167 73.5,336.5C 73.5,337.5 73.5,338.5 73.5,339.5C 72.8333,340.833 71.8333,341.833 70.5,342.5C 69.5,342.5 68.5,342.5 67.5,342.5C 63.5,339.5 63.5,336.5 67.5,333.5 Z"/></g>
<g><path style="opacity:1" fill="#1d1d1d" d="M 31.5,334.5 C 30.9396,336.801 30.4396,339.134 30,341.5C 29.3333,339.5 29.3333,337.5 30,335.5C 30.3826,334.944 30.8826,334.611 31.5,334.5 Z"/></g>
<g><path style="opacity:1" fill="#494949" d="M 31.5,334.5 C 33.1534,333.201 34.6534,333.534 36,335.5C 37.2965,339.175 36.2965,341.842 33,343.5C 32.5,343.333 32,343.167 31.5,343C 34.3788,341.334 35.2121,338.834 34,335.5C 33.3292,334.748 32.4959,334.414 31.5,334.5 Z"/></g>
<g><path style="opacity:1" fill="#fdfcfc" d="M 47.5,307.5 C 54.5,307.5 61.5,307.5 68.5,307.5C 68.8032,316.251 68.4699,324.918 67.5,333.5C 63.5,336.5 63.5,339.5 67.5,342.5C 68.4699,351.082 68.8032,359.749 68.5,368.5C 61.5,368.5 54.5,368.5 47.5,368.5C 47.5,348.167 47.5,327.833 47.5,307.5 Z"/></g>
<g><path style="opacity:1" fill="#fefefe" d="M 125.5,368.5 C 106.833,368.5 88.1667,368.5 69.5,368.5C 69.1968,359.749 69.5301,351.082 70.5,342.5C 71.8333,341.833 72.8333,340.833 73.5,339.5C 90.7564,338.515 108.09,338.181 125.5,338.5C 125.5,348.5 125.5,358.5 125.5,368.5 Z"/></g>
<g><path style="opacity:1" fill="#fefefe" d="M 181.5,368.5 C 163.167,368.5 144.833,368.5 126.5,368.5C 126.5,358.5 126.5,348.5 126.5,338.5C 144.833,338.5 163.167,338.5 181.5,338.5C 181.5,348.5 181.5,358.5 181.5,368.5 Z"/></g>
<g><path style="opacity:1" fill="#fefefe" d="M 238.5,368.5 C 219.833,368.5 201.167,368.5 182.5,368.5C 182.5,358.5 182.5,348.5 182.5,338.5C 201.167,338.5 219.833,338.5 238.5,338.5C 238.5,348.5 238.5,358.5 238.5,368.5 Z"/></g>
<g><path style="opacity:1" fill="#fefefe" d="M 294.5,368.5 C 276.167,368.5 257.833,368.5 239.5,368.5C 239.5,358.5 239.5,348.5 239.5,338.5C 257.833,338.5 276.167,338.5 294.5,338.5C 294.5,348.5 294.5,358.5 294.5,368.5 Z"/></g>
<g><path style="opacity:1" fill="#fefefe" d="M 350.5,368.5 C 332.167,368.5 313.833,368.5 295.5,368.5C 295.5,358.5 295.5,348.5 295.5,338.5C 313.833,338.5 332.167,338.5 350.5,338.5C 350.5,348.5 350.5,358.5 350.5,368.5 Z"/></g>
<g><path style="opacity:1" fill="#fefefe" d="M 407.5,368.5 C 388.833,368.5 370.167,368.5 351.5,368.5C 351.5,358.5 351.5,348.5 351.5,338.5C 370.167,338.5 388.833,338.5 407.5,338.5C 407.5,348.5 407.5,358.5 407.5,368.5 Z"/></g>
<g><path style="opacity:1" fill="#fefefe" d="M 463.5,368.5 C 445.167,368.5 426.833,368.5 408.5,368.5C 408.5,358.5 408.5,348.5 408.5,338.5C 426.833,338.5 445.167,338.5 463.5,338.5C 463.5,348.5 463.5,358.5 463.5,368.5 Z"/></g>
<g><path style="opacity:1" fill="#fefefe" d="M 519.5,368.5 C 501.167,368.5 482.833,368.5 464.5,368.5C 464.5,358.5 464.5,348.5 464.5,338.5C 482.833,338.5 501.167,338.5 519.5,338.5C 519.5,348.5 519.5,358.5 519.5,368.5 Z"/></g>
<g><path style="opacity:1" fill="#fefefe" d="M 541.5,338.5 C 541.5,348.5 541.5,358.5 541.5,368.5C 534.5,368.5 527.5,368.5 520.5,368.5C 520.5,358.5 520.5,348.5 520.5,338.5C 527.5,338.5 534.5,338.5 541.5,338.5 Z"/></g>
<g><path style="opacity:1" fill="#b5adad" d="M 67.5,342.5 C 68.5,342.5 69.5,342.5 70.5,342.5C 69.5301,351.082 69.1968,359.749 69.5,368.5C 69.1667,368.5 68.8333,368.5 68.5,368.5C 68.8032,359.749 68.4699,351.082 67.5,342.5 Z"/></g>
<g><path style="opacity:1" fill="#212121" d="M 129.5,379.5 C 135.324,379.347 135.657,380.013 130.5,381.5C 135.348,382.769 136.348,385.269 133.5,389C 131.741,389.798 130.074,389.631 128.5,388.5C 129.582,388.251 130.915,388.085 132.5,388C 134.161,384.85 133.161,383.35 129.5,383.5C 129.5,382.167 129.5,380.833 129.5,379.5 Z"/></g>
<g><path style="opacity:1" fill="#0a0a0a" d="M 174.5,380.5 C 174.56,379.957 174.893,379.624 175.5,379.5C 176.484,382.428 176.817,385.428 176.5,388.5C 179.263,389.455 178.263,389.622 173.5,389C 174.684,387.82 175.351,386.32 175.5,384.5C 175.489,382.955 175.156,381.622 174.5,380.5 Z"/></g>
<g><path style="opacity:1" fill="#0a0a0a" d="M 230.5,380.5 C 230.56,379.957 230.893,379.624 231.5,379.5C 232.484,382.428 232.817,385.428 232.5,388.5C 235.263,389.455 234.263,389.622 229.5,389C 230.684,387.82 231.351,386.32 231.5,384.5C 231.489,382.955 231.156,381.622 230.5,380.5 Z"/></g>
<g><path style="opacity:1" fill="#212121" d="M 354.5,379.5 C 360.324,379.347 360.657,380.013 355.5,381.5C 360.348,382.769 361.348,385.269 358.5,389C 356.741,389.798 355.074,389.631 353.5,388.5C 354.582,388.251 355.915,388.085 357.5,388C 359.161,384.85 358.161,383.35 354.5,383.5C 354.5,382.167 354.5,380.833 354.5,379.5 Z"/></g>
<g><path style="opacity:1" fill="#212121" d="M 466.5,379.5 C 472.324,379.347 472.657,380.013 467.5,381.5C 472.348,382.769 473.348,385.269 470.5,389C 468.741,389.798 467.074,389.631 465.5,388.5C 466.582,388.251 467.915,388.085 469.5,388C 471.161,384.85 470.161,383.35 466.5,383.5C 466.5,382.167 466.5,380.833 466.5,379.5 Z"/></g>
<g><path style="opacity:1" fill="#2a2a2a" d="M 284.5,379.5 C 291.737,380.272 292.403,383.106 286.5,388C 287.833,388.333 289.167,388.667 290.5,389C 288.421,389.808 286.421,389.641 284.5,388.5C 286.167,386.5 287.833,384.5 289.5,382.5C 288.38,380.404 286.88,380.07 285,381.5C 284.536,380.906 284.369,380.239 284.5,379.5 Z"/></g>
<g><path style="opacity:1" fill="#2a2a2a" d="M 340.5,379.5 C 347.737,380.272 348.403,383.106 342.5,388C 343.833,388.333 345.167,388.667 346.5,389C 344.421,389.808 342.421,389.641 340.5,388.5C 342.167,386.5 343.833,384.5 345.5,382.5C 344.38,380.404 342.88,380.07 341,381.5C 340.536,380.906 340.369,380.239 340.5,379.5 Z"/></g>
<g><path style="opacity:1" fill="#777777" d="M 402.5,383.5 C 401.322,382.001 399.655,381.001 397.5,380.5C 400.507,378.9 402.841,379.567 404.5,382.5C 404.043,383.298 403.376,383.631 402.5,383.5 Z"/></g>
<g><path style="opacity:1" fill="#777777" d="M 458.5,383.5 C 457.322,382.001 455.655,381.001 453.5,380.5C 456.507,378.9 458.841,379.567 460.5,382.5C 460.043,383.298 459.376,383.631 458.5,383.5 Z"/></g>
<g><path style="opacity:1" fill="#d1d1d1" d="M 76.5,388.5 C 75.5,389.833 74.5,389.833 73.5,388.5C 72.6765,386.545 72.5099,384.545 73,382.5C 74.0113,381.663 75.1779,381.33 76.5,381.5C 76.5,383.833 76.5,386.167 76.5,388.5 Z"/></g>
<g><path style="opacity:1" fill="#e8e8e8" d="M 189.5,380.5 C 190.833,383.167 190.833,385.833 189.5,388.5C 187.11,388.315 186.11,386.982 186.5,384.5C 186.11,382.018 187.11,380.685 189.5,380.5 Z"/></g>
<g><path style="opacity:1" fill="#d1d1d1" d="M 302.5,388.5 C 301.5,389.833 300.5,389.833 299.5,388.5C 298.677,386.545 298.51,384.545 299,382.5C 300.011,381.663 301.178,381.33 302.5,381.5C 302.5,383.833 302.5,386.167 302.5,388.5 Z"/></g>
<g><path style="opacity:1" fill="#d1d1d1" d="M 414.5,388.5 C 413.5,389.833 412.5,389.833 411.5,388.5C 410.677,386.545 410.51,384.545 411,382.5C 412.011,381.663 413.178,381.33 414.5,381.5C 414.5,383.833 414.5,386.167 414.5,388.5 Z"/></g>
<g><path style="opacity:1" fill="#d1d1d1" d="M 527.5,388.5 C 526.5,389.833 525.5,389.833 524.5,388.5C 523.677,386.545 523.51,384.545 524,382.5C 525.011,381.663 526.178,381.33 527.5,381.5C 527.5,383.833 527.5,386.167 527.5,388.5 Z"/></g>
<g><path style="opacity:1" fill="#1d1d1d" d="M 61.5,380.5 C 60.9396,382.801 60.4396,385.134 60,387.5C 59.3333,385.5 59.3333,383.5 60,381.5C 60.3826,380.944 60.8826,380.611 61.5,380.5 Z"/></g>
<g><path style="opacity:1" fill="#444444" d="M 76.5,388.5 C 76.5,386.167 76.5,383.833 76.5,381.5C 75.1779,381.33 74.0113,381.663 73,382.5C 72.5099,384.545 72.6765,386.545 73.5,388.5C 72.0069,387.688 71.3402,386.355 71.5,384.5C 72.0155,379.502 74.1822,378.502 78,381.5C 78.6667,383.5 78.6667,385.5 78,387.5C 77.6174,388.056 77.1174,388.389 76.5,388.5 Z"/></g>
<g><path style="opacity:1" fill="#1d1d1d" d="M 118.5,380.5 C 117.94,382.801 117.44,385.134 117,387.5C 116.333,385.5 116.333,383.5 117,381.5C 117.383,380.944 117.883,380.611 118.5,380.5 Z"/></g>
<g><path style="opacity:1" fill="#444444" d="M 302.5,388.5 C 302.5,386.167 302.5,383.833 302.5,381.5C 301.178,381.33 300.011,381.663 299,382.5C 298.51,384.545 298.677,386.545 299.5,388.5C 298.007,387.688 297.34,386.355 297.5,384.5C 298.016,379.502 300.182,378.502 304,381.5C 304.667,383.5 304.667,385.5 304,387.5C 303.617,388.056 303.117,388.389 302.5,388.5 Z"/></g>
<g><path style="opacity:1" fill="#444444" d="M 414.5,388.5 C 414.5,386.167 414.5,383.833 414.5,381.5C 413.178,381.33 412.011,381.663 411,382.5C 410.51,384.545 410.677,386.545 411.5,388.5C 410.007,387.688 409.34,386.355 409.5,384.5C 410.016,379.502 412.182,378.502 416,381.5C 416.667,383.5 416.667,385.5 416,387.5C 415.617,388.056 415.117,388.389 414.5,388.5 Z"/></g>
<g><path style="opacity:1" fill="#4e4e4e" d="M 513.5,381.5 C 513.573,383.027 512.906,384.027 511.5,384.5C 511.427,382.973 512.094,381.973 513.5,381.5 Z"/></g>
<g><path style="opacity:1" fill="#efefef" d="M 513.5,381.5 C 514.434,382.568 514.768,383.901 514.5,385.5C 513.209,385.737 512.209,385.404 511.5,384.5C 512.906,384.027 513.573,383.027 513.5,381.5 Z"/></g>
<g><path style="opacity:1" fill="#444444" d="M 527.5,388.5 C 527.5,386.167 527.5,383.833 527.5,381.5C 526.178,381.33 525.011,381.663 524,382.5C 523.51,384.545 523.677,386.545 524.5,388.5C 523.007,387.688 522.34,386.355 522.5,384.5C 523.016,379.502 525.182,378.502 529,381.5C 529.667,383.5 529.667,385.5 529,387.5C 528.617,388.056 528.117,388.389 527.5,388.5 Z"/></g>
<g><path style="opacity:1" fill="#494949" d="M 61.5,380.5 C 63.1534,379.201 64.6534,379.534 66,381.5C 67.2965,385.175 66.2965,387.842 63,389.5C 62.5,389.333 62,389.167 61.5,389C 64.3788,387.334 65.2121,384.834 64,381.5C 63.3292,380.748 62.4959,380.414 61.5,380.5 Z"/></g>
<g><path style="opacity:1" fill="#494949" d="M 118.5,380.5 C 120.153,379.201 121.653,379.534 123,381.5C 124.297,385.175 123.297,387.842 120,389.5C 119.5,389.333 119,389.167 118.5,389C 121.379,387.334 122.212,384.834 121,381.5C 120.329,380.748 119.496,380.414 118.5,380.5 Z"/></g>
<g><path style="opacity:1" fill="#202020" d="M 189.5,380.5 C 190.993,381.312 191.66,382.645 191.5,384.5C 191.66,386.355 190.993,387.688 189.5,388.5C 190.833,385.833 190.833,383.167 189.5,380.5 Z"/></g>
<g><path style="opacity:1" fill="#464646" d="M 402.5,383.5 C 405.358,386.8 404.525,388.8 400,389.5C 399.167,389.167 398.333,388.833 397.5,388.5C 398.582,388.251 399.915,388.085 401.5,388C 401.957,387.586 402.291,387.086 402.5,386.5C 398.665,385.004 398.665,384.004 402.5,383.5 Z"/></g>
<g><path style="opacity:1" fill="#464646" d="M 458.5,383.5 C 461.358,386.8 460.525,388.8 456,389.5C 455.167,389.167 454.333,388.833 453.5,388.5C 454.582,388.251 455.915,388.085 457.5,388C 457.957,387.586 458.291,387.086 458.5,386.5C 454.665,385.004 454.665,384.004 458.5,383.5 Z"/></g>
<g><path style="opacity:1" fill="#2c2c2c" d="M 511.5,384.5 C 512.209,385.404 513.209,385.737 514.5,385.5C 514.768,383.901 514.434,382.568 513.5,381.5C 513.811,380.522 514.478,379.855 515.5,379.5C 516.221,381.686 516.887,383.853 517.5,386C 516.929,387.205 516.262,388.372 515.5,389.5C 514.614,388.675 514.281,387.675 514.5,386.5C 513.022,386.762 511.689,386.429 510.5,385.5C 510.624,384.893 510.957,384.56 511.5,384.5 Z"/></g>
<g><path style="opacity:1" fill="#404040" d="M 189.5,380.5 C 187.11,380.685 186.11,382.018 186.5,384.5C 186.11,386.982 187.11,388.315 189.5,388.5C 186.305,389.677 184.638,388.344 184.5,384.5C 184.638,380.656 186.305,379.323 189.5,380.5 Z"/></g>
<g><path style="opacity:1" fill="#5c5c5c" d="M 67.5,387.5 C 69.337,387.639 69.6704,388.306 68.5,389.5C 67.7025,389.043 67.3691,388.376 67.5,387.5 Z"/></g>
<g><path style="opacity:1" fill="#5c5c5c" d="M 124.5,387.5 C 126.337,387.639 126.67,388.306 125.5,389.5C 124.702,389.043 124.369,388.376 124.5,387.5 Z"/></g>
<g><path style="opacity:1" fill="#5c5c5c" d="M 180.5,387.5 C 182.337,387.639 182.67,388.306 181.5,389.5C 180.702,389.043 180.369,388.376 180.5,387.5 Z"/></g>
<g><path style="opacity:1" fill="#5c5c5c" d="M 236.5,387.5 C 238.337,387.639 238.67,388.306 237.5,389.5C 236.702,389.043 236.369,388.376 236.5,387.5 Z"/></g>
<g><path style="opacity:1" fill="#2a2a2a" d="M 241.5,379.5 C 247.324,379.347 247.657,380.013 242.5,381.5C 247.348,382.769 248.348,385.269 245.5,389C 244.167,389.667 242.833,389.667 241.5,389C 245.13,388.729 246.13,387.062 244.5,384C 243.552,383.517 242.552,383.351 241.5,383.5C 241.5,382.167 241.5,380.833 241.5,379.5 Z"/></g>
<g><path style="opacity:1" fill="#5c5c5c" d="M 293.5,387.5 C 295.337,387.639 295.67,388.306 294.5,389.5C 293.702,389.043 293.369,388.376 293.5,387.5 Z"/></g>
<g><path style="opacity:1" fill="#5c5c5c" d="M 349.5,387.5 C 351.337,387.639 351.67,388.306 350.5,389.5C 349.702,389.043 349.369,388.376 349.5,387.5 Z"/></g>
<g><path style="opacity:1" fill="#5c5c5c" d="M 405.5,387.5 C 407.337,387.639 407.67,388.306 406.5,389.5C 405.702,389.043 405.369,388.376 405.5,387.5 Z"/></g>
<g><path style="opacity:1" fill="#5c5c5c" d="M 461.5,387.5 C 463.337,387.639 463.67,388.306 462.5,389.5C 461.702,389.043 461.369,388.376 461.5,387.5 Z"/></g>
<g><path style="opacity:1" fill="#5c5c5c" d="M 518.5,387.5 C 520.337,387.639 520.67,388.306 519.5,389.5C 518.702,389.043 518.369,388.376 518.5,387.5 Z"/></g>
<g><path style="opacity:1" fill="#343434" d="M 291.5,402.5 C 291.56,401.957 291.893,401.624 292.5,401.5C 293.937,404.044 295.437,404.044 297,401.5C 297.333,403.047 296.833,404.38 295.5,405.5C 298.328,409.198 297.995,409.865 294.5,407.5C 291.005,409.865 290.672,409.198 293.5,405.5C 293.058,404.261 292.391,403.261 291.5,402.5 Z"/></g>
</svg>
