<?xml version="1.0" encoding="UTF-8"?>
<!DOCTYPE svg PUBLIC "-//W3C//DTD SVG 1.1//EN" "http://www.w3.org/Graphics/SVG/1.1/DTD/svg11.dtd">
<svg xmlns="http://www.w3.org/2000/svg" version="1.1" width="498px" height="297px" style="shape-rendering:geometricPrecision; text-rendering:geometricPrecision; image-rendering:optimizeQuality; fill-rule:evenodd; clip-rule:evenodd" xmlns:xlink="http://www.w3.org/1999/xlink">
<g><path style="opacity:1" fill="#fefefe" d="M -0.5,-0.5 C 165.5,-0.5 331.5,-0.5 497.5,-0.5C 497.5,98.5 497.5,197.5 497.5,296.5C 331.5,296.5 165.5,296.5 -0.5,296.5C -0.5,197.5 -0.5,98.5 -0.5,-0.5 Z"/></g>
<g><path style="opacity:1" fill="#e4e4e4" d="M 3.5,3.5 C 164.167,3.5 324.833,3.5 485.5,3.5C 485.5,99.5 485.5,195.5 485.5,291.5C 324.833,291.5 164.167,291.5 3.5,291.5C 3.5,195.5 3.5,99.5 3.5,3.5 Z"/></g>
<g><path style="opacity:1" fill="#fefefe" d="M 4.5,4.5 C 164.5,4.5 324.5,4.5 484.5,4.5C 484.5,99.8333 484.5,195.167 484.5,290.5C 324.5,290.5 164.5,290.5 4.5,290.5C 4.5,195.167 4.5,99.8333 4.5,4.5 Z"/></g>
<g><path style="opacity:1" fill="#e6e6e6" d="M 487.5,4.5 C 489.265,3.53862 491.265,3.20528 493.5,3.5C 493.5,99.5 493.5,195.5 493.5,291.5C 491.396,291.799 489.396,291.466 487.5,290.5C 489.045,289.548 490.712,289.215 492.5,289.5C 492.5,194.5 492.5,99.5 492.5,4.5C 490.833,4.5 489.167,4.5 487.5,4.5 Z"/></g>
<g><path style="opacity:1" fill="#78abdb" d="M 174.5,18.5 C 177.95,17.7564 179.616,19.0897 179.5,22.5C 182.85,22.335 186.183,22.5017 189.5,23C 185.325,24.2249 180.991,25.0582 176.5,25.5C 171.823,24.9433 167.156,24.2766 162.5,23.5C 165.833,22.8333 169.167,22.1667 172.5,21.5C 173.193,20.4822 173.859,19.4822 174.5,18.5 Z"/></g>
<g><path style="opacity:1" fill="#939393" d="M 194.5,18.5 C 197.005,20.1859 197.838,22.5193 197,25.5C 195.213,24.6569 193.38,24.4902 191.5,25C 192.406,22.7787 193.406,20.6121 194.5,18.5 Z"/></g>
<g><path style="opacity:1" fill="#f08c49" d="M 266.5,18.5 C 269.95,17.7564 271.616,19.0897 271.5,22.5C 274.85,22.335 278.183,22.5017 281.5,23C 277.325,24.2249 272.991,25.0582 268.5,25.5C 264.397,23.8827 260.064,23.0493 255.5,23C 258.553,22.8214 261.553,22.3214 264.5,21.5C 265.193,20.4822 265.859,19.4822 266.5,18.5 Z"/></g>
<g><path style="opacity:1" fill="#adadad" d="M 314.5,18.5 C 315.725,19.1522 316.392,20.3189 316.5,22C 316.167,23.1667 315.833,24.3333 315.5,25.5C 314.526,23.2573 314.192,20.924 314.5,18.5 Z"/></g>
<g><path style="opacity:1" fill="#9a9a9a" d="M 318.5,20.5 C 321.731,21.3678 325.065,21.3678 328.5,20.5C 328.402,26.373 327.402,26.7064 325.5,21.5C 324.719,22.7287 324.219,24.062 324,25.5C 323.667,25.1667 323.333,24.8333 323,24.5C 320.353,27.3614 318.52,26.8614 317.5,23C 317.743,22.0979 318.077,21.2646 318.5,20.5 Z"/></g>
<g><path style="opacity:1" fill="#a9a9a9" d="M 199.5,17.5 C 200.583,17.5394 201.583,17.8728 202.5,18.5C 203.833,20.8333 203.833,23.1667 202.5,25.5C 201.362,18.9266 200.528,18.9266 200,25.5C 199.503,22.854 199.336,20.1873 199.5,17.5 Z"/></g>
<g><path style="opacity:1" fill="#888888" d="M 210.5,20.5 C 212.167,20.5 213.833,20.5 215.5,20.5C 215.653,26.3239 214.987,26.6572 213.5,21.5C 212.029,22.3805 211.196,23.7139 211,25.5C 210.506,23.8659 210.34,22.1992 210.5,20.5 Z"/></g>
<g><path style="opacity:1" fill="#9c9c9c" d="M 286.5,18.5 C 287.978,18.238 289.311,18.5713 290.5,19.5C 289.47,19.5545 288.303,19.8878 287,20.5C 286.51,21.7932 286.343,23.1266 286.5,24.5C 290.588,24.2184 291.088,24.8851 288,26.5C 284.005,24.5175 283.505,21.8509 286.5,18.5 Z"/></g>
<g><path style="opacity:1" fill="#929292" d="M 297.5,17.5 C 299.048,17.8212 299.715,18.8212 299.5,20.5C 300.5,20.5 301.5,20.5 302.5,20.5C 302.653,26.3239 301.987,26.6572 300.5,21.5C 299.833,23.1667 299.167,24.8333 298.5,26.5C 297.516,23.5719 297.183,20.5719 297.5,17.5 Z"/></g>
<g><path style="opacity:1" fill="#939393" d="M 217.5,20.5 C 221.924,21.0972 226.257,21.0972 230.5,20.5C 230.5,21.5 230.5,22.5 230.5,23.5C 226.689,23.5958 226.689,24.2624 230.5,25.5C 228.653,26.8304 227.153,26.497 226,24.5C 225.586,24.9574 225.086,25.2907 224.5,25.5C 223.518,20.2979 222.352,20.2979 221,25.5C 220,20.1667 219,20.1667 218,25.5C 217.506,23.8659 217.34,22.1992 217.5,20.5 Z"/></g>
<g><path style="opacity:1" fill="#9c9c9c" d="M 238.5,18.5 C 239.922,18.7496 240.922,19.583 241.5,21C 240.903,22.8886 240.569,24.7219 240.5,26.5C 239.914,26.2907 239.414,25.9574 239,25.5C 238.503,23.1902 238.337,20.8568 238.5,18.5 Z"/></g>
<g><path style="opacity:1" fill="#858585" d="M 232.5,20.5 C 236.909,19.899 238.242,21.5657 236.5,25.5C 235.075,20.2702 233.909,20.2702 233,25.5C 232.506,23.8659 232.34,22.1992 232.5,20.5 Z"/></g>
<g><path style="opacity:1" fill="#a3a3a3" d="M 205.5,20.5 C 206.833,20.5 208.167,20.5 209.5,20.5C 208.592,22.8911 208.426,25.2244 209,27.5C 207.644,28.3802 206.144,28.7135 204.5,28.5C 204.279,25.7212 204.612,23.0545 205.5,20.5 Z"/></g>
<g><path style="opacity:1" fill="#969696" d="M 292.5,21.5 C 293.568,20.5655 294.901,20.2322 296.5,20.5C 296.66,22.1992 296.494,23.8659 296,25.5C 291.825,26.8026 290.659,25.4692 292.5,21.5 Z"/></g>
<g><path style="opacity:1" fill="#f0f0f0" d="M 292.5,21.5 C 293.5,21.5 294.5,21.5 295.5,21.5C 295.5,22.5 295.5,23.5 295.5,24.5C 294.5,24.5 293.5,24.5 292.5,24.5C 292.5,23.5 292.5,22.5 292.5,21.5 Z"/></g>
<g><path style="opacity:1" fill="#9c9c9c" d="M 304.5,20.5 C 307.272,21.2345 309.939,21.4012 312.5,21C 312.167,21.3333 311.833,21.6667 311.5,22C 314.079,23.6117 314.079,25.1117 311.5,26.5C 311.467,25.011 310.967,23.6776 310,22.5C 308.601,23.2266 307.101,23.7266 305.5,24C 306.328,24.9147 307.328,25.5814 308.5,26C 307.5,26.6667 306.5,26.6667 305.5,26C 304.594,24.3005 304.261,22.4672 304.5,20.5 Z"/></g>
<g><path style="opacity:1" fill="#939393" d="M 41.5,44.5 C 46.3276,44.3852 47.6609,46.5519 45.5,51C 40.5705,51.427 39.2372,49.2604 41.5,44.5 Z"/></g>
<g><path style="opacity:1" fill="#fdfdfd" d="M 42.5,45.5 C 43.6491,45.7911 44.3158,46.6244 44.5,48C 44.1667,48.8333 43.8333,49.6667 43.5,50.5C 42.5481,48.9547 42.2148,47.288 42.5,45.5 Z"/></g>
<g><path style="opacity:1" fill="#8b8b8b" d="M 56.5,44.5 C 60.8926,44.4568 61.2259,44.9568 57.5,46C 60.6287,46.1168 61.7954,47.6168 61,50.5C 59.6124,51.5536 58.1124,51.7203 56.5,51C 57.448,50.5172 58.448,50.3505 59.5,50.5C 59.5,49.5 59.5,48.5 59.5,47.5C 58.5,47.5 57.5,47.5 56.5,47.5C 56.5,46.5 56.5,45.5 56.5,44.5 Z"/></g>
<g><path style="opacity:1" fill="#999999" d="M 50.5,45.5 C 51.5417,44.2089 52.7083,44.2089 54,45.5C 54.7112,47.3668 54.2112,48.8668 52.5,50C 53.1667,50.3333 53.8333,50.6667 54.5,51C 52.1667,51.6667 49.8333,51.6667 47.5,51C 50.072,50.7582 51.7386,49.4249 52.5,47C 52.1639,45.9701 51.4972,45.4701 50.5,45.5 Z"/></g>
<g><path style="opacity:1" fill="#e6e6e5" d="M 73.5,49.5 C 73.5,49.1667 73.5,48.8333 73.5,48.5C 203.833,48.5 334.167,48.5 464.5,48.5C 464.832,109.669 464.499,170.669 463.5,231.5C 447.5,230.833 431.5,230.167 415.5,229.5C 431.5,229.5 447.5,229.5 463.5,229.5C 463.5,218.167 463.5,206.833 463.5,195.5C 447.5,195.5 431.5,195.5 415.5,195.5C 415.5,202.167 415.5,208.833 415.5,215.5C 414.5,215.5 413.5,215.5 412.5,215.5C 414.399,209.118 415.066,202.451 414.5,195.5C 398.5,195.5 382.5,195.5 366.5,195.5C 366.5,198.833 366.5,202.167 366.5,205.5C 365.127,205.657 363.793,205.49 362.5,205C 358.963,201.631 355.629,198.131 352.5,194.5C 356.833,194.5 361.167,194.5 365.5,194.5C 365.5,182.5 365.5,170.5 365.5,158.5C 347.992,158.17 330.659,158.503 313.5,159.5C 312.5,159.167 311.833,158.5 311.5,157.5C 313.167,157.5 314.833,157.5 316.5,157.5C 316.5,145.833 316.5,134.167 316.5,122.5C 302.323,122.171 288.323,122.504 274.5,123.5C 273.5,123.167 272.833,122.5 272.5,121.5C 303.5,121.5 334.5,121.5 365.5,121.5C 365.5,109.5 365.5,97.5 365.5,85.5C 362.5,85.5 359.5,85.5 356.5,85.5C 359.1,82.5397 362.433,81.2063 366.5,81.5C 366.5,82.5 366.5,83.5 366.5,84.5C 382.5,84.5 398.5,84.5 414.5,84.5C 414.5,77.5 414.5,70.5 414.5,63.5C 414.833,63.5 415.167,63.5 415.5,63.5C 415.5,70.5 415.5,77.5 415.5,84.5C 431.5,84.5 447.5,84.5 463.5,84.5C 463.5,72.8333 463.5,61.1667 463.5,49.5C 447.5,49.5 431.5,49.5 415.5,49.5C 415.5,51.8333 415.5,54.1667 415.5,56.5C 414.833,56.5 414.167,56.5 413.5,56.5C 414.369,54.283 414.702,51.9496 414.5,49.5C 398.5,49.5 382.5,49.5 366.5,49.5C 366.198,57.9183 366.531,66.2517 367.5,74.5C 366.167,74.5 364.833,74.5 363.5,74.5C 365.422,66.4363 366.088,58.103 365.5,49.5C 349.833,49.5 334.167,49.5 318.5,49.5C 318.5,61.1667 318.5,72.8333 318.5,84.5C 329.833,84.5 341.167,84.5 352.5,84.5C 352.167,85.5 351.5,86.1667 350.5,86.5C 340.013,85.5056 329.346,85.1722 318.5,85.5C 318.5,90.8333 318.5,96.1667 318.5,101.5C 317.5,101.5 316.5,101.5 315.5,101.5C 316.449,96.2599 316.782,90.9265 316.5,85.5C 300.5,85.5 284.5,85.5 268.5,85.5C 268.193,95.5824 268.526,105.582 269.5,115.5C 268.5,115.5 267.5,115.5 266.5,115.5C 267.474,105.582 267.807,95.5824 267.5,85.5C 251.5,85.5 235.5,85.5 219.5,85.5C 219.5,90.8333 219.5,96.1667 219.5,101.5C 218.5,101.5 217.5,101.5 216.5,101.5C 218.37,96.4682 219.037,91.1348 218.5,85.5C 207.654,85.1722 196.987,85.5056 186.5,86.5C 185.29,86.0679 184.29,85.4013 183.5,84.5C 195.167,84.5 206.833,84.5 218.5,84.5C 218.5,72.8333 218.5,61.1667 218.5,49.5C 202.833,49.5 187.167,49.5 171.5,49.5C 171.5,57.8333 171.5,66.1667 171.5,74.5C 170.167,74.5 168.833,74.5 167.5,74.5C 169.422,66.4363 170.088,58.103 169.5,49.5C 153.833,49.5 138.167,49.5 122.5,49.5C 122.5,51.8333 122.5,54.1667 122.5,56.5C 121.5,56.5 120.5,56.5 119.5,56.5C 120.369,54.283 120.702,51.9496 120.5,49.5C 104.833,49.5 89.1667,49.5 73.5,49.5 Z"/></g>
<g><path style="opacity:1" fill="#fefefe" d="M 73.5,49.5 C 89.1667,49.5 104.833,49.5 120.5,49.5C 120.702,51.9496 120.369,54.283 119.5,56.5C 118.053,57.1342 117.387,58.3009 117.5,60C 117.387,61.6991 118.053,62.8658 119.5,63.5C 120.462,70.4122 120.795,77.4122 120.5,84.5C 104.833,84.5 89.1667,84.5 73.5,84.5C 73.5,72.8333 73.5,61.1667 73.5,49.5 Z"/></g>
<g><path style="opacity:1" fill="#fefdfc" d="M 167.5,74.5 C 167.083,75.1239 166.416,75.4573 165.5,75.5C 152.468,71.1004 139.468,66.6004 126.5,62C 124.898,60.3584 123.565,58.5251 122.5,56.5C 122.5,54.1667 122.5,51.8333 122.5,49.5C 138.167,49.5 153.833,49.5 169.5,49.5C 170.088,58.103 169.422,66.4363 167.5,74.5 Z"/></g>
<g><path style="opacity:1" fill="#fefefe" d="M 183.5,84.5 C 177.813,83.0158 173.813,79.6825 171.5,74.5C 171.5,66.1667 171.5,57.8333 171.5,49.5C 187.167,49.5 202.833,49.5 218.5,49.5C 218.5,61.1667 218.5,72.8333 218.5,84.5C 206.833,84.5 195.167,84.5 183.5,84.5 Z"/></g>
<g><path style="opacity:1" fill="#fefefe" d="M 219.5,49.5 C 235.5,49.5 251.5,49.5 267.5,49.5C 267.5,61.1667 267.5,72.8333 267.5,84.5C 251.5,84.5 235.5,84.5 219.5,84.5C 219.5,72.8333 219.5,61.1667 219.5,49.5 Z"/></g>
<g><path style="opacity:1" fill="#fefefe" d="M 268.5,49.5 C 284.5,49.5 300.5,49.5 316.5,49.5C 316.5,61.1667 316.5,72.8333 316.5,84.5C 300.5,84.5 284.5,84.5 268.5,84.5C 268.5,72.8333 268.5,61.1667 268.5,49.5 Z"/></g>
<g><path style="opacity:1" fill="#fefefe" d="M 363.5,74.5 C 361.89,79.8488 358.223,83.1821 352.5,84.5C 341.167,84.5 329.833,84.5 318.5,84.5C 318.5,72.8333 318.5,61.1667 318.5,49.5C 334.167,49.5 349.833,49.5 365.5,49.5C 366.088,58.103 365.422,66.4363 363.5,74.5 Z"/></g>
<g><path style="opacity:1" fill="#fdfefe" d="M 413.5,56.5 C 411.468,57.5609 410.134,59.2276 409.5,61.5C 396.167,66.5 382.833,71.5 369.5,76.5C 368.478,76.1445 367.811,75.4778 367.5,74.5C 366.531,66.2517 366.198,57.9183 366.5,49.5C 382.5,49.5 398.5,49.5 414.5,49.5C 414.702,51.9496 414.369,54.283 413.5,56.5 Z"/></g>
<g><path style="opacity:1" fill="#fefefe" d="M 415.5,63.5 C 416.947,62.8658 417.613,61.6991 417.5,60C 417.613,58.3009 416.947,57.1342 415.5,56.5C 415.5,54.1667 415.5,51.8333 415.5,49.5C 431.5,49.5 447.5,49.5 463.5,49.5C 463.5,61.1667 463.5,72.8333 463.5,84.5C 447.5,84.5 431.5,84.5 415.5,84.5C 415.5,77.5 415.5,70.5 415.5,63.5 Z"/></g>
<g><path style="opacity:1" fill="#fefdfc" d="M 169.5,81.5 C 169.5,82.5 169.5,83.5 169.5,84.5C 153.833,84.5 138.167,84.5 122.5,84.5C 122.5,77.5 122.5,70.5 122.5,63.5C 122.735,62.9033 123.235,62.5699 124,62.5C 137.937,68.201 152.104,73.201 166.5,77.5C 166.088,79.9726 167.088,81.3059 169.5,81.5 Z"/></g>
<g><path style="opacity:1" fill="#fcfdfe" d="M 414.5,63.5 C 414.5,70.5 414.5,77.5 414.5,84.5C 398.5,84.5 382.5,84.5 366.5,84.5C 366.5,83.5 366.5,82.5 366.5,81.5C 367.837,80.6851 368.837,79.5185 369.5,78C 382.45,73.1797 395.45,68.513 408.5,64C 410.473,63.5045 412.473,63.3379 414.5,63.5 Z"/></g>
<g><path style="opacity:1" fill="#fefffe" d="M 73.5,85.5 C 89.1667,85.5 104.833,85.5 120.5,85.5C 120.5,97.1667 120.5,108.833 120.5,120.5C 104.833,120.5 89.1667,120.5 73.5,120.5C 73.5,108.833 73.5,97.1667 73.5,85.5 Z"/></g>
<g><path style="opacity:1" fill="#fefdfd" d="M 180.5,85.5 C 191.606,91.2212 202.606,97.2212 213.5,103.5C 214.204,106.205 215.871,107.871 218.5,108.5C 218.5,112.833 218.5,117.167 218.5,121.5C 202.83,121.667 187.163,121.5 171.5,121C 170.512,109.247 170.179,97.4139 170.5,85.5C 173.833,85.5 177.167,85.5 180.5,85.5 Z"/></g>
<g><path style="opacity:1" fill="#ef8d4b" d="M 119.5,56.5 C 120.5,56.5 121.5,56.5 122.5,56.5C 123.565,58.5251 124.898,60.3584 126.5,62C 139.468,66.6004 152.468,71.1004 165.5,75.5C 166.416,75.4573 167.083,75.1239 167.5,74.5C 168.833,74.5 170.167,74.5 171.5,74.5C 173.813,79.6825 177.813,83.0158 183.5,84.5C 184.29,85.4013 185.29,86.0679 186.5,86.5C 195.437,91.6397 204.437,96.8063 213.5,102C 214.749,102.74 215.749,102.573 216.5,101.5C 217.5,101.5 218.5,101.5 219.5,101.5C 220.947,102.622 221.947,104.122 222.5,106C 236.295,109.058 249.962,112.558 263.5,116.5C 264.584,116.315 265.584,115.982 266.5,115.5C 267.5,115.5 268.5,115.5 269.5,115.5C 270.167,115.833 270.833,116.167 271.5,116.5C 271.5,117.167 271.5,117.833 271.5,118.5C 271.263,119.791 271.596,120.791 272.5,121.5C 272.833,122.5 273.5,123.167 274.5,123.5C 286.807,134.805 299.141,146.138 311.5,157.5C 311.833,158.5 312.5,159.167 313.5,159.5C 315.086,160.148 316.753,160.648 318.5,161C 319.644,164.526 321.644,167.526 324.5,170C 334.001,178.003 343.334,186.17 352.5,194.5C 355.629,198.131 358.963,201.631 362.5,205C 363.793,205.49 365.127,205.657 366.5,205.5C 367.837,206.315 368.837,207.482 369.5,209C 382.646,211.962 395.813,214.796 409,217.5C 410.434,217.138 411.601,216.472 412.5,215.5C 413.5,215.5 414.5,215.5 415.5,215.5C 418.053,217.705 418.053,220.038 415.5,222.5C 415.167,222.5 414.833,222.5 414.5,222.5C 412.405,221.588 410.405,220.421 408.5,219C 395.394,216.594 382.394,213.761 369.5,210.5C 366.112,213.484 363.445,212.984 361.5,209C 361.645,208.228 361.978,207.561 362.5,207C 358.592,202.587 354.259,198.753 349.5,195.5C 349.167,194.5 348.5,193.833 347.5,193.5C 338.698,184.867 329.698,176.367 320.5,168C 318.5,167.667 316.5,167.333 314.5,167C 314.327,163.232 312.661,160.398 309.5,158.5C 309.5,157.833 309.167,157.5 308.5,157.5C 295.875,145.843 283.208,134.176 270.5,122.5C 269.432,121.566 268.099,121.232 266.5,121.5C 266.167,121.5 265.833,121.5 265.5,121.5C 265.5,120.833 265.167,120.5 264.5,120.5C 264.53,119.503 264.03,118.836 263,118.5C 249.199,114.733 235.365,111.067 221.5,107.5C 220.584,107.543 219.917,107.876 219.5,108.5C 219.167,108.5 218.833,108.5 218.5,108.5C 215.871,107.871 214.204,106.205 213.5,103.5C 202.606,97.2212 191.606,91.2212 180.5,85.5C 177.898,83.8583 175.231,82.1916 172.5,80.5C 171.583,81.1272 170.583,81.4606 169.5,81.5C 167.088,81.3059 166.088,79.9726 166.5,77.5C 152.104,73.201 137.937,68.201 124,62.5C 123.235,62.5699 122.735,62.9033 122.5,63.5C 121.5,63.5 120.5,63.5 119.5,63.5C 118.053,62.8658 117.387,61.6991 117.5,60C 117.387,58.3009 118.053,57.1342 119.5,56.5 Z"/></g>
<g><path style="opacity:1" fill="#fefcfa" d="M 216.5,101.5 C 215.749,102.573 214.749,102.74 213.5,102C 204.437,96.8063 195.437,91.6397 186.5,86.5C 196.987,85.5056 207.654,85.1722 218.5,85.5C 219.037,91.1348 218.37,96.4682 216.5,101.5 Z"/></g>
<g><path style="opacity:1" fill="#fefdfd" d="M 266.5,115.5 C 265.584,115.982 264.584,116.315 263.5,116.5C 249.962,112.558 236.295,109.058 222.5,106C 221.947,104.122 220.947,102.622 219.5,101.5C 219.5,96.1667 219.5,90.8333 219.5,85.5C 235.5,85.5 251.5,85.5 267.5,85.5C 267.807,95.5824 267.474,105.582 266.5,115.5 Z"/></g>
<g><path style="opacity:1" fill="#fefefe" d="M 315.5,101.5 C 313.787,102.635 313.12,104.302 313.5,106.5C 299.342,109.206 285.342,112.54 271.5,116.5C 270.833,116.167 270.167,115.833 269.5,115.5C 268.526,105.582 268.193,95.5824 268.5,85.5C 284.5,85.5 300.5,85.5 316.5,85.5C 316.782,90.9265 316.449,96.2599 315.5,101.5 Z"/></g>
<g><path style="opacity:1" fill="#fcfdfe" d="M 350.5,86.5 C 341.033,91.4008 331.7,96.5674 322.5,102C 320.934,102.765 319.601,102.598 318.5,101.5C 318.5,96.1667 318.5,90.8333 318.5,85.5C 329.346,85.1722 340.013,85.5056 350.5,86.5 Z"/></g>
<g><path style="opacity:1" fill="#fdfdfe" d="M 356.5,85.5 C 359.5,85.5 362.5,85.5 365.5,85.5C 365.5,97.5 365.5,109.5 365.5,121.5C 334.5,121.5 303.5,121.5 272.5,121.5C 271.596,120.791 271.263,119.791 271.5,118.5C 285.47,114.84 299.47,111.174 313.5,107.5C 315.155,108.228 316.821,108.395 318.5,108C 320.234,105.3 322.568,103.3 325.5,102C 335.887,96.4748 346.22,90.9748 356.5,85.5 Z"/></g>
<g><path style="opacity:1" fill="#fefefe" d="M 366.5,85.5 C 382.5,85.5 398.5,85.5 414.5,85.5C 414.5,97.5 414.5,109.5 414.5,121.5C 398.83,121.667 383.163,121.5 367.5,121C 366.512,109.247 366.179,97.4139 366.5,85.5 Z"/></g>
<g><path style="opacity:1" fill="#fefefe" d="M 415.5,85.5 C 431.5,85.5 447.5,85.5 463.5,85.5C 463.5,97.5 463.5,109.5 463.5,121.5C 447.5,121.5 431.5,121.5 415.5,121.5C 415.5,109.5 415.5,97.5 415.5,85.5 Z"/></g>
<g><path style="opacity:1" fill="#979797" d="M 47.5,81.5 C 52.3276,81.3852 53.6609,83.5519 51.5,88C 46.5705,88.427 45.2372,86.2604 47.5,81.5 Z"/></g>
<g><path style="opacity:1" fill="#fcfcfc" d="M 48.5,82.5 C 49.6491,82.7911 50.3158,83.6244 50.5,85C 50.1667,85.8333 49.8333,86.6667 49.5,87.5C 48.5481,85.9547 48.2148,84.288 48.5,82.5 Z"/></g>
<g><path style="opacity:1" fill="#939393" d="M 56.5,82.5 C 57.5676,81.5655 58.901,81.2322 60.5,81.5C 60.822,83.7224 60.1554,85.5557 58.5,87C 59.1667,87.3333 59.8333,87.6667 60.5,88C 58.0982,88.8141 55.7649,88.6474 53.5,87.5C 55.9171,87.9834 57.5838,86.8167 58.5,84C 58.1639,82.9701 57.4972,82.4701 56.5,82.5 Z"/></g>
<g><path style="opacity:1" fill="#75a9db" d="M 413.5,56.5 C 414.167,56.5 414.833,56.5 415.5,56.5C 416.947,57.1342 417.613,58.3009 417.5,60C 417.613,61.6991 416.947,62.8658 415.5,63.5C 415.167,63.5 414.833,63.5 414.5,63.5C 412.473,63.3379 410.473,63.5045 408.5,64C 395.45,68.513 382.45,73.1797 369.5,78C 368.837,79.5185 367.837,80.6851 366.5,81.5C 362.433,81.2063 359.1,82.5397 356.5,85.5C 346.22,90.9748 335.887,96.4748 325.5,102C 322.568,103.3 320.234,105.3 318.5,108C 316.821,108.395 315.155,108.228 313.5,107.5C 299.47,111.174 285.47,114.84 271.5,118.5C 271.5,117.833 271.5,117.167 271.5,116.5C 285.342,112.54 299.342,109.206 313.5,106.5C 313.12,104.302 313.787,102.635 315.5,101.5C 316.5,101.5 317.5,101.5 318.5,101.5C 319.601,102.598 320.934,102.765 322.5,102C 331.7,96.5674 341.033,91.4008 350.5,86.5C 351.5,86.1667 352.167,85.5 352.5,84.5C 358.223,83.1821 361.89,79.8488 363.5,74.5C 364.833,74.5 366.167,74.5 367.5,74.5C 367.811,75.4778 368.478,76.1445 369.5,76.5C 382.833,71.5 396.167,66.5 409.5,61.5C 410.134,59.2276 411.468,57.5609 413.5,56.5 Z"/></g>
<g><path style="opacity:1" fill="#acacac" d="M 23.5,104.5 C 26.8984,104.18 30.2317,104.513 33.5,105.5C 31.8333,105.833 30.1667,106.167 28.5,106.5C 26.3603,106.444 24.6936,105.777 23.5,104.5 Z"/></g>
<g><path style="opacity:1" fill="#fdfcfb" d="M 264.5,120.5 C 263.833,120.833 263.167,121.167 262.5,121.5C 248.167,121.5 233.833,121.5 219.5,121.5C 219.5,117.167 219.5,112.833 219.5,108.5C 219.917,107.876 220.584,107.543 221.5,107.5C 235.365,111.067 249.199,114.733 263,118.5C 264.03,118.836 264.53,119.503 264.5,120.5 Z"/></g>
<g><path style="opacity:1" fill="#898989" d="M 24.5,107.5 C 25.2344,108.878 25.9011,110.378 26.5,112C 30.37,113.137 32.2033,111.637 32,107.5C 34.0149,109.478 33.8483,111.312 31.5,113C 25.7835,114.759 23.4502,112.926 24.5,107.5 Z"/></g>
<g><path style="opacity:1" fill="#8d8d8d" d="M 30.5,114.5 C 31.552,114.351 32.552,114.517 33.5,115C 30.2697,116.724 29.9364,118.724 32.5,121C 28.4011,121.789 25.7345,120.289 24.5,116.5C 26.7857,116.405 28.7857,115.738 30.5,114.5 Z"/></g>
<g><path style="opacity:1" fill="#959595" d="M 50.5,117.5 C 51.5,117.5 52.5,117.5 53.5,117.5C 53.2436,119.792 53.5769,121.959 54.5,124C 53.1667,124.667 51.8333,124.667 50.5,124C 51.6053,121.88 51.6053,119.713 50.5,117.5 Z"/></g>
<g><path style="opacity:1" fill="#8b8b8b" d="M 56.5,117.5 C 60.8926,117.457 61.2259,117.957 57.5,119C 60.6287,119.117 61.7954,120.617 61,123.5C 59.6124,124.554 58.1124,124.72 56.5,124C 57.448,123.517 58.448,123.351 59.5,123.5C 59.5,122.5 59.5,121.5 59.5,120.5C 58.5,120.5 57.5,120.5 56.5,120.5C 56.5,119.5 56.5,118.5 56.5,117.5 Z"/></g>
<g><path style="opacity:1" fill="#929292" d="M 41.5,117.5 C 45.6772,116.842 47.1772,118.508 46,122.5C 44.6883,124.658 43.0217,124.991 41,123.5C 40.3224,121.402 40.4891,119.402 41.5,117.5 Z"/></g>
<g><path style="opacity:1" fill="#fdfdfd" d="M 42.5,118.5 C 43.6491,118.791 44.3158,119.624 44.5,121C 44.1667,121.833 43.8333,122.667 43.5,123.5C 42.5481,121.955 42.2148,120.288 42.5,118.5 Z"/></g>
<g><path style="opacity:1" fill="#e9e9e9" d="M 119.5,63.5 C 120.5,63.5 121.5,63.5 122.5,63.5C 122.5,70.5 122.5,77.5 122.5,84.5C 138.167,84.5 153.833,84.5 169.5,84.5C 169.5,83.5 169.5,82.5 169.5,81.5C 170.583,81.4606 171.583,81.1272 172.5,80.5C 175.231,82.1916 177.898,83.8583 180.5,85.5C 177.167,85.5 173.833,85.5 170.5,85.5C 170.179,97.4139 170.512,109.247 171.5,121C 187.163,121.5 202.83,121.667 218.5,121.5C 218.5,117.167 218.5,112.833 218.5,108.5C 218.833,108.5 219.167,108.5 219.5,108.5C 219.5,112.833 219.5,117.167 219.5,121.5C 233.833,121.5 248.167,121.5 262.5,121.5C 262.5,122.167 262.167,122.5 261.5,122.5C 247.5,122.5 233.5,122.5 219.5,122.5C 219.5,134.167 219.5,145.833 219.5,157.5C 221.167,157.5 222.833,157.5 224.5,157.5C 223.249,160.489 221.249,161.489 218.5,160.5C 202.868,158.515 186.868,157.849 170.5,158.5C 170.333,170.171 170.5,181.838 171,193.5C 175.401,194.467 179.901,194.8 184.5,194.5C 180.504,198.599 176.337,202.599 172,206.5C 171.329,205.748 170.496,205.414 169.5,205.5C 169.5,202.167 169.5,198.833 169.5,195.5C 153.833,195.5 138.167,195.5 122.5,195.5C 122.5,202.167 122.5,208.833 122.5,215.5C 121.5,215.5 120.5,215.5 119.5,215.5C 120.46,208.922 120.793,202.255 120.5,195.5C 104.833,195.5 89.1667,195.5 73.5,195.5C 73.5,194.833 73.5,194.167 73.5,193.5C 89.1667,193.5 104.833,193.5 120.5,193.5C 120.5,181.833 120.5,170.167 120.5,158.5C 104.833,158.5 89.1667,158.5 73.5,158.5C 73.5,158.167 73.5,157.833 73.5,157.5C 89.1667,157.5 104.833,157.5 120.5,157.5C 120.5,145.833 120.5,134.167 120.5,122.5C 104.833,122.5 89.1667,122.5 73.5,122.5C 73.5,121.833 73.5,121.167 73.5,120.5C 89.1667,120.5 104.833,120.5 120.5,120.5C 120.5,108.833 120.5,97.1667 120.5,85.5C 104.833,85.5 89.1667,85.5 73.5,85.5C 73.5,85.1667 73.5,84.8333 73.5,84.5C 89.1667,84.5 104.833,84.5 120.5,84.5C 120.795,77.4122 120.462,70.4122 119.5,63.5 Z"/></g>
<g><path style="opacity:1" fill="#fefffe" d="M 122.5,85.5 C 138.167,85.5 153.833,85.5 169.5,85.5C 169.5,97.1667 169.5,108.833 169.5,120.5C 153.833,120.5 138.167,120.5 122.5,120.5C 122.5,108.833 122.5,97.1667 122.5,85.5 Z"/></g>
<g><path style="opacity:1" fill="#fefefe" d="M 73.5,122.5 C 89.1667,122.5 104.833,122.5 120.5,122.5C 120.5,134.167 120.5,145.833 120.5,157.5C 104.833,157.5 89.1667,157.5 73.5,157.5C 73.5,145.833 73.5,134.167 73.5,122.5 Z"/></g>
<g><path style="opacity:1" fill="#fefefe" d="M 122.5,122.5 C 138.167,122.5 153.833,122.5 169.5,122.5C 169.5,134.167 169.5,145.833 169.5,157.5C 153.833,157.5 138.167,157.5 122.5,157.5C 122.5,145.833 122.5,134.167 122.5,122.5 Z"/></g>
<g><path style="opacity:1" fill="#fefefe" d="M 170.5,122.5 C 186.5,122.5 202.5,122.5 218.5,122.5C 218.5,134.167 218.5,145.833 218.5,157.5C 202.5,157.5 186.5,157.5 170.5,157.5C 170.5,145.833 170.5,134.167 170.5,122.5 Z"/></g>
<g><path style="opacity:1" fill="#fdfdfe" d="M 261.5,122.5 C 249.495,134.504 237.162,146.171 224.5,157.5C 222.833,157.5 221.167,157.5 219.5,157.5C 219.5,145.833 219.5,134.167 219.5,122.5C 233.5,122.5 247.5,122.5 261.5,122.5 Z"/></g>
<g><path style="opacity:1" fill="#fdfdfe" d="M 265.5,121.5 C 265.833,121.5 266.167,121.5 266.5,121.5C 267.479,133.42 267.812,145.42 267.5,157.5C 254.5,157.5 241.5,157.5 228.5,157.5C 240.833,145.5 253.167,133.5 265.5,121.5 Z"/></g>
<g><path style="opacity:1" fill="#fefdfc" d="M 270.5,122.5 C 283.208,134.176 295.875,145.843 308.5,157.5C 295.167,157.5 281.833,157.5 268.5,157.5C 267.855,145.452 268.522,133.785 270.5,122.5 Z"/></g>
<g><path style="opacity:1" fill="#fefdfd" d="M 311.5,157.5 C 299.141,146.138 286.807,134.805 274.5,123.5C 288.323,122.504 302.323,122.171 316.5,122.5C 316.5,134.167 316.5,145.833 316.5,157.5C 314.833,157.5 313.167,157.5 311.5,157.5 Z"/></g>
<g><path style="opacity:1" fill="#fefefe" d="M 318.5,122.5 C 334.167,122.5 349.833,122.5 365.5,122.5C 365.5,134.167 365.5,145.833 365.5,157.5C 349.833,157.5 334.167,157.5 318.5,157.5C 318.5,145.833 318.5,134.167 318.5,122.5 Z"/></g>
<g><path style="opacity:1" fill="#fefefe" d="M 366.5,122.5 C 382.5,122.5 398.5,122.5 414.5,122.5C 414.5,134.167 414.5,145.833 414.5,157.5C 398.5,157.5 382.5,157.5 366.5,157.5C 366.5,145.833 366.5,134.167 366.5,122.5 Z"/></g>
<g><path style="opacity:1" fill="#fefefe" d="M 415.5,122.5 C 431.5,122.5 447.5,122.5 463.5,122.5C 463.5,134.167 463.5,145.833 463.5,157.5C 447.5,157.5 431.5,157.5 415.5,157.5C 415.5,145.833 415.5,134.167 415.5,122.5 Z"/></g>
<g><path style="opacity:1" fill="#959595" d="M 27.5,125.5 C 29.5,125.5 31.5,125.5 33.5,125.5C 32.4589,128.542 32.4589,131.542 33.5,134.5C 31.2075,134.244 29.0408,134.577 27,135.5C 25,134.5 25,133.5 27,132.5C 28.4936,133.747 29.9936,133.747 31.5,132.5C 28.8333,131.167 28.8333,129.833 31.5,128.5C 30.3112,127.571 28.9778,127.238 27.5,127.5C 26.4414,130.595 26.4414,129.928 27.5,125.5 Z"/></g>
<g><path style="opacity:1" fill="#969696" d="M 27.5,136.5 C 29.5,136.5 31.5,136.5 33.5,136.5C 33.9899,138.948 33.1566,140.615 31,141.5C 29.3468,141.18 28.3468,140.18 28,138.5C 27.6667,139.167 27.3333,139.833 27,140.5C 26.4209,139.072 26.5876,137.738 27.5,136.5 Z"/></g>
<g><path style="opacity:1" fill="#878787" d="M 26.5,142.5 C 28.2452,143.806 30.2452,144.806 32.5,145.5C 30.604,146.466 28.604,146.799 26.5,146.5C 26.5,145.167 26.5,143.833 26.5,142.5 Z"/></g>
<g><path style="opacity:1" fill="#969696" d="M 27.5,151.5 C 29.5,151.5 31.5,151.5 33.5,151.5C 33.533,154.836 32.8664,158.003 31.5,161C 29.4213,161.808 27.4213,161.641 25.5,160.5C 25.8076,159.692 26.3076,159.025 27,158.5C 28.4936,159.747 29.9936,159.747 31.5,158.5C 28.8333,157.167 28.8333,155.833 31.5,154.5C 30.3112,153.571 28.9778,153.238 27.5,153.5C 26.4414,156.595 26.4414,155.928 27.5,151.5 Z"/></g>
<g><path style="opacity:1" fill="#9a9a9a" d="M 48.5,153.5 C 52.3924,154.742 53.3924,157.242 51.5,161C 46.9167,161.934 45.4167,160.1 47,155.5C 47.7172,154.956 48.2172,154.289 48.5,153.5 Z"/></g>
<g><path style="opacity:1" fill="#fbfbfb" d="M 48.5,155.5 C 49.6491,155.791 50.3158,156.624 50.5,158C 50.1667,158.833 49.8333,159.667 49.5,160.5C 48.5481,158.955 48.2148,157.288 48.5,155.5 Z"/></g>
<g><path style="opacity:1" fill="#959595" d="M 56.5,154.5 C 57.5,154.5 58.5,154.5 59.5,154.5C 59.2436,156.792 59.5769,158.959 60.5,161C 59.1667,161.667 57.8333,161.667 56.5,161C 57.6053,158.88 57.6053,156.713 56.5,154.5 Z"/></g>
<g><path style="opacity:1" fill="#fefffe" d="M 73.5,158.5 C 89.1667,158.5 104.833,158.5 120.5,158.5C 120.5,170.167 120.5,181.833 120.5,193.5C 104.833,193.5 89.1667,193.5 73.5,193.5C 73.5,181.833 73.5,170.167 73.5,158.5 Z"/></g>
<g><path style="opacity:1" fill="#fefffe" d="M 122.5,158.5 C 138.167,158.5 153.833,158.5 169.5,158.5C 169.5,170.167 169.5,181.833 169.5,193.5C 153.833,193.5 138.167,193.5 122.5,193.5C 122.5,181.833 122.5,170.167 122.5,158.5 Z"/></g>
<g><path style="opacity:1" fill="#fdfefe" d="M 218.5,160.5 C 215.163,161.484 213.663,163.817 214,167.5C 204.296,176.706 194.463,185.706 184.5,194.5C 179.901,194.8 175.401,194.467 171,193.5C 170.5,181.838 170.333,170.171 170.5,158.5C 186.868,157.849 202.868,158.515 218.5,160.5 Z"/></g>
<g><path style="opacity:1" fill="#fefefe" d="M 226.5,158.5 C 240.167,158.5 253.833,158.5 267.5,158.5C 267.5,170.5 267.5,182.5 267.5,194.5C 251.5,194.5 235.5,194.5 219.5,194.5C 219.5,185.5 219.5,176.5 219.5,167.5C 221.067,166.319 221.901,164.653 222,162.5C 223.371,160.959 224.871,159.625 226.5,158.5 Z"/></g>
<g><path style="opacity:1" fill="#e8e8e7" d="M 266.5,121.5 C 268.099,121.232 269.432,121.566 270.5,122.5C 268.522,133.785 267.855,145.452 268.5,157.5C 281.833,157.5 295.167,157.5 308.5,157.5C 309.167,157.5 309.5,157.833 309.5,158.5C 295.833,158.5 282.167,158.5 268.5,158.5C 268.5,170.167 268.5,181.833 268.5,193.5C 284.5,193.5 300.5,193.5 316.5,193.5C 317.167,160.167 317.833,160.167 318.5,193.5C 328.167,193.5 337.833,193.5 347.5,193.5C 348.5,193.833 349.167,194.5 349.5,195.5C 339.167,195.5 328.833,195.5 318.5,195.5C 318.5,206.833 318.5,218.167 318.5,229.5C 334.167,229.5 349.833,229.5 365.5,229.5C 333.167,230.833 300.833,230.833 268.5,229.5C 268.167,229.5 267.833,229.5 267.5,229.5C 267.5,218.167 267.5,206.833 267.5,195.5C 251.5,195.5 235.5,195.5 219.5,195.5C 219.5,206.833 219.5,218.167 219.5,229.5C 219.167,229.5 218.833,229.5 218.5,229.5C 218.5,218.167 218.5,206.833 218.5,195.5C 207.833,195.5 197.167,195.5 186.5,195.5C 186.842,194.662 187.508,194.328 188.5,194.5C 198.5,194.5 208.5,194.5 218.5,194.5C 219.136,185.435 218.47,176.769 216.5,168.5C 217.209,167.596 218.209,167.263 219.5,167.5C 219.5,176.5 219.5,185.5 219.5,194.5C 235.5,194.5 251.5,194.5 267.5,194.5C 267.5,182.5 267.5,170.5 267.5,158.5C 253.833,158.5 240.167,158.5 226.5,158.5C 226.842,157.662 227.508,157.328 228.5,157.5C 241.5,157.5 254.5,157.5 267.5,157.5C 267.812,145.42 267.479,133.42 266.5,121.5 Z"/></g>
<g><path style="opacity:1" fill="#fefefe" d="M 309.5,158.5 C 312.661,160.398 314.327,163.232 314.5,167C 316.5,167.333 318.5,167.667 320.5,168C 329.698,176.367 338.698,184.867 347.5,193.5C 337.833,193.5 328.167,193.5 318.5,193.5C 317.833,160.167 317.167,160.167 316.5,193.5C 300.5,193.5 284.5,193.5 268.5,193.5C 268.5,181.833 268.5,170.167 268.5,158.5C 282.167,158.5 295.833,158.5 309.5,158.5 Z"/></g>
<g><path style="opacity:1" fill="#fefefd" d="M 313.5,159.5 C 330.659,158.503 347.992,158.17 365.5,158.5C 365.5,170.5 365.5,182.5 365.5,194.5C 361.167,194.5 356.833,194.5 352.5,194.5C 343.334,186.17 334.001,178.003 324.5,170C 321.644,167.526 319.644,164.526 318.5,161C 316.753,160.648 315.086,160.148 313.5,159.5 Z"/></g>
<g><path style="opacity:1" fill="#fefefe" d="M 366.5,158.5 C 382.5,158.5 398.5,158.5 414.5,158.5C 414.5,170.5 414.5,182.5 414.5,194.5C 398.83,194.667 383.163,194.5 367.5,194C 366.512,182.247 366.179,170.414 366.5,158.5 Z"/></g>
<g><path style="opacity:1" fill="#fefefe" d="M 415.5,158.5 C 431.5,158.5 447.5,158.5 463.5,158.5C 463.5,170.5 463.5,182.5 463.5,194.5C 447.5,194.5 431.5,194.5 415.5,194.5C 415.5,182.5 415.5,170.5 415.5,158.5 Z"/></g>
<g><path style="opacity:1" fill="#fcfdfd" d="M 216.5,168.5 C 218.47,176.769 219.136,185.435 218.5,194.5C 208.5,194.5 198.5,194.5 188.5,194.5C 197.506,185.494 206.84,176.827 216.5,168.5 Z"/></g>
<g><path style="opacity:1" fill="#919191" d="M 27.5,162.5 C 29.5,162.5 31.5,162.5 33.5,162.5C 33.162,165.011 33.162,167.345 33.5,169.5C 31.8508,170.148 30.5175,171.148 29.5,172.5C 30.376,173.251 31.376,173.751 32.5,174C 29.5184,174.498 26.5184,174.665 23.5,174.5C 23.0146,169.841 24.848,168.508 29,170.5C 29.7504,169.874 30.5838,169.374 31.5,169C 28.972,167.983 28.972,166.816 31.5,165.5C 30.3112,164.571 28.9778,164.238 27.5,164.5C 26.4414,167.595 26.4414,166.928 27.5,162.5 Z"/></g>
<g><path style="opacity:1" fill="#f5f5f5" d="M 25.5,171.5 C 27.337,171.639 27.6704,172.306 26.5,173.5C 25.7025,173.043 25.3691,172.376 25.5,171.5 Z"/></g>
<g><path style="opacity:1" fill="#70a6da" d="M 264.5,120.5 C 265.167,120.5 265.5,120.833 265.5,121.5C 253.167,133.5 240.833,145.5 228.5,157.5C 227.508,157.328 226.842,157.662 226.5,158.5C 224.871,159.625 223.371,160.959 222,162.5C 221.901,164.653 221.067,166.319 219.5,167.5C 218.209,167.263 217.209,167.596 216.5,168.5C 206.84,176.827 197.506,185.494 188.5,194.5C 187.508,194.328 186.842,194.662 186.5,195.5C 180.509,200.313 175.509,205.813 171.5,212C 166.174,211.389 160.841,211.723 155.5,213C 143.418,215.101 131.752,218.268 120.5,222.5C 118.261,222.426 117.261,221.259 117.5,219C 117.387,217.301 118.053,216.134 119.5,215.5C 120.5,215.5 121.5,215.5 122.5,215.5C 123.312,216.993 124.645,217.66 126.5,217.5C 138.824,214.838 151.157,212.171 163.5,209.5C 165.241,207.756 167.241,206.423 169.5,205.5C 170.496,205.414 171.329,205.748 172,206.5C 176.337,202.599 180.504,198.599 184.5,194.5C 194.463,185.706 204.296,176.706 214,167.5C 213.663,163.817 215.163,161.484 218.5,160.5C 221.249,161.489 223.249,160.489 224.5,157.5C 237.162,146.171 249.495,134.504 261.5,122.5C 262.167,122.5 262.5,122.167 262.5,121.5C 263.167,121.167 263.833,120.833 264.5,120.5 Z"/></g>
<g><path style="opacity:1" fill="#969696" d="M 42.5,190.5 C 44.8184,190.818 46.1517,192.152 46.5,194.5C 45.9495,198.024 44.1162,199.024 41,197.5C 40.1668,194.829 40.6668,192.496 42.5,190.5 Z"/></g>
<g><path style="opacity:1" fill="#f9f9f9" d="M 42.5,192.5 C 43.6491,192.791 44.3158,193.624 44.5,195C 44.1667,195.833 43.8333,196.667 43.5,197.5C 42.5481,195.955 42.2148,194.288 42.5,192.5 Z"/></g>
<g><path style="opacity:1" fill="#949494" d="M 53.5,197.5 C 51.4318,198.033 49.4318,198.033 47.5,197.5C 48.855,195.014 50.355,192.681 52,190.5C 55.8625,192.269 56.3625,194.603 53.5,197.5 Z"/></g>
<g><path style="opacity:1" fill="#eeeeee" d="M 53.5,197.5 C 50.0437,196.464 49.7104,194.797 52.5,192.5C 53.4519,194.045 53.7852,195.712 53.5,197.5 Z"/></g>
<g><path style="opacity:1" fill="#959595" d="M 59.5,197.5 C 59.5,196.5 59.5,195.5 59.5,194.5C 58.5,194.5 57.5,194.5 56.5,194.5C 56.5,193.167 56.5,191.833 56.5,190.5C 57.9778,190.238 59.3112,190.571 60.5,191.5C 59.9747,192.192 59.3081,192.692 58.5,193C 61.7787,194.268 62.1121,195.768 59.5,197.5 Z"/></g>
<g><path style="opacity:1" fill="#fdfefe" d="M 73.5,195.5 C 89.1667,195.5 104.833,195.5 120.5,195.5C 120.793,202.255 120.46,208.922 119.5,215.5C 118.053,216.134 117.387,217.301 117.5,219C 117.261,221.259 118.261,222.426 120.5,222.5C 131.752,218.268 143.418,215.101 155.5,213C 160.841,211.723 166.174,211.389 171.5,212C 175.509,205.813 180.509,200.313 186.5,195.5C 197.167,195.5 207.833,195.5 218.5,195.5C 218.5,206.833 218.5,218.167 218.5,229.5C 170.476,230.155 122.143,230.489 73.5,230.5C 73.5,218.833 73.5,207.167 73.5,195.5 Z"/></g>
<g><path style="opacity:1" fill="#fdfefe" d="M 169.5,205.5 C 167.241,206.423 165.241,207.756 163.5,209.5C 151.157,212.171 138.824,214.838 126.5,217.5C 124.645,217.66 123.312,216.993 122.5,215.5C 122.5,208.833 122.5,202.167 122.5,195.5C 138.167,195.5 153.833,195.5 169.5,195.5C 169.5,198.833 169.5,202.167 169.5,205.5 Z"/></g>
<g><path style="opacity:1" fill="#fefefe" d="M 267.5,229.5 C 251.5,230.833 235.5,230.833 219.5,229.5C 219.5,218.167 219.5,206.833 219.5,195.5C 235.5,195.5 251.5,195.5 267.5,195.5C 267.5,206.833 267.5,218.167 267.5,229.5 Z"/></g>
<g><path style="opacity:1" fill="#fefffe" d="M 268.5,229.5 C 268.5,218.167 268.5,206.833 268.5,195.5C 284.5,195.5 300.5,195.5 316.5,195.5C 316.5,206.833 316.5,218.167 316.5,229.5C 300.5,229.5 284.5,229.5 268.5,229.5 Z"/></g>
<g><path style="opacity:1" fill="#fefefd" d="M 349.5,195.5 C 354.259,198.753 358.592,202.587 362.5,207C 361.978,207.561 361.645,208.228 361.5,209C 363.445,212.984 366.112,213.484 369.5,210.5C 382.394,213.761 395.394,216.594 408.5,219C 410.405,220.421 412.405,221.588 414.5,222.5C 414.5,225.167 414.5,227.833 414.5,230.5C 398.089,230.818 381.756,230.484 365.5,229.5C 349.833,229.5 334.167,229.5 318.5,229.5C 318.5,218.167 318.5,206.833 318.5,195.5C 328.833,195.5 339.167,195.5 349.5,195.5 Z"/></g>
<g><path style="opacity:1" fill="#fefdfc" d="M 412.5,215.5 C 411.601,216.472 410.434,217.138 409,217.5C 395.813,214.796 382.646,211.962 369.5,209C 368.837,207.482 367.837,206.315 366.5,205.5C 366.5,202.167 366.5,198.833 366.5,195.5C 382.5,195.5 398.5,195.5 414.5,195.5C 415.066,202.451 414.399,209.118 412.5,215.5 Z"/></g>
<g><path style="opacity:1" fill="#fefefe" d="M 415.5,229.5 C 415.5,227.167 415.5,224.833 415.5,222.5C 418.053,220.038 418.053,217.705 415.5,215.5C 415.5,208.833 415.5,202.167 415.5,195.5C 431.5,195.5 447.5,195.5 463.5,195.5C 463.5,206.833 463.5,218.167 463.5,229.5C 447.5,229.5 431.5,229.5 415.5,229.5 Z"/></g>
<g><path style="opacity:1" fill="#898989" d="M 59.5,197.5 C 58.6136,198.776 57.6136,198.776 56.5,197.5C 57.2334,196.913 58.2334,196.913 59.5,197.5 Z"/></g>
<g><path style="opacity:1" fill="#979797" d="M 57.5,226.5 C 59.1238,226.36 60.2904,227.027 61,228.5C 62.2744,234.248 60.6077,235.582 56,232.5C 55.2516,230.16 55.7516,228.16 57.5,226.5 Z"/></g>
<g><path style="opacity:1" fill="#fafafa" d="M 57.5,228.5 C 58.6491,228.791 59.3158,229.624 59.5,231C 59.1667,231.833 58.8333,232.667 58.5,233.5C 57.5481,231.955 57.2148,230.288 57.5,228.5 Z"/></g>
<g><path style="opacity:1" fill="#d4d4d4" d="M 73.5,48.5 C 73.5,48.8333 73.5,49.1667 73.5,49.5C 73.5,61.1667 73.5,72.8333 73.5,84.5C 73.5,84.8333 73.5,85.1667 73.5,85.5C 73.5,97.1667 73.5,108.833 73.5,120.5C 73.5,121.167 73.5,121.833 73.5,122.5C 73.5,134.167 73.5,145.833 73.5,157.5C 73.5,157.833 73.5,158.167 73.5,158.5C 73.5,170.167 73.5,181.833 73.5,193.5C 73.5,194.167 73.5,194.833 73.5,195.5C 73.5,207.167 73.5,218.833 73.5,230.5C 122.143,230.489 170.476,230.155 218.5,229.5C 218.833,229.5 219.167,229.5 219.5,229.5C 235.5,230.833 251.5,230.833 267.5,229.5C 267.833,229.5 268.167,229.5 268.5,229.5C 300.833,230.833 333.167,230.833 365.5,229.5C 381.756,230.484 398.089,230.818 414.5,230.5C 414.5,227.833 414.5,225.167 414.5,222.5C 414.833,222.5 415.167,222.5 415.5,222.5C 415.5,224.833 415.5,227.167 415.5,229.5C 431.5,230.167 447.5,230.833 463.5,231.5C 333.167,231.5 202.833,231.5 72.5,231.5C 72.1676,170.331 72.5009,109.331 73.5,48.5 Z"/></g>
<g><path style="opacity:1" fill="#969696" d="M 71.5,249.5 C 68.6375,246.603 69.1375,244.269 73,242.5C 73.772,242.645 74.4387,242.978 75,243.5C 75.6667,245.5 75.6667,247.5 75,249.5C 73.7083,250.791 72.5417,250.791 71.5,249.5 Z"/></g>
<g><path style="opacity:1" fill="#979797" d="M 214.5,242.5 C 215.822,242.33 216.989,242.663 218,243.5C 218.667,245.5 218.667,247.5 218,249.5C 217.228,248.151 216.061,247.318 214.5,247C 215.672,246.581 216.672,245.915 217.5,245C 215.881,244.764 214.881,243.931 214.5,242.5 Z"/></g>
<g><path style="opacity:1" fill="#8c8c8c" d="M 409.5,244.5 C 411.035,243.212 412.701,243.212 414.5,244.5C 413.586,246.664 412.419,248.664 411,250.5C 410.86,248.744 411.36,247.078 412.5,245.5C 411.675,244.614 410.675,244.281 409.5,244.5 Z"/></g>
<g><path style="opacity:1" fill="#e8e8e8" d="M 71.5,249.5 C 71.5,247.833 71.5,246.167 71.5,244.5C 72.5,244.5 73.5,244.5 74.5,244.5C 75.0838,247.285 74.0838,248.952 71.5,249.5 Z"/></g>
<g><path style="opacity:1" fill="#7c7c7c" d="M 117.5,244.5 C 117.56,243.957 117.893,243.624 118.5,243.5C 119.221,245.686 119.887,247.853 120.5,250C 119.167,250.667 117.833,250.667 116.5,250C 118.632,248.38 118.965,246.546 117.5,244.5 Z"/></g>
<g><path style="opacity:1" fill="#8c8c8c" d="M 165.5,242.5 C 169.919,243.323 170.586,245.49 167.5,249C 168.167,249.333 168.833,249.667 169.5,250C 168.056,250.781 166.723,250.614 165.5,249.5C 166.5,248.167 167.5,246.833 168.5,245.5C 167.007,244.859 166.007,243.859 165.5,242.5 Z"/></g>
<g><path style="opacity:1" fill="#9f9f9f" d="M 264.5,243.5 C 265.5,243.5 266.5,243.5 267.5,243.5C 267.808,245.924 267.474,248.257 266.5,250.5C 265.264,249.754 263.93,249.421 262.5,249.5C 262.704,247.315 263.37,245.315 264.5,243.5 Z"/></g>
<g><path style="opacity:1" fill="#979797" d="M 319.5,242.5 C 321.818,242.818 323.152,244.152 323.5,246.5C 322.95,250.024 321.116,251.024 318,249.5C 317.167,246.829 317.667,244.496 319.5,242.5 Z"/></g>
<g><path style="opacity:1" fill="#fbfbfb" d="M 319.5,244.5 C 320.649,244.791 321.316,245.624 321.5,247C 321.167,247.833 320.833,248.667 320.5,249.5C 319.548,247.955 319.215,246.288 319.5,244.5 Z"/></g>
<g><path style="opacity:1" fill="#8c8c8c" d="M 364.5,249.5 C 363.458,250.791 362.292,250.791 361,249.5C 359.577,244.786 361.077,242.786 365.5,243.5C 361.689,244.738 361.689,245.404 365.5,245.5C 365.768,247.099 365.434,248.432 364.5,249.5 Z"/></g>
<g><path style="opacity:1" fill="#979797" d="M 368.5,242.5 C 370.818,242.818 372.152,244.152 372.5,246.5C 371.95,250.024 370.116,251.024 367,249.5C 366.167,246.829 366.667,244.496 368.5,242.5 Z"/></g>
<g><path style="opacity:1" fill="#fafafa" d="M 368.5,244.5 C 369.649,244.791 370.316,245.624 370.5,247C 370.167,247.833 369.833,248.667 369.5,249.5C 368.548,247.955 368.215,246.288 368.5,244.5 Z"/></g>
<g><path style="opacity:1" fill="#8b8b8b" d="M 269.5,243.5 C 274.328,243.385 275.661,245.552 273.5,250C 272.207,250.49 270.873,250.657 269.5,250.5C 269.5,248.167 269.5,245.833 269.5,243.5 Z"/></g>
<g><path style="opacity:1" fill="#f9f9f9" d="M 270.5,244.5 C 271.649,244.791 272.316,245.624 272.5,247C 272.167,247.833 271.833,248.667 271.5,249.5C 270.548,247.955 270.215,246.288 270.5,244.5 Z"/></g>
<g><path style="opacity:1" fill="#e5e5e5" d="M 364.5,249.5 C 360.69,248.246 360.69,247.246 364.5,246.5C 364.5,247.5 364.5,248.5 364.5,249.5 Z"/></g>
<g><path style="opacity:1" fill="#8e8e8e" d="M 419.5,249.5 C 418.458,250.791 417.292,250.791 416,249.5C 414.488,244.344 416.154,242.677 421,244.5C 421.877,246.674 421.377,248.341 419.5,249.5 Z"/></g>
<g><path style="opacity:1" fill="#ededed" d="M 419.5,249.5 C 416.044,248.464 415.71,246.797 418.5,244.5C 419.452,246.045 419.785,247.712 419.5,249.5 Z"/></g>
<g><path style="opacity:1" fill="#a3a3a3" d="M 459.5,242.5 C 461.346,242.222 462.68,242.889 463.5,244.5C 463.054,246.368 462.721,248.201 462.5,250C 460.359,250.884 458.693,250.384 457.5,248.5C 458.172,246.47 458.838,244.47 459.5,242.5 Z"/></g>
<g><path style="opacity:1" fill="#878787" d="M 123.5,244.5 C 124.077,242.348 125.244,242.015 127,243.5C 127.758,245.769 127.591,247.936 126.5,250C 125.216,250.684 124.049,250.517 123,249.5C 122.22,247.613 122.387,245.946 123.5,244.5 Z"/></g>
<g><path style="opacity:1" fill="#f2f2f2" d="M 123.5,244.5 C 124.5,244.5 125.5,244.5 126.5,244.5C 125.5,251.167 124.5,251.167 123.5,244.5 Z"/></g>
<g><path style="opacity:1" fill="#878787" d="M 172.5,249.5 C 171.378,247.712 171.211,245.712 172,243.5C 173.333,242.167 174.667,242.167 176,243.5C 176.667,245.5 176.667,247.5 176,249.5C 174.708,250.791 173.542,250.791 172.5,249.5 Z"/></g>
<g><path style="opacity:1" fill="#eeeeee" d="M 172.5,249.5 C 172.5,247.833 172.5,246.167 172.5,244.5C 173.5,244.5 174.5,244.5 175.5,244.5C 176.084,247.285 175.084,248.952 172.5,249.5 Z"/></g>
<g><path style="opacity:1" fill="#8c8c8c" d="M 221.5,249.5 C 220.378,247.712 220.211,245.712 221,243.5C 222.714,242.075 224.047,242.408 225,244.5C 225.667,246.167 225.667,247.833 225,249.5C 223.708,250.791 222.542,250.791 221.5,249.5 Z"/></g>
<g><path style="opacity:1" fill="#f1f1f1" d="M 221.5,249.5 C 221.215,247.712 221.548,246.045 222.5,244.5C 225.29,246.797 224.956,248.464 221.5,249.5 Z"/></g>
<g><path style="opacity:1" fill="#8f8f8f" d="M 311.5,243.5 C 312.873,243.343 314.207,243.51 315.5,244C 314.833,244.333 314.167,244.667 313.5,245C 316.346,245.879 317.013,247.546 315.5,250C 314.056,250.781 312.723,250.614 311.5,249.5C 311.938,248.494 312.604,248.494 313.5,249.5C 314.386,248.675 314.719,247.675 314.5,246.5C 313.5,246.5 312.5,246.5 311.5,246.5C 311.5,245.5 311.5,244.5 311.5,243.5 Z"/></g>
<g><path style="opacity:1" fill="#858585" d="M 464.5,243.5 C 466.167,243.5 467.833,243.5 469.5,243.5C 469.662,245.527 469.495,247.527 469,249.5C 467.667,250.833 466.333,250.833 465,249.5C 464.505,247.527 464.338,245.527 464.5,243.5 Z"/></g>
<g><path style="opacity:1" fill="#e8e8e8" d="M 465.5,244.5 C 466.5,244.5 467.5,244.5 468.5,244.5C 467.5,251.167 466.5,251.167 465.5,244.5 Z"/></g>
<g><path style="opacity:1" fill="#898989" d="M 269.5,262.5 C 273.127,263.47 273.461,265.137 270.5,267.5C 270.818,268.647 271.484,269.481 272.5,270C 271.552,270.483 270.552,270.649 269.5,270.5C 269.043,267.691 269.043,265.024 269.5,262.5 Z"/></g>
<g><path style="opacity:1" fill="#8e8e8e" d="M 293.5,260.5 C 296.952,264.138 297.285,268.138 294.5,272.5C 294.767,268.629 294.434,264.629 293.5,260.5 Z"/></g>
<g><path style="opacity:1" fill="#838383" d="M 245.5,266.5 C 244.5,266.5 243.5,266.5 242.5,266.5C 242.5,267.5 242.5,268.5 242.5,269.5C 243.5,269.5 244.5,269.5 245.5,269.5C 244.081,270.451 242.415,270.784 240.5,270.5C 240.5,267.5 240.5,264.5 240.5,261.5C 242.288,261.215 243.955,261.548 245.5,262.5C 244.384,262.402 243.384,262.902 242.5,264C 243.01,265.826 243.844,265.993 245,264.5C 245.464,265.094 245.631,265.761 245.5,266.5 Z"/></g>
<g><path style="opacity:1" fill="#8c8c8c" d="M 280.5,261.5 C 282.167,261.5 283.833,261.5 285.5,261.5C 285.75,264.214 285.917,266.881 286,269.5C 284.301,270.406 282.467,270.739 280.5,270.5C 280.5,267.5 280.5,264.5 280.5,261.5 Z"/></g>
<g><path style="opacity:1" fill="#ececec" d="M 245.5,266.5 C 245.5,267.5 245.5,268.5 245.5,269.5C 244.5,269.5 243.5,269.5 242.5,269.5C 242.5,268.5 242.5,267.5 242.5,266.5C 243.5,266.5 244.5,266.5 245.5,266.5 Z"/></g>
<g><path style="opacity:1" fill="#f3f3f3" d="M 282.5,266.5 C 285.674,266.952 286.007,267.952 283.5,269.5C 282.614,268.675 282.281,267.675 282.5,266.5 Z"/></g>
<g><path style="opacity:1" fill="#9b9b9b" d="M 287.5,261.5 C 289.369,263.635 290.036,266.302 289.5,269.5C 290.552,269.351 291.552,269.517 292.5,270C 290.866,270.494 289.199,270.66 287.5,270.5C 287.5,267.5 287.5,264.5 287.5,261.5 Z"/></g>
<g><path style="opacity:1" fill="#979797" d="M 245.5,269.5 C 245.5,268.5 245.5,267.5 245.5,266.5C 247.436,265.741 249.269,264.741 251,263.5C 252.261,263.759 253.261,264.426 254,265.5C 254.672,259.771 255.672,259.437 257,264.5C 259.09,263.209 260.424,263.876 261,266.5C 265.768,261.978 267.768,262.978 267,269.5C 264.733,270.935 262.733,270.602 261,268.5C 258.602,271.054 256.269,271.054 254,268.5C 253.196,269.804 252.029,270.471 250.5,270.5C 248.865,269.954 247.199,269.62 245.5,269.5 Z"/></g>
<g><path style="opacity:1" fill="#f7f7f7" d="M 263.5,265.5 C 264.5,265.5 265.5,265.5 266.5,265.5C 266.778,267.346 266.111,268.68 264.5,269.5C 263.571,268.311 263.238,266.978 263.5,265.5 Z"/></g>
<g><path style="opacity:1" fill="#f7f7f7" d="M 256.5,265.5 C 257.5,265.5 258.5,265.5 259.5,265.5C 258.5,270.833 257.5,270.833 256.5,265.5 Z"/></g>
<g><path style="opacity:1" fill="#f6f6f6" d="M 249.5,265.5 C 250.5,265.5 251.5,265.5 252.5,265.5C 252.778,267.346 252.111,268.68 250.5,269.5C 249.571,268.311 249.238,266.978 249.5,265.5 Z"/></g>
<g><path style="opacity:1" fill="#8e8e8e" d="M 277.5,261.5 C 278.643,264.976 278.81,268.642 278,272.5C 276.253,268.875 276.086,265.208 277.5,261.5 Z"/></g>
</svg>
