<?xml version="1.0" encoding="UTF-8"?>
<!DOCTYPE svg PUBLIC "-//W3C//DTD SVG 1.1//EN" "http://www.w3.org/Graphics/SVG/1.1/DTD/svg11.dtd">
<svg xmlns="http://www.w3.org/2000/svg" version="1.1" width="498px" height="297px" style="shape-rendering:geometricPrecision; text-rendering:geometricPrecision; image-rendering:optimizeQuality; fill-rule:evenodd; clip-rule:evenodd" xmlns:xlink="http://www.w3.org/1999/xlink">
<g><path style="opacity:1" fill="#fdfdfd" d="M -0.5,-0.5 C 165.5,-0.5 331.5,-0.5 497.5,-0.5C 497.5,98.5 497.5,197.5 497.5,296.5C 331.5,296.5 165.5,296.5 -0.5,296.5C -0.5,197.5 -0.5,98.5 -0.5,-0.5 Z"/></g>
<g><path style="opacity:1" fill="#e5e5e5" d="M 493.5,290.5 C 492.833,290.5 492.5,290.167 492.5,289.5C 492.5,194.5 492.5,99.5 492.5,4.5C 329.833,4.5 167.167,4.5 4.5,4.5C 4.5,99.5 4.5,194.5 4.5,289.5C 4.5,290.167 4.16667,290.5 3.5,290.5C 3.5,194.833 3.5,99.1667 3.5,3.5C 166.833,3.5 330.167,3.5 493.5,3.5C 493.5,99.1667 493.5,194.833 493.5,290.5 Z"/></g>
<g><path style="opacity:1" fill="#fefefe" d="M 492.5,289.5 C 329.833,289.5 167.167,289.5 4.5,289.5C 4.5,194.5 4.5,99.5 4.5,4.5C 167.167,4.5 329.833,4.5 492.5,4.5C 492.5,99.5 492.5,194.5 492.5,289.5 Z"/></g>
<g><path style="opacity:1" fill="#999999" d="M 210.5,19.5 C 213.777,19.2161 216.943,19.5495 220,20.5C 220.667,22.1667 220.667,23.8333 220,25.5C 218.65,18.9724 217.483,18.9724 216.5,25.5C 215.702,23.9223 215.202,22.2556 215,20.5C 214.5,22.3333 213.333,23.5 211.5,24C 212.448,24.4828 213.448,24.6495 214.5,24.5C 214.5,25.5 214.5,26.5 214.5,27.5C 210.107,27.5432 209.774,27.0432 213.5,26C 212.552,25.5172 211.552,25.3505 210.5,25.5C 210.5,23.5 210.5,21.5 210.5,19.5 Z"/></g>
<g><path style="opacity:1" fill="#787878" d="M 243.5,18.5 C 244.289,18.7828 244.956,19.2828 245.5,20C 244.721,21.9942 244.387,23.8276 244.5,25.5C 243.203,23.0819 242.87,20.7486 243.5,18.5 Z"/></g>
<g><path style="opacity:1" fill="#8e8e8e" d="M 295.5,19.5 C 299.35,19.7007 300.35,21.5341 298.5,25C 294.537,25.1177 293.537,23.2843 295.5,19.5 Z"/></g>
<g><path style="opacity:1" fill="#b6b6b6" d="M 204.5,17.5 C 205.833,17.5 207.167,17.5 208.5,17.5C 208.5,20.1667 208.5,22.8333 208.5,25.5C 207.167,25.5 205.833,25.5 204.5,25.5C 204.5,22.8333 204.5,20.1667 204.5,17.5 Z"/></g>
<g><path style="opacity:1" fill="#999999" d="M 236.5,19.5 C 241.068,19.0826 242.568,21.0826 241,25.5C 240.091,20.2702 238.925,20.2702 237.5,25.5C 236.534,23.604 236.201,21.604 236.5,19.5 Z"/></g>
<g><path style="opacity:1" fill="#989898" d="M 321.5,20.5 C 323.945,20.4354 326.611,20.2687 329.5,20C 330.576,21.7261 330.743,23.5594 330,25.5C 328.65,18.9724 327.483,18.9724 326.5,25.5C 324.979,25.1203 323.313,24.9536 321.5,25C 324.133,23.3111 324.133,21.8111 321.5,20.5 Z"/></g>
<g><path style="opacity:1" fill="#72a8da" d="M 180.5,19.5 C 185.38,20.8262 190.38,21.6595 195.5,22C 191.183,22.9679 186.849,24.1346 182.5,25.5C 178.35,24.042 174.017,23.042 169.5,22.5C 172.785,21.6764 176.118,21.1764 179.5,21C 180.056,20.6174 180.389,20.1174 180.5,19.5 Z"/></g>
<g><path style="opacity:1" fill="#9f9f9f" d="M 222.5,19.5 C 226.105,19.8633 229.605,19.8633 233,19.5C 235.02,20.0319 235.853,21.3652 235.5,23.5C 232.402,23.4125 232.068,23.9125 234.5,25C 232.687,24.9536 231.021,25.1203 229.5,25.5C 228.517,18.9724 227.35,18.9724 226,25.5C 225.328,19.7707 224.328,19.4374 223,24.5C 222.506,22.8659 222.34,21.1992 222.5,19.5 Z"/></g>
<g><path style="opacity:1" fill="#f19d65" d="M 269.5,21.5 C 269.5,22.1667 269.5,22.8333 269.5,23.5C 256.167,22.8333 256.167,22.1667 269.5,21.5 Z"/></g>
<g><path style="opacity:1" fill="#ee823a" d="M 275.5,21.5 C 275.5,22.1667 275.5,22.8333 275.5,23.5C 273.551,26.1471 271.551,26.1471 269.5,23.5C 269.5,22.8333 269.5,22.1667 269.5,21.5C 271.551,18.8529 273.551,18.8529 275.5,21.5 Z"/></g>
<g><path style="opacity:1" fill="#f19d64" d="M 275.5,21.5 C 288.833,22.1667 288.833,22.8333 275.5,23.5C 275.5,22.8333 275.5,22.1667 275.5,21.5 Z"/></g>
<g><path style="opacity:1" fill="#ededed" d="M 296.5,20.5 C 298.852,21.5426 299.019,22.8759 297,24.5C 295.232,23.3181 295.065,21.9848 296.5,20.5 Z"/></g>
<g><path style="opacity:1" fill="#9d9d9d" d="M 304.5,20.5 C 303.001,21.6782 302.001,23.3449 301.5,25.5C 300.167,22.8333 300.167,20.1667 301.5,17.5C 302.548,18.548 303.548,19.548 304.5,20.5 Z"/></g>
<g><path style="opacity:1" fill="#929292" d="M 199.5,18.5 C 200.496,18.4142 201.329,18.7476 202,19.5C 202.991,21.4473 203.325,23.4473 203,25.5C 201.451,22.9974 199.784,22.9974 198,25.5C 197.761,23.0405 198.261,20.7072 199.5,18.5 Z"/></g>
<g><path style="opacity:1" fill="#939393" d="M 289.5,17.5 C 294.367,18.1676 294.534,19.1676 290,20.5C 289.135,22.8878 289.968,24.3878 292.5,25C 289.77,25.9415 288.437,24.9415 288.5,22C 288.773,20.4672 289.106,18.9672 289.5,17.5 Z"/></g>
<g><path style="opacity:1" fill="#a9a9a9" d="M 304.5,20.5 C 306.571,19.7797 308.905,19.7797 311.5,20.5C 313.774,20.0298 315.774,19.0298 317.5,17.5C 318.833,20.1667 318.833,22.8333 317.5,25.5C 315.979,25.1203 314.313,24.9536 312.5,25C 315.028,24.3311 315.028,23.4978 312.5,22.5C 311.205,23.0983 309.872,23.5983 308.5,24C 309.5,24.3333 310.5,24.6667 311.5,25C 309.343,25.0781 307.343,25.2448 305.5,25.5C 304.548,23.9547 304.215,22.288 304.5,20.5 Z"/></g>
<g><path style="opacity:1" fill="#999999" d="M 41.5,42.5 C 43.8184,42.8184 45.1517,44.1517 45.5,46.5C 44.8754,49.9865 43.0421,50.9865 40,49.5C 39.1668,46.829 39.6668,44.4957 41.5,42.5 Z"/></g>
<g><path style="opacity:1" fill="#fdfdfd" d="M 41.5,44.5 C 42.5862,44.62 43.2528,45.2867 43.5,46.5C 43.1667,47.1667 42.8333,47.8333 42.5,48.5C 41.5713,47.3112 41.238,45.9778 41.5,44.5 Z"/></g>
<g><path style="opacity:1" fill="#ededed" d="M 70.5,47.5 C 204.833,46.1667 339.167,46.1667 473.5,47.5C 472.833,47.5 472.5,47.8333 472.5,48.5C 453.833,48.5 435.167,48.5 416.5,48.5C 416.5,60.1667 416.5,71.8333 416.5,83.5C 415.853,71.2629 415.186,59.5962 414.5,48.5C 396.167,48.5 377.833,48.5 359.5,48.5C 359.5,60.1667 359.5,71.8333 359.5,83.5C 358.833,83.5 358.167,83.5 357.5,83.5C 357.5,71.8333 357.5,60.1667 357.5,48.5C 338.833,48.5 320.167,48.5 301.5,48.5C 300.814,59.5962 300.147,71.2629 299.5,83.5C 299.5,71.8333 299.5,60.1667 299.5,48.5C 280.833,48.5 262.167,48.5 243.5,48.5C 243.167,47.1667 242.833,47.1667 242.5,48.5C 223.833,48.5 205.167,48.5 186.5,48.5C 186.167,47.1667 185.833,47.1667 185.5,48.5C 166.833,48.5 148.167,48.5 129.5,48.5C 129.5,60.1667 129.5,71.8333 129.5,83.5C 128.833,83.5 128.167,83.5 127.5,83.5C 127.5,71.8333 127.5,60.1667 127.5,48.5C 108.833,48.5 90.1667,48.5 71.5,48.5C 71.5,47.8333 71.1667,47.5 70.5,47.5 Z"/></g>
<g><path style="opacity:1" fill="#e6e6e6" d="M 186.5,48.5 C 186.5,60.1667 186.5,71.8333 186.5,83.5C 205.167,83.5 223.833,83.5 242.5,83.5C 242.5,71.8333 242.5,60.1667 242.5,48.5C 242.833,47.1667 243.167,47.1667 243.5,48.5C 243.5,60.1667 243.5,71.8333 243.5,83.5C 262.167,83.5 280.833,83.5 299.5,83.5C 300.147,71.2629 300.814,59.5962 301.5,48.5C 301.5,60.1667 301.5,71.8333 301.5,83.5C 320.167,83.5 338.833,83.5 357.5,83.5C 358.167,83.5 358.833,83.5 359.5,83.5C 377.833,83.5 396.167,83.5 414.5,83.5C 414.5,71.8333 414.5,60.1667 414.5,48.5C 415.186,59.5962 415.853,71.2629 416.5,83.5C 435.167,83.5 453.833,83.5 472.5,83.5C 472.5,71.8333 472.5,60.1667 472.5,48.5C 472.5,47.8333 472.833,47.5 473.5,47.5C 473.832,109.669 473.499,171.669 472.5,233.5C 472.5,233.167 472.5,232.833 472.5,232.5C 472.5,220.5 472.5,208.5 472.5,196.5C 453.5,196.5 434.5,196.5 415.5,196.5C 415.214,202.259 415.548,207.925 416.5,213.5C 415.5,213.5 414.5,213.5 413.5,213.5C 414.452,207.925 414.786,202.259 414.5,196.5C 405.651,196.174 396.984,196.507 388.5,197.5C 387.128,196.488 385.795,195.488 384.5,194.5C 394.5,194.5 404.5,194.5 414.5,194.5C 414.5,182.833 414.5,171.167 414.5,159.5C 395.833,159.5 377.167,159.5 358.5,159.5C 358.167,178.167 357.833,178.167 357.5,159.5C 348.318,159.173 339.318,159.507 330.5,160.5C 329.29,160.068 328.29,159.401 327.5,158.5C 337.5,158.5 347.5,158.5 357.5,158.5C 358.167,158.5 358.833,158.5 359.5,158.5C 377.833,158.5 396.167,158.5 414.5,158.5C 414.5,146.5 414.5,134.5 414.5,122.5C 414.5,121.833 414.5,121.167 414.5,120.5C 414.782,115.073 414.449,109.74 413.5,104.5C 414.5,104.5 415.5,104.5 416.5,104.5C 416.5,109.833 416.5,115.167 416.5,120.5C 435.167,120.5 453.833,120.5 472.5,120.5C 472.5,108.5 472.5,96.5 472.5,84.5C 453.5,84.5 434.5,84.5 415.5,84.5C 415.5,89.1667 415.5,93.8333 415.5,98.5C 415.167,98.5 414.833,98.5 414.5,98.5C 414.5,93.8333 414.5,89.1667 414.5,84.5C 395.833,84.5 377.167,84.5 358.5,84.5C 358.433,85.9587 358.766,87.2921 359.5,88.5C 358.833,88.5 358.167,88.5 357.5,88.5C 357.5,87.1667 357.5,85.8333 357.5,84.5C 338.833,84.5 320.167,84.5 301.5,84.5C 301.5,86.1667 301.5,87.8333 301.5,89.5C 300.5,89.5 299.5,89.5 298.5,89.5C 299.968,88.2209 300.635,86.5542 300.5,84.5C 281.5,84.5 262.5,84.5 243.5,84.5C 243.366,86.2915 243.699,87.9582 244.5,89.5C 243.5,89.5 242.5,89.5 241.5,89.5C 242.301,87.9582 242.634,86.2915 242.5,84.5C 223.833,84.5 205.167,84.5 186.5,84.5C 186.5,85.8333 186.5,87.1667 186.5,88.5C 185.833,88.5 185.167,88.5 184.5,88.5C 185.234,87.2921 185.567,85.9587 185.5,84.5C 166.833,84.5 148.167,84.5 129.5,84.5C 129.5,89.1667 129.5,93.8333 129.5,98.5C 128.833,98.5 128.167,98.5 127.5,98.5C 127.5,93.8333 127.5,89.1667 127.5,84.5C 108.833,84.5 90.1667,84.5 71.5,84.5C 71.5,84.1667 71.5,83.8333 71.5,83.5C 90.1667,83.5 108.833,83.5 127.5,83.5C 128.167,83.5 128.833,83.5 129.5,83.5C 148.167,83.5 166.833,83.5 185.5,83.5C 185.5,71.8333 185.5,60.1667 185.5,48.5C 185.833,47.1667 186.167,47.1667 186.5,48.5 Z"/></g>
<g><path style="opacity:1" fill="#a0a0a0" d="M 55.5,42.5 C 59.9707,42.6724 60.3041,43.5057 56.5,45C 60.464,47.005 60.464,48.8383 56.5,50.5C 55.8333,50.1667 55.1667,49.8333 54.5,49.5C 58.3354,48.0035 58.3354,47.0035 54.5,46.5C 54.4326,45.0413 54.7659,43.7079 55.5,42.5 Z"/></g>
<g><path style="opacity:1" fill="#fefffe" d="M 71.5,48.5 C 90.1667,48.5 108.833,48.5 127.5,48.5C 127.5,60.1667 127.5,71.8333 127.5,83.5C 108.833,83.5 90.1667,83.5 71.5,83.5C 71.5,71.8333 71.5,60.1667 71.5,48.5 Z"/></g>
<g><path style="opacity:1" fill="#fefffe" d="M 185.5,48.5 C 185.5,60.1667 185.5,71.8333 185.5,83.5C 166.833,83.5 148.167,83.5 129.5,83.5C 129.5,71.8333 129.5,60.1667 129.5,48.5C 148.167,48.5 166.833,48.5 185.5,48.5 Z"/></g>
<g><path style="opacity:1" fill="#fefefe" d="M 186.5,48.5 C 205.167,48.5 223.833,48.5 242.5,48.5C 242.5,60.1667 242.5,71.8333 242.5,83.5C 223.833,83.5 205.167,83.5 186.5,83.5C 186.5,71.8333 186.5,60.1667 186.5,48.5 Z"/></g>
<g><path style="opacity:1" fill="#fefefe" d="M 243.5,48.5 C 262.167,48.5 280.833,48.5 299.5,48.5C 299.5,60.1667 299.5,71.8333 299.5,83.5C 280.833,83.5 262.167,83.5 243.5,83.5C 243.5,71.8333 243.5,60.1667 243.5,48.5 Z"/></g>
<g><path style="opacity:1" fill="#fefffe" d="M 301.5,48.5 C 320.167,48.5 338.833,48.5 357.5,48.5C 357.5,60.1667 357.5,71.8333 357.5,83.5C 338.833,83.5 320.167,83.5 301.5,83.5C 301.5,71.8333 301.5,60.1667 301.5,48.5 Z"/></g>
<g><path style="opacity:1" fill="#fefffe" d="M 414.5,48.5 C 414.5,60.1667 414.5,71.8333 414.5,83.5C 396.167,83.5 377.833,83.5 359.5,83.5C 359.5,71.8333 359.5,60.1667 359.5,48.5C 377.833,48.5 396.167,48.5 414.5,48.5 Z"/></g>
<g><path style="opacity:1" fill="#fefefe" d="M 472.5,48.5 C 472.5,60.1667 472.5,71.8333 472.5,83.5C 453.833,83.5 435.167,83.5 416.5,83.5C 416.5,71.8333 416.5,60.1667 416.5,48.5C 435.167,48.5 453.833,48.5 472.5,48.5 Z"/></g>
<g><path style="opacity:1" fill="#9c9c9c" d="M 49.5,42.5 C 54.2927,43.9296 54.626,46.0963 50.5,49C 51.5,49.3333 52.5,49.6667 53.5,50C 51.0982,50.8141 48.7649,50.6474 46.5,49.5C 48.7368,48.8679 50.4035,47.5346 51.5,45.5C 50.624,44.7492 49.624,44.2492 48.5,44C 49.056,43.6174 49.3893,43.1174 49.5,42.5 Z"/></g>
<g><path style="opacity:1" fill="#fefefe" d="M 71.5,84.5 C 90.1667,84.5 108.833,84.5 127.5,84.5C 127.5,89.1667 127.5,93.8333 127.5,98.5C 126.12,98.9623 125.453,99.9623 125.5,101.5C 125.434,103.266 126.268,104.266 128,104.5C 129.49,103.683 130.99,102.85 132.5,102C 148.521,99.2288 164.521,96.3955 180.5,93.5C 181.925,93.6233 183.258,93.9566 184.5,94.5C 185.47,103.082 185.803,111.749 185.5,120.5C 166.833,120.5 148.167,120.5 129.5,120.5C 128.833,100.5 128.167,100.5 127.5,120.5C 108.833,120.5 90.1667,120.5 71.5,120.5C 71.5,108.5 71.5,96.5 71.5,84.5 Z"/></g>
<g><path style="opacity:1" fill="#fefdfc" d="M 184.5,88.5 C 182.634,91.2701 179.968,92.7701 176.5,93C 161.62,95.2301 146.786,97.7301 132,100.5C 130.699,100.361 129.866,99.6946 129.5,98.5C 129.5,93.8333 129.5,89.1667 129.5,84.5C 148.167,84.5 166.833,84.5 185.5,84.5C 185.567,85.9587 185.234,87.2921 184.5,88.5 Z"/></g>
<g><path style="opacity:1" fill="#fefcfb" d="M 241.5,89.5 C 240.5,89.8333 239.833,90.5 239.5,91.5C 236.167,91.5 232.833,91.5 229.5,91.5C 215.817,91.8325 202.15,91.4992 188.5,90.5C 188.145,89.4777 187.478,88.811 186.5,88.5C 186.5,87.1667 186.5,85.8333 186.5,84.5C 205.167,84.5 223.833,84.5 242.5,84.5C 242.634,86.2915 242.301,87.9582 241.5,89.5 Z"/></g>
<g><path style="opacity:1" fill="#fdfdfd" d="M 298.5,89.5 C 297.852,91.0858 297.352,92.7525 297,94.5C 288.589,102.083 280.423,109.749 272.5,117.5C 263.774,109.436 254.774,101.769 245.5,94.5C 245.634,92.7085 245.301,91.0418 244.5,89.5C 243.699,87.9582 243.366,86.2915 243.5,84.5C 262.5,84.5 281.5,84.5 300.5,84.5C 300.635,86.5542 299.968,88.2209 298.5,89.5 Z"/></g>
<g><path style="opacity:1" fill="#fafcfd" d="M 357.5,88.5 C 356.373,89.1217 355.373,89.955 354.5,91C 337.5,91.6667 320.5,91.6667 303.5,91C 302.956,90.2828 302.289,89.7828 301.5,89.5C 301.5,87.8333 301.5,86.1667 301.5,84.5C 320.167,84.5 338.833,84.5 357.5,84.5C 357.5,85.8333 357.5,87.1667 357.5,88.5 Z"/></g>
<g><path style="opacity:1" fill="#fcfdfe" d="M 414.5,98.5 C 413.107,99.2598 411.607,99.9265 410,100.5C 394.502,97.6672 379.002,94.8339 363.5,92C 361.973,90.9681 360.64,89.8014 359.5,88.5C 358.766,87.2921 358.433,85.9587 358.5,84.5C 377.167,84.5 395.833,84.5 414.5,84.5C 414.5,89.1667 414.5,93.8333 414.5,98.5 Z"/></g>
<g><path style="opacity:1" fill="#fefefe" d="M 416.5,104.5 C 418.062,102.099 417.729,100.099 415.5,98.5C 415.5,93.8333 415.5,89.1667 415.5,84.5C 434.5,84.5 453.5,84.5 472.5,84.5C 472.5,96.5 472.5,108.5 472.5,120.5C 453.833,120.5 435.167,120.5 416.5,120.5C 416.5,115.167 416.5,109.833 416.5,104.5 Z"/></g>
<g><path style="opacity:1" fill="#8c8c8c" d="M 46.5,80.5 C 47.8333,80.5 49.1667,80.5 50.5,80.5C 50.5,82.8333 50.5,85.1667 50.5,87.5C 45.5904,87.4236 44.2571,85.0902 46.5,80.5 Z"/></g>
<g><path style="opacity:1" fill="#f2f2f2" d="M 47.5,81.5 C 48.6491,81.7911 49.3158,82.6244 49.5,84C 49.1667,84.8333 48.8333,85.6667 48.5,86.5C 47.5481,84.9547 47.2148,83.288 47.5,81.5 Z"/></g>
<g><path style="opacity:1" fill="#939393" d="M 55.5,81.5 C 56.209,80.596 57.209,80.2627 58.5,80.5C 58.7394,82.4672 58.4061,84.3005 57.5,86C 58.1667,86.3333 58.8333,86.6667 59.5,87C 57.1667,87.6667 54.8333,87.6667 52.5,87C 55.072,86.7582 56.7386,85.4249 57.5,83C 57.1639,81.9701 56.4972,81.4701 55.5,81.5 Z"/></g>
<g><path style="opacity:1" fill="#ec7b2f" d="M 241.5,89.5 C 242.5,89.5 243.5,89.5 244.5,89.5C 245.301,91.0418 245.634,92.7085 245.5,94.5C 243.833,94.5 242.167,94.5 240.5,94.5C 240.5,93.8333 240.167,93.5 239.5,93.5C 239.5,92.8333 239.5,92.1667 239.5,91.5C 239.833,90.5 240.5,89.8333 241.5,89.5 Z"/></g>
<g><path style="opacity:1" fill="#f4ab7a" d="M 229.5,91.5 C 232.833,91.5 236.167,91.5 239.5,91.5C 239.5,92.1667 239.5,92.8333 239.5,93.5C 222.5,93.5 205.5,93.5 188.5,93.5C 202.167,92.8333 215.833,92.1667 229.5,91.5 Z"/></g>
<g><path style="opacity:1" fill="#fefefe" d="M 188.5,93.5 C 205.5,93.5 222.5,93.5 239.5,93.5C 240.167,93.5 240.5,93.8333 240.5,94.5C 240.842,95.3382 241.508,95.6716 242.5,95.5C 242.5,103.833 242.5,112.167 242.5,120.5C 223.833,120.5 205.167,120.5 186.5,120.5C 186.5,111.833 186.5,103.167 186.5,94.5C 187.167,94.1667 187.833,93.8333 188.5,93.5 Z"/></g>
<g><path style="opacity:1" fill="#fefefe" d="M 357.5,94.5 C 357.5,103.167 357.5,111.833 357.5,120.5C 338.833,120.5 320.167,120.5 301.5,120.5C 301.5,112.167 301.5,103.833 301.5,95.5C 320.007,93.1749 338.674,92.8416 357.5,94.5 Z"/></g>
<g><path style="opacity:1" fill="#fefefe" d="M 413.5,104.5 C 414.449,109.74 414.782,115.073 414.5,120.5C 396.167,120.5 377.833,120.5 359.5,120.5C 359.5,111.833 359.5,103.167 359.5,94.5C 360.274,93.8529 361.274,93.5195 362.5,93.5C 376.48,96.1079 390.48,98.6079 404.5,101C 407.963,101.117 410.963,102.284 413.5,104.5 Z"/></g>
<g><path style="opacity:1" fill="#79acdc" d="M 357.5,88.5 C 358.167,88.5 358.833,88.5 359.5,88.5C 360.64,89.8014 361.973,90.9681 363.5,92C 379.002,94.8339 394.502,97.6672 410,100.5C 411.607,99.9265 413.107,99.2598 414.5,98.5C 414.833,98.5 415.167,98.5 415.5,98.5C 417.729,100.099 418.062,102.099 416.5,104.5C 415.5,104.5 414.5,104.5 413.5,104.5C 410.963,102.284 407.963,101.117 404.5,101C 390.48,98.6079 376.48,96.1079 362.5,93.5C 361.274,93.5195 360.274,93.8529 359.5,94.5C 358.833,94.5 358.167,94.5 357.5,94.5C 338.674,92.8416 320.007,93.1749 301.5,95.5C 301.167,95.5 300.833,95.5 300.5,95.5C 298.745,96.0722 297.078,96.9055 295.5,98C 288.295,104.708 280.962,111.208 273.5,117.5C 273.167,117.5 272.833,117.5 272.5,117.5C 280.423,109.749 288.589,102.083 297,94.5C 297.352,92.7525 297.852,91.0858 298.5,89.5C 299.5,89.5 300.5,89.5 301.5,89.5C 302.289,89.7828 302.956,90.2828 303.5,91C 320.5,91.6667 337.5,91.6667 354.5,91C 355.373,89.955 356.373,89.1217 357.5,88.5 Z"/></g>
<g><path style="opacity:1" fill="#fefdfc" d="M 243.5,95.5 C 253.387,102.048 262.387,109.715 270.5,118.5C 269.5,119.167 268.5,119.833 267.5,120.5C 259.5,120.5 251.5,120.5 243.5,120.5C 243.5,112.167 243.5,103.833 243.5,95.5 Z"/></g>
<g><path style="opacity:1" fill="#fcfdfd" d="M 300.5,95.5 C 300.5,103.833 300.5,112.167 300.5,120.5C 292.5,120.5 284.5,120.5 276.5,120.5C 275.167,119.833 274.167,118.833 273.5,117.5C 280.962,111.208 288.295,104.708 295.5,98C 297.078,96.9055 298.745,96.0722 300.5,95.5 Z"/></g>
<g><path style="opacity:1" fill="#ef8b48" d="M 184.5,88.5 C 185.167,88.5 185.833,88.5 186.5,88.5C 187.478,88.811 188.145,89.4777 188.5,90.5C 202.15,91.4992 215.817,91.8325 229.5,91.5C 215.833,92.1667 202.167,92.8333 188.5,93.5C 187.833,93.8333 187.167,94.1667 186.5,94.5C 185.833,94.5 185.167,94.5 184.5,94.5C 183.258,93.9566 181.925,93.6233 180.5,93.5C 164.521,96.3955 148.521,99.2288 132.5,102C 130.99,102.85 129.49,103.683 128,104.5C 126.268,104.266 125.434,103.266 125.5,101.5C 125.453,99.9623 126.12,98.9623 127.5,98.5C 128.167,98.5 128.833,98.5 129.5,98.5C 129.866,99.6946 130.699,100.361 132,100.5C 146.786,97.7301 161.62,95.2301 176.5,93C 179.968,92.7701 182.634,91.2701 184.5,88.5 Z"/></g>
<g><path style="opacity:1" fill="#ababab" d="M 23.5,105.5 C 26.5719,105.183 29.5719,105.516 32.5,106.5C 31,106.833 29.5,107.167 28,107.5C 26.0145,107.431 24.5145,106.765 23.5,105.5 Z"/></g>
<g><path style="opacity:1" fill="#868686" d="M 23.5,108.5 C 24.2389,108.369 24.9056,108.536 25.5,109C 24.4185,111.306 25.2518,112.806 28,113.5C 28.772,113.355 29.4387,113.022 30,112.5C 31.3141,107.166 31.9808,107.166 32,112.5C 26.8595,115.976 24.0262,114.643 23.5,108.5 Z"/></g>
<g><path style="opacity:1" fill="#979797" d="M 29.5,115.5 C 30.552,115.351 31.552,115.517 32.5,116C 29.967,117.916 29.967,119.916 32.5,122C 28.929,122.31 25.929,121.143 23.5,118.5C 25.444,117.199 27.444,116.199 29.5,115.5 Z"/></g>
<g><path style="opacity:1" fill="#9a9a9a" d="M 40.5,117.5 C 43.3523,117.352 45.019,118.686 45.5,121.5C 43.3599,126.669 41.3599,126.669 39.5,121.5C 39.8457,120.151 40.179,118.817 40.5,117.5 Z"/></g>
<g><path style="opacity:1" fill="#fdfdfd" d="M 41.5,119.5 C 42.5862,119.62 43.2528,120.287 43.5,121.5C 43.1667,122.167 42.8333,122.833 42.5,123.5C 41.5713,122.311 41.238,120.978 41.5,119.5 Z"/></g>
<g><path style="opacity:1" fill="#fefefe" d="M 71.5,122.5 C 90.1667,122.5 108.833,122.5 127.5,122.5C 127.5,134.5 127.5,146.5 127.5,158.5C 108.833,158.5 90.1667,158.5 71.5,158.5C 71.5,146.5 71.5,134.5 71.5,122.5 Z"/></g>
<g><path style="opacity:1" fill="#fefefe" d="M 242.5,139.5 C 240.394,141.272 238.727,143.438 237.5,146C 230.472,150.178 223.472,154.345 216.5,158.5C 206.5,158.5 196.5,158.5 186.5,158.5C 186.5,146.5 186.5,134.5 186.5,122.5C 205.167,122.5 223.833,122.5 242.5,122.5C 242.5,128.167 242.5,133.833 242.5,139.5 Z"/></g>
<g><path style="opacity:1" fill="#fbfcfd" d="M 264.5,123.5 C 257.853,129.144 251.186,134.811 244.5,140.5C 243.893,140.376 243.56,140.043 243.5,139.5C 243.5,133.833 243.5,128.167 243.5,122.5C 250.687,122.175 257.687,122.509 264.5,123.5 Z"/></g>
<g><path style="opacity:1" fill="#fefdfd" d="M 271.5,119.5 C 280.423,126.25 288.923,133.583 297,141.5C 297.41,142.901 297.91,144.234 298.5,145.5C 300.334,149.514 301.001,153.847 300.5,158.5C 281.5,158.5 262.5,158.5 243.5,158.5C 243.5,154.5 243.5,150.5 243.5,146.5C 244.935,145.21 245.935,143.544 246.5,141.5C 254.853,134.144 263.186,126.811 271.5,119.5 Z"/></g>
<g><path style="opacity:1" fill="#fefefe" d="M 357.5,158.5 C 347.5,158.5 337.5,158.5 327.5,158.5C 319.861,154.012 312.194,149.512 304.5,145C 303.777,142.982 302.777,141.148 301.5,139.5C 301.5,133.833 301.5,128.167 301.5,122.5C 320.167,122.5 338.833,122.5 357.5,122.5C 357.5,134.5 357.5,146.5 357.5,158.5 Z"/></g>
<g><path style="opacity:1" fill="#f0f0ef" d="M 357.5,94.5 C 358.167,94.5 358.833,94.5 359.5,94.5C 359.5,103.167 359.5,111.833 359.5,120.5C 377.833,120.5 396.167,120.5 414.5,120.5C 414.5,121.167 414.5,121.833 414.5,122.5C 396.167,122.5 377.833,122.5 359.5,122.5C 359.5,134.5 359.5,146.5 359.5,158.5C 358.833,158.5 358.167,158.5 357.5,158.5C 357.5,146.5 357.5,134.5 357.5,122.5C 338.833,122.5 320.167,122.5 301.5,122.5C 301.5,128.167 301.5,133.833 301.5,139.5C 299.345,139.628 297.345,139.128 295.5,138C 288.97,132.301 282.637,126.467 276.5,120.5C 284.5,120.5 292.5,120.5 300.5,120.5C 300.5,112.167 300.5,103.833 300.5,95.5C 300.833,95.5 301.167,95.5 301.5,95.5C 301.5,103.833 301.5,112.167 301.5,120.5C 320.167,120.5 338.833,120.5 357.5,120.5C 357.5,111.833 357.5,103.167 357.5,94.5 Z"/></g>
<g><path style="opacity:1" fill="#fefefe" d="M 414.5,122.5 C 414.5,134.5 414.5,146.5 414.5,158.5C 396.167,158.5 377.833,158.5 359.5,158.5C 359.5,146.5 359.5,134.5 359.5,122.5C 377.833,122.5 396.167,122.5 414.5,122.5 Z"/></g>
<g><path style="opacity:1" fill="#fefefe" d="M 416.5,122.5 C 435.167,122.5 453.833,122.5 472.5,122.5C 472.5,134.5 472.5,146.5 472.5,158.5C 453.833,158.5 435.167,158.5 416.5,158.5C 416.5,146.5 416.5,134.5 416.5,122.5 Z"/></g>
<g><path style="opacity:1" fill="#a3a3a3" d="M 55.5,117.5 C 58.7973,117.329 59.1306,117.995 56.5,119.5C 57.325,120.386 58.325,120.719 59.5,120.5C 59.993,125.197 58.3263,126.363 54.5,124C 58.4557,122.886 58.4557,122.053 54.5,121.5C 54.4326,120.041 54.7659,118.708 55.5,117.5 Z"/></g>
<g><path style="opacity:1" fill="#a3a3a3" d="M 50.5,117.5 C 51.0882,119.907 52.0882,122.24 53.5,124.5C 51.1667,125.833 48.8333,125.833 46.5,124.5C 47.6888,123.571 49.0222,123.238 50.5,123.5C 50.7733,121.549 50.1066,120.049 48.5,119C 49.4158,118.722 50.0825,118.222 50.5,117.5 Z"/></g>
<g><path style="opacity:1" fill="#a1a1a1" d="M 26.5,126.5 C 28.5,126.5 30.5,126.5 32.5,126.5C 32.9899,128.948 32.1566,130.615 30,131.5C 28.5781,130.795 27.2447,130.461 26,130.5C 25.4209,129.072 25.5876,127.738 26.5,126.5 Z"/></g>
<g><path style="opacity:1" fill="#8b8b8b" d="M 25.5,132.5 C 27.8997,133.268 30.233,133.602 32.5,133.5C 31.4729,135.024 29.9729,135.691 28,135.5C 25.1226,135.563 24.2892,134.563 25.5,132.5 Z"/></g>
<g><path style="opacity:1" fill="#a9a9a9" d="M 26.5,136.5 C 28.5,136.5 30.5,136.5 32.5,136.5C 32.5,138.167 32.5,139.833 32.5,141.5C 30.4588,141.146 28.6255,141.146 27,141.5C 25.2116,139.977 25.0449,138.31 26.5,136.5 Z"/></g>
<g><path style="opacity:1" fill="#a4a4a4" d="M 25.5,142.5 C 27.6052,143.868 29.9386,144.868 32.5,145.5C 30.2573,146.474 27.924,146.808 25.5,146.5C 25.5,145.167 25.5,143.833 25.5,142.5 Z"/></g>
<g><path style="opacity:1" fill="#fbfcfd" d="M 242.5,146.5 C 242.5,150.5 242.5,154.5 242.5,158.5C 235.313,158.825 228.313,158.491 221.5,157.5C 227.139,154.011 232.805,150.511 238.5,147C 239.793,146.51 241.127,146.343 242.5,146.5 Z"/></g>
<g><path style="opacity:1" fill="#fefbf9" d="M 303.5,146.5 C 310.506,150 317.173,154 323.5,158.5C 316.167,158.5 308.833,158.5 301.5,158.5C 300.911,154.029 301.577,150.029 303.5,146.5 Z"/></g>
<g><path style="opacity:1" fill="#a3a3a3" d="M 26.5,151.5 C 28.5,151.5 30.5,151.5 32.5,151.5C 32.162,154.011 32.162,156.345 32.5,158.5C 31.4729,160.024 29.9729,160.691 28,160.5C 24.4343,160.961 23.7676,159.961 26,157.5C 27.1531,159.497 28.6531,159.83 30.5,158.5C 29.6551,156.238 28.3217,155.571 26.5,156.5C 25.3336,154.833 25.3336,153.166 26.5,151.5 Z"/></g>
<g><path style="opacity:1" fill="#818181" d="M 55.5,154.5 C 57.1408,156.203 58.1408,158.37 58.5,161C 57.5,161.667 56.5,161.667 55.5,161C 56.0899,158.584 56.0899,156.417 55.5,154.5 Z"/></g>
<g><path style="opacity:1" fill="#e8e8e9" d="M 184.5,94.5 C 185.167,94.5 185.833,94.5 186.5,94.5C 186.5,103.167 186.5,111.833 186.5,120.5C 205.167,120.5 223.833,120.5 242.5,120.5C 242.5,112.167 242.5,103.833 242.5,95.5C 242.833,95.5 243.167,95.5 243.5,95.5C 243.5,103.833 243.5,112.167 243.5,120.5C 251.5,120.5 259.5,120.5 267.5,120.5C 266.833,121.833 265.833,122.833 264.5,123.5C 257.687,122.509 250.687,122.175 243.5,122.5C 243.5,128.167 243.5,133.833 243.5,139.5C 243.167,139.5 242.833,139.5 242.5,139.5C 242.5,133.833 242.5,128.167 242.5,122.5C 223.833,122.5 205.167,122.5 186.5,122.5C 186.5,134.5 186.5,146.5 186.5,158.5C 196.5,158.5 206.5,158.5 216.5,158.5C 215.71,159.401 214.71,160.068 213.5,160.5C 204.682,159.507 195.682,159.173 186.5,159.5C 186.5,164.5 186.5,169.5 186.5,174.5C 186.167,174.5 185.833,174.5 185.5,174.5C 185.5,169.5 185.5,164.5 185.5,159.5C 166.833,159.5 148.167,159.5 129.5,159.5C 129.5,171.167 129.5,182.833 129.5,194.5C 139.5,194.5 149.5,194.5 159.5,194.5C 158.564,195.974 157.23,196.974 155.5,197.5C 147.016,196.507 138.349,196.174 129.5,196.5C 129.5,202.167 129.5,207.833 129.5,213.5C 128.5,213.5 127.5,213.5 126.5,213.5C 127.452,207.925 127.786,202.259 127.5,196.5C 108.833,196.5 90.1667,196.5 71.5,196.5C 71.5,195.833 71.5,195.167 71.5,194.5C 90.1667,194.5 108.833,194.5 127.5,194.5C 127.5,182.833 127.5,171.167 127.5,159.5C 108.833,159.5 90.1667,159.5 71.5,159.5C 71.5,159.167 71.5,158.833 71.5,158.5C 90.1667,158.5 108.833,158.5 127.5,158.5C 127.5,146.5 127.5,134.5 127.5,122.5C 108.833,122.5 90.1667,122.5 71.5,122.5C 71.5,121.833 71.5,121.167 71.5,120.5C 90.1667,120.5 108.833,120.5 127.5,120.5C 128.167,100.5 128.833,100.5 129.5,120.5C 148.167,120.5 166.833,120.5 185.5,120.5C 185.803,111.749 185.47,103.082 184.5,94.5 Z"/></g>
<g><path style="opacity:1" fill="#fefefe" d="M 129.5,122.5 C 148.167,122.5 166.833,122.5 185.5,122.5C 185.5,134.5 185.5,146.5 185.5,158.5C 166.833,158.5 148.167,158.5 129.5,158.5C 129.5,146.5 129.5,134.5 129.5,122.5 Z"/></g>
<g><path style="opacity:1" fill="#eaeaea" d="M 298.5,145.5 C 300.415,145.216 302.081,145.549 303.5,146.5C 301.577,150.029 300.911,154.029 301.5,158.5C 308.833,158.5 316.167,158.5 323.5,158.5C 324.167,158.5 324.5,158.833 324.5,159.5C 316.833,159.5 309.167,159.5 301.5,159.5C 301.5,171.167 301.5,182.833 301.5,194.5C 320.167,194.5 338.833,194.5 357.5,194.5C 357.5,190.167 357.5,185.833 357.5,181.5C 358.496,181.586 359.329,181.252 360,180.5C 368.011,185.696 375.845,191.03 383.5,196.5C 375.5,196.5 367.5,196.5 359.5,196.5C 359.5,208.5 359.5,220.5 359.5,232.5C 358.833,232.5 358.167,232.5 357.5,232.5C 357.5,220.5 357.5,208.5 357.5,196.5C 338.833,196.5 320.167,196.5 301.5,196.5C 301.5,208.5 301.5,220.5 301.5,232.5C 300.833,232.5 300.167,232.5 299.5,232.5C 299.5,220.5 299.5,208.5 299.5,196.5C 280.833,196.5 262.167,196.5 243.5,196.5C 243.5,208.5 243.5,220.5 243.5,232.5C 243.167,232.5 242.833,232.5 242.5,232.5C 242.5,220.5 242.5,208.5 242.5,196.5C 223.833,196.5 205.167,196.5 186.5,196.5C 186.5,208.5 186.5,220.5 186.5,232.5C 186.167,232.5 185.833,232.5 185.5,232.5C 185.5,220.5 185.5,208.5 185.5,196.5C 177.167,196.5 168.833,196.5 160.5,196.5C 161.514,195.326 162.847,194.66 164.5,194.5C 171.5,194.5 178.5,194.5 185.5,194.5C 185.5,190.167 185.5,185.833 185.5,181.5C 185.833,181.5 186.167,181.5 186.5,181.5C 186.5,185.833 186.5,190.167 186.5,194.5C 205.167,194.5 223.833,194.5 242.5,194.5C 242.5,182.833 242.5,171.167 242.5,159.5C 234.833,159.5 227.167,159.5 219.5,159.5C 219.833,158.5 220.5,157.833 221.5,157.5C 228.313,158.491 235.313,158.825 242.5,158.5C 242.5,154.5 242.5,150.5 242.5,146.5C 242.833,146.5 243.167,146.5 243.5,146.5C 243.5,150.5 243.5,154.5 243.5,158.5C 262.5,158.5 281.5,158.5 300.5,158.5C 301.001,153.847 300.334,149.514 298.5,145.5 Z"/></g>
<g><path style="opacity:1" fill="#fefffe" d="M 71.5,159.5 C 90.1667,159.5 108.833,159.5 127.5,159.5C 127.5,171.167 127.5,182.833 127.5,194.5C 108.833,194.5 90.1667,194.5 71.5,194.5C 71.5,182.833 71.5,171.167 71.5,159.5 Z"/></g>
<g><path style="opacity:1" fill="#fefefe" d="M 185.5,174.5 C 183.309,175.845 181.975,177.845 181.5,180.5C 174.399,185.614 167.066,190.281 159.5,194.5C 149.5,194.5 139.5,194.5 129.5,194.5C 129.5,182.833 129.5,171.167 129.5,159.5C 148.167,159.5 166.833,159.5 185.5,159.5C 185.5,164.5 185.5,169.5 185.5,174.5 Z"/></g>
<g><path style="opacity:1" fill="#fbfcfd" d="M 213.5,160.5 C 205.861,165.323 198.195,170.156 190.5,175C 189.072,175.579 187.738,175.412 186.5,174.5C 186.5,169.5 186.5,164.5 186.5,159.5C 195.682,159.173 204.682,159.507 213.5,160.5 Z"/></g>
<g><path style="opacity:1" fill="#fefefe" d="M 219.5,159.5 C 227.167,159.5 234.833,159.5 242.5,159.5C 242.5,171.167 242.5,182.833 242.5,194.5C 223.833,194.5 205.167,194.5 186.5,194.5C 186.5,190.167 186.5,185.833 186.5,181.5C 188.425,178.343 191.092,175.843 194.5,174C 202.738,168.912 211.072,164.079 219.5,159.5 Z"/></g>
<g><path style="opacity:1" fill="#fefefe" d="M 243.5,159.5 C 262.167,159.5 280.833,159.5 299.5,159.5C 299.5,171.167 299.5,182.833 299.5,194.5C 280.833,194.5 262.167,194.5 243.5,194.5C 243.5,182.833 243.5,171.167 243.5,159.5 Z"/></g>
<g><path style="opacity:1" fill="#fefefe" d="M 324.5,159.5 C 333.771,164.137 342.771,169.304 351.5,175C 353.586,177.158 355.586,179.325 357.5,181.5C 357.5,185.833 357.5,190.167 357.5,194.5C 338.833,194.5 320.167,194.5 301.5,194.5C 301.5,182.833 301.5,171.167 301.5,159.5C 309.167,159.5 316.833,159.5 324.5,159.5 Z"/></g>
<g><path style="opacity:1" fill="#fefefe" d="M 330.5,160.5 C 339.318,159.507 348.318,159.173 357.5,159.5C 357.833,178.167 358.167,178.167 358.5,159.5C 377.167,159.5 395.833,159.5 414.5,159.5C 414.5,171.167 414.5,182.833 414.5,194.5C 404.5,194.5 394.5,194.5 384.5,194.5C 377.557,190.021 370.557,185.521 363.5,181C 362.167,179 360.833,177 359.5,175C 358.101,174.405 356.768,174.572 355.5,175.5C 346.973,170.74 338.64,165.74 330.5,160.5 Z"/></g>
<g><path style="opacity:1" fill="#fefefe" d="M 415.5,159.5 C 434.5,159.5 453.5,159.5 472.5,159.5C 472.5,171.167 472.5,182.833 472.5,194.5C 453.5,194.5 434.5,194.5 415.5,194.5C 415.5,182.833 415.5,171.167 415.5,159.5 Z"/></g>
<g><path style="opacity:1" fill="#8c8c8c" d="M 49.5,155.5 C 50.4614,157.265 50.7947,159.265 50.5,161.5C 45.6724,161.615 44.3391,159.448 46.5,155C 47.7494,154.26 48.7494,154.427 49.5,155.5 Z"/></g>
<g><path style="opacity:1" fill="#f1f1f1" d="M 49.5,155.5 C 49.7852,157.288 49.4519,158.955 48.5,160.5C 48.1667,159.667 47.8333,158.833 47.5,158C 47.6842,156.624 48.3509,155.791 49.5,155.5 Z"/></g>
<g><path style="opacity:1" fill="#969696" d="M 26.5,162.5 C 28.288,162.215 29.9547,162.548 31.5,163.5C 30.8333,163.833 30.1667,164.167 29.5,164.5C 30.1667,165.167 30.8333,165.833 31.5,166.5C 29.9222,167.072 28.4222,167.406 27,167.5C 25.2116,165.977 25.0449,164.31 26.5,162.5 Z"/></g>
<g><path style="opacity:1" fill="#ef8d4c" d="M 240.5,94.5 C 242.167,94.5 243.833,94.5 245.5,94.5C 254.774,101.769 263.774,109.436 272.5,117.5C 272.833,117.5 273.167,117.5 273.5,117.5C 274.167,118.833 275.167,119.833 276.5,120.5C 282.637,126.467 288.97,132.301 295.5,138C 297.345,139.128 299.345,139.628 301.5,139.5C 302.777,141.148 303.777,142.982 304.5,145C 312.194,149.512 319.861,154.012 327.5,158.5C 328.29,159.401 329.29,160.068 330.5,160.5C 338.64,165.74 346.973,170.74 355.5,175.5C 356.768,174.572 358.101,174.405 359.5,175C 360.833,177 362.167,179 363.5,181C 370.557,185.521 377.557,190.021 384.5,194.5C 385.795,195.488 387.128,196.488 388.5,197.5C 396.316,203.579 404.65,208.912 413.5,213.5C 414.5,213.5 415.5,213.5 416.5,213.5C 417.139,214.097 417.472,214.93 417.5,216C 417.613,217.699 416.947,218.866 415.5,219.5C 415.167,219.5 414.833,219.5 414.5,219.5C 405.183,210.653 394.85,202.986 383.5,196.5C 375.845,191.03 368.011,185.696 360,180.5C 359.329,181.252 358.496,181.586 357.5,181.5C 355.586,179.325 353.586,177.158 351.5,175C 342.771,169.304 333.771,164.137 324.5,159.5C 324.5,158.833 324.167,158.5 323.5,158.5C 317.173,154 310.506,150 303.5,146.5C 302.081,145.549 300.415,145.216 298.5,145.5C 297.91,144.234 297.41,142.901 297,141.5C 288.923,133.583 280.423,126.25 271.5,119.5C 271.5,118.833 271.167,118.5 270.5,118.5C 262.387,109.715 253.387,102.048 243.5,95.5C 243.167,95.5 242.833,95.5 242.5,95.5C 241.508,95.6716 240.842,95.3382 240.5,94.5 Z"/></g>
<g><path style="opacity:1" fill="#828282" d="M 24.5,168.5 C 27.1623,169.639 29.829,169.806 32.5,169C 31.2412,169.923 29.9079,170.757 28.5,171.5C 29.376,172.251 30.376,172.751 31.5,173C 28.854,173.497 26.1873,173.664 23.5,173.5C 23.366,171.708 23.6993,170.042 24.5,168.5 Z"/></g>
<g><path style="opacity:1" fill="#eaeaea" d="M 24.5,170.5 C 25.675,170.281 26.675,170.614 27.5,171.5C 25.9483,172.798 24.9483,172.465 24.5,170.5 Z"/></g>
<g><path style="opacity:1" fill="#fcfdfe" d="M 185.5,181.5 C 185.5,185.833 185.5,190.167 185.5,194.5C 178.5,194.5 171.5,194.5 164.5,194.5C 170.728,188.943 177.728,184.61 185.5,181.5 Z"/></g>
<g><path style="opacity:1" fill="#6fa6d9" d="M 270.5,118.5 C 271.167,118.5 271.5,118.833 271.5,119.5C 263.186,126.811 254.853,134.144 246.5,141.5C 245.935,143.544 244.935,145.21 243.5,146.5C 243.167,146.5 242.833,146.5 242.5,146.5C 241.127,146.343 239.793,146.51 238.5,147C 232.805,150.511 227.139,154.011 221.5,157.5C 220.5,157.833 219.833,158.5 219.5,159.5C 211.072,164.079 202.738,168.912 194.5,174C 191.092,175.843 188.425,178.343 186.5,181.5C 186.167,181.5 185.833,181.5 185.5,181.5C 177.728,184.61 170.728,188.943 164.5,194.5C 162.847,194.66 161.514,195.326 160.5,196.5C 151.652,202.504 142.652,208.337 133.5,214C 132.167,215.667 130.833,217.333 129.5,219C 126,219.5 124.5,218 125,214.5C 125.383,213.944 125.883,213.611 126.5,213.5C 127.5,213.5 128.5,213.5 129.5,213.5C 130.552,213.649 131.552,213.483 132.5,213C 140.232,207.81 147.899,202.644 155.5,197.5C 157.23,196.974 158.564,195.974 159.5,194.5C 167.066,190.281 174.399,185.614 181.5,180.5C 181.975,177.845 183.309,175.845 185.5,174.5C 185.833,174.5 186.167,174.5 186.5,174.5C 187.738,175.412 189.072,175.579 190.5,175C 198.195,170.156 205.861,165.323 213.5,160.5C 214.71,160.068 215.71,159.401 216.5,158.5C 223.472,154.345 230.472,150.178 237.5,146C 238.727,143.438 240.394,141.272 242.5,139.5C 242.833,139.5 243.167,139.5 243.5,139.5C 243.56,140.043 243.893,140.376 244.5,140.5C 251.186,134.811 257.853,129.144 264.5,123.5C 265.833,122.833 266.833,121.833 267.5,120.5C 268.5,119.833 269.5,119.167 270.5,118.5 Z"/></g>
<g><path style="opacity:1" fill="#a0a0a0" d="M 55.5,191.5 C 59.9707,191.672 60.3041,192.506 56.5,194C 57.448,194.483 58.448,194.649 59.5,194.5C 60.101,198.909 58.4343,200.242 54.5,198.5C 55.5,197.833 56.5,197.167 57.5,196.5C 54.8068,195.468 54.1402,193.802 55.5,191.5 Z"/></g>
<g><path style="opacity:1" fill="#9a9a9a" d="M 41.5,191.5 C 43.8184,191.818 45.1517,193.152 45.5,195.5C 43.3599,200.669 41.3599,200.669 39.5,195.5C 39.7517,193.927 40.4183,192.594 41.5,191.5 Z"/></g>
<g><path style="opacity:1" fill="#fdfdfd" d="M 41.5,193.5 C 42.5862,193.62 43.2528,194.287 43.5,195.5C 43.1667,196.167 42.8333,196.833 42.5,197.5C 41.5713,196.311 41.238,194.978 41.5,193.5 Z"/></g>
<g><path style="opacity:1" fill="#888888" d="M 53.5,197.5 C 51.748,192.521 50.248,192.521 49,197.5C 48.51,196.207 48.3433,194.873 48.5,193.5C 49.3143,191.727 50.6476,191.227 52.5,192C 53.4061,193.699 53.7394,195.533 53.5,197.5 Z"/></g>
<g><path style="opacity:1" fill="#fefefe" d="M 71.5,196.5 C 90.1667,196.5 108.833,196.5 127.5,196.5C 127.786,202.259 127.452,207.925 126.5,213.5C 125.883,213.611 125.383,213.944 125,214.5C 124.5,218 126,219.5 129.5,219C 130.833,217.333 132.167,215.667 133.5,214C 142.652,208.337 151.652,202.504 160.5,196.5C 168.833,196.5 177.167,196.5 185.5,196.5C 185.5,208.5 185.5,220.5 185.5,232.5C 147.5,232.5 109.5,232.5 71.5,232.5C 71.5,220.5 71.5,208.5 71.5,196.5 Z"/></g>
<g><path style="opacity:1" fill="#fcfdfe" d="M 155.5,197.5 C 147.899,202.644 140.232,207.81 132.5,213C 131.552,213.483 130.552,213.649 129.5,213.5C 129.5,207.833 129.5,202.167 129.5,196.5C 138.349,196.174 147.016,196.507 155.5,197.5 Z"/></g>
<g><path style="opacity:1" fill="#fefefe" d="M 242.5,232.5 C 223.833,232.5 205.167,232.5 186.5,232.5C 186.5,220.5 186.5,208.5 186.5,196.5C 205.167,196.5 223.833,196.5 242.5,196.5C 242.5,208.5 242.5,220.5 242.5,232.5 Z"/></g>
<g><path style="opacity:1" fill="#fefefe" d="M 299.5,232.5 C 280.833,232.5 262.167,232.5 243.5,232.5C 243.5,220.5 243.5,208.5 243.5,196.5C 262.167,196.5 280.833,196.5 299.5,196.5C 299.5,208.5 299.5,220.5 299.5,232.5 Z"/></g>
<g><path style="opacity:1" fill="#fefefe" d="M 357.5,232.5 C 338.833,232.5 320.167,232.5 301.5,232.5C 301.5,220.5 301.5,208.5 301.5,196.5C 320.167,196.5 338.833,196.5 357.5,196.5C 357.5,208.5 357.5,220.5 357.5,232.5 Z"/></g>
<g><path style="opacity:1" fill="#fefefe" d="M 383.5,196.5 C 394.85,202.986 405.183,210.653 414.5,219.5C 414.5,223.833 414.5,228.167 414.5,232.5C 396.167,232.5 377.833,232.5 359.5,232.5C 359.5,220.5 359.5,208.5 359.5,196.5C 367.5,196.5 375.5,196.5 383.5,196.5 Z"/></g>
<g><path style="opacity:1" fill="#fefcfa" d="M 413.5,213.5 C 404.65,208.912 396.316,203.579 388.5,197.5C 396.984,196.507 405.651,196.174 414.5,196.5C 414.786,202.259 414.452,207.925 413.5,213.5 Z"/></g>
<g><path style="opacity:1" fill="#fefefe" d="M 472.5,232.5 C 453.5,232.5 434.5,232.5 415.5,232.5C 415.5,228.167 415.5,223.833 415.5,219.5C 416.947,218.866 417.613,217.699 417.5,216C 417.472,214.93 417.139,214.097 416.5,213.5C 415.548,207.925 415.214,202.259 415.5,196.5C 434.5,196.5 453.5,196.5 472.5,196.5C 472.5,208.5 472.5,220.5 472.5,232.5 Z"/></g>
<g><path style="opacity:1" fill="#d2d2d2" d="M 70.5,47.5 C 71.1667,47.5 71.5,47.8333 71.5,48.5C 71.5,60.1667 71.5,71.8333 71.5,83.5C 71.5,83.8333 71.5,84.1667 71.5,84.5C 71.5,96.5 71.5,108.5 71.5,120.5C 71.5,121.167 71.5,121.833 71.5,122.5C 71.5,134.5 71.5,146.5 71.5,158.5C 71.5,158.833 71.5,159.167 71.5,159.5C 71.5,171.167 71.5,182.833 71.5,194.5C 71.5,195.167 71.5,195.833 71.5,196.5C 71.5,208.5 71.5,220.5 71.5,232.5C 109.5,232.5 147.5,232.5 185.5,232.5C 185.833,232.5 186.167,232.5 186.5,232.5C 205.167,232.5 223.833,232.5 242.5,232.5C 242.833,232.5 243.167,232.5 243.5,232.5C 262.167,232.5 280.833,232.5 299.5,232.5C 300.167,232.5 300.833,232.5 301.5,232.5C 320.167,232.5 338.833,232.5 357.5,232.5C 358.167,232.5 358.833,232.5 359.5,232.5C 377.833,232.5 396.167,232.5 414.5,232.5C 414.5,228.167 414.5,223.833 414.5,219.5C 414.833,219.5 415.167,219.5 415.5,219.5C 415.5,223.833 415.5,228.167 415.5,232.5C 434.5,232.5 453.5,232.5 472.5,232.5C 472.5,232.833 472.5,233.167 472.5,233.5C 338.5,233.5 204.5,233.5 70.5,233.5C 70.5,171.5 70.5,109.5 70.5,47.5 Z"/></g>
<g><path style="opacity:1" fill="#bfbfbf" d="M 48.5,193.5 C 48.3433,194.873 48.51,196.207 49,197.5C 50.248,192.521 51.748,192.521 53.5,197.5C 53.1344,198.695 52.301,199.361 51,199.5C 49.5838,198.427 48.2504,198.427 47,199.5C 46.8794,197.316 47.3794,195.316 48.5,193.5 Z"/></g>
<g><path style="opacity:1" fill="#828282" d="M 55.5,234.5 C 54.3871,233.054 54.2204,231.387 55,229.5C 56.3333,228.167 57.6667,228.167 59,229.5C 59.4955,231.473 59.6621,233.473 59.5,235.5C 57.901,235.768 56.5676,235.434 55.5,234.5 Z"/></g>
<g><path style="opacity:1" fill="#ededed" d="M 55.5,234.5 C 56.5,227.833 57.5,227.833 58.5,234.5C 57.5,234.5 56.5,234.5 55.5,234.5 Z"/></g>
<g><path style="opacity:1" fill="#929292" d="M 238.5,245.5 C 239.708,244.218 241.042,244.218 242.5,245.5C 242.054,247.368 241.721,249.201 241.5,251C 238.252,251.671 237.919,251.171 240.5,249.5C 239.975,248.808 239.308,248.308 238.5,248C 241.113,246.929 241.113,246.095 238.5,245.5 Z"/></g>
<g><path style="opacity:1" fill="#919191" d="M 468.5,245.5 C 469.708,244.218 471.042,244.218 472.5,245.5C 471.498,247.51 470.498,249.51 469.5,251.5C 468.777,249.836 469.11,248.169 470.5,246.5C 470.043,245.702 469.376,245.369 468.5,245.5 Z"/></g>
<g><path style="opacity:1" fill="#959595" d="M 123.5,244.5 C 124.5,244.5 125.5,244.5 126.5,244.5C 126.244,246.792 126.577,248.959 127.5,251C 126.167,251.667 124.833,251.667 123.5,251C 124.605,248.88 124.605,246.713 123.5,244.5 Z"/></g>
<g><path style="opacity:1" fill="#989898" d="M 129.5,244.5 C 134.328,244.385 135.661,246.552 133.5,251C 128.81,251.141 127.477,248.975 129.5,244.5 Z"/></g>
<g><path style="opacity:1" fill="#f7f7f7" d="M 130.5,245.5 C 131.649,245.791 132.316,246.624 132.5,248C 132.167,248.833 131.833,249.667 131.5,250.5C 130.548,248.955 130.215,247.288 130.5,245.5 Z"/></g>
<g><path style="opacity:1" fill="#989898" d="M 297.5,244.5 C 298.725,245.152 299.392,246.319 299.5,248C 299.333,249.167 299.167,250.333 299,251.5C 295.16,249.713 294.66,247.38 297.5,244.5 Z"/></g>
<g><path style="opacity:1" fill="#989898" d="M 359.5,244.5 C 363.677,243.842 365.177,245.508 364,249.5C 362.688,251.658 361.022,251.991 359,250.5C 358.322,248.402 358.489,246.402 359.5,244.5 Z"/></g>
<g><path style="opacity:1" fill="#f8f8f8" d="M 360.5,245.5 C 361.649,245.791 362.316,246.624 362.5,248C 362.167,248.833 361.833,249.667 361.5,250.5C 360.548,248.955 360.215,247.288 360.5,245.5 Z"/></g>
<g><path style="opacity:1" fill="#969696" d="M 244.5,244.5 C 248.677,243.842 250.177,245.508 249,249.5C 247.333,252.167 245.667,252.167 244,249.5C 243.36,247.735 243.527,246.068 244.5,244.5 Z"/></g>
<g><path style="opacity:1" fill="#f9f9f9" d="M 245.5,245.5 C 246.649,245.791 247.316,246.624 247.5,248C 247.167,248.833 246.833,249.667 246.5,250.5C 245.548,248.955 245.215,247.288 245.5,245.5 Z"/></g>
<g><path style="opacity:1" fill="#929292" d="M 411.5,244.5 C 414.598,244.413 414.932,244.913 412.5,246C 413.167,246.167 413.833,246.333 414.5,246.5C 419.823,243.024 421.99,244.357 421,250.5C 419.062,251.86 417.396,251.527 416,249.5C 414.867,251.211 413.367,251.711 411.5,251C 410.232,248.837 410.232,246.67 411.5,244.5 Z"/></g>
<g><path style="opacity:1" fill="#f0f0f0" d="M 417.5,245.5 C 420.709,246.297 421.209,247.963 419,250.5C 417.731,249.095 417.231,247.429 417.5,245.5 Z"/></g>
<g><path style="opacity:1" fill="#919191" d="M 477.5,250.5 C 476.458,251.791 475.292,251.791 474,250.5C 472.488,245.344 474.154,243.677 479,245.5C 479.877,247.674 479.377,249.341 477.5,250.5 Z"/></g>
<g><path style="opacity:1" fill="#f5f5f5" d="M 477.5,250.5 C 476.351,250.209 475.684,249.376 475.5,248C 475.833,247.167 476.167,246.333 476.5,245.5C 477.452,247.045 477.785,248.712 477.5,250.5 Z"/></g>
<g><path style="opacity:1" fill="#bababa" d="M 186.5,247.5 C 186.5,248.167 186.5,248.833 186.5,249.5C 184.806,251.438 182.806,251.771 180.5,250.5C 184.007,248.174 184.007,246.341 180.5,245C 183.34,244.034 185.34,244.867 186.5,247.5 Z"/></g>
<g><path style="opacity:1" fill="#898989" d="M 69.5,245.5 C 70.5676,244.566 71.901,244.232 73.5,244.5C 73.6621,246.527 73.4955,248.527 73,250.5C 71.6667,251.833 70.3333,251.833 69,250.5C 68.2204,248.613 68.3871,246.946 69.5,245.5 Z"/></g>
<g><path style="opacity:1" fill="#e7e7e7" d="M 69.5,245.5 C 70.5,245.5 71.5,245.5 72.5,245.5C 71.5,252.167 70.5,252.167 69.5,245.5 Z"/></g>
<g><path style="opacity:1" fill="#878787" d="M 186.5,249.5 C 186.5,248.833 186.5,248.167 186.5,247.5C 186.328,246.508 186.662,245.842 187.5,245.5C 188.568,244.566 189.901,244.232 191.5,244.5C 191.662,246.527 191.495,248.527 191,250.5C 189.085,251.916 187.585,251.582 186.5,249.5 Z"/></g>
<g><path style="opacity:1" fill="#eaeaea" d="M 187.5,245.5 C 188.5,245.5 189.5,245.5 190.5,245.5C 189.5,252.167 188.5,252.167 187.5,245.5 Z"/></g>
<g><path style="opacity:1" fill="#898989" d="M 302.5,245.5 C 303.568,244.566 304.901,244.232 306.5,244.5C 306.662,246.527 306.495,248.527 306,250.5C 304.667,251.833 303.333,251.833 302,250.5C 301.22,248.613 301.387,246.946 302.5,245.5 Z"/></g>
<g><path style="opacity:1" fill="#e6e6e6" d="M 302.5,245.5 C 303.5,245.5 304.5,245.5 305.5,245.5C 304.5,252.167 303.5,252.167 302.5,245.5 Z"/></g>
<g><path style="opacity:1" fill="#939393" d="M 352.5,244.5 C 353.873,244.343 355.207,244.51 356.5,245C 355.833,245.333 355.167,245.667 354.5,246C 358.464,248.005 358.464,249.838 354.5,251.5C 353.833,251.167 353.167,250.833 352.5,250.5C 353.989,250.467 355.322,249.967 356.5,249C 355.437,247.812 354.103,247.312 352.5,247.5C 352.5,246.5 352.5,245.5 352.5,244.5 Z"/></g>
<g><path style="opacity:1" fill="#818181" d="M 259.5,261.5 C 260.404,262.209 260.737,263.209 260.5,264.5C 261.822,264.33 262.989,264.663 264,265.5C 264.78,267.387 264.613,269.054 263.5,270.5C 262.167,270.5 260.833,270.5 259.5,270.5C 259.5,267.5 259.5,264.5 259.5,261.5 Z"/></g>
<g><path style="opacity:1" fill="#a2a2a2" d="M 284.5,261.5 C 288.759,261.102 290.592,263.102 290,267.5C 290.202,265.744 290.702,264.078 291.5,262.5C 292.833,265.167 292.833,267.833 291.5,270.5C 290.914,270.291 290.414,269.957 290,269.5C 288.556,271.155 286.722,271.822 284.5,271.5C 284.5,268.167 284.5,264.833 284.5,261.5 Z"/></g>
<g><path style="opacity:1" fill="#8c8c8c" d="M 266.5,264.5 C 270.677,263.842 272.177,265.508 271,269.5C 269.333,272.167 267.667,272.167 266,269.5C 265.36,267.735 265.527,266.068 266.5,264.5 Z"/></g>
<g><path style="opacity:1" fill="#f1f1f1" d="M 261.5,265.5 C 263.104,266.287 263.771,267.62 263.5,269.5C 262.5,269.5 261.5,269.5 260.5,269.5C 260.433,268.041 260.766,266.708 261.5,265.5 Z"/></g>
<g><path style="opacity:1" fill="#7d7d7d" d="M 273.5,263.5 C 274.289,263.783 274.956,264.283 275.5,265C 274.721,266.994 274.387,268.828 274.5,270.5C 273.203,268.082 272.87,265.749 273.5,263.5 Z"/></g>
<g><path style="opacity:1" fill="#efefef" d="M 267.5,265.5 C 270.861,266.203 271.194,267.537 268.5,269.5C 266.358,268.563 266.024,267.23 267.5,265.5 Z"/></g>
<g><path style="opacity:1" fill="#939393" d="M 280.5,261.5 C 281.376,261.369 282.043,261.702 282.5,262.5C 281.428,266.183 281.262,269.85 282,273.5C 279.307,269.812 278.807,265.812 280.5,261.5 Z"/></g>
<g><path style="opacity:1" fill="#828282" d="M 296.5,261.5 C 297.117,261.611 297.617,261.944 298,262.5C 298.913,266.362 298.58,270.028 297,273.5C 297.821,269.519 297.655,265.519 296.5,261.5 Z"/></g>
<g><path style="opacity:1" fill="#9d9d9d" d="M 259.5,261.5 C 259.5,264.5 259.5,267.5 259.5,270.5C 260.833,270.5 262.167,270.5 263.5,270.5C 257.927,271.776 251.927,271.776 245.5,270.5C 245.5,267.5 245.5,264.5 245.5,261.5C 249.759,261.102 251.592,263.102 251,267.5C 251.308,266.692 251.808,266.025 252.5,265.5C 253.429,266.689 253.762,268.022 253.5,269.5C 254.5,269.5 255.5,269.5 256.5,269.5C 257.724,267.545 258.724,264.878 259.5,261.5 Z"/></g>
<g><path style="opacity:1" fill="#d6d6d6" d="M 246.5,263.5 C 248.216,264.574 249.216,266.241 249.5,268.5C 248.675,269.386 247.675,269.719 246.5,269.5C 246.5,267.5 246.5,265.5 246.5,263.5 Z"/></g>
<g><path style="opacity:1" fill="#ebebeb" d="M 4.5,289.5 C 167.167,289.5 329.833,289.5 492.5,289.5C 492.5,290.167 492.833,290.5 493.5,290.5C 330.167,291.833 166.833,291.833 3.5,290.5C 4.16667,290.5 4.5,290.167 4.5,289.5 Z"/></g>
</svg>
