<?xml version="1.0" encoding="UTF-8"?>
<!DOCTYPE svg PUBLIC "-//W3C//DTD SVG 1.1//EN" "http://www.w3.org/Graphics/SVG/1.1/DTD/svg11.dtd">
<svg xmlns="http://www.w3.org/2000/svg" version="1.1" width="329px" height="220px" style="shape-rendering:geometricPrecision; text-rendering:geometricPrecision; image-rendering:optimizeQuality; fill-rule:evenodd; clip-rule:evenodd" xmlns:xlink="http://www.w3.org/1999/xlink">
<g><path style="opacity:1" fill="#6c81c4" d="M -0.5,-0.5 C 109.167,-0.5 218.833,-0.5 328.5,-0.5C 328.5,72.8333 328.5,146.167 328.5,219.5C 218.833,219.5 109.167,219.5 -0.5,219.5C -0.5,146.167 -0.5,72.8333 -0.5,-0.5 Z"/></g>
<g><path style="opacity:1" fill="#a1c5e4" d="M 0.5,0.5 C 109.5,0.5 218.5,0.5 327.5,0.5C 327.5,73.1667 327.5,145.833 327.5,218.5C 218.5,218.5 109.5,218.5 0.5,218.5C 0.5,145.833 0.5,73.1667 0.5,0.5 Z"/></g>
<g><path style="opacity:1" fill="#cefdfd" d="M 1.5,1.5 C 109.833,1.5 218.167,1.5 326.5,1.5C 326.5,73.5 326.5,145.5 326.5,217.5C 218.167,217.5 109.833,217.5 1.5,217.5C 1.5,145.5 1.5,73.5 1.5,1.5 Z"/></g>
<g><path style="opacity:1" fill="#eeeeee" d="M 193.5,27.5 C 219.743,38.9207 237.576,58.254 247,85.5C 248.816,92.7253 249.649,100.059 249.5,107.5C 246.775,103.271 243.441,99.4381 239.5,96C 238.255,95.2086 236.922,94.7086 235.5,94.5C 235.389,93.8826 235.056,93.3826 234.5,93C 229.648,92.1849 224.981,92.3516 220.5,93.5C 219.5,93.5 218.5,93.5 217.5,93.5C 214.478,93.804 211.478,94.304 208.5,95C 207.944,95.3826 207.611,95.8826 207.5,96.5C 198.283,99.7972 188.95,102.464 179.5,104.5C 179.5,104.167 179.5,103.833 179.5,103.5C 179.461,102.417 179.127,101.417 178.5,100.5C 177.743,99.2267 177.077,99.2267 176.5,100.5C 173.5,103.167 170.5,105.833 167.5,108.5C 167.348,104.513 165.348,103.013 161.5,104C 158.833,106.333 158.833,108.667 161.5,111C 163.84,111.748 165.84,111.248 167.5,109.5C 168.211,111.201 169.545,112.201 171.5,112.5C 172.919,113.451 174.585,113.784 176.5,113.5C 177.99,115.28 179.99,115.946 182.5,115.5C 202.658,123.738 222.992,131.738 243.5,139.5C 238.251,156.489 228.251,169.989 213.5,180C 206.813,184.138 200.147,187.971 193.5,191.5C 177.369,195.702 161.035,196.535 144.5,194C 141.39,192.476 138.056,191.642 134.5,191.5C 91.7628,171.373 73.5961,137.706 80,90.5C 92.1875,48.3996 120.188,26.0662 164,23.5C 168.167,23.6667 172.333,23.8333 176.5,24C 182.111,25.4828 187.778,26.6494 193.5,27.5 Z"/></g>
<g><path style="opacity:1" fill="#8dc09c" d="M 193.5,27.5 C 199.892,28.9127 205.892,31.4127 211.5,35C 237.957,53.6804 251.623,79.1804 252.5,111.5C 251.026,110.564 250.026,109.23 249.5,107.5C 249.649,100.059 248.816,92.7253 247,85.5C 237.576,58.254 219.743,38.9207 193.5,27.5 Z"/></g>
<g><path style="opacity:1" fill="#b0b7d8" d="M 145.5,55.5 C 145.245,57.9674 144.245,59.9674 142.5,61.5C 142.755,59.0326 143.755,57.0326 145.5,55.5 Z"/></g>
<g><path style="opacity:1" fill="#778ece" d="M 145.5,55.5 C 143.755,57.0326 142.755,59.0326 142.5,61.5C 139.917,68.2677 136.583,74.6011 132.5,80.5C 128.248,75.5812 123.581,70.9146 118.5,66.5C 117.571,65.3112 117.238,63.9778 117.5,62.5C 126.32,60.097 134.987,57.097 143.5,53.5C 144.713,53.7472 145.38,54.4138 145.5,55.5 Z"/></g>
<g><path style="opacity:1" fill="#96cafb" d="M 139.5,56.5 C 140.675,56.281 141.675,56.6143 142.5,57.5C 138.619,63.9279 135.286,70.5945 132.5,77.5C 128.167,73.8333 124.167,69.8333 120.5,65.5C 126.925,62.6477 133.258,59.6477 139.5,56.5 Z"/></g>
<g><path style="opacity:1" fill="#f3aeaa" d="M 217.5,93.5 C 214.417,94.9927 211.083,95.9927 207.5,96.5C 207.611,95.8826 207.944,95.3826 208.5,95C 211.478,94.304 214.478,93.804 217.5,93.5 Z"/></g>
<g><path style="opacity:1" fill="#f55449" d="M 220.5,93.5 C 224.981,92.3516 229.648,92.1849 234.5,93C 235.056,93.3826 235.389,93.8826 235.5,94.5C 235.062,94.4346 234.728,94.6012 234.5,95C 235.381,95.7083 236.047,96.5416 236.5,97.5C 232.773,95.7476 228.773,95.081 224.5,95.5C 227.305,94.6805 230.305,94.1805 233.5,94C 229.179,93.501 224.846,93.3343 220.5,93.5 Z"/></g>
<g><path style="opacity:1" fill="#f53e31" d="M 217.5,93.5 C 218.5,93.5 219.5,93.5 220.5,93.5C 224.846,93.3343 229.179,93.501 233.5,94C 230.305,94.1805 227.305,94.6805 224.5,95.5C 219.366,95.9658 214.366,96.9658 209.5,98.5C 207.033,98.7549 205.033,99.7549 203.5,101.5C 198.417,101.97 193.75,103.303 189.5,105.5C 186.67,105.694 184.004,106.361 181.5,107.5C 181.5,109.833 181.5,112.167 181.5,114.5C 179.784,114.371 178.117,114.038 176.5,113.5C 174.585,113.784 172.919,113.451 171.5,112.5C 174.5,112.5 177.5,112.5 180.5,112.5C 180.599,109.763 180.265,107.096 179.5,104.5C 188.95,102.464 198.283,99.7972 207.5,96.5C 211.083,95.9927 214.417,94.9927 217.5,93.5 Z"/></g>
<g><path style="opacity:1" fill="#eeeded" d="M 224.5,95.5 C 228.773,95.081 232.773,95.7476 236.5,97.5C 242.014,101.341 246.014,106.341 248.5,112.5C 248.557,113.609 248.89,114.609 249.5,115.5C 248.68,122.932 247.347,130.265 245.5,137.5C 224.339,130.005 203.339,122.338 182.5,114.5C 183.752,112.661 183.752,110.828 182.5,109C 185.178,108.328 187.511,107.161 189.5,105.5C 193.75,103.303 198.417,101.97 203.5,101.5C 205.967,101.245 207.967,100.245 209.5,98.5C 214.366,96.9658 219.366,95.9658 224.5,95.5 Z"/></g>
<g><path style="opacity:1" fill="#f49792" d="M 209.5,98.5 C 207.967,100.245 205.967,101.245 203.5,101.5C 205.033,99.7549 207.033,98.7549 209.5,98.5 Z"/></g>
<g><path style="opacity:1" fill="#f52014" d="M 176.5,100.5 C 177.272,101.694 178.272,102.694 179.5,103.5C 179.5,103.833 179.5,104.167 179.5,104.5C 180.265,107.096 180.599,109.763 180.5,112.5C 177.5,112.5 174.5,112.5 171.5,112.5C 169.545,112.201 168.211,111.201 167.5,109.5C 167.5,109.167 167.5,108.833 167.5,108.5C 170.5,105.833 173.5,103.167 176.5,100.5 Z"/></g>
<g><path style="opacity:1" fill="#f47770" d="M 176.5,100.5 C 177.077,99.2267 177.743,99.2267 178.5,100.5C 179.127,101.417 179.461,102.417 179.5,103.5C 178.272,102.694 177.272,101.694 176.5,100.5 Z"/></g>
<g><path style="opacity:1" fill="#2a7425" d="M 167.5,108.5 C 167.5,108.833 167.5,109.167 167.5,109.5C 165.84,111.248 163.84,111.748 161.5,111C 158.833,108.667 158.833,106.333 161.5,104C 165.348,103.013 167.348,104.513 167.5,108.5 Z"/></g>
<g><path style="opacity:1" fill="#ead0cc" d="M 189.5,105.5 C 187.511,107.161 185.178,108.328 182.5,109C 183.752,110.828 183.752,112.661 182.5,114.5C 182.5,114.833 182.5,115.167 182.5,115.5C 179.99,115.946 177.99,115.28 176.5,113.5C 178.117,114.038 179.784,114.371 181.5,114.5C 181.5,112.167 181.5,109.833 181.5,107.5C 184.004,106.361 186.67,105.694 189.5,105.5 Z"/></g>
<g><path style="opacity:1" fill="#ee9a95" d="M 248.5,112.5 C 249.906,112.973 250.573,113.973 250.5,115.5C 250.167,115.5 249.833,115.5 249.5,115.5C 248.89,114.609 248.557,113.609 248.5,112.5 Z"/></g>
<g><path style="opacity:1" fill="#7c93d1" d="M 103.5,88.5 C 104.675,88.281 105.675,88.6143 106.5,89.5C 110.628,96.7937 114.961,103.96 119.5,111C 120.573,112.416 120.573,113.75 119.5,115C 112.838,116.203 106.171,117.37 99.5,118.5C 99.1667,117.833 98.8333,117.167 98.5,116.5C 100.152,107.183 101.819,97.8501 103.5,88.5 Z"/></g>
<g><path style="opacity:1" fill="#96cafb" d="M 104.5,93.5 C 110.316,99.1147 114.65,105.781 117.5,113.5C 112.167,114.167 106.833,114.833 101.5,115.5C 102.176,108.127 103.176,100.793 104.5,93.5 Z"/></g>
<g><path style="opacity:1" fill="#ef3528" d="M 235.5,94.5 C 236.922,94.7086 238.255,95.2086 239.5,96C 243.441,99.4381 246.775,103.271 249.5,107.5C 250.026,109.23 251.026,110.564 252.5,111.5C 259.58,124.662 266.913,137.662 274.5,150.5C 273.833,150.833 273.167,151.167 272.5,151.5C 272.167,150.5 271.5,149.833 270.5,149.5C 270.672,148.508 270.338,147.842 269.5,147.5C 265.163,140.159 260.83,132.825 256.5,125.5C 256.573,123.973 255.906,122.973 254.5,122.5C 254.672,121.508 254.338,120.842 253.5,120.5C 253.573,118.973 252.906,117.973 251.5,117.5C 251.167,116.833 250.833,116.167 250.5,115.5C 250.573,113.973 249.906,112.973 248.5,112.5C 246.014,106.341 242.014,101.341 236.5,97.5C 236.047,96.5416 235.381,95.7083 234.5,95C 234.728,94.6012 235.062,94.4346 235.5,94.5 Z"/></g>
<g><path style="opacity:1" fill="#d5a096" d="M 251.5,117.5 C 252.906,117.973 253.573,118.973 253.5,120.5C 252.833,120.167 252.167,119.833 251.5,119.5C 251.5,118.833 251.5,118.167 251.5,117.5 Z"/></g>
<g><path style="opacity:1" fill="#cff4f2" d="M 251.5,119.5 C 252.167,119.833 252.833,120.167 253.5,120.5C 254.338,120.842 254.672,121.508 254.5,122.5C 254.427,124.027 255.094,125.027 256.5,125.5C 260.83,132.825 265.163,140.159 269.5,147.5C 262.378,144.237 255.045,141.571 247.5,139.5C 247.5,138.167 247.5,136.833 247.5,135.5C 249.641,130.424 250.974,125.091 251.5,119.5 Z"/></g>
<g><path style="opacity:1" fill="#95c3a2" d="M 249.5,115.5 C 249.833,115.5 250.167,115.5 250.5,115.5C 250.833,116.167 251.167,116.833 251.5,117.5C 251.5,118.167 251.5,118.833 251.5,119.5C 250.974,125.091 249.641,130.424 247.5,135.5C 246.833,136.167 246.167,136.833 245.5,137.5C 247.347,130.265 248.68,122.932 249.5,115.5 Z"/></g>
<g><path style="opacity:1" fill="#dea39e" d="M 254.5,122.5 C 255.906,122.973 256.573,123.973 256.5,125.5C 255.094,125.027 254.427,124.027 254.5,122.5 Z"/></g>
<g><path style="opacity:1" fill="#7baf81" d="M 182.5,114.5 C 203.339,122.338 224.339,130.005 245.5,137.5C 246.167,136.833 246.833,136.167 247.5,135.5C 247.5,136.833 247.5,138.167 247.5,139.5C 255.045,141.571 262.378,144.237 269.5,147.5C 270.338,147.842 270.672,148.508 270.5,149.5C 263.178,147.893 256.178,145.393 249.5,142C 247.934,141.235 246.601,141.402 245.5,142.5C 244.833,141.5 244.167,140.5 243.5,139.5C 222.992,131.738 202.658,123.738 182.5,115.5C 182.5,115.167 182.5,114.833 182.5,114.5 Z"/></g>
<g><path style="opacity:1" fill="#8ec19e" d="M 193.5,27.5 C 187.778,26.6494 182.111,25.4828 176.5,24C 172.333,23.8333 168.167,23.6667 164,23.5C 120.188,26.0662 92.1875,48.3996 80,90.5C 73.5961,137.706 91.7628,171.373 134.5,191.5C 132.073,191.477 129.74,190.977 127.5,190C 90.4718,170.266 73.3051,139.433 76,97.5C 81.8945,66.2187 99.0611,43.3854 127.5,29C 145.467,21.4304 164.134,19.4304 183.5,23C 187.162,23.9491 190.495,25.4491 193.5,27.5 Z"/></g>
<g><path style="opacity:1" fill="#7b93d1" d="M 131.5,155.5 C 131.5,157.5 131.5,159.5 131.5,161.5C 129.5,161.5 127.5,161.5 125.5,161.5C 121.008,160.162 116.341,158.995 111.5,158C 110.572,157.612 109.905,156.945 109.5,156C 114.319,149.177 119.152,142.344 124,135.5C 125.264,133.393 127.097,132.393 129.5,132.5C 129.352,140.247 130.019,147.913 131.5,155.5 Z"/></g>
<g><path style="opacity:1" fill="#97cbfb" d="M 125.5,136.5 C 127.237,139.008 128.07,142.008 128,145.5C 128.667,150.167 128.667,154.833 128,159.5C 122.744,158.416 117.577,156.916 112.5,155C 117.467,149.212 121.801,143.046 125.5,136.5 Z"/></g>
<g><path style="opacity:1" fill="#c2c8df" d="M 131.5,155.5 C 132.473,157.948 132.806,160.615 132.5,163.5C 129.933,163.279 127.599,162.612 125.5,161.5C 127.5,161.5 129.5,161.5 131.5,161.5C 131.5,159.5 131.5,157.5 131.5,155.5 Z"/></g>
<g><path style="opacity:1" fill="#89be99" d="M 243.5,139.5 C 244.167,140.5 244.833,141.5 245.5,142.5C 236.197,163.639 221.197,179.472 200.5,190C 198.26,190.977 195.927,191.477 193.5,191.5C 200.147,187.971 206.813,184.138 213.5,180C 228.251,169.989 238.251,156.489 243.5,139.5 Z"/></g>
<g><path style="opacity:1" fill="#94d1b6" d="M 274.5,168.5 C 275.525,171.974 276.192,175.64 276.5,179.5C 277.5,179.5 278.5,179.5 279.5,179.5C 278.432,180.434 277.099,180.768 275.5,180.5C 274.728,176.548 274.395,172.548 274.5,168.5 Z"/></g>
<g><path style="opacity:1" fill="#2a7f2e" d="M 274.5,150.5 C 282.381,155.612 289.714,161.445 296.5,168C 290.797,171.846 285.131,175.679 279.5,179.5C 278.5,179.5 277.5,179.5 276.5,179.5C 276.192,175.64 275.525,171.974 274.5,168.5C 273.714,162.862 273.048,157.195 272.5,151.5C 273.167,151.167 273.833,150.833 274.5,150.5 Z"/></g>
<g><path style="opacity:1" fill="#78be7e" d="M 276.5,166.5 C 277.517,169.744 278.85,172.744 280.5,175.5C 279.791,176.404 278.791,176.737 277.5,176.5C 277.384,173.14 277.051,169.807 276.5,166.5 Z"/></g>
<g><path style="opacity:1" fill="#c4f8d0" d="M 280.5,175.5 C 278.85,172.744 277.517,169.744 276.5,166.5C 276.002,162.425 276.002,158.425 276.5,154.5C 281.833,158.833 287.167,163.167 292.5,167.5C 288.78,170.547 284.78,173.214 280.5,175.5 Z"/></g>
<g><path style="opacity:1" fill="#8cc09c" d="M 134.5,191.5 C 138.056,191.642 141.39,192.476 144.5,194C 161.035,196.535 177.369,195.702 193.5,191.5C 193.38,192.586 192.713,193.253 191.5,193.5C 176.116,197.794 160.45,198.627 144.5,196C 140.838,195.051 137.505,193.551 134.5,191.5 Z"/></g>
</svg>
