<?xml version="1.0" encoding="UTF-8"?>
<!DOCTYPE svg PUBLIC "-//W3C//DTD SVG 1.1//EN" "http://www.w3.org/Graphics/SVG/1.1/DTD/svg11.dtd">
<svg xmlns="http://www.w3.org/2000/svg" version="1.1" width="328px" height="219px" style="shape-rendering:geometricPrecision; text-rendering:geometricPrecision; image-rendering:optimizeQuality; fill-rule:evenodd; clip-rule:evenodd" xmlns:xlink="http://www.w3.org/1999/xlink">
<g><path style="opacity:1" fill="#00cbfe" d="M -0.5,-0.5 C 108.833,-0.5 218.167,-0.5 327.5,-0.5C 327.5,72.5 327.5,145.5 327.5,218.5C 218.167,218.5 108.833,218.5 -0.5,218.5C -0.5,145.5 -0.5,72.5 -0.5,-0.5 Z"/></g>
<g><path style="opacity:1" fill="#69e2fc" d="M 0.5,0.5 C 109.167,0.5 217.833,0.5 326.5,0.5C 326.5,72.8333 326.5,145.167 326.5,217.5C 217.833,217.5 109.167,217.5 0.5,217.5C 0.5,145.167 0.5,72.8333 0.5,0.5 Z"/></g>
<g><path style="opacity:1" fill="#eeeeee" d="M 102.5,1.5 C 142.5,1.5 182.5,1.5 222.5,1.5C 230.766,7.64571 239.099,13.8124 247.5,20C 279.138,51.4304 290.972,89.2638 283,133.5C 276.331,162.333 261.831,186.5 239.5,206C 233.434,209.024 227.768,212.524 222.5,216.5C 182.833,216.5 143.167,216.5 103.5,216.5C 84.9794,206.149 70.1461,191.816 59,173.5C 36.6789,134.938 34.6789,95.2715 53,54.5C 58,46.5 63,38.5 68,30.5C 79.105,20.2168 90.605,10.5501 102.5,1.5 Z"/></g>
<g><path style="opacity:1" fill="#cefefe" d="M 98.5,1.5 C 87.0856,9.9877 76.2523,19.321 66,29.5C 52.3113,48.5384 43.3113,69.5384 39,92.5C 35.4158,137.652 50.2492,175.485 83.5,206C 88.6796,209.363 93.6796,212.863 98.5,216.5C 66.1667,216.5 33.8333,216.5 1.5,216.5C 1.5,144.833 1.5,73.1667 1.5,1.5C 33.8333,1.5 66.1667,1.5 98.5,1.5 Z"/></g>
<g><path style="opacity:1" fill="#cefefe" d="M 225.5,1.5 C 258.833,1.5 292.167,1.5 325.5,1.5C 325.5,73.1667 325.5,144.833 325.5,216.5C 292.5,216.5 259.5,216.5 226.5,216.5C 258.439,196.315 278.272,167.648 286,130.5C 293.549,74.243 273.383,31.243 225.5,1.5 Z"/></g>
<g><path style="opacity:1" fill="#9492e5" d="M 110.5,26.5 C 109.033,23.7417 108.367,24.075 108.5,27.5C 107.566,26.4324 107.232,25.099 107.5,23.5C 108.5,23.5 109.5,23.5 110.5,23.5C 110.5,24.5 110.5,25.5 110.5,26.5 Z"/></g>
<g><path style="opacity:1" fill="#4a4ae6" d="M 180.5,8.5 C 182.074,8.93709 183.241,9.93709 184,11.5C 186.951,18.3995 189.617,25.3995 192,32.5C 199.211,39.3758 206.044,46.5425 212.5,54C 211.337,55.8554 209.67,57.1888 207.5,58C 202.409,60.5304 197.076,62.3637 191.5,63.5C 191.766,53.1263 191.266,42.7929 190,32.5C 186.825,24.4329 183.659,16.4329 180.5,8.5 Z"/></g>
<g><path style="opacity:1" fill="#9acbfe" d="M 192.5,37.5 C 198.409,41.9018 203.909,46.9018 209,52.5C 209.617,53.4491 209.451,54.2825 208.5,55C 204.405,57.3122 200.072,59.1455 195.5,60.5C 194.015,52.8904 193.015,45.2237 192.5,37.5 Z"/></g>
<g><path style="opacity:1" fill="#514ee7" d="M 110.5,26.5 C 111.424,34.054 112.59,41.7207 114,49.5C 119.313,57.7945 123.813,66.4612 127.5,75.5C 127.182,76.6473 126.516,77.4806 125.5,78C 118.861,79.1033 112.195,79.9367 105.5,80.5C 107.823,70.8918 109.823,61.2251 111.5,51.5C 110.063,43.5456 109.063,35.5456 108.5,27.5C 108.367,24.075 109.033,23.7417 110.5,26.5 Z"/></g>
<g><path style="opacity:1" fill="#99cafe" d="M 113.5,55.5 C 115.074,55.9371 116.241,56.9371 117,58.5C 120.356,64.2039 122.856,70.2039 124.5,76.5C 119.101,76.9132 113.767,76.9132 108.5,76.5C 110.496,69.4905 112.162,62.4905 113.5,55.5 Z"/></g>
<g><path style="opacity:1" fill="#524de3" d="M 156.5,75.5 C 156.663,77.8568 156.497,80.1902 156,82.5C 155.768,81.2625 155.268,80.2625 154.5,79.5C 153.942,76.6557 153.275,73.8224 152.5,71C 152.833,70.1667 153.167,69.3333 153.5,68.5C 154.7,70.7707 155.7,73.104 156.5,75.5 Z"/></g>
<g><path style="opacity:1" fill="#8c86ea" d="M 156.5,75.5 C 157.475,78.3112 158.142,81.3112 158.5,84.5C 157.075,82.9689 156.409,83.3023 156.5,85.5C 154.926,83.8984 154.259,81.8984 154.5,79.5C 155.268,80.2625 155.768,81.2625 156,82.5C 156.497,80.1902 156.663,77.8568 156.5,75.5 Z"/></g>
<g><path style="opacity:1" fill="#7bc079" d="M 164.5,94.5 C 163.67,86.0097 163.17,77.343 163,68.5C 162.83,78.342 162.33,88.0087 161.5,97.5C 161.5,95.8333 161.5,94.1667 161.5,92.5C 161.5,84.1667 161.5,75.8333 161.5,67.5C 162.5,67.5 163.5,67.5 164.5,67.5C 164.5,76.5 164.5,85.5 164.5,94.5 Z"/></g>
<g><path style="opacity:1" fill="#4441e2" d="M 158.5,84.5 C 158.263,85.791 158.596,86.791 159.5,87.5C 159.662,89.5273 159.495,91.5273 159,93.5C 158.79,91.9419 158.29,90.6085 157.5,89.5C 156.766,88.2921 156.433,86.9587 156.5,85.5C 156.409,83.3023 157.075,82.9689 158.5,84.5 Z"/></g>
<g><path style="opacity:1" fill="#4c4de7" d="M 233.5,53.5 C 234.75,53.5774 235.583,54.244 236,55.5C 237.653,63.4184 238.653,71.4184 239,79.5C 241.023,81.5397 242.69,83.873 244,86.5C 246.853,93.5319 249.686,100.532 252.5,107.5C 245.248,108.938 237.914,109.604 230.5,109.5C 232.238,100.131 234.571,90.9647 237.5,82C 236.132,72.3981 234.799,62.8981 233.5,53.5 Z"/></g>
<g><path style="opacity:1" fill="#98c8fe" d="M 238.5,84.5 C 240.776,86.3306 242.609,88.6639 244,91.5C 246.385,96.2747 248.218,101.275 249.5,106.5C 244.435,106.219 239.435,106.552 234.5,107.5C 234.167,106.667 233.833,105.833 233.5,105C 235.622,98.2625 237.289,91.4292 238.5,84.5 Z"/></g>
<g><path style="opacity:1" fill="#7a76e3" d="M 159.5,87.5 C 160.167,89.1667 160.833,90.8333 161.5,92.5C 161.5,94.1667 161.5,95.8333 161.5,97.5C 161.672,98.4916 161.338,99.1583 160.5,99.5C 158.025,96.7491 157.025,93.4158 157.5,89.5C 158.29,90.6085 158.79,91.9419 159,93.5C 159.495,91.5273 159.662,89.5273 159.5,87.5 Z"/></g>
<g><path style="opacity:1" fill="#46a741" d="M 164.5,94.5 C 168.601,103.906 171.935,113.573 174.5,123.5C 167.167,123.5 159.833,123.5 152.5,123.5C 152.684,119.284 153.684,115.284 155.5,111.5C 156.404,110.791 156.737,109.791 156.5,108.5C 157.746,105.547 159.079,102.547 160.5,99.5C 161.338,99.1583 161.672,98.4916 161.5,97.5C 162.33,88.0087 162.83,78.342 163,68.5C 163.17,77.343 163.67,86.0097 164.5,94.5 Z"/></g>
<g><path style="opacity:1" fill="#fe3023" d="M 156.5,108.5 C 156.737,109.791 156.404,110.791 155.5,111.5C 150.879,112.115 146.212,112.782 141.5,113.5C 142.309,115.071 142.643,116.738 142.5,118.5C 136.994,117.79 131.66,116.457 126.5,114.5C 125.174,112.805 125.507,111.472 127.5,110.5C 131.96,107.789 136.627,105.455 141.5,103.5C 141.5,105.5 141.5,107.5 141.5,109.5C 145.662,108.881 149.828,108.215 154,107.5C 155.07,107.528 155.903,107.861 156.5,108.5 Z"/></g>
<g><path style="opacity:1" fill="#fb9998" d="M 127.5,110.5 C 125.507,111.472 125.174,112.805 126.5,114.5C 125.5,114.5 124.5,114.5 123.5,114.5C 123.167,111.5 124.5,110.167 127.5,110.5 Z"/></g>
<g><path style="opacity:1" fill="#c7f9c7" d="M 162.5,99.5 C 164.284,100.574 165.451,102.24 166,104.5C 167.731,109.86 169.564,115.193 171.5,120.5C 165.833,121.833 160.167,121.833 154.5,120.5C 157.321,113.538 159.988,106.538 162.5,99.5 Z"/></g>
<g><path style="opacity:1" fill="#4c4ce6" d="M 60.5,97.5 C 61.209,96.596 62.209,96.2627 63.5,96.5C 65.9773,105.433 69.1439,114.1 73,122.5C 79.9333,129.095 86.4333,135.929 92.5,143C 91.6313,144.702 90.2979,145.869 88.5,146.5C 83.2692,148.367 78.1026,150.367 73,152.5C 72.228,152.355 71.5613,152.022 71,151.5C 70.6667,141.167 70.3333,130.833 70,120.5C 66.7806,112.744 63.6139,105.078 60.5,97.5 Z"/></g>
<g><path style="opacity:1" fill="#9acbfe" d="M 72.5,125.5 C 78.1846,130.685 83.6846,136.019 89,141.5C 89.6877,142.332 89.521,142.998 88.5,143.5C 83.6214,145.056 78.9547,147.056 74.5,149.5C 73.2727,141.546 72.6061,133.546 72.5,125.5 Z"/></g>
<g><path style="opacity:1" fill="#8b89ec" d="M 123.5,145.5 C 122.033,142.742 121.367,143.075 121.5,146.5C 120.566,145.432 120.232,144.099 120.5,142.5C 121.5,142.5 122.5,142.5 123.5,142.5C 123.5,143.5 123.5,144.5 123.5,145.5 Z"/></g>
<g><path style="opacity:1" fill="#4b49e7" d="M 204.5,124.5 C 206.411,124.574 207.578,125.574 208,127.5C 210.926,134.36 213.592,141.36 216,148.5C 223.414,155.409 230.247,162.743 236.5,170.5C 236.167,171.167 235.833,171.833 235.5,172.5C 229.382,174.98 223.382,177.647 217.5,180.5C 216.914,180.291 216.414,179.957 216,179.5C 217.684,161.195 214.018,144.195 205,128.5C 204.51,127.207 204.343,125.873 204.5,124.5 Z"/></g>
<g><path style="opacity:1" fill="#99cafe" d="M 216.5,153.5 C 222.409,157.902 227.909,162.902 233,168.5C 233.483,169.448 233.649,170.448 233.5,171.5C 228.608,173.444 223.608,175.11 218.5,176.5C 217.921,168.817 217.255,161.151 216.5,153.5 Z"/></g>
<g><path style="opacity:1" fill="#979f9f" d="M 98.5,1.5 C 99.8333,1.5 101.167,1.5 102.5,1.5C 90.605,10.5501 79.105,20.2168 68,30.5C 63,38.5 58,46.5 53,54.5C 34.6789,95.2715 36.6789,134.938 59,173.5C 70.1461,191.816 84.9794,206.149 103.5,216.5C 101.833,216.5 100.167,216.5 98.5,216.5C 93.6796,212.863 88.6796,209.363 83.5,206C 50.2492,175.485 35.4158,137.652 39,92.5C 43.3113,69.5384 52.3113,48.5384 66,29.5C 76.2523,19.321 87.0856,9.9877 98.5,1.5 Z"/></g>
<g><path style="opacity:1" fill="#4e4ee7" d="M 123.5,145.5 C 123.511,158.67 127.011,170.67 134,181.5C 136.462,186.752 138.629,192.085 140.5,197.5C 134.682,198.028 129.016,198.695 123.5,199.5C 121.833,199.5 120.167,199.5 118.5,199.5C 118.5,198.5 118.5,197.5 118.5,196.5C 120.466,188.245 122.466,179.911 124.5,171.5C 123.56,163.157 122.56,154.824 121.5,146.5C 121.367,143.075 122.033,142.742 123.5,145.5 Z"/></g>
<g><path style="opacity:1" fill="#9acbfe" d="M 126.5,174.5 C 127.458,174.953 128.292,175.619 129,176.5C 130.954,181.705 133.287,186.705 136,191.5C 136.49,192.793 136.657,194.127 136.5,195.5C 131.463,196.259 126.463,196.259 121.5,195.5C 122.635,188.349 124.301,181.349 126.5,174.5 Z"/></g>
<g><path style="opacity:1" fill="#979f9f" d="M 222.5,1.5 C 223.5,1.5 224.5,1.5 225.5,1.5C 273.383,31.243 293.549,74.243 286,130.5C 278.272,167.648 258.439,196.315 226.5,216.5C 225.167,216.5 223.833,216.5 222.5,216.5C 227.768,212.524 233.434,209.024 239.5,206C 261.831,186.5 276.331,162.333 283,133.5C 290.972,89.2638 279.138,51.4304 247.5,20C 239.099,13.8124 230.766,7.64571 222.5,1.5 Z"/></g>
<g><path style="opacity:1" fill="#9d9ced" d="M 118.5,196.5 C 118.5,197.5 118.5,198.5 118.5,199.5C 120.167,199.5 121.833,199.5 123.5,199.5C 121.735,200.461 119.735,200.795 117.5,200.5C 117.232,198.901 117.566,197.568 118.5,196.5 Z"/></g>
</svg>
