<?xml version="1.0" encoding="UTF-8"?>
<!DOCTYPE svg PUBLIC "-//W3C//DTD SVG 1.1//EN" "http://www.w3.org/Graphics/SVG/1.1/DTD/svg11.dtd">
<svg xmlns="http://www.w3.org/2000/svg" version="1.1" width="329px" height="220px" style="shape-rendering:geometricPrecision; text-rendering:geometricPrecision; image-rendering:optimizeQuality; fill-rule:evenodd; clip-rule:evenodd" xmlns:xlink="http://www.w3.org/1999/xlink">
<g><path style="opacity:1" fill="#2dcffd" d="M -0.5,-0.5 C 109.167,-0.5 218.833,-0.5 328.5,-0.5C 328.5,72.8333 328.5,146.167 328.5,219.5C 218.833,219.5 109.167,219.5 -0.5,219.5C -0.5,146.167 -0.5,72.8333 -0.5,-0.5 Z"/></g>
<g><path style="opacity:1" fill="#6ae4fd" d="M 326.5,216.5 C 326.5,144.833 326.5,73.1667 326.5,1.5C 293.167,1.5 259.833,1.5 226.5,1.5C 225.167,1.5 223.833,1.5 222.5,1.5C 182.5,1.5 142.5,1.5 102.5,1.5C 101.167,1.5 99.8333,1.5 98.5,1.5C 66.1667,1.5 33.8333,1.5 1.5,1.5C 1.5,73.1667 1.5,144.833 1.5,216.5C 0.50078,144.669 0.167446,72.6686 0.5,0.5C 109.5,0.5 218.5,0.5 327.5,0.5C 327.833,72.6686 327.499,144.669 326.5,216.5 Z"/></g>
<g><path style="opacity:1" fill="#cdfdfe" d="M 98.5,1.5 C 90.7535,8.22058 82.7535,14.7206 74.5,21C 71.3207,25.698 67.654,29.198 63.5,31.5C 58.2667,23.3839 52.7667,15.3839 47,7.5C 45.9887,6.66337 44.8221,6.33003 43.5,6.5C 43.2095,14.866 42.5428,23.1994 41.5,31.5C 40.5386,33.2646 40.2053,35.2646 40.5,37.5C 44.7051,37.2833 48.7051,36.6167 52.5,35.5C 55.3112,34.525 58.3112,33.8583 61.5,33.5C 62.0431,33.56 62.3764,33.8933 62.5,34.5C 38.8546,69.6369 33.0213,107.637 45,148.5C 47.2853,154.07 49.2853,159.736 51,165.5C 53.1801,167.863 54.8468,170.53 56,173.5C 67.3171,190.983 81.4838,205.649 98.5,217.5C 65.9957,217.832 33.6624,217.498 1.5,216.5C 1.5,144.833 1.5,73.1667 1.5,1.5C 33.8333,1.5 66.1667,1.5 98.5,1.5 Z"/></g>
<g><path style="opacity:1" fill="#eeeeee" d="M 102.5,1.5 C 142.5,1.5 182.5,1.5 222.5,1.5C 272.395,31.8607 292.895,76.194 284,134.5C 277.261,162.677 263.095,186.51 241.5,206C 235.299,209.596 229.299,213.429 223.5,217.5C 183.5,217.5 143.5,217.5 103.5,217.5C 58.1797,188.877 37.6797,147.543 42,93.5C 45.6953,69.4169 55.0287,47.7502 70,28.5C 80.4396,18.8817 91.273,9.88168 102.5,1.5 Z"/></g>
<g><path style="opacity:1" fill="#cefefe" d="M 226.5,1.5 C 259.833,1.5 293.167,1.5 326.5,1.5C 326.5,73.1667 326.5,144.833 326.5,216.5C 293.671,217.498 260.671,217.832 227.5,217.5C 247.836,204.936 263.669,187.936 275,166.5C 287.959,138.905 291.626,109.905 286,79.5C 282.793,69.2176 278.793,59.2176 274,49.5C 262.24,29.3897 246.407,13.3897 226.5,1.5 Z"/></g>
<g><path style="opacity:1" fill="#3f48e8" d="M 63.5,31.5 C 62.5,31.8333 61.8333,32.5 61.5,33.5C 58.3112,33.8583 55.3112,34.525 52.5,35.5C 50.4727,35.6621 48.4727,35.4955 46.5,35C 47.7375,34.7679 48.7375,34.2679 49.5,33.5C 52.5873,31.983 55.9206,31.3163 59.5,31.5C 56.2005,24.2534 51.8671,17.5867 46.5,11.5C 44.5211,19.0397 43.5211,26.7064 43.5,34.5C 44.6602,36.2027 43.9935,36.8693 41.5,36.5C 41.5,34.8333 41.5,33.1667 41.5,31.5C 42.5428,23.1994 43.2095,14.866 43.5,6.5C 44.8221,6.33003 45.9887,6.66337 47,7.5C 52.7667,15.3839 58.2667,23.3839 63.5,31.5 Z"/></g>
<g><path style="opacity:1" fill="#9acbfe" d="M 49.5,33.5 C 47.4352,33.5172 45.4352,33.8505 43.5,34.5C 43.5211,26.7064 44.5211,19.0397 46.5,11.5C 51.8671,17.5867 56.2005,24.2534 59.5,31.5C 55.9206,31.3163 52.5873,31.983 49.5,33.5 Z"/></g>
<g><path style="opacity:1" fill="#6072ef" d="M 41.5,31.5 C 41.5,33.1667 41.5,34.8333 41.5,36.5C 43.9935,36.8693 44.6602,36.2027 43.5,34.5C 45.4352,33.8505 47.4352,33.5172 49.5,33.5C 48.7375,34.2679 47.7375,34.7679 46.5,35C 48.4727,35.4955 50.4727,35.6621 52.5,35.5C 48.7051,36.6167 44.7051,37.2833 40.5,37.5C 40.2053,35.2646 40.5386,33.2646 41.5,31.5 Z"/></g>
<g><path style="opacity:1" fill="#4e4de5" d="M 147.5,26.5 C 150.642,26.7993 152.809,28.4659 154,31.5C 156.214,38.2584 159.214,44.5917 163,50.5C 163.49,51.7932 163.657,53.1266 163.5,54.5C 155.855,55.3081 148.189,55.9748 140.5,56.5C 143.473,46.6732 145.806,36.6732 147.5,26.5 Z"/></g>
<g><path style="opacity:1" fill="#9accfe" d="M 149.5,31.5 C 150.376,31.3691 151.043,31.7025 151.5,32.5C 154.211,38.9236 157.211,45.2569 160.5,51.5C 155.248,52.8231 149.915,53.4898 144.5,53.5C 145.554,45.9549 147.221,38.6216 149.5,31.5 Z"/></g>
<g><path style="opacity:1" fill="#96a0a0" d="M 98.5,1.5 C 99.8333,1.5 101.167,1.5 102.5,1.5C 91.273,9.88168 80.4396,18.8817 70,28.5C 55.0287,47.7502 45.6953,69.4169 42,93.5C 37.6797,147.543 58.1797,188.877 103.5,217.5C 101.833,217.5 100.167,217.5 98.5,217.5C 81.4838,205.649 67.3171,190.983 56,173.5C 54.8468,170.53 53.1801,167.863 51,165.5C 49.2853,159.736 47.2853,154.07 45,148.5C 33.0213,107.637 38.8546,69.6369 62.5,34.5C 62.3764,33.8933 62.0431,33.56 61.5,33.5C 61.8333,32.5 62.5,31.8333 63.5,31.5C 67.654,29.198 71.3207,25.698 74.5,21C 82.7535,14.7206 90.7535,8.22058 98.5,1.5 Z"/></g>
<g><path style="opacity:1" fill="#4847e4" d="M 92.5,89.5 C 92.7373,90.791 92.404,91.791 91.5,92.5C 89.9016,90.1433 88.9016,87.4766 88.5,84.5C 88.2259,78.3549 87.2259,72.3549 85.5,66.5C 81.1667,73.1667 76.8333,79.8333 72.5,86.5C 76.87,87.4087 81.2033,88.4087 85.5,89.5C 86.2625,90.2679 87.2625,90.7679 88.5,91C 86.5273,91.4955 84.5273,91.6621 82.5,91.5C 78.6061,90.4066 74.6061,89.7399 70.5,89.5C 70.2978,87.0108 70.7978,84.6775 72,82.5C 76.3525,75.1145 81.1859,68.1145 86.5,61.5C 87.086,61.7093 87.586,62.0426 88,62.5C 89.5048,71.6386 91.0048,80.6386 92.5,89.5 Z"/></g>
<g><path style="opacity:1" fill="#9accfe" d="M 88.5,84.5 C 88.5,86.1667 88.5,87.8333 88.5,89.5C 87.5,89.5 86.5,89.5 85.5,89.5C 81.2033,88.4087 76.87,87.4087 72.5,86.5C 76.8333,79.8333 81.1667,73.1667 85.5,66.5C 87.2259,72.3549 88.2259,78.3549 88.5,84.5 Z"/></g>
<g><path style="opacity:1" fill="#458b45" d="M 119.5,102.5 C 118.833,101.5 118.167,100.5 117.5,99.5C 125.362,85.6124 133.362,71.779 141.5,58C 142.332,57.3123 142.998,57.479 143.5,58.5C 135.577,71.7499 127.744,85.0833 120,98.5C 119.51,99.7932 119.343,101.127 119.5,102.5 Z"/></g>
<g><path style="opacity:1" fill="#747aed" d="M 88.5,84.5 C 88.9016,87.4766 89.9016,90.1433 91.5,92.5C 91.2648,93.0967 90.7648,93.4301 90,93.5C 87.3309,92.9839 84.8309,92.3173 82.5,91.5C 84.5273,91.6621 86.5273,91.4955 88.5,91C 87.2625,90.7679 86.2625,90.2679 85.5,89.5C 86.5,89.5 87.5,89.5 88.5,89.5C 88.5,87.8333 88.5,86.1667 88.5,84.5 Z"/></g>
<g><path style="opacity:1" fill="#4d8f4b" d="M 112.5,100.5 C 110.925,102.114 110.259,104.114 110.5,106.5C 109.837,104.958 109.17,103.291 108.5,101.5C 103.431,97.0909 98.0977,93.0909 92.5,89.5C 92.5173,87.9719 93.184,87.4719 94.5,88C 99.4537,91.2853 104.12,94.952 108.5,99C 109.745,99.7914 111.078,100.291 112.5,100.5 Z"/></g>
<g><path style="opacity:1" fill="#15690e" d="M 117.5,99.5 C 118.167,100.5 118.833,101.5 119.5,102.5C 120.338,102.842 120.672,103.508 120.5,104.5C 119.596,105.209 119.263,106.209 119.5,107.5C 118.833,107.833 118.167,108.167 117.5,108.5C 115.958,109.301 114.292,109.634 112.5,109.5C 112.715,107.821 112.048,106.821 110.5,106.5C 110.259,104.114 110.925,102.114 112.5,100.5C 113.919,99.5489 115.585,99.2155 117.5,99.5 Z"/></g>
<g><path style="opacity:1" fill="#fc2b21" d="M 152.5,106.5 C 154.531,106.972 156.198,107.972 157.5,109.5C 157.5,110.167 157.167,110.5 156.5,110.5C 150.642,110.09 144.809,109.423 139,108.5C 137.893,108.585 136.893,108.919 136,109.5C 135.506,111.134 135.34,112.801 135.5,114.5C 130.189,112.172 124.855,109.839 119.5,107.5C 119.263,106.209 119.596,105.209 120.5,104.5C 125.735,103.006 131.069,101.673 136.5,100.5C 136.5,102.167 136.5,103.833 136.5,105.5C 141.822,105.98 147.155,106.313 152.5,106.5 Z"/></g>
<g><path style="opacity:1" fill="#3f46e8" d="M 12.5,110.5 C 13.2186,108.236 13.552,105.903 13.5,103.5C 15.2864,96.1361 17.2864,88.8028 19.5,81.5C 20.675,81.281 21.675,81.6143 22.5,82.5C 23.0831,84.0016 23.9164,85.3349 25,86.5C 28.3971,93.7315 31.5637,101.065 34.5,108.5C 28.0052,109.452 21.5052,110.452 15,111.5C 13.9302,111.472 13.0968,111.139 12.5,110.5 Z"/></g>
<g><path style="opacity:1" fill="#99cafe" d="M 20.5,86.5 C 21.4959,86.4142 22.3292,86.7476 23,87.5C 26.11,94.0529 28.9433,100.72 31.5,107.5C 26.1667,107.833 20.8333,108.167 15.5,108.5C 16.7393,101.061 18.406,93.7281 20.5,86.5 Z"/></g>
<g><path style="opacity:1" fill="#d57c71" d="M 152.5,106.5 C 154.5,106.5 156.5,106.5 158.5,106.5C 158.737,107.791 158.404,108.791 157.5,109.5C 156.198,107.972 154.531,106.972 152.5,106.5 Z"/></g>
<g><path style="opacity:1" fill="#758ef2" d="M 13.5,103.5 C 13.552,105.903 13.2186,108.236 12.5,110.5C 11.9033,110.265 11.5699,109.765 11.5,109C 11.9537,106.97 12.6204,105.137 13.5,103.5 Z"/></g>
<g><path style="opacity:1" fill="#4aa148" d="M 173.5,123.5 C 166.833,123.5 160.167,123.5 153.5,123.5C 153.993,121.194 154.326,118.861 154.5,116.5C 155.458,114.698 156.125,112.698 156.5,110.5C 157.167,110.5 157.5,110.167 157.5,109.5C 158.404,108.791 158.737,107.791 158.5,106.5C 159.963,103.342 161.129,100.009 162,96.5C 163.183,95.269 164.349,95.269 165.5,96.5C 168.34,103.886 171.173,111.22 174,118.5C 174.78,120.387 174.613,122.054 173.5,123.5 Z"/></g>
<g><path style="opacity:1" fill="#caf8ca" d="M 163.5,100.5 C 164.117,100.611 164.617,100.944 165,101.5C 167.052,108.739 169.552,115.739 172.5,122.5C 166.833,122.5 161.167,122.5 155.5,122.5C 157.19,114.758 159.857,107.425 163.5,100.5 Z"/></g>
<g><path style="opacity:1" fill="#75b774" d="M 154.5,116.5 C 154.326,118.861 153.993,121.194 153.5,123.5C 160.167,123.5 166.833,123.5 173.5,123.5C 166.687,124.491 159.687,124.825 152.5,124.5C 152.294,121.505 152.96,118.838 154.5,116.5 Z"/></g>
<g><path style="opacity:1" fill="#5b9b59" d="M 110.5,106.5 C 112.048,106.821 112.715,107.821 112.5,109.5C 114.292,109.634 115.958,109.301 117.5,108.5C 119.332,130.49 120.999,152.49 122.5,174.5C 122.5,175.167 122.167,175.5 121.5,175.5C 119.293,153.97 116.96,132.303 114.5,110.5C 113.522,110.977 112.689,111.643 112,112.5C 107.98,121.214 103.48,129.547 98.5,137.5C 98.1667,136.833 97.8333,136.167 97.5,135.5C 101.526,126.93 106.026,118.597 111,110.5C 111.579,109.072 111.412,107.738 110.5,106.5 Z"/></g>
<g><path style="opacity:1" fill="#4a4ae4" d="M 97.5,135.5 C 97.8333,136.167 98.1667,136.833 98.5,137.5C 100.739,141.64 103.239,145.64 106,149.5C 106.445,151.594 105.612,153.094 103.5,154C 97.1675,154.916 90.8341,155.75 84.5,156.5C 85.051,146.632 86.7177,136.965 89.5,127.5C 90.5,126.167 91.5,126.167 92.5,127.5C 94.1916,130.231 95.8583,132.898 97.5,135.5 Z"/></g>
<g><path style="opacity:1" fill="#9accfe" d="M 90.5,130.5 C 94.8053,135.755 98.6387,141.422 102,147.5C 102.49,148.793 102.657,150.127 102.5,151.5C 97.5,152.167 92.5,152.833 87.5,153.5C 88.1145,145.767 89.1145,138.1 90.5,130.5 Z"/></g>
<g><path style="opacity:1" fill="#4a4ce5" d="M 121.5,175.5 C 122.167,175.5 122.5,175.167 122.5,174.5C 123.785,172.548 125.451,170.882 127.5,169.5C 129.866,179.674 130.866,190.008 130.5,200.5C 124.697,199.604 119.03,198.104 113.5,196C 111.777,195.477 110.444,194.477 109.5,193C 113.315,187.022 117.315,181.189 121.5,175.5 Z"/></g>
<g><path style="opacity:1" fill="#96bbf7" d="M 45.5,167.5 C 46.209,166.596 47.209,166.263 48.5,166.5C 48.8278,177.346 48.4944,188.013 47.5,198.5C 48.1419,187.779 47.4753,177.446 45.5,167.5 Z"/></g>
<g><path style="opacity:1" fill="#9bccfe" d="M 124.5,174.5 C 126.489,181.455 127.822,188.789 128.5,196.5C 128,196.833 127.5,197.167 127,197.5C 123.617,196.186 120.117,195.353 116.5,195C 114.998,194.417 113.665,193.584 112.5,192.5C 116.944,186.736 120.944,180.736 124.5,174.5 Z"/></g>
<g><path style="opacity:1" fill="#959e9e" d="M 222.5,1.5 C 223.833,1.5 225.167,1.5 226.5,1.5C 246.407,13.3897 262.24,29.3897 274,49.5C 278.793,59.2176 282.793,69.2176 286,79.5C 291.626,109.905 287.959,138.905 275,166.5C 263.669,187.936 247.836,204.936 227.5,217.5C 226.167,217.5 224.833,217.5 223.5,217.5C 229.299,213.429 235.299,209.596 241.5,206C 263.095,186.51 277.261,162.677 284,134.5C 292.895,76.194 272.395,31.8607 222.5,1.5 Z"/></g>
<g><path style="opacity:1" fill="#414ce9" d="M 45.5,167.5 C 47.4753,177.446 48.1419,187.779 47.5,198.5C 40.6951,196.635 34.0285,194.468 27.5,192C 26.6433,191.311 25.9767,190.478 25.5,189.5C 31.8762,181.796 38.5429,174.462 45.5,167.5 Z"/></g>
<g><path style="opacity:1" fill="#7096f6" d="M 42.5,194.5 C 43.821,191.402 44.4877,187.902 44.5,184C 44.4877,180.098 43.821,176.598 42.5,173.5C 42.811,172.522 43.4777,171.855 44.5,171.5C 45.4977,179.472 45.831,187.472 45.5,195.5C 44.209,195.737 43.209,195.404 42.5,194.5 Z"/></g>
<g><path style="opacity:1" fill="#9ccefe" d="M 42.5,173.5 C 43.821,176.598 44.4877,180.098 44.5,184C 44.4877,187.902 43.821,191.402 42.5,194.5C 37.7245,193.525 33.3912,191.692 29.5,189C 33.2786,183.386 37.6119,178.22 42.5,173.5 Z"/></g>
</svg>
