<?xml version="1.0" encoding="UTF-8"?>
<!DOCTYPE svg PUBLIC "-//W3C//DTD SVG 1.1//EN" "http://www.w3.org/Graphics/SVG/1.1/DTD/svg11.dtd">
<svg xmlns="http://www.w3.org/2000/svg" version="1.1" width="329px" height="220px" style="shape-rendering:geometricPrecision; text-rendering:geometricPrecision; image-rendering:optimizeQuality; fill-rule:evenodd; clip-rule:evenodd" xmlns:xlink="http://www.w3.org/1999/xlink">
<g><path style="opacity:1" fill="#5468b9" d="M -0.5,-0.5 C 109.167,-0.5 218.833,-0.5 328.5,-0.5C 328.5,72.8333 328.5,146.167 328.5,219.5C 218.833,219.5 109.167,219.5 -0.5,219.5C -0.5,146.167 -0.5,72.8333 -0.5,-0.5 Z"/></g>
<g><path style="opacity:1" fill="#96b9de" d="M 0.5,0.5 C 109.5,0.5 218.5,0.5 327.5,0.5C 327.5,73.1667 327.5,145.833 327.5,218.5C 218.5,218.5 109.5,218.5 0.5,218.5C 0.5,145.833 0.5,73.1667 0.5,0.5 Z"/></g>
<g><path style="opacity:1" fill="#cefdfd" d="M 1.5,1.5 C 109.833,1.5 218.167,1.5 326.5,1.5C 326.5,73.5 326.5,145.5 326.5,217.5C 218.167,217.5 109.833,217.5 1.5,217.5C 1.5,145.5 1.5,73.5 1.5,1.5 Z"/></g>
<g><path style="opacity:1" fill="#1c6f1c" d="M 173.5,11.5 C 173.5,12.1667 173.5,12.8333 173.5,13.5C 172.5,13.8333 171.833,14.5 171.5,15.5C 171.167,15.5 170.833,15.5 170.5,15.5C 169.833,15.5 169.167,15.5 168.5,15.5C 168.167,15.5 167.833,15.5 167.5,15.5C 167.167,14.5 166.5,13.8333 165.5,13.5C 165.5,12.5 165.5,11.5 165.5,10.5C 166.312,9.00691 167.645,8.34024 169.5,8.5C 171.982,8.1104 173.315,9.1104 173.5,11.5 Z"/></g>
<g><path style="opacity:1" fill="#eeeeee" d="M 165.5,13.5 C 166.5,13.8333 167.167,14.5 167.5,15.5C 167.5,31.1667 167.5,46.8333 167.5,62.5C 164.941,62.1984 162.607,62.5318 160.5,63.5C 159.778,63.9175 159.278,64.5842 159,65.5C 157.624,62.8753 156.458,62.8753 155.5,65.5C 155.439,70.322 154.273,70.6553 152,66.5C 144.68,54.5327 137.346,42.5327 130,30.5C 128.872,28.6547 128.372,26.6547 128.5,24.5C 128.281,23.325 128.614,22.325 129.5,21.5C 140.684,15.661 152.684,12.9943 165.5,13.5 Z"/></g>
<g><path style="opacity:1" fill="#eeeeee" d="M 173.5,13.5 C 205.143,17.465 228.81,33.1316 244.5,60.5C 257.894,94.0238 254.061,125.357 233,154.5C 204.765,184.289 171.265,192.455 132.5,179C 124.523,175.345 117.189,170.678 110.5,165C 108.859,163.871 107.859,162.371 107.5,160.5C 126.965,140.535 146.632,120.701 166.5,101C 168.382,100.802 170.048,100.302 171.5,99.5C 172.434,98.4324 172.768,97.099 172.5,95.5C 171.518,68.8778 171.184,42.2111 171.5,15.5C 171.833,14.5 172.5,13.8333 173.5,13.5 Z"/></g>
<g><path style="opacity:1" fill="#8ec29f" d="M 165.5,10.5 C 165.5,11.5 165.5,12.5 165.5,13.5C 152.684,12.9943 140.684,15.661 129.5,21.5C 128.614,22.325 128.281,23.325 128.5,24.5C 128.167,24.5 127.833,24.5 127.5,24.5C 127.634,22.7085 127.301,21.0418 126.5,19.5C 135.758,16.3685 145.091,13.5351 154.5,11C 158.152,10.5014 161.818,10.3347 165.5,10.5 Z"/></g>
<g><path style="opacity:1" fill="#256c1a" d="M 126.5,19.5 C 127.301,21.0418 127.634,22.7085 127.5,24.5C 127.672,25.4916 127.338,26.1583 126.5,26.5C 125.842,25.6016 125.176,24.6016 124.5,23.5C 123.482,24.1925 122.482,24.8592 121.5,25.5C 120.833,25.5 120.5,25.1667 120.5,24.5C 120.5,23.1667 120.5,21.8333 120.5,20.5C 122.5,20.1667 124.5,19.8333 126.5,19.5 Z"/></g>
<g><path style="opacity:1" fill="#f4271b" d="M 126.5,26.5 C 126.5,27.8333 126.5,29.1667 126.5,30.5C 127.219,32.7638 127.552,35.0971 127.5,37.5C 124.918,37.0254 122.918,37.6921 121.5,39.5C 120.699,41.0418 120.366,42.7085 120.5,44.5C 119.076,46.5145 118.41,48.8478 118.5,51.5C 117.071,55.654 116.071,59.9873 115.5,64.5C 113.69,67.145 112.69,70.145 112.5,73.5C 112.5,74.1667 112.5,74.8333 112.5,75.5C 111.129,77.936 110.129,80.6027 109.5,83.5C 108.596,82.791 108.263,81.791 108.5,80.5C 109.829,74.1764 111.162,67.8431 112.5,61.5C 113.993,58.4168 114.993,55.0835 115.5,51.5C 115.5,51.1667 115.5,50.8333 115.5,50.5C 116.537,49.0697 117.204,47.403 117.5,45.5C 118.051,42.1933 118.384,38.8599 118.5,35.5C 116.712,35.7852 115.045,35.4519 113.5,34.5C 114.524,33.1482 115.524,31.8149 116.5,30.5C 117.93,28.614 119.597,26.9473 121.5,25.5C 122.482,24.8592 123.482,24.1925 124.5,23.5C 125.176,24.6016 125.842,25.6016 126.5,26.5 Z"/></g>
<g><path style="opacity:1" fill="#8dbf9b" d="M 173.5,11.5 C 202.763,14.8873 225.596,28.8873 242,53.5C 243.411,55.6504 244.245,57.9837 244.5,60.5C 228.81,33.1316 205.143,17.465 173.5,13.5C 173.5,12.8333 173.5,12.1667 173.5,11.5 Z"/></g>
<g><path style="opacity:1" fill="#eeecec" d="M 116.5,30.5 C 115.524,31.8149 114.524,33.1482 113.5,34.5C 115.045,35.4519 116.712,35.7852 118.5,35.5C 118.384,38.8599 118.051,42.1933 117.5,45.5C 115.787,46.6354 115.12,48.302 115.5,50.5C 115.5,50.8333 115.5,51.1667 115.5,51.5C 114.883,51.6107 114.383,51.944 114,52.5C 113.304,55.4781 112.804,58.4781 112.5,61.5C 111.162,67.8431 109.829,74.1764 108.5,80.5C 107.59,82.0188 106.757,83.6854 106,85.5C 101.719,104.443 96.8855,123.109 91.5,141.5C 90.188,138.485 88.5213,135.818 86.5,133.5C 84.2839,127.086 82.9505,120.42 82.5,113.5C 81.1667,103.833 81.1667,94.1667 82.5,84.5C 83.2191,78.0167 84.5524,71.6834 86.5,65.5C 93.1533,52.4628 102.153,40.9628 113.5,31C 114.448,30.5172 115.448,30.3505 116.5,30.5 Z"/></g>
<g><path style="opacity:1" fill="#f48984" d="M 126.5,30.5 C 127.167,30.8333 127.833,31.1667 128.5,31.5C 128.5,33.8333 128.5,36.1667 128.5,38.5C 126.05,38.298 123.717,38.6314 121.5,39.5C 122.918,37.6921 124.918,37.0254 127.5,37.5C 127.552,35.0971 127.219,32.7638 126.5,30.5 Z"/></g>
<g><path style="opacity:1" fill="#8abe99" d="M 120.5,24.5 C 120.5,25.1667 120.833,25.5 121.5,25.5C 119.597,26.9473 117.93,28.614 116.5,30.5C 115.448,30.3505 114.448,30.5172 113.5,31C 102.153,40.9628 93.1533,52.4628 86.5,65.5C 92.8507,47.8545 104.184,34.1878 120.5,24.5 Z"/></g>
<g><path style="opacity:1" fill="#eeeeed" d="M 128.5,31.5 C 140.053,50.9271 151.887,70.2605 164,89.5C 164.813,91.4357 165.313,93.4357 165.5,95.5C 165.657,96.8734 165.49,98.2068 165,99.5C 144.884,119.783 124.718,139.783 104.5,159.5C 101.136,155.143 97.8024,150.809 94.5,146.5C 95.3739,143.211 96.0405,139.877 96.5,136.5C 98.8612,124.411 101.861,112.411 105.5,100.5C 106.924,98.4855 107.59,96.1522 107.5,93.5C 107.963,90.6697 108.629,88.003 109.5,85.5C 111.277,82.4954 112.277,79.1621 112.5,75.5C 112.5,74.8333 112.5,74.1667 112.5,73.5C 114.472,70.9164 115.472,67.9164 115.5,64.5C 116.071,59.9873 117.071,55.654 118.5,51.5C 119.924,49.4855 120.59,47.1522 120.5,44.5C 120.366,42.7085 120.699,41.0418 121.5,39.5C 123.717,38.6314 126.05,38.298 128.5,38.5C 128.5,36.1667 128.5,33.8333 128.5,31.5 Z"/></g>
<g><path style="opacity:1" fill="#f39894" d="M 117.5,45.5 C 117.204,47.403 116.537,49.0697 115.5,50.5C 115.12,48.302 115.787,46.6354 117.5,45.5 Z"/></g>
<g><path style="opacity:1" fill="#f39692" d="M 120.5,44.5 C 120.59,47.1522 119.924,49.4855 118.5,51.5C 118.41,48.8478 119.076,46.5145 120.5,44.5 Z"/></g>
<g><path style="opacity:1" fill="#f3afac" d="M 115.5,51.5 C 114.993,55.0835 113.993,58.4168 112.5,61.5C 112.804,58.4781 113.304,55.4781 114,52.5C 114.383,51.944 114.883,51.6107 115.5,51.5 Z"/></g>
<g><path style="opacity:1" fill="#85b186" d="M 168.5,15.5 C 169.167,15.5 169.833,15.5 170.5,15.5C 170.5,41.5 170.5,67.5 170.5,93.5C 169.041,93.4326 167.708,93.7659 166.5,94.5C 168.629,89.5401 168.962,84.5401 167.5,79.5C 167.5,78.5 167.5,77.5 167.5,76.5C 168.497,56.3402 168.83,36.0069 168.5,15.5 Z"/></g>
<g><path style="opacity:1" fill="#c4d5c4" d="M 167.5,15.5 C 167.833,15.5 168.167,15.5 168.5,15.5C 168.83,36.0069 168.497,56.3402 167.5,76.5C 167.665,72.8183 167.499,69.1516 167,65.5C 166.34,67.3237 165.173,68.657 163.5,69.5C 163.614,66.784 162.614,64.784 160.5,63.5C 162.607,62.5318 164.941,62.1984 167.5,62.5C 167.5,46.8333 167.5,31.1667 167.5,15.5 Z"/></g>
<g><path style="opacity:1" fill="#8bb48b" d="M 160.5,63.5 C 162.614,64.784 163.614,66.784 163.5,69.5C 161.735,69.8152 160.069,69.8152 158.5,69.5C 157.022,68.5525 156.022,67.2191 155.5,65.5C 156.458,62.8753 157.624,62.8753 159,65.5C 159.278,64.5842 159.778,63.9175 160.5,63.5 Z"/></g>
<g><path style="opacity:1" fill="#f4a8a3" d="M 115.5,64.5 C 115.472,67.9164 114.472,70.9164 112.5,73.5C 112.69,70.145 113.69,67.145 115.5,64.5 Z"/></g>
<g><path style="opacity:1" fill="#8ac09c" d="M 86.5,65.5 C 84.5524,71.6834 83.2191,78.0167 82.5,84.5C 81.8333,84.5 81.1667,84.5 80.5,84.5C 80.2659,77.2092 82.2659,70.8758 86.5,65.5 Z"/></g>
<g><path style="opacity:1" fill="#cbdacc" d="M 170.5,15.5 C 170.833,15.5 171.167,15.5 171.5,15.5C 171.184,42.2111 171.518,68.8778 172.5,95.5C 171.5,95.1667 170.833,94.5 170.5,93.5C 170.5,67.5 170.5,41.5 170.5,15.5 Z"/></g>
<g><path style="opacity:1" fill="#ecedec" d="M 167.5,76.5 C 162.168,80.2221 158.501,79.0554 156.5,73C 157.429,71.9231 158.096,70.7564 158.5,69.5C 160.069,69.8152 161.735,69.8152 163.5,69.5C 165.173,68.657 166.34,67.3237 167,65.5C 167.499,69.1516 167.665,72.8183 167.5,76.5 Z"/></g>
<g><path style="opacity:1" fill="#b5cdb5" d="M 127.5,24.5 C 127.833,24.5 128.167,24.5 128.5,24.5C 128.372,26.6547 128.872,28.6547 130,30.5C 137.346,42.5327 144.68,54.5327 152,66.5C 154.273,70.6553 155.439,70.322 155.5,65.5C 156.022,67.2191 157.022,68.5525 158.5,69.5C 158.096,70.7564 157.429,71.9231 156.5,73C 158.501,79.0554 162.168,80.2221 167.5,76.5C 167.5,77.5 167.5,78.5 167.5,79.5C 168.962,84.5401 168.629,89.5401 166.5,94.5C 166.5,94.8333 166.5,95.1667 166.5,95.5C 166.167,95.5 165.833,95.5 165.5,95.5C 165.313,93.4357 164.813,91.4357 164,89.5C 151.887,70.2605 140.053,50.9271 128.5,31.5C 127.833,31.1667 127.167,30.8333 126.5,30.5C 126.5,29.1667 126.5,27.8333 126.5,26.5C 127.338,26.1583 127.672,25.4916 127.5,24.5 Z"/></g>
<g><path style="opacity:1" fill="#f3a39f" d="M 112.5,75.5 C 112.277,79.1621 111.277,82.4954 109.5,85.5C 109.5,84.8333 109.5,84.1667 109.5,83.5C 110.129,80.6027 111.129,77.936 112.5,75.5 Z"/></g>
<g><path style="opacity:1" fill="#eeeeee" d="M 167.5,79.5 C 167.666,83.5138 167.499,87.5138 167,91.5C 164.966,88.2936 163.133,84.9603 161.5,81.5C 163.023,79.7175 165.023,79.0508 167.5,79.5 Z"/></g>
<g><path style="opacity:1" fill="#1d6e1a" d="M 170.5,93.5 C 170.833,94.5 171.5,95.1667 172.5,95.5C 172.768,97.099 172.434,98.4324 171.5,99.5C 169.833,99.5 168.167,99.5 166.5,99.5C 166.5,98.1667 166.5,96.8333 166.5,95.5C 166.5,95.1667 166.5,94.8333 166.5,94.5C 167.708,93.7659 169.041,93.4326 170.5,93.5 Z"/></g>
<g><path style="opacity:1" fill="#8ec7a6" d="M 80.5,84.5 C 80.3335,93.8393 80.5002,103.173 81,112.5C 81.3826,113.056 81.8826,113.389 82.5,113.5C 82.9505,120.42 84.2839,127.086 86.5,133.5C 84.5594,130.803 83.0594,127.803 82,124.5C 78.6363,111.733 77.6363,98.7333 79,85.5C 79.3826,84.944 79.8826,84.6107 80.5,84.5 Z"/></g>
<g><path style="opacity:1" fill="#bdd3bf" d="M 80.5,84.5 C 81.1667,84.5 81.8333,84.5 82.5,84.5C 81.1667,94.1667 81.1667,103.833 82.5,113.5C 81.8826,113.389 81.3826,113.056 81,112.5C 80.5002,103.173 80.3335,93.8393 80.5,84.5 Z"/></g>
<g><path style="opacity:1" fill="#f38e89" d="M 107.5,93.5 C 107.59,96.1522 106.924,98.4855 105.5,100.5C 105.41,97.8478 106.076,95.5145 107.5,93.5 Z"/></g>
<g><path style="opacity:1" fill="#f3382b" d="M 108.5,80.5 C 108.263,81.791 108.596,82.791 109.5,83.5C 109.5,84.1667 109.5,84.8333 109.5,85.5C 108.629,88.003 107.963,90.6697 107.5,93.5C 106.076,95.5145 105.41,97.8478 105.5,100.5C 101.861,112.411 98.8612,124.411 96.5,136.5C 94.7234,139.505 93.7234,142.838 93.5,146.5C 93.5,147.167 93.5,147.833 93.5,148.5C 90.2671,157.548 87.6004,166.882 85.5,176.5C 85.5,176.833 85.5,177.167 85.5,177.5C 84.609,178.11 83.609,178.443 82.5,178.5C 83.1667,174.833 83.8333,171.167 84.5,167.5C 85.9927,164.417 86.9927,161.083 87.5,157.5C 87.5,157.167 87.5,156.833 87.5,156.5C 88.9927,153.417 89.9927,150.083 90.5,146.5C 90.5,145.5 90.5,144.5 90.5,143.5C 91.3382,143.158 91.6716,142.492 91.5,141.5C 96.8855,123.109 101.719,104.443 106,85.5C 106.757,83.6854 107.59,82.0188 108.5,80.5 Z"/></g>
<g><path style="opacity:1" fill="#6fa673" d="M 165.5,95.5 C 165.833,95.5 166.167,95.5 166.5,95.5C 166.5,96.8333 166.5,98.1667 166.5,99.5C 168.167,99.5 169.833,99.5 171.5,99.5C 170.048,100.302 168.382,100.802 166.5,101C 146.632,120.701 126.965,140.535 107.5,160.5C 106.5,161.5 105.5,162.5 104.5,163.5C 98.8333,168.833 93.1667,174.167 87.5,179.5C 87.1667,178.5 86.5,177.833 85.5,177.5C 85.5,177.167 85.5,176.833 85.5,176.5C 86.9778,176.762 88.3112,176.429 89.5,175.5C 94.1324,170.532 98.7991,165.532 103.5,160.5C 103.5,159.833 103.833,159.5 104.5,159.5C 124.718,139.783 144.884,119.783 165,99.5C 165.49,98.2068 165.657,96.8734 165.5,95.5 Z"/></g>
<g><path style="opacity:1" fill="#93b994" d="M 153.5,137.5 C 154.363,138.463 155.03,138.463 155.5,137.5C 154.873,136.583 154.539,135.583 154.5,134.5C 155.75,134.423 156.583,133.756 157,132.5C 157.495,130.527 157.662,128.527 157.5,126.5C 158.5,126.5 159.5,126.5 160.5,126.5C 159.444,130.938 158.111,135.271 156.5,139.5C 154.821,139.715 153.821,139.048 153.5,137.5 Z"/></g>
<g><path style="opacity:1" fill="#4a8d4a" d="M 154.5,134.5 C 154.539,135.583 154.873,136.583 155.5,137.5C 155.03,138.463 154.363,138.463 153.5,137.5C 152.153,133.788 150.82,130.122 149.5,126.5C 150.5,126.5 151.5,126.5 152.5,126.5C 152.584,129.327 153.25,131.994 154.5,134.5 Z"/></g>
<g><path style="opacity:1" fill="#abc7ab" d="M 161.5,133.5 C 163.818,133.818 165.152,135.152 165.5,137.5C 164.875,140.986 163.042,141.986 160,140.5C 159.167,137.829 159.667,135.496 161.5,133.5 Z"/></g>
<g><path style="opacity:1" fill="#a2d0b8" d="M 86.5,133.5 C 88.5213,135.818 90.188,138.485 91.5,141.5C 91.6716,142.492 91.3382,143.158 90.5,143.5C 88.2345,140.738 86.9011,137.405 86.5,133.5 Z"/></g>
<g><path style="opacity:1" fill="#f0a8a3" d="M 96.5,136.5 C 96.0405,139.877 95.3739,143.211 94.5,146.5C 94.1667,146.5 93.8333,146.5 93.5,146.5C 93.7234,142.838 94.7234,139.505 96.5,136.5 Z"/></g>
<g><path style="opacity:1" fill="#8cbf9b" d="M 93.5,146.5 C 93.8333,146.5 94.1667,146.5 94.5,146.5C 97.8024,150.809 101.136,155.143 104.5,159.5C 103.833,159.5 103.5,159.833 103.5,160.5C 99.8197,156.817 96.4864,152.817 93.5,148.5C 93.5,147.833 93.5,147.167 93.5,146.5 Z"/></g>
<g><path style="opacity:1" fill="#cff5f3" d="M 93.5,148.5 C 96.4864,152.817 99.8197,156.817 103.5,160.5C 98.7991,165.532 94.1324,170.532 89.5,175.5C 88.3112,176.429 86.9778,176.762 85.5,176.5C 87.6004,166.882 90.2671,157.548 93.5,148.5 Z"/></g>
<g><path style="opacity:1" fill="#dcb7b4" d="M 90.5,146.5 C 89.9927,150.083 88.9927,153.417 87.5,156.5C 87.804,153.478 88.304,150.478 89,147.5C 89.3826,146.944 89.8826,146.611 90.5,146.5 Z"/></g>
<g><path style="opacity:1" fill="#8ec19e" d="M 244.5,60.5 C 246.514,62.7537 248.181,65.4204 249.5,68.5C 259.836,100.436 254.669,129.77 234,156.5C 202.746,189.544 166.412,196.544 125,177.5C 118.263,172.58 111.43,167.914 104.5,163.5C 105.5,162.5 106.5,161.5 107.5,160.5C 107.859,162.371 108.859,163.871 110.5,165C 117.189,170.678 124.523,175.345 132.5,179C 171.265,192.455 204.765,184.289 233,154.5C 254.061,125.357 257.894,94.0238 244.5,60.5 Z"/></g>
<g><path style="opacity:1" fill="#dac1bf" d="M 87.5,157.5 C 86.9927,161.083 85.9927,164.417 84.5,167.5C 84.804,164.478 85.304,161.478 86,158.5C 86.3826,157.944 86.8826,157.611 87.5,157.5 Z"/></g>
<g><path style="opacity:1" fill="#308234" d="M 85.5,177.5 C 86.5,177.833 87.1667,178.5 87.5,179.5C 86.1639,181.01 84.9973,182.677 84,184.5C 80.8809,191.653 78.3809,198.986 76.5,206.5C 75.448,206.649 74.448,206.483 73.5,206C 68.4782,200.978 63.4782,195.978 58.5,191C 59.34,189.233 60.6734,187.899 62.5,187C 69.334,184.412 76.0007,181.579 82.5,178.5C 83.609,178.443 84.609,178.11 85.5,177.5 Z"/></g>
<g><path style="opacity:1" fill="#bff4ca" d="M 80.5,181.5 C 81.4972,181.47 82.1639,181.97 82.5,183C 80.2177,189.184 77.551,195.184 74.5,201C 73.5,201.667 72.5,201.667 71.5,201C 67.4591,197.815 64.4591,193.981 62.5,189.5C 68.8342,187.328 74.8342,184.661 80.5,181.5 Z"/></g>
</svg>
