<?xml version="1.0" encoding="UTF-8"?>
<!DOCTYPE svg PUBLIC "-//W3C//DTD SVG 1.1//EN" "http://www.w3.org/Graphics/SVG/1.1/DTD/svg11.dtd">
<svg xmlns="http://www.w3.org/2000/svg" version="1.1" width="329px" height="225px" style="shape-rendering:geometricPrecision; text-rendering:geometricPrecision; image-rendering:optimizeQuality; fill-rule:evenodd; clip-rule:evenodd" xmlns:xlink="http://www.w3.org/1999/xlink">
<g><path style="opacity:1" fill="#cbfefe" d="M -0.5,-0.5 C 109.167,-0.5 218.833,-0.5 328.5,-0.5C 328.5,74.5 328.5,149.5 328.5,224.5C 218.833,224.5 109.167,224.5 -0.5,224.5C -0.5,149.5 -0.5,74.5 -0.5,-0.5 Z"/></g>
<g><path style="opacity:1" fill="#cdd29a" d="M 180.5,21.5 C 170.155,20.3058 159.821,20.3058 149.5,21.5C 150.263,20.7321 151.263,20.2321 152.5,20C 156.333,19.8333 160.167,19.6667 164,19.5C 169.752,19.3112 175.252,19.9779 180.5,21.5 Z"/></g>
<g><path style="opacity:1" fill="#fdfdca" d="M 210.5,37.5 C 200.576,37.7995 190.909,36.9662 181.5,35C 178.583,40.2846 180.25,43.1179 186.5,43.5C 188.348,47.0284 190.015,50.695 191.5,54.5C 192.582,52.2163 194.248,51.0496 196.5,51C 203.99,56.6599 210.99,62.8266 217.5,69.5C 208.167,72.8333 198.833,76.1667 189.5,79.5C 193.639,86.9884 198.972,93.6551 205.5,99.5C 211.099,89.9669 216.433,80.3003 221.5,70.5C 221.5,69.8333 221.5,69.1667 221.5,68.5C 222.117,68.6107 222.617,68.944 223,69.5C 226.429,65.5615 230.263,62.2281 234.5,59.5C 253.041,86.1808 256.541,114.847 245,145.5C 239.226,159.879 230.392,172.046 218.5,182C 215.714,184.06 212.714,185.56 209.5,186.5C 211.715,181.068 214.215,175.735 217,170.5C 219,169.167 221,167.833 223,166.5C 223.996,160.666 221.496,158.333 215.5,159.5C 213.636,156.45 211.303,153.783 208.5,151.5C 207.719,152.729 207.219,154.062 207,155.5C 206.439,156.022 205.772,156.355 205,156.5C 195.379,153.183 185.879,149.683 176.5,146C 175.058,145.623 174.058,144.79 173.5,143.5C 173.5,132.5 173.5,121.5 173.5,110.5C 165.328,112.449 157.328,114.782 149.5,117.5C 149.491,119.308 149.991,120.975 151,122.5C 157.184,129.572 163.351,136.572 169.5,143.5C 169.263,144.791 169.596,145.791 170.5,146.5C 176.156,163.801 181.822,181.134 187.5,198.5C 151.127,206.431 120.627,196.431 96,168.5C 92.1303,164.095 89.297,159.095 87.5,153.5C 91.9564,154.983 96.2898,156.65 100.5,158.5C 100.833,158.5 101.167,158.5 101.5,158.5C 104.974,161.802 108.641,164.968 112.5,168C 117.008,170.753 121.341,173.753 125.5,177C 126.448,177.483 127.448,177.649 128.5,177.5C 130.504,169.495 132.504,161.495 134.5,153.5C 123.477,153.265 112.81,154.598 102.5,157.5C 101.086,142.85 98.7528,128.35 95.5,114C 96.0894,111.367 97.756,110.2 100.5,110.5C 100.649,109.448 100.483,108.448 100,107.5C 97.6278,105.297 95.4611,102.963 93.5,100.5C 96.1445,97.7829 96.1445,94.9495 93.5,92C 89.8194,90.6862 87.4861,91.8529 86.5,95.5C 87.228,97.1547 87.3947,98.8214 87,100.5C 83.6366,105.35 80.1366,110.017 76.5,114.5C 76.6534,78.6864 91.9868,51.5198 122.5,33C 151.519,18.5273 180.186,19.194 208.5,35C 209.381,35.7083 210.047,36.5416 210.5,37.5 Z"/></g>
<g><path style="opacity:1" fill="#4560f1" d="M 210.5,37.5 C 212.167,37.5 213.833,37.5 215.5,37.5C 227.167,37.5 238.833,37.5 250.5,37.5C 252.781,37.0773 254.448,37.744 255.5,39.5C 232.167,39.5 208.833,39.5 185.5,39.5C 185.263,40.791 185.596,41.791 186.5,42.5C 186.5,42.8333 186.5,43.1667 186.5,43.5C 180.25,43.1179 178.583,40.2846 181.5,35C 190.909,36.9662 200.576,37.7995 210.5,37.5 Z"/></g>
<g><path style="opacity:1" fill="#5c78e6" d="M 255.5,39.5 C 253.735,40.4614 251.735,40.7947 249.5,40.5C 240.167,40.5 230.833,40.5 221.5,40.5C 220.167,40.5 218.833,40.5 217.5,40.5C 208.833,40.5 200.167,40.5 191.5,40.5C 189.219,40.0773 187.552,40.744 186.5,42.5C 185.596,41.791 185.263,40.791 185.5,39.5C 208.833,39.5 232.167,39.5 255.5,39.5 Z"/></g>
<g><path style="opacity:1" fill="#fe2717" d="M 191.5,40.5 C 194.305,41.3195 197.305,41.8195 200.5,42C 200.957,42.414 201.291,42.914 201.5,43.5C 199.216,44.5818 198.05,46.2484 198,48.5C 205.394,54.7371 212.894,60.7371 220.5,66.5C 220.833,67.1667 221.167,67.8333 221.5,68.5C 221.5,69.1667 221.5,69.8333 221.5,70.5C 220.167,70.1667 218.833,69.8333 217.5,69.5C 210.99,62.8266 203.99,56.6599 196.5,51C 194.248,51.0496 192.582,52.2163 191.5,54.5C 190.015,50.695 188.348,47.0284 186.5,43.5C 186.5,43.1667 186.5,42.8333 186.5,42.5C 187.552,40.744 189.219,40.0773 191.5,40.5 Z"/></g>
<g><path style="opacity:1" fill="#fdf9c8" d="M 191.5,40.5 C 200.167,40.5 208.833,40.5 217.5,40.5C 222.167,45.8333 227.167,50.8333 232.5,55.5C 229.172,59.825 225.172,63.4917 220.5,66.5C 212.894,60.7371 205.394,54.7371 198,48.5C 198.05,46.2484 199.216,44.5818 201.5,43.5C 201.291,42.914 200.957,42.414 200.5,42C 197.305,41.8195 194.305,41.3195 191.5,40.5 Z"/></g>
<g><path style="opacity:1" fill="#caf9f6" d="M 221.5,40.5 C 230.833,40.5 240.167,40.5 249.5,40.5C 245.06,46.2784 239.727,50.9451 233.5,54.5C 229.897,49.5584 225.897,44.8918 221.5,40.5 Z"/></g>
<g><path style="opacity:1" fill="#d19e28" d="M 217.5,40.5 C 218.833,40.5 220.167,40.5 221.5,40.5C 225.897,44.8918 229.897,49.5584 233.5,54.5C 233.5,55.1667 233.167,55.5 232.5,55.5C 227.167,50.8333 222.167,45.8333 217.5,40.5 Z"/></g>
<g><path style="opacity:1" fill="#2e8d2c" d="M 236.5,57.5 C 235.5,57.8333 234.833,58.5 234.5,59.5C 230.263,62.2281 226.429,65.5615 223,69.5C 222.617,68.944 222.117,68.6107 221.5,68.5C 221.167,67.8333 220.833,67.1667 220.5,66.5C 225.172,63.4917 229.172,59.825 232.5,55.5C 233.167,55.5 233.5,55.1667 233.5,54.5C 239.727,50.9451 245.06,46.2784 249.5,40.5C 251.735,40.7947 253.735,40.4614 255.5,39.5C 254.448,37.744 252.781,37.0773 250.5,37.5C 250.414,36.5041 250.748,35.6708 251.5,35C 258.995,33.8127 260.995,36.4794 257.5,43C 255.167,43.3333 252.833,43.6667 250.5,44C 245.938,48.7309 241.271,53.2309 236.5,57.5 Z"/></g>
<g><path style="opacity:1" fill="#d09f2c" d="M 180.5,21.5 C 193.455,24.1458 205.122,29.4791 215.5,37.5C 213.833,37.5 212.167,37.5 210.5,37.5C 210.047,36.5416 209.381,35.7083 208.5,35C 180.186,19.194 151.519,18.5273 122.5,33C 91.9868,51.5198 76.6534,78.6864 76.5,114.5C 76.4431,115.609 76.1098,116.609 75.5,117.5C 74.5119,112.36 74.1786,107.026 74.5,101.5C 79.4853,66.3274 98.152,41.1607 130.5,26C 136.658,23.7103 142.992,22.2103 149.5,21.5C 159.821,20.3058 170.155,20.3058 180.5,21.5 Z"/></g>
<g><path style="opacity:1" fill="#61af56" d="M 217.5,69.5 C 218.833,69.8333 220.167,70.1667 221.5,70.5C 216.433,80.3003 211.099,89.9669 205.5,99.5C 198.972,93.6551 193.639,86.9884 189.5,79.5C 198.833,76.1667 208.167,72.8333 217.5,69.5 Z"/></g>
<g><path style="opacity:1" fill="#c8fbc8" d="M 214.5,72.5 C 215.675,72.281 216.675,72.6143 217.5,73.5C 213.319,81.1983 209.152,88.865 205,96.5C 200.645,91.6461 196.478,86.6461 192.5,81.5C 199.718,78.0973 207.051,75.0973 214.5,72.5 Z"/></g>
<g><path style="opacity:1" fill="#fe2c1b" d="M 93.5,100.5 C 95.4611,102.963 97.6278,105.297 100,107.5C 100.483,108.448 100.649,109.448 100.5,110.5C 97.756,110.2 96.0894,111.367 95.5,114C 98.7528,128.35 101.086,142.85 102.5,157.5C 102.5,158.167 102.167,158.5 101.5,158.5C 101.167,158.5 100.833,158.5 100.5,158.5C 100.768,156.901 100.434,155.568 99.5,154.5C 97.0092,141.249 94.8426,127.916 93,114.5C 91.2458,112.75 89.0792,112.083 86.5,112.5C 86.7556,109.402 87.4222,106.402 88.5,103.5C 88.862,99.0387 90.5286,98.0387 93.5,100.5 Z"/></g>
<g><path style="opacity:1" fill="#cabf76" d="M 74.5,101.5 C 74.1786,107.026 74.5119,112.36 75.5,117.5C 75.5,118.167 75.1667,118.5 74.5,118.5C 73.1667,112.833 73.1667,107.167 74.5,101.5 Z"/></g>
<g><path style="opacity:1" fill="#fcf8c7" d="M 88.5,103.5 C 87.4222,106.402 86.7556,109.402 86.5,112.5C 89.0792,112.083 91.2458,112.75 93,114.5C 94.8426,127.916 97.0092,141.249 99.5,154.5C 93.7907,153.41 88.4573,151.41 83.5,148.5C 81.1149,139.044 78.7816,129.71 76.5,120.5C 80.2665,114.62 84.2665,108.954 88.5,103.5 Z"/></g>
<g><path style="opacity:1" fill="#71b965" d="M 173.5,143.5 C 172.167,143.5 170.833,143.5 169.5,143.5C 163.351,136.572 157.184,129.572 151,122.5C 149.991,120.975 149.491,119.308 149.5,117.5C 157.328,114.782 165.328,112.449 173.5,110.5C 173.5,121.5 173.5,132.5 173.5,143.5 Z"/></g>
<g><path style="opacity:1" fill="#c9fbc9" d="M 165.5,114.5 C 167.167,114.5 168.833,114.5 170.5,114.5C 170.666,123.506 170.5,132.506 170,141.5C 163.69,134.869 157.857,127.869 152.5,120.5C 156.732,118.098 161.065,116.098 165.5,114.5 Z"/></g>
<g><path style="opacity:1" fill="#476ff7" d="M 93.5,100.5 C 90.5286,98.0387 88.862,99.0387 88.5,103.5C 84.2665,108.954 80.2665,114.62 76.5,120.5C 76.1667,121.167 75.8333,121.833 75.5,122.5C 71.2665,127.954 67.2665,133.62 63.5,139.5C 62.5346,142.085 61.2012,142.585 59.5,141C 60.4138,139.594 61.0805,138.094 61.5,136.5C 65.8212,130.538 70.1546,124.538 74.5,118.5C 75.1667,118.5 75.5,118.167 75.5,117.5C 76.1098,116.609 76.4431,115.609 76.5,114.5C 80.1366,110.017 83.6366,105.35 87,100.5C 87.3947,98.8214 87.228,97.1547 86.5,95.5C 87.4861,91.8529 89.8194,90.6862 93.5,92C 96.1445,94.9495 96.1445,97.7829 93.5,100.5 Z"/></g>
<g><path style="opacity:1" fill="#c8f5f1" d="M 75.5,122.5 C 75.7613,131.14 77.4279,139.473 80.5,147.5C 75.2893,146.348 70.2893,144.681 65.5,142.5C 65.7148,140.821 65.0481,139.821 63.5,139.5C 67.2665,133.62 71.2665,127.954 75.5,122.5 Z"/></g>
<g><path style="opacity:1" fill="#d2a230" d="M 76.5,120.5 C 78.7816,129.71 81.1149,139.044 83.5,148.5C 82.391,148.443 81.391,148.11 80.5,147.5C 77.4279,139.473 75.7613,131.14 75.5,122.5C 75.8333,121.833 76.1667,121.167 76.5,120.5 Z"/></g>
<g><path style="opacity:1" fill="#d1a131" d="M 236.5,57.5 C 260.313,93.5373 260.479,129.871 237,166.5C 228.875,176.962 219.208,185.629 208,192.5C 207.536,191.906 207.369,191.239 207.5,190.5C 208.167,189.167 208.833,187.833 209.5,186.5C 212.714,185.56 215.714,184.06 218.5,182C 230.392,172.046 239.226,159.879 245,145.5C 256.541,114.847 253.041,86.1808 234.5,59.5C 234.833,58.5 235.5,57.8333 236.5,57.5 Z"/></g>
<g><path style="opacity:1" fill="#fdfcca" d="M 173.5,147.5 C 183.963,151.566 194.296,155.899 204.5,160.5C 203.833,162.167 203.167,163.833 202.5,165.5C 203,165.833 203.5,166.167 204,166.5C 207.478,165.671 210.978,165.004 214.5,164.5C 215.218,166.137 215.384,167.803 215,169.5C 210.899,176.703 207.066,184.036 203.5,191.5C 199.307,193.425 194.974,195.092 190.5,196.5C 185.401,179.864 179.734,163.531 173.5,147.5 Z"/></g>
<g><path style="opacity:1" fill="#348d2c" d="M 61.5,136.5 C 61.0805,138.094 60.4138,139.594 59.5,141C 61.2012,142.585 62.5346,142.085 63.5,139.5C 65.0481,139.821 65.7148,140.821 65.5,142.5C 70.2893,144.681 75.2893,146.348 80.5,147.5C 81.391,148.11 82.391,148.443 83.5,148.5C 88.4573,151.41 93.7907,153.41 99.5,154.5C 100.434,155.568 100.768,156.901 100.5,158.5C 96.2898,156.65 91.9564,154.983 87.5,153.5C 86.1667,153.167 84.8333,152.833 83.5,152.5C 75.367,147.951 66.7003,145.784 57.5,146C 54.0945,140.878 55.4279,137.712 61.5,136.5 Z"/></g>
<g><path style="opacity:1" fill="#fd2b1a" d="M 169.5,143.5 C 170.833,143.5 172.167,143.5 173.5,143.5C 174.058,144.79 175.058,145.623 176.5,146C 185.879,149.683 195.379,153.183 205,156.5C 205.772,156.355 206.439,156.022 207,155.5C 207.219,154.062 207.719,152.729 208.5,151.5C 211.303,153.783 213.636,156.45 215.5,159.5C 216.942,160.82 217.608,162.486 217.5,164.5C 216.5,164.5 215.5,164.5 214.5,164.5C 210.978,165.004 207.478,165.671 204,166.5C 203.5,166.167 203,165.833 202.5,165.5C 203.167,163.833 203.833,162.167 204.5,160.5C 194.296,155.899 183.963,151.566 173.5,147.5C 172.609,146.89 171.609,146.557 170.5,146.5C 169.596,145.791 169.263,144.791 169.5,143.5 Z"/></g>
<g><path style="opacity:1" fill="#cf9e28" d="M 83.5,152.5 C 84.8333,152.833 86.1667,153.167 87.5,153.5C 89.297,159.095 92.1303,164.095 96,168.5C 120.627,196.431 151.127,206.431 187.5,198.5C 188.338,198.842 188.672,199.508 188.5,200.5C 185.933,200.721 183.599,201.388 181.5,202.5C 171.852,203.245 162.185,203.578 152.5,203.5C 120.668,198.321 97.6681,181.321 83.5,152.5 Z"/></g>
<g><path style="opacity:1" fill="#6db661" d="M 101.5,158.5 C 102.167,158.5 102.5,158.167 102.5,157.5C 112.81,154.598 123.477,153.265 134.5,153.5C 132.504,161.495 130.504,169.495 128.5,177.5C 127.448,177.649 126.448,177.483 125.5,177C 121.341,173.753 117.008,170.753 112.5,168C 108.641,164.968 104.974,161.802 101.5,158.5 Z"/></g>
<g><path style="opacity:1" fill="#c8fbc8" d="M 121.5,156.5 C 124.833,156.5 128.167,156.5 131.5,156.5C 129.866,162.456 128.2,168.456 126.5,174.5C 118.774,169.644 111.441,164.311 104.5,158.5C 110.319,157.833 115.986,157.167 121.5,156.5 Z"/></g>
<g><path style="opacity:1" fill="#338f2b" d="M 170.5,146.5 C 171.609,146.557 172.609,146.89 173.5,147.5C 179.734,163.531 185.401,179.864 190.5,196.5C 190.557,197.609 190.89,198.609 191.5,199.5C 192.5,202.833 193.5,206.167 194.5,209.5C 193.435,215.694 194.435,216.028 197.5,210.5C 200.167,213.081 199.833,215.581 196.5,218C 189.546,217.845 187.879,214.679 191.5,208.5C 190.866,205.584 189.866,202.918 188.5,200.5C 188.672,199.508 188.338,198.842 187.5,198.5C 181.822,181.134 176.156,163.801 170.5,146.5 Z"/></g>
<g><path style="opacity:1" fill="#4b71f4" d="M 215.5,159.5 C 221.496,158.333 223.996,160.666 223,166.5C 221,167.833 219,169.167 217,170.5C 214.215,175.735 211.715,181.068 209.5,186.5C 208.833,187.833 208.167,189.167 207.5,190.5C 204.184,197.132 200.85,203.799 197.5,210.5C 194.435,216.028 193.435,215.694 194.5,209.5C 196.825,204.877 199.158,200.211 201.5,195.5C 202.674,194.486 203.34,193.153 203.5,191.5C 207.066,184.036 210.899,176.703 215,169.5C 215.384,167.803 215.218,166.137 214.5,164.5C 215.5,164.5 216.5,164.5 217.5,164.5C 217.608,162.486 216.942,160.82 215.5,159.5 Z"/></g>
<g><path style="opacity:1" fill="#ce9f2e" d="M 203.5,191.5 C 203.34,193.153 202.674,194.486 201.5,195.5C 198.058,196.645 194.725,197.979 191.5,199.5C 190.89,198.609 190.557,197.609 190.5,196.5C 194.974,195.092 199.307,193.425 203.5,191.5 Z"/></g>
<g><path style="opacity:1" fill="#c1efe7" d="M 201.5,195.5 C 199.158,200.211 196.825,204.877 194.5,209.5C 193.5,206.167 192.5,202.833 191.5,199.5C 194.725,197.979 198.058,196.645 201.5,195.5 Z"/></g>
<g><path style="opacity:1" fill="#cdd5a1" d="M 181.5,202.5 C 175.908,203.993 170.074,204.659 164,204.5C 159.985,204.499 156.151,204.165 152.5,203.5C 162.185,203.578 171.852,203.245 181.5,202.5 Z"/></g>
</svg>
