<?xml version="1.0" encoding="UTF-8"?>
<!DOCTYPE svg PUBLIC "-//W3C//DTD SVG 1.1//EN" "http://www.w3.org/Graphics/SVG/1.1/DTD/svg11.dtd">
<svg xmlns="http://www.w3.org/2000/svg" version="1.1" width="328px" height="219px" style="shape-rendering:geometricPrecision; text-rendering:geometricPrecision; image-rendering:optimizeQuality; fill-rule:evenodd; clip-rule:evenodd" xmlns:xlink="http://www.w3.org/1999/xlink">
<g><path style="opacity:1" fill="#30cffe" d="M -0.5,-0.5 C 108.833,-0.5 218.167,-0.5 327.5,-0.5C 327.5,72.5 327.5,145.5 327.5,218.5C 218.167,218.5 108.833,218.5 -0.5,218.5C -0.5,145.5 -0.5,72.5 -0.5,-0.5 Z"/></g>
<g><path style="opacity:1" fill="#6be4fd" d="M 325.5,215.5 C 325.5,144.167 325.5,72.8333 325.5,1.5C 292.5,1.5 259.5,1.5 226.5,1.5C 225.167,1.5 223.833,1.5 222.5,1.5C 182.5,1.5 142.5,1.5 102.5,1.5C 101.167,1.5 99.8333,1.5 98.5,1.5C 66.1667,1.5 33.8333,1.5 1.5,1.5C 1.5,72.8333 1.5,144.167 1.5,215.5C 0.500783,144.002 0.16745,72.3353 0.5,0.5C 109.167,0.5 217.833,0.5 326.5,0.5C 326.833,72.3353 326.499,144.002 325.5,215.5 Z"/></g>
<g><path style="opacity:1" fill="#cefefe" d="M 98.5,1.5 C 87.6059,9.89014 77.1059,18.8901 67,28.5C 52.5552,47.6371 43.2219,68.9704 39,92.5C 35.5553,137.598 50.3886,175.431 83.5,206C 88.7007,209.393 93.7007,212.893 98.5,216.5C 65.9957,216.832 33.6624,216.498 1.5,215.5C 1.5,144.167 1.5,72.8333 1.5,1.5C 33.8333,1.5 66.1667,1.5 98.5,1.5 Z"/></g>
<g><path style="opacity:1" fill="#eeeeee" d="M 102.5,1.5 C 142.5,1.5 182.5,1.5 222.5,1.5C 230.766,7.64571 239.099,13.8124 247.5,20C 264.471,36.7837 276.138,56.617 282.5,79.5C 286.796,99.3425 286.462,119.009 281.5,138.5C 281.711,142.673 280.544,146.339 278,149.5C 267.717,178.28 249.55,200.613 223.5,216.5C 182.833,216.5 142.167,216.5 101.5,216.5C 91.3564,209.545 81.8564,201.545 73,192.5C 71.1667,190 69.3333,187.5 67.5,185C 68.7932,184.51 70.1266,184.343 71.5,184.5C 74.8333,185.167 78.1667,185.833 81.5,186.5C 83.2646,187.461 85.2646,187.795 87.5,187.5C 87.8128,183.958 87.4794,180.625 86.5,177.5C 85.612,174.946 85.2786,172.279 85.5,169.5C 107.413,153.6 129.08,137.266 150.5,120.5C 151.176,121.602 151.842,122.602 152.5,123.5C 159.833,123.5 167.167,123.5 174.5,123.5C 174.5,122.167 174.5,120.833 174.5,119.5C 184.138,125.99 193.805,132.49 203.5,139C 204.791,140.292 204.791,141.458 203.5,142.5C 201.915,143.002 201.415,144.002 202,145.5C 203.699,146.406 205.533,146.739 207.5,146.5C 212.585,147.117 217.585,148.117 222.5,149.5C 222.649,148.448 222.483,147.448 222,146.5C 218.71,142.088 215.544,137.588 212.5,133C 212,132.833 211.5,132.667 211,132.5C 209.667,133.833 208.333,135.167 207,136.5C 194.944,128.267 182.777,120.267 170.5,112.5C 169.09,109.05 168.424,105.384 168.5,101.5C 178.945,87.3803 188.612,72.7136 197.5,57.5C 201.785,58.2949 206.119,58.6282 210.5,58.5C 211.919,59.4511 213.585,59.7845 215.5,59.5C 215.768,57.901 215.434,56.5676 214.5,55.5C 213.019,46.7981 211.352,38.1314 209.5,29.5C 207.394,29.679 205.728,30.679 204.5,32.5C 200.288,40.5202 196.288,48.5202 192.5,56.5C 193.791,56.2627 194.791,56.596 195.5,57.5C 186.551,71.7771 177.218,85.7771 167.5,99.5C 166.818,98.7573 166.151,98.0906 165.5,97.5C 165.5,96.5 165.5,95.5 165.5,94.5C 164.167,94.5 162.833,94.5 161.5,94.5C 161.5,95.5 161.5,96.5 161.5,97.5C 160.152,100.492 158.652,103.492 157,106.5C 150.623,104.237 144.123,102.237 137.5,100.5C 134.248,95.6657 131.248,90.6657 128.5,85.5C 127.758,83.5742 126.758,81.7409 125.5,80C 124.551,79.3828 123.718,79.5494 123,80.5C 120.939,89.551 119.106,98.551 117.5,107.5C 118.514,108.765 120.014,109.431 122,109.5C 127.185,108.796 132.352,107.963 137.5,107C 138.337,105.989 138.67,104.822 138.5,103.5C 144.494,104.832 150.494,106.165 156.5,107.5C 156.065,110.924 154.732,113.924 152.5,116.5C 130.346,133.743 108.013,150.743 85.5,167.5C 84.8889,164.338 84.2223,161.171 83.5,158C 83.1501,156.743 82.4835,156.409 81.5,157C 76.2799,164.617 70.9466,172.117 65.5,179.5C 64.8826,179.611 64.3826,179.944 64,180.5C 42.483,148.411 36.1496,113.411 45,75.5C 49.7114,61.4099 56.0448,48.0766 64,35.5C 67.1311,31.3672 70.6311,27.5338 74.5,24C 83.7323,16.2564 93.0656,8.75642 102.5,1.5 Z"/></g>
<g><path style="opacity:1" fill="#cefefe" d="M 226.5,1.5 C 259.5,1.5 292.5,1.5 325.5,1.5C 325.5,72.8333 325.5,144.167 325.5,215.5C 292.671,216.498 259.671,216.832 226.5,216.5C 230.937,213.441 235.603,210.608 240.5,208C 259.097,191.417 272.93,171.584 282,148.5C 282.826,145.207 283.326,141.874 283.5,138.5C 284.765,137.486 285.431,135.986 285.5,134C 286.175,124.356 287.175,114.856 288.5,105.5C 288.05,96.415 286.884,87.415 285,78.5C 284.617,77.944 284.117,77.6107 283.5,77.5C 277.657,54.3236 265.99,34.4903 248.5,18C 240.983,12.6366 233.65,7.13662 226.5,1.5 Z"/></g>
<g><path style="opacity:1" fill="#4046e9" d="M 35.5,33.5 C 35.6621,35.5273 35.4955,37.5273 35,39.5C 34.8019,37.6183 34.3019,35.9516 33.5,34.5C 32.7332,30.5845 32.2332,26.5845 32,22.5C 27.5,28.8333 23,35.1667 18.5,41.5C 20.8584,43.2866 23.525,44.2866 26.5,44.5C 28.0311,45.9245 27.6977,46.5912 25.5,46.5C 21.3063,46.6141 17.9729,45.1141 15.5,42C 20.3097,34.8497 25.143,27.6831 30,20.5C 31.1855,18.4407 32.3521,18.274 33.5,20C 34.6551,24.4304 35.3218,28.9304 35.5,33.5 Z"/></g>
<g><path style="opacity:1" fill="#9bccfe" d="M 33.5,34.5 C 33.5,38.1667 33.5,41.8333 33.5,45.5C 31.0971,45.552 28.7638,45.2186 26.5,44.5C 23.525,44.2866 20.8584,43.2866 18.5,41.5C 23,35.1667 27.5,28.8333 32,22.5C 32.2332,26.5845 32.7332,30.5845 33.5,34.5 Z"/></g>
<g><path style="opacity:1" fill="#919999" d="M 222.5,1.5 C 223.833,1.5 225.167,1.5 226.5,1.5C 233.65,7.13662 240.983,12.6366 248.5,18C 265.99,34.4903 277.657,54.3236 283.5,77.5C 283.672,78.4916 283.338,79.1583 282.5,79.5C 276.138,56.617 264.471,36.7837 247.5,20C 239.099,13.8124 230.766,7.64571 222.5,1.5 Z"/></g>
<g><path style="opacity:1" fill="#6880f2" d="M 35.5,33.5 C 36.9034,36.9085 37.5701,40.5752 37.5,44.5C 36.1411,45.0065 35.1411,46.0065 34.5,47.5C 32.5675,46.4798 30.5675,46.3131 28.5,47C 29.4158,47.2784 30.0825,47.7784 30.5,48.5C 28.2188,48.9227 26.5521,48.256 25.5,46.5C 27.6977,46.5912 28.0311,45.9245 26.5,44.5C 28.7638,45.2186 31.0971,45.552 33.5,45.5C 33.5,41.8333 33.5,38.1667 33.5,34.5C 34.3019,35.9516 34.8019,37.6183 35,39.5C 35.4955,37.5273 35.6621,35.5273 35.5,33.5 Z"/></g>
<g><path style="opacity:1" fill="#97a2a0" d="M 98.5,1.5 C 99.8333,1.5 101.167,1.5 102.5,1.5C 93.0656,8.75642 83.7323,16.2564 74.5,24C 70.6311,27.5338 67.1311,31.3672 64,35.5C 56.0448,48.0766 49.7114,61.4099 45,75.5C 36.1496,113.411 42.483,148.411 64,180.5C 64.3826,179.944 64.8826,179.611 65.5,179.5C 65.5,180.5 65.5,181.5 65.5,182.5C 67.7857,182.595 69.7857,183.262 71.5,184.5C 70.1266,184.343 68.7932,184.51 67.5,185C 69.3333,187.5 71.1667,190 73,192.5C 81.8564,201.545 91.3564,209.545 101.5,216.5C 100.5,216.5 99.5,216.5 98.5,216.5C 93.7007,212.893 88.7007,209.393 83.5,206C 50.3886,175.431 35.5553,137.598 39,92.5C 43.2219,68.9704 52.5552,47.6371 67,28.5C 77.1059,18.8901 87.6059,9.89014 98.5,1.5 Z"/></g>
<g><path style="opacity:1" fill="#464aea" d="M 37.5,44.5 C 37.5,46.1667 37.5,47.8333 37.5,49.5C 35.0504,49.702 32.717,49.3686 30.5,48.5C 30.0825,47.7784 29.4158,47.2784 28.5,47C 30.5675,46.3131 32.5675,46.4798 34.5,47.5C 35.1411,46.0065 36.1411,45.0065 37.5,44.5 Z"/></g>
<g><path style="opacity:1" fill="#4848e6" d="M 214.5,55.5 C 214.5,56.5 214.5,57.5 214.5,58.5C 213.167,58.5 211.833,58.5 210.5,58.5C 206.119,58.6282 201.785,58.2949 197.5,57.5C 196.833,57.5 196.167,57.5 195.5,57.5C 194.791,56.596 193.791,56.2627 192.5,56.5C 196.288,48.5202 200.288,40.5202 204.5,32.5C 205.728,30.679 207.394,29.679 209.5,29.5C 211.352,38.1314 213.019,46.7981 214.5,55.5 Z"/></g>
<g><path style="opacity:1" fill="#98c9fe" d="M 206.5,33.5 C 207.649,33.7911 208.316,34.6244 208.5,36C 209.783,42.8657 211.116,49.6991 212.5,56.5C 207.187,55.9022 201.854,55.5688 196.5,55.5C 196.343,54.1266 196.51,52.7932 197,51.5C 200.459,45.5965 203.626,39.5965 206.5,33.5 Z"/></g>
<g><path style="opacity:1" fill="#7c79e8" d="M 214.5,55.5 C 215.434,56.5676 215.768,57.901 215.5,59.5C 213.585,59.7845 211.919,59.4511 210.5,58.5C 211.833,58.5 213.167,58.5 214.5,58.5C 214.5,57.5 214.5,56.5 214.5,55.5 Z"/></g>
<g><path style="opacity:1" fill="#458c42" d="M 195.5,57.5 C 196.167,57.5 196.833,57.5 197.5,57.5C 188.612,72.7136 178.945,87.3803 168.5,101.5C 166.088,101.306 165.088,99.9726 165.5,97.5C 166.151,98.0906 166.818,98.7573 167.5,99.5C 177.218,85.7771 186.551,71.7771 195.5,57.5 Z"/></g>
<g><path style="opacity:1" fill="#5254e9" d="M 128.5,85.5 C 127.075,83.9689 126.409,84.3023 126.5,86.5C 125.85,86.1961 125.183,85.8627 124.5,85.5C 122.374,92.3394 121.041,99.3394 120.5,106.5C 122.167,106.5 123.833,106.5 125.5,106.5C 123.052,107.473 120.385,107.806 117.5,107.5C 119.106,98.551 120.939,89.551 123,80.5C 123.718,79.5494 124.551,79.3828 125.5,80C 126.758,81.7409 127.758,83.5742 128.5,85.5 Z"/></g>
<g><path style="opacity:1" fill="#9acbfe" d="M 126.5,86.5 C 129.821,92.4728 133.155,98.4728 136.5,104.5C 132.973,105.921 129.306,106.588 125.5,106.5C 123.833,106.5 122.167,106.5 120.5,106.5C 121.041,99.3394 122.374,92.3394 124.5,85.5C 125.183,85.8627 125.85,86.1961 126.5,86.5 Z"/></g>
<g><path style="opacity:1" fill="#3d3ee4" d="M 128.5,85.5 C 131.248,90.6657 134.248,95.6657 137.5,100.5C 137.557,101.609 137.89,102.609 138.5,103.5C 138.67,104.822 138.337,105.989 137.5,107C 132.352,107.963 127.185,108.796 122,109.5C 120.014,109.431 118.514,108.765 117.5,107.5C 120.385,107.806 123.052,107.473 125.5,106.5C 129.306,106.588 132.973,105.921 136.5,104.5C 133.155,98.4728 129.821,92.4728 126.5,86.5C 126.409,84.3023 127.075,83.9689 128.5,85.5 Z"/></g>
<g><path style="opacity:1" fill="#83b782" d="M 165.5,97.5 C 164.849,96.9094 164.182,96.2427 163.5,95.5C 162.818,96.2427 162.151,96.9094 161.5,97.5C 161.5,96.5 161.5,95.5 161.5,94.5C 162.833,94.5 164.167,94.5 165.5,94.5C 165.5,95.5 165.5,96.5 165.5,97.5 Z"/></g>
<g><path style="opacity:1" fill="#9fb4af" d="M 283.5,77.5 C 284.117,77.6107 284.617,77.944 285,78.5C 286.884,87.415 288.05,96.415 288.5,105.5C 287.175,114.856 286.175,124.356 285.5,134C 285.431,135.986 284.765,137.486 283.5,138.5C 283.062,137.494 282.396,137.494 281.5,138.5C 286.462,119.009 286.796,99.3425 282.5,79.5C 283.338,79.1583 283.672,78.4916 283.5,77.5 Z"/></g>
<g><path style="opacity:1" fill="#4aa047" d="M 165.5,97.5 C 165.088,99.9726 166.088,101.306 168.5,101.5C 168.424,105.384 169.09,109.05 170.5,112.5C 171.095,115.317 172.428,117.65 174.5,119.5C 174.5,120.833 174.5,122.167 174.5,123.5C 167.167,123.5 159.833,123.5 152.5,123.5C 153.546,121.118 153.546,118.785 152.5,116.5C 154.732,113.924 156.065,110.924 156.5,107.5C 150.494,106.165 144.494,104.832 138.5,103.5C 137.89,102.609 137.557,101.609 137.5,100.5C 144.123,102.237 150.623,104.237 157,106.5C 158.652,103.492 160.152,100.492 161.5,97.5C 162.151,96.9094 162.818,96.2427 163.5,95.5C 164.182,96.2427 164.849,96.9094 165.5,97.5 Z"/></g>
<g><path style="opacity:1" fill="#caf9ca" d="M 162.5,100.5 C 163.75,100.577 164.583,101.244 165,102.5C 167.326,108.816 169.493,115.149 171.5,121.5C 166.167,121.5 160.833,121.5 155.5,121.5C 157.221,114.337 159.554,107.337 162.5,100.5 Z"/></g>
<g><path style="opacity:1" fill="#fd2b21" d="M 170.5,112.5 C 182.777,120.267 194.944,128.267 207,136.5C 208.333,135.167 209.667,133.833 211,132.5C 211.5,132.667 212,132.833 212.5,133C 215.544,137.588 218.71,142.088 222,146.5C 222.483,147.448 222.649,148.448 222.5,149.5C 217.585,148.117 212.585,147.117 207.5,146.5C 206.432,145.566 205.099,145.232 203.5,145.5C 203.5,144.5 203.5,143.5 203.5,142.5C 204.791,141.458 204.791,140.292 203.5,139C 193.805,132.49 184.138,125.99 174.5,119.5C 172.428,117.65 171.095,115.317 170.5,112.5 Z"/></g>
<g><path style="opacity:1" fill="#468c44" d="M 152.5,116.5 C 153.546,118.785 153.546,121.118 152.5,123.5C 151.842,122.602 151.176,121.602 150.5,120.5C 129.08,137.266 107.413,153.6 85.5,169.5C 85.5,168.833 85.5,168.167 85.5,167.5C 108.013,150.743 130.346,133.743 152.5,116.5 Z"/></g>
<g><path style="opacity:1" fill="#f59b99" d="M 203.5,142.5 C 203.5,143.5 203.5,144.5 203.5,145.5C 205.099,145.232 206.432,145.566 207.5,146.5C 205.533,146.739 203.699,146.406 202,145.5C 201.415,144.002 201.915,143.002 203.5,142.5 Z"/></g>
<g><path style="opacity:1" fill="#4445e6" d="M 85.5,167.5 C 85.5,168.167 85.5,168.833 85.5,169.5C 85.2786,172.279 85.612,174.946 86.5,177.5C 86.5,180.5 86.5,183.5 86.5,186.5C 84.8333,186.5 83.1667,186.5 81.5,186.5C 78.1667,185.833 74.8333,185.167 71.5,184.5C 69.7857,183.262 67.7857,182.595 65.5,182.5C 65.5,181.5 65.5,180.5 65.5,179.5C 70.9466,172.117 76.2799,164.617 81.5,157C 82.4835,156.409 83.1501,156.743 83.5,158C 84.2223,161.171 84.8889,164.338 85.5,167.5 Z"/></g>
<g><path style="opacity:1" fill="#9acbfe" d="M 81.5,160.5 C 82.6895,168.338 83.6895,176.338 84.5,184.5C 79.0973,183.711 73.7639,182.711 68.5,181.5C 68.3505,180.448 68.5172,179.448 69,178.5C 73.423,172.645 77.5897,166.645 81.5,160.5 Z"/></g>
<g><path style="opacity:1" fill="#939998" d="M 283.5,138.5 C 283.326,141.874 282.826,145.207 282,148.5C 272.93,171.584 259.097,191.417 240.5,208C 235.603,210.608 230.937,213.441 226.5,216.5C 225.5,216.5 224.5,216.5 223.5,216.5C 249.55,200.613 267.717,178.28 278,149.5C 280.544,146.339 281.711,142.673 281.5,138.5C 282.396,137.494 283.062,137.494 283.5,138.5 Z"/></g>
<g><path style="opacity:1" fill="#746ce6" d="M 86.5,177.5 C 87.4794,180.625 87.8128,183.958 87.5,187.5C 85.2646,187.795 83.2646,187.461 81.5,186.5C 83.1667,186.5 84.8333,186.5 86.5,186.5C 86.5,183.5 86.5,180.5 86.5,177.5 Z"/></g>
<g><path style="opacity:1" fill="#9acbfe" d="M 303.5,202.5 C 300.14,202.616 296.807,202.949 293.5,203.5C 293.674,201.139 294.007,198.806 294.5,196.5C 295.212,191.653 296.545,186.986 298.5,182.5C 303.225,188.619 306.891,195.285 309.5,202.5C 307.5,202.5 305.5,202.5 303.5,202.5 Z"/></g>
<g><path style="opacity:1" fill="#3d45e9" d="M 304.5,204.5 C 302.473,204.662 300.473,204.495 298.5,204C 300.382,203.802 302.048,203.302 303.5,202.5C 305.5,202.5 307.5,202.5 309.5,202.5C 306.891,195.285 303.225,188.619 298.5,182.5C 296.545,186.986 295.212,191.653 294.5,196.5C 293.075,198.031 292.409,197.698 292.5,195.5C 293.961,189.275 294.961,182.941 295.5,176.5C 296.833,176.5 298.167,176.5 299.5,176.5C 304.033,185.449 308.366,194.449 312.5,203.5C 309.873,204.092 307.206,204.425 304.5,204.5 Z"/></g>
<g><path style="opacity:1" fill="#262ae6" d="M 290.5,205.5 C 290.5,204.833 290.5,204.167 290.5,203.5C 291.29,202.391 291.79,201.058 292,199.5C 292.251,201.433 292.751,203.266 293.5,205C 292.552,205.483 291.552,205.649 290.5,205.5 Z"/></g>
<g><path style="opacity:1" fill="#5a6cef" d="M 292.5,195.5 C 292.409,197.698 293.075,198.031 294.5,196.5C 294.007,198.806 293.674,201.139 293.5,203.5C 296.807,202.949 300.14,202.616 303.5,202.5C 302.048,203.302 300.382,203.802 298.5,204C 300.473,204.495 302.473,204.662 304.5,204.5C 299.913,206.456 295.246,206.789 290.5,205.5C 291.552,205.649 292.552,205.483 293.5,205C 292.751,203.266 292.251,201.433 292,199.5C 291.79,201.058 291.29,202.391 290.5,203.5C 290.294,200.505 290.96,197.838 292.5,195.5 Z"/></g>
</svg>
